ISO-10303-21;
HEADER;
/* Generated by software containing ST-Developer
 * from STEP Tools, Inc. (www.steptools.com) 
 */

FILE_DESCRIPTION(
/* description */ (''),
/* implementation_level */ '2;1');

FILE_NAME(
/* name */ 'final arm to claw link.step',
/* time_stamp */ '2026-08-10T21:31:06-05:00',
/* author */ (''),
/* organization */ (''),
/* preprocessor_version */ 'ST-DEVELOPER v20.1',
/* originating_system */ 'Autodesk Translation Framework v15.8.0.0',
/* authorisation */ '');

FILE_SCHEMA (('AUTOMOTIVE_DESIGN { 1 0 10303 214 3 1 1 }'));
ENDSEC;

DATA;
#10=MECHANICAL_DESIGN_GEOMETRIC_PRESENTATION_REPRESENTATION('',(#13),#1832);
#11=SHAPE_REPRESENTATION_RELATIONSHIP('SRR','None',#1839,#12);
#12=ADVANCED_BREP_SHAPE_REPRESENTATION('',(#14),#1831);
#13=STYLED_ITEM('',(#1848),#14);
#14=MANIFOLD_SOLID_BREP('Body1',#1111);
#15=B_SPLINE_CURVE_WITH_KNOTS('',3,(#1611,#1612,#1613,#1614,#1615,#1616,
#1617,#1618,#1619,#1620,#1621,#1622,#1623,#1624,#1625,#1626,#1627,#1628,
#1629,#1630,#1631,#1632,#1633,#1634,#1635,#1636),.UNSPECIFIED.,.F.,.F.,
(4,2,2,2,2,2,2,2,2,2,2,2,4),(0.,0.0369917665089888,0.0739835330179775,0.113264560551281,
0.152545588084584,0.191916932657164,0.231288277229743,0.268290164687355,
0.305292052144967,0.342293939602579,0.379295827060191,0.418667171632771,
0.458038516205351),.UNSPECIFIED.);
#16=B_SPLINE_CURVE_WITH_KNOTS('',3,(#1637,#1638,#1639,#1640,#1641,#1642,
#1643,#1644,#1645,#1646),.UNSPECIFIED.,.F.,.F.,(4,2,2,2,4),(0.458038516205351,
0.497319543738654,0.536600571271957,0.573592337780946,0.610584104289935),
 .UNSPECIFIED.);
#17=FACE_BOUND('',#135,.T.);
#18=FACE_BOUND('',#137,.T.);
#19=FACE_BOUND('',#138,.T.);
#20=FACE_BOUND('',#144,.T.);
#21=FACE_BOUND('',#149,.T.);
#22=FACE_BOUND('',#151,.T.);
#23=FACE_BOUND('',#153,.T.);
#24=FACE_BOUND('',#158,.T.);
#25=FACE_BOUND('',#167,.T.);
#26=FACE_BOUND('',#168,.T.);
#27=FACE_BOUND('',#173,.T.);
#28=FACE_BOUND('',#174,.T.);
#29=FACE_BOUND('',#176,.T.);
#30=FACE_BOUND('',#177,.T.);
#31=FACE_BOUND('',#180,.T.);
#32=FACE_BOUND('',#183,.T.);
#33=FACE_BOUND('',#184,.T.);
#34=FACE_BOUND('',#189,.T.);
#35=FACE_BOUND('',#190,.T.);
#36=FACE_BOUND('',#192,.T.);
#37=FACE_BOUND('',#194,.T.);
#38=CIRCLE('',#1127,55.4000008255243);
#39=CIRCLE('',#1128,55.4000008255243);
#40=CIRCLE('',#1133,13.4715343055662);
#41=CIRCLE('',#1136,13.4715343055662);
#42=CIRCLE('',#1140,121.173070346792);
#43=CIRCLE('',#1141,121.173070346792);
#44=CIRCLE('',#1142,13.4715343055662);
#45=CIRCLE('',#1147,121.173070346792);
#46=CIRCLE('',#1148,121.173070346792);
#47=CIRCLE('',#1149,121.173070346792);
#48=CIRCLE('',#1151,121.173070346792);
#49=CIRCLE('',#1152,121.173070346792);
#50=CIRCLE('',#1153,121.173070346792);
#51=CIRCLE('',#1159,0.984885758165698);
#52=CIRCLE('',#1173,2.01103034694317);
#53=CIRCLE('',#1174,1.91049727475134);
#54=CIRCLE('',#1177,1.91049727475134);
#55=CIRCLE('',#1179,2.01103034694317);
#56=CIRCLE('',#1182,13.4715343055662);
#57=CIRCLE('',#1187,2.05272432930247);
#58=CIRCLE('',#1188,2.06914991781133);
#59=CIRCLE('',#1190,2.06914991781133);
#60=CIRCLE('',#1192,2.05272432930247);
#61=CIRCLE('',#1196,1.02956299108617);
#62=CIRCLE('',#1198,1.02956299108617);
#63=CYLINDRICAL_SURFACE('',#1126,55.4000008255243);
#64=CYLINDRICAL_SURFACE('',#1146,121.173070346792);
#65=CYLINDRICAL_SURFACE('',#1150,121.173070346792);
#66=CYLINDRICAL_SURFACE('',#1161,0.984885758165698);
#67=CYLINDRICAL_SURFACE('',#1176,1.91049727475134);
#68=CYLINDRICAL_SURFACE('',#1178,2.01103034694317);
#69=CYLINDRICAL_SURFACE('',#1184,13.4715343055662);
#70=CYLINDRICAL_SURFACE('',#1189,2.06914991781133);
#71=CYLINDRICAL_SURFACE('',#1191,2.05272432930247);
#72=CYLINDRICAL_SURFACE('',#1201,1.02956299108617);
#73=FACE_OUTER_BOUND('',#125,.T.);
#74=FACE_OUTER_BOUND('',#126,.T.);
#75=FACE_OUTER_BOUND('',#127,.T.);
#76=FACE_OUTER_BOUND('',#128,.T.);
#77=FACE_OUTER_BOUND('',#129,.T.);
#78=FACE_OUTER_BOUND('',#130,.T.);
#79=FACE_OUTER_BOUND('',#131,.T.);
#80=FACE_OUTER_BOUND('',#132,.T.);
#81=FACE_OUTER_BOUND('',#133,.T.);
#82=FACE_OUTER_BOUND('',#134,.T.);
#83=FACE_OUTER_BOUND('',#136,.T.);
#84=FACE_OUTER_BOUND('',#139,.T.);
#85=FACE_OUTER_BOUND('',#140,.T.);
#86=FACE_OUTER_BOUND('',#141,.T.);
#87=FACE_OUTER_BOUND('',#142,.T.);
#88=FACE_OUTER_BOUND('',#143,.T.);
#89=FACE_OUTER_BOUND('',#145,.T.);
#90=FACE_OUTER_BOUND('',#146,.T.);
#91=FACE_OUTER_BOUND('',#147,.T.);
#92=FACE_OUTER_BOUND('',#148,.T.);
#93=FACE_OUTER_BOUND('',#150,.T.);
#94=FACE_OUTER_BOUND('',#152,.T.);
#95=FACE_OUTER_BOUND('',#154,.T.);
#96=FACE_OUTER_BOUND('',#155,.T.);
#97=FACE_OUTER_BOUND('',#156,.T.);
#98=FACE_OUTER_BOUND('',#157,.T.);
#99=FACE_OUTER_BOUND('',#159,.T.);
#100=FACE_OUTER_BOUND('',#160,.T.);
#101=FACE_OUTER_BOUND('',#161,.T.);
#102=FACE_OUTER_BOUND('',#162,.T.);
#103=FACE_OUTER_BOUND('',#163,.T.);
#104=FACE_OUTER_BOUND('',#164,.T.);
#105=FACE_OUTER_BOUND('',#165,.T.);
#106=FACE_OUTER_BOUND('',#166,.T.);
#107=FACE_OUTER_BOUND('',#169,.T.);
#108=FACE_OUTER_BOUND('',#170,.T.);
#109=FACE_OUTER_BOUND('',#171,.T.);
#110=FACE_OUTER_BOUND('',#172,.T.);
#111=FACE_OUTER_BOUND('',#175,.T.);
#112=FACE_OUTER_BOUND('',#178,.T.);
#113=FACE_OUTER_BOUND('',#179,.T.);
#114=FACE_OUTER_BOUND('',#181,.T.);
#115=FACE_OUTER_BOUND('',#182,.T.);
#116=FACE_OUTER_BOUND('',#185,.T.);
#117=FACE_OUTER_BOUND('',#186,.T.);
#118=FACE_OUTER_BOUND('',#187,.T.);
#119=FACE_OUTER_BOUND('',#188,.T.);
#120=FACE_OUTER_BOUND('',#191,.T.);
#121=FACE_OUTER_BOUND('',#193,.T.);
#122=FACE_OUTER_BOUND('',#195,.T.);
#123=FACE_OUTER_BOUND('',#196,.T.);
#124=FACE_OUTER_BOUND('',#197,.T.);
#125=EDGE_LOOP('',(#709,#710,#711,#712));
#126=EDGE_LOOP('',(#713,#714,#715,#716));
#127=EDGE_LOOP('',(#717,#718,#719,#720));
#128=EDGE_LOOP('',(#721,#722,#723,#724));
#129=EDGE_LOOP('',(#725,#726,#727,#728));
#130=EDGE_LOOP('',(#729,#730,#731,#732));
#131=EDGE_LOOP('',(#733,#734,#735,#736));
#132=EDGE_LOOP('',(#737,#738,#739,#740));
#133=EDGE_LOOP('',(#741,#742,#743,#744));
#134=EDGE_LOOP('',(#745,#746,#747,#748));
#135=EDGE_LOOP('',(#749,#750,#751,#752));
#136=EDGE_LOOP('',(#753,#754,#755,#756,#757,#758,#759,#760));
#137=EDGE_LOOP('',(#761,#762,#763,#764,#765));
#138=EDGE_LOOP('',(#766,#767,#768,#769));
#139=EDGE_LOOP('',(#770,#771,#772,#773));
#140=EDGE_LOOP('',(#774,#775,#776,#777));
#141=EDGE_LOOP('',(#778,#779,#780,#781));
#142=EDGE_LOOP('',(#782,#783,#784,#785,#786,#787,#788,#789));
#143=EDGE_LOOP('',(#790,#791,#792,#793,#794,#795,#796,#797));
#144=EDGE_LOOP('',(#798,#799));
#145=EDGE_LOOP('',(#800,#801,#802,#803));
#146=EDGE_LOOP('',(#804,#805,#806,#807));
#147=EDGE_LOOP('',(#808,#809,#810,#811));
#148=EDGE_LOOP('',(#812,#813,#814,#815,#816,#817,#818,#819,#820,#821));
#149=EDGE_LOOP('',(#822,#823,#824,#825));
#150=EDGE_LOOP('',(#826,#827,#828,#829));
#151=EDGE_LOOP('',(#830));
#152=EDGE_LOOP('',(#831,#832,#833,#834,#835,#836,#837,#838,#839,#840));
#153=EDGE_LOOP('',(#841,#842,#843,#844));
#154=EDGE_LOOP('',(#845,#846,#847,#848,#849));
#155=EDGE_LOOP('',(#850,#851,#852,#853));
#156=EDGE_LOOP('',(#854,#855,#856,#857));
#157=EDGE_LOOP('',(#858,#859,#860,#861));
#158=EDGE_LOOP('',(#862,#863,#864,#865));
#159=EDGE_LOOP('',(#866,#867,#868,#869));
#160=EDGE_LOOP('',(#870,#871,#872,#873));
#161=EDGE_LOOP('',(#874,#875,#876,#877));
#162=EDGE_LOOP('',(#878,#879,#880,#881));
#163=EDGE_LOOP('',(#882,#883,#884,#885));
#164=EDGE_LOOP('',(#886,#887,#888,#889,#890,#891,#892,#893,#894,#895,#896,
#897));
#165=EDGE_LOOP('',(#898,#899,#900,#901));
#166=EDGE_LOOP('',(#902,#903,#904,#905,#906,#907));
#167=EDGE_LOOP('',(#908));
#168=EDGE_LOOP('',(#909));
#169=EDGE_LOOP('',(#910,#911,#912,#913));
#170=EDGE_LOOP('',(#914,#915,#916,#917));
#171=EDGE_LOOP('',(#918,#919,#920,#921));
#172=EDGE_LOOP('',(#922,#923,#924,#925,#926,#927));
#173=EDGE_LOOP('',(#928));
#174=EDGE_LOOP('',(#929));
#175=EDGE_LOOP('',(#930,#931,#932,#933,#934,#935,#936,#937));
#176=EDGE_LOOP('',(#938,#939,#940,#941,#942));
#177=EDGE_LOOP('',(#943,#944,#945,#946));
#178=EDGE_LOOP('',(#947,#948,#949,#950,#951,#952,#953,#954,#955,#956,#957,
#958));
#179=EDGE_LOOP('',(#959,#960,#961,#962));
#180=EDGE_LOOP('',(#963,#964,#965,#966));
#181=EDGE_LOOP('',(#967,#968,#969,#970));
#182=EDGE_LOOP('',(#971,#972,#973,#974));
#183=EDGE_LOOP('',(#975));
#184=EDGE_LOOP('',(#976));
#185=EDGE_LOOP('',(#977,#978,#979,#980));
#186=EDGE_LOOP('',(#981,#982,#983,#984));
#187=EDGE_LOOP('',(#985,#986,#987,#988));
#188=EDGE_LOOP('',(#989,#990,#991,#992));
#189=EDGE_LOOP('',(#993));
#190=EDGE_LOOP('',(#994));
#191=EDGE_LOOP('',(#995,#996,#997,#998));
#192=EDGE_LOOP('',(#999));
#193=EDGE_LOOP('',(#1000,#1001,#1002,#1003));
#194=EDGE_LOOP('',(#1004));
#195=EDGE_LOOP('',(#1005,#1006,#1007,#1008));
#196=EDGE_LOOP('',(#1009,#1010,#1011,#1012));
#197=EDGE_LOOP('',(#1013,#1014,#1015,#1016));
#198=LINE('',#1489,#325);
#199=LINE('',#1491,#326);
#200=LINE('',#1493,#327);
#201=LINE('',#1494,#328);
#202=LINE('',#1500,#329);
#203=LINE('',#1503,#330);
#204=LINE('',#1505,#331);
#205=LINE('',#1506,#332);
#206=LINE('',#1509,#333);
#207=LINE('',#1511,#334);
#208=LINE('',#1512,#335);
#209=LINE('',#1514,#336);
#210=LINE('',#1515,#337);
#211=LINE('',#1521,#338);
#212=LINE('',#1523,#339);
#213=LINE('',#1524,#340);
#214=LINE('',#1527,#341);
#215=LINE('',#1529,#342);
#216=LINE('',#1530,#343);
#217=LINE('',#1535,#344);
#218=LINE('',#1536,#345);
#219=LINE('',#1538,#346);
#220=LINE('',#1539,#347);
#221=LINE('',#1543,#348);
#222=LINE('',#1545,#349);
#223=LINE('',#1547,#350);
#224=LINE('',#1548,#351);
#225=LINE('',#1554,#352);
#226=LINE('',#1556,#353);
#227=LINE('',#1558,#354);
#228=LINE('',#1562,#355);
#229=LINE('',#1565,#356);
#230=LINE('',#1567,#357);
#231=LINE('',#1569,#358);
#232=LINE('',#1570,#359);
#233=LINE('',#1573,#360);
#234=LINE('',#1575,#361);
#235=LINE('',#1576,#362);
#236=LINE('',#1579,#363);
#237=LINE('',#1580,#364);
#238=LINE('',#1583,#365);
#239=LINE('',#1584,#366);
#240=LINE('',#1587,#367);
#241=LINE('',#1591,#368);
#242=LINE('',#1595,#369);
#243=LINE('',#1601,#370);
#244=LINE('',#1605,#371);
#245=LINE('',#1608,#372);
#246=LINE('',#1650,#373);
#247=LINE('',#1652,#374);
#248=LINE('',#1654,#375);
#249=LINE('',#1655,#376);
#250=LINE('',#1657,#377);
#251=LINE('',#1658,#378);
#252=LINE('',#1660,#379);
#253=LINE('',#1661,#380);
#254=LINE('',#1664,#381);
#255=LINE('',#1666,#382);
#256=LINE('',#1668,#383);
#257=LINE('',#1670,#384);
#258=LINE('',#1671,#385);
#259=LINE('',#1674,#386);
#260=LINE('',#1676,#387);
#261=LINE('',#1678,#388);
#262=LINE('',#1679,#389);
#263=LINE('',#1682,#390);
#264=LINE('',#1684,#391);
#265=LINE('',#1685,#392);
#266=LINE('',#1691,#393);
#267=LINE('',#1692,#394);
#268=LINE('',#1693,#395);
#269=LINE('',#1694,#396);
#270=LINE('',#1697,#397);
#271=LINE('',#1699,#398);
#272=LINE('',#1701,#399);
#273=LINE('',#1702,#400);
#274=LINE('',#1704,#401);
#275=LINE('',#1706,#402);
#276=LINE('',#1708,#403);
#277=LINE('',#1711,#404);
#278=LINE('',#1712,#405);
#279=LINE('',#1717,#406);
#280=LINE('',#1719,#407);
#281=LINE('',#1721,#408);
#282=LINE('',#1722,#409);
#283=LINE('',#1726,#410);
#284=LINE('',#1727,#411);
#285=LINE('',#1728,#412);
#286=LINE('',#1732,#413);
#287=LINE('',#1734,#414);
#288=LINE('',#1736,#415);
#289=LINE('',#1737,#416);
#290=LINE('',#1741,#417);
#291=LINE('',#1743,#418);
#292=LINE('',#1745,#419);
#293=LINE('',#1746,#420);
#294=LINE('',#1749,#421);
#295=LINE('',#1750,#422);
#296=LINE('',#1751,#423);
#297=LINE('',#1752,#424);
#298=LINE('',#1754,#425);
#299=LINE('',#1755,#426);
#300=LINE('',#1759,#427);
#301=LINE('',#1761,#428);
#302=LINE('',#1763,#429);
#303=LINE('',#1764,#430);
#304=LINE('',#1766,#431);
#305=LINE('',#1767,#432);
#306=LINE('',#1773,#433);
#307=LINE('',#1776,#434);
#308=LINE('',#1780,#435);
#309=LINE('',#1783,#436);
#310=LINE('',#1787,#437);
#311=LINE('',#1788,#438);
#312=LINE('',#1791,#439);
#313=LINE('',#1793,#440);
#314=LINE('',#1794,#441);
#315=LINE('',#1796,#442);
#316=LINE('',#1799,#443);
#317=LINE('',#1807,#444);
#318=LINE('',#1811,#445);
#319=LINE('',#1813,#446);
#320=LINE('',#1816,#447);
#321=LINE('',#1817,#448);
#322=LINE('',#1821,#449);
#323=LINE('',#1822,#450);
#324=LINE('',#1828,#451);
#325=VECTOR('',#1206,10.);
#326=VECTOR('',#1207,10.);
#327=VECTOR('',#1208,10.);
#328=VECTOR('',#1209,10.);
#329=VECTOR('',#1216,10.);
#330=VECTOR('',#1219,10.);
#331=VECTOR('',#1220,10.);
#332=VECTOR('',#1221,10.);
#333=VECTOR('',#1224,10.);
#334=VECTOR('',#1225,10.);
#335=VECTOR('',#1226,10.);
#336=VECTOR('',#1229,10.);
#337=VECTOR('',#1230,10.);
#338=VECTOR('',#1235,10.);
#339=VECTOR('',#1236,10.);
#340=VECTOR('',#1237,10.);
#341=VECTOR('',#1240,10.);
#342=VECTOR('',#1241,10.);
#343=VECTOR('',#1242,10.);
#344=VECTOR('',#1247,10.);
#345=VECTOR('',#1248,10.);
#346=VECTOR('',#1251,10.);
#347=VECTOR('',#1252,10.);
#348=VECTOR('',#1255,10.);
#349=VECTOR('',#1256,10.);
#350=VECTOR('',#1257,10.);
#351=VECTOR('',#1258,10.);
#352=VECTOR('',#1263,10.);
#353=VECTOR('',#1264,10.);
#354=VECTOR('',#1265,10.);
#355=VECTOR('',#1268,10.);
#356=VECTOR('',#1271,10.);
#357=VECTOR('',#1272,10.);
#358=VECTOR('',#1273,10.);
#359=VECTOR('',#1274,10.);
#360=VECTOR('',#1277,10.);
#361=VECTOR('',#1278,10.);
#362=VECTOR('',#1279,10.);
#363=VECTOR('',#1282,10.);
#364=VECTOR('',#1283,10.);
#365=VECTOR('',#1286,10.);
#366=VECTOR('',#1287,10.);
#367=VECTOR('',#1290,10.);
#368=VECTOR('',#1293,10.);
#369=VECTOR('',#1296,10.);
#370=VECTOR('',#1303,10.);
#371=VECTOR('',#1306,10.);
#372=VECTOR('',#1309,10.);
#373=VECTOR('',#1312,10.);
#374=VECTOR('',#1313,10.);
#375=VECTOR('',#1314,10.);
#376=VECTOR('',#1315,10.);
#377=VECTOR('',#1318,10.);
#378=VECTOR('',#1319,10.);
#379=VECTOR('',#1322,10.);
#380=VECTOR('',#1323,10.);
#381=VECTOR('',#1326,10.);
#382=VECTOR('',#1327,10.);
#383=VECTOR('',#1328,10.);
#384=VECTOR('',#1329,10.);
#385=VECTOR('',#1330,10.);
#386=VECTOR('',#1331,10.);
#387=VECTOR('',#1332,10.);
#388=VECTOR('',#1333,10.);
#389=VECTOR('',#1334,10.);
#390=VECTOR('',#1337,10.);
#391=VECTOR('',#1338,10.);
#392=VECTOR('',#1339,10.);
#393=VECTOR('',#1344,10.);
#394=VECTOR('',#1345,10.);
#395=VECTOR('',#1346,10.);
#396=VECTOR('',#1347,10.);
#397=VECTOR('',#1348,10.);
#398=VECTOR('',#1349,10.);
#399=VECTOR('',#1350,10.);
#400=VECTOR('',#1351,10.);
#401=VECTOR('',#1354,0.984885758165698);
#402=VECTOR('',#1357,10.);
#403=VECTOR('',#1360,10.);
#404=VECTOR('',#1363,10.);
#405=VECTOR('',#1364,10.);
#406=VECTOR('',#1369,10.);
#407=VECTOR('',#1370,10.);
#408=VECTOR('',#1371,10.);
#409=VECTOR('',#1372,10.);
#410=VECTOR('',#1375,10.);
#411=VECTOR('',#1376,10.);
#412=VECTOR('',#1377,10.);
#413=VECTOR('',#1380,10.);
#414=VECTOR('',#1381,10.);
#415=VECTOR('',#1382,10.);
#416=VECTOR('',#1383,10.);
#417=VECTOR('',#1386,10.);
#418=VECTOR('',#1387,10.);
#419=VECTOR('',#1388,10.);
#420=VECTOR('',#1389,10.);
#421=VECTOR('',#1392,10.);
#422=VECTOR('',#1393,10.);
#423=VECTOR('',#1394,10.);
#424=VECTOR('',#1395,10.);
#425=VECTOR('',#1396,10.);
#426=VECTOR('',#1397,10.);
#427=VECTOR('',#1400,10.);
#428=VECTOR('',#1401,10.);
#429=VECTOR('',#1402,10.);
#430=VECTOR('',#1403,10.);
#431=VECTOR('',#1406,10.);
#432=VECTOR('',#1407,10.);
#433=VECTOR('',#1414,10.);
#434=VECTOR('',#1417,1.91049727475134);
#435=VECTOR('',#1422,2.01103034694317);
#436=VECTOR('',#1427,10.);
#437=VECTOR('',#1432,10.);
#438=VECTOR('',#1433,10.);
#439=VECTOR('',#1436,10.);
#440=VECTOR('',#1437,10.);
#441=VECTOR('',#1438,10.);
#442=VECTOR('',#1441,10.);
#443=VECTOR('',#1446,10.);
#444=VECTOR('',#1455,2.06914991781133);
#445=VECTOR('',#1460,2.05272432930247);
#446=VECTOR('',#1463,10.);
#447=VECTOR('',#1468,10.);
#448=VECTOR('',#1469,10.);
#449=VECTOR('',#1474,10.);
#450=VECTOR('',#1475,10.);
#451=VECTOR('',#1484,1.02956299108617);
#452=VERTEX_POINT('',#1487);
#453=VERTEX_POINT('',#1488);
#454=VERTEX_POINT('',#1490);
#455=VERTEX_POINT('',#1492);
#456=VERTEX_POINT('',#1496);
#457=VERTEX_POINT('',#1498);
#458=VERTEX_POINT('',#1502);
#459=VERTEX_POINT('',#1504);
#460=VERTEX_POINT('',#1508);
#461=VERTEX_POINT('',#1510);
#462=VERTEX_POINT('',#1517);
#463=VERTEX_POINT('',#1518);
#464=VERTEX_POINT('',#1520);
#465=VERTEX_POINT('',#1522);
#466=VERTEX_POINT('',#1526);
#467=VERTEX_POINT('',#1528);
#468=VERTEX_POINT('',#1532);
#469=VERTEX_POINT('',#1534);
#470=VERTEX_POINT('',#1541);
#471=VERTEX_POINT('',#1542);
#472=VERTEX_POINT('',#1544);
#473=VERTEX_POINT('',#1546);
#474=VERTEX_POINT('',#1550);
#475=VERTEX_POINT('',#1551);
#476=VERTEX_POINT('',#1553);
#477=VERTEX_POINT('',#1555);
#478=VERTEX_POINT('',#1557);
#479=VERTEX_POINT('',#1559);
#480=VERTEX_POINT('',#1561);
#481=VERTEX_POINT('',#1563);
#482=VERTEX_POINT('',#1566);
#483=VERTEX_POINT('',#1568);
#484=VERTEX_POINT('',#1572);
#485=VERTEX_POINT('',#1574);
#486=VERTEX_POINT('',#1578);
#487=VERTEX_POINT('',#1582);
#488=VERTEX_POINT('',#1586);
#489=VERTEX_POINT('',#1588);
#490=VERTEX_POINT('',#1590);
#491=VERTEX_POINT('',#1592);
#492=VERTEX_POINT('',#1594);
#493=VERTEX_POINT('',#1598);
#494=VERTEX_POINT('',#1600);
#495=VERTEX_POINT('',#1602);
#496=VERTEX_POINT('',#1604);
#497=VERTEX_POINT('',#1606);
#498=VERTEX_POINT('',#1609);
#499=VERTEX_POINT('',#1610);
#500=VERTEX_POINT('',#1648);
#501=VERTEX_POINT('',#1649);
#502=VERTEX_POINT('',#1651);
#503=VERTEX_POINT('',#1653);
#504=VERTEX_POINT('',#1663);
#505=VERTEX_POINT('',#1665);
#506=VERTEX_POINT('',#1667);
#507=VERTEX_POINT('',#1669);
#508=VERTEX_POINT('',#1672);
#509=VERTEX_POINT('',#1673);
#510=VERTEX_POINT('',#1675);
#511=VERTEX_POINT('',#1677);
#512=VERTEX_POINT('',#1681);
#513=VERTEX_POINT('',#1683);
#514=VERTEX_POINT('',#1686);
#515=VERTEX_POINT('',#1689);
#516=VERTEX_POINT('',#1690);
#517=VERTEX_POINT('',#1695);
#518=VERTEX_POINT('',#1696);
#519=VERTEX_POINT('',#1698);
#520=VERTEX_POINT('',#1700);
#521=VERTEX_POINT('',#1710);
#522=VERTEX_POINT('',#1715);
#523=VERTEX_POINT('',#1716);
#524=VERTEX_POINT('',#1718);
#525=VERTEX_POINT('',#1720);
#526=VERTEX_POINT('',#1724);
#527=VERTEX_POINT('',#1725);
#528=VERTEX_POINT('',#1730);
#529=VERTEX_POINT('',#1731);
#530=VERTEX_POINT('',#1733);
#531=VERTEX_POINT('',#1735);
#532=VERTEX_POINT('',#1739);
#533=VERTEX_POINT('',#1740);
#534=VERTEX_POINT('',#1742);
#535=VERTEX_POINT('',#1744);
#536=VERTEX_POINT('',#1748);
#537=VERTEX_POINT('',#1753);
#538=VERTEX_POINT('',#1757);
#539=VERTEX_POINT('',#1758);
#540=VERTEX_POINT('',#1760);
#541=VERTEX_POINT('',#1762);
#542=VERTEX_POINT('',#1768);
#543=VERTEX_POINT('',#1770);
#544=VERTEX_POINT('',#1775);
#545=VERTEX_POINT('',#1779);
#546=VERTEX_POINT('',#1785);
#547=VERTEX_POINT('',#1790);
#548=VERTEX_POINT('',#1792);
#549=VERTEX_POINT('',#1800);
#550=VERTEX_POINT('',#1802);
#551=VERTEX_POINT('',#1805);
#552=VERTEX_POINT('',#1809);
#553=VERTEX_POINT('',#1818);
#554=VERTEX_POINT('',#1823);
#555=EDGE_CURVE('',#452,#453,#198,.T.);
#556=EDGE_CURVE('',#454,#452,#199,.T.);
#557=EDGE_CURVE('',#455,#454,#200,.T.);
#558=EDGE_CURVE('',#455,#453,#201,.T.);
#559=EDGE_CURVE('',#453,#456,#38,.T.);
#560=EDGE_CURVE('',#457,#455,#39,.T.);
#561=EDGE_CURVE('',#457,#456,#202,.T.);
#562=EDGE_CURVE('',#456,#458,#203,.T.);
#563=EDGE_CURVE('',#459,#457,#204,.T.);
#564=EDGE_CURVE('',#459,#458,#205,.T.);
#565=EDGE_CURVE('',#458,#460,#206,.T.);
#566=EDGE_CURVE('',#461,#459,#207,.T.);
#567=EDGE_CURVE('',#461,#460,#208,.T.);
#568=EDGE_CURVE('',#460,#452,#209,.T.);
#569=EDGE_CURVE('',#454,#461,#210,.T.);
#570=EDGE_CURVE('',#462,#463,#40,.T.);
#571=EDGE_CURVE('',#464,#462,#211,.T.);
#572=EDGE_CURVE('',#465,#464,#212,.T.);
#573=EDGE_CURVE('',#465,#463,#213,.T.);
#574=EDGE_CURVE('',#463,#466,#214,.T.);
#575=EDGE_CURVE('',#467,#465,#215,.T.);
#576=EDGE_CURVE('',#467,#466,#216,.T.);
#577=EDGE_CURVE('',#466,#468,#41,.T.);
#578=EDGE_CURVE('',#469,#467,#217,.T.);
#579=EDGE_CURVE('',#469,#468,#218,.T.);
#580=EDGE_CURVE('',#468,#462,#219,.T.);
#581=EDGE_CURVE('',#464,#469,#220,.T.);
#582=EDGE_CURVE('',#470,#471,#221,.T.);
#583=EDGE_CURVE('',#472,#470,#222,.T.);
#584=EDGE_CURVE('',#473,#472,#223,.T.);
#585=EDGE_CURVE('',#471,#473,#224,.T.);
#586=EDGE_CURVE('',#474,#475,#42,.T.);
#587=EDGE_CURVE('',#475,#476,#225,.T.);
#588=EDGE_CURVE('',#476,#477,#226,.T.);
#589=EDGE_CURVE('',#477,#478,#227,.T.);
#590=EDGE_CURVE('',#478,#479,#43,.T.);
#591=EDGE_CURVE('',#479,#480,#228,.T.);
#592=EDGE_CURVE('',#480,#481,#44,.T.);
#593=EDGE_CURVE('',#481,#474,#229,.T.);
#594=EDGE_CURVE('',#482,#473,#230,.T.);
#595=EDGE_CURVE('',#472,#483,#231,.T.);
#596=EDGE_CURVE('',#483,#482,#232,.T.);
#597=EDGE_CURVE('',#476,#484,#233,.T.);
#598=EDGE_CURVE('',#485,#484,#234,.T.);
#599=EDGE_CURVE('',#477,#485,#235,.T.);
#600=EDGE_CURVE('',#486,#485,#236,.T.);
#601=EDGE_CURVE('',#478,#486,#237,.T.);
#602=EDGE_CURVE('',#487,#475,#238,.T.);
#603=EDGE_CURVE('',#484,#487,#239,.T.);
#604=EDGE_CURVE('',#474,#488,#240,.T.);
#605=EDGE_CURVE('',#489,#488,#45,.T.);
#606=EDGE_CURVE('',#489,#490,#241,.T.);
#607=EDGE_CURVE('',#490,#491,#46,.T.);
#608=EDGE_CURVE('',#491,#492,#242,.T.);
#609=EDGE_CURVE('',#492,#487,#47,.T.);
#610=EDGE_CURVE('',#486,#493,#48,.T.);
#611=EDGE_CURVE('',#493,#494,#243,.T.);
#612=EDGE_CURVE('',#494,#495,#49,.T.);
#613=EDGE_CURVE('',#495,#496,#244,.T.);
#614=EDGE_CURVE('',#497,#496,#50,.T.);
#615=EDGE_CURVE('',#497,#479,#245,.T.);
#616=EDGE_CURVE('',#498,#499,#15,.T.);
#617=EDGE_CURVE('',#499,#498,#16,.T.);
#618=EDGE_CURVE('',#500,#501,#246,.T.);
#619=EDGE_CURVE('',#500,#502,#247,.T.);
#620=EDGE_CURVE('',#503,#502,#248,.T.);
#621=EDGE_CURVE('',#501,#503,#249,.T.);
#622=EDGE_CURVE('',#501,#489,#250,.T.);
#623=EDGE_CURVE('',#490,#503,#251,.T.);
#624=EDGE_CURVE('',#496,#500,#252,.T.);
#625=EDGE_CURVE('',#502,#495,#253,.T.);
#626=EDGE_CURVE('',#504,#494,#254,.T.);
#627=EDGE_CURVE('',#504,#505,#255,.T.);
#628=EDGE_CURVE('',#506,#505,#256,.T.);
#629=EDGE_CURVE('',#507,#506,#257,.T.);
#630=EDGE_CURVE('',#507,#491,#258,.T.);
#631=EDGE_CURVE('',#508,#509,#259,.T.);
#632=EDGE_CURVE('',#509,#510,#260,.T.);
#633=EDGE_CURVE('',#511,#510,#261,.T.);
#634=EDGE_CURVE('',#508,#511,#262,.T.);
#635=EDGE_CURVE('',#512,#504,#263,.T.);
#636=EDGE_CURVE('',#513,#512,#264,.T.);
#637=EDGE_CURVE('',#505,#513,#265,.T.);
#638=EDGE_CURVE('',#514,#514,#51,.T.);
#639=EDGE_CURVE('',#515,#516,#266,.T.);
#640=EDGE_CURVE('',#515,#513,#267,.T.);
#641=EDGE_CURVE('',#512,#493,#268,.T.);
#642=EDGE_CURVE('',#516,#492,#269,.T.);
#643=EDGE_CURVE('',#517,#518,#270,.T.);
#644=EDGE_CURVE('',#518,#519,#271,.T.);
#645=EDGE_CURVE('',#520,#519,#272,.T.);
#646=EDGE_CURVE('',#517,#520,#273,.T.);
#647=EDGE_CURVE('',#514,#499,#274,.T.);
#648=EDGE_CURVE('',#516,#507,#275,.T.);
#649=EDGE_CURVE('',#506,#515,#276,.T.);
#650=EDGE_CURVE('',#521,#481,#277,.T.);
#651=EDGE_CURVE('',#488,#521,#278,.T.);
#652=EDGE_CURVE('',#522,#523,#279,.T.);
#653=EDGE_CURVE('',#523,#524,#280,.T.);
#654=EDGE_CURVE('',#525,#524,#281,.T.);
#655=EDGE_CURVE('',#522,#525,#282,.T.);
#656=EDGE_CURVE('',#526,#527,#283,.T.);
#657=EDGE_CURVE('',#482,#527,#284,.T.);
#658=EDGE_CURVE('',#483,#526,#285,.T.);
#659=EDGE_CURVE('',#528,#529,#286,.T.);
#660=EDGE_CURVE('',#530,#528,#287,.T.);
#661=EDGE_CURVE('',#530,#531,#288,.T.);
#662=EDGE_CURVE('',#531,#529,#289,.T.);
#663=EDGE_CURVE('',#532,#533,#290,.T.);
#664=EDGE_CURVE('',#534,#533,#291,.T.);
#665=EDGE_CURVE('',#535,#534,#292,.T.);
#666=EDGE_CURVE('',#535,#532,#293,.T.);
#667=EDGE_CURVE('',#536,#526,#294,.T.);
#668=EDGE_CURVE('',#470,#528,#295,.T.);
#669=EDGE_CURVE('',#529,#532,#296,.T.);
#670=EDGE_CURVE('',#524,#535,#297,.T.);
#671=EDGE_CURVE('',#523,#537,#298,.T.);
#672=EDGE_CURVE('',#537,#536,#299,.T.);
#673=EDGE_CURVE('',#538,#539,#300,.T.);
#674=EDGE_CURVE('',#540,#538,#301,.T.);
#675=EDGE_CURVE('',#541,#540,#302,.T.);
#676=EDGE_CURVE('',#541,#539,#303,.T.);
#677=EDGE_CURVE('',#531,#540,#304,.T.);
#678=EDGE_CURVE('',#533,#538,#305,.T.);
#679=EDGE_CURVE('',#542,#542,#52,.T.);
#680=EDGE_CURVE('',#543,#543,#53,.T.);
#681=EDGE_CURVE('',#541,#530,#306,.T.);
#682=EDGE_CURVE('',#543,#544,#307,.T.);
#683=EDGE_CURVE('',#544,#544,#54,.T.);
#684=EDGE_CURVE('',#542,#545,#308,.T.);
#685=EDGE_CURVE('',#545,#545,#55,.T.);
#686=EDGE_CURVE('',#539,#471,#309,.T.);
#687=EDGE_CURVE('',#521,#546,#56,.T.);
#688=EDGE_CURVE('',#546,#497,#310,.T.);
#689=EDGE_CURVE('',#534,#525,#311,.T.);
#690=EDGE_CURVE('',#547,#522,#312,.T.);
#691=EDGE_CURVE('',#527,#548,#313,.T.);
#692=EDGE_CURVE('',#548,#547,#314,.T.);
#693=EDGE_CURVE('',#546,#480,#315,.T.);
#694=EDGE_CURVE('',#536,#548,#316,.T.);
#695=EDGE_CURVE('',#549,#549,#57,.T.);
#696=EDGE_CURVE('',#550,#550,#58,.T.);
#697=EDGE_CURVE('',#551,#551,#59,.T.);
#698=EDGE_CURVE('',#551,#550,#317,.T.);
#699=EDGE_CURVE('',#552,#552,#60,.T.);
#700=EDGE_CURVE('',#552,#549,#318,.T.);
#701=EDGE_CURVE('',#537,#547,#319,.T.);
#702=EDGE_CURVE('',#510,#520,#320,.T.);
#703=EDGE_CURVE('',#519,#511,#321,.T.);
#704=EDGE_CURVE('',#553,#553,#61,.T.);
#705=EDGE_CURVE('',#518,#508,#322,.T.);
#706=EDGE_CURVE('',#509,#517,#323,.T.);
#707=EDGE_CURVE('',#554,#554,#62,.T.);
#708=EDGE_CURVE('',#553,#554,#324,.T.);
#709=ORIENTED_EDGE('',*,*,#555,.F.);
#710=ORIENTED_EDGE('',*,*,#556,.F.);
#711=ORIENTED_EDGE('',*,*,#557,.F.);
#712=ORIENTED_EDGE('',*,*,#558,.T.);
#713=ORIENTED_EDGE('',*,*,#559,.F.);
#714=ORIENTED_EDGE('',*,*,#558,.F.);
#715=ORIENTED_EDGE('',*,*,#560,.F.);
#716=ORIENTED_EDGE('',*,*,#561,.T.);
#717=ORIENTED_EDGE('',*,*,#562,.F.);
#718=ORIENTED_EDGE('',*,*,#561,.F.);
#719=ORIENTED_EDGE('',*,*,#563,.F.);
#720=ORIENTED_EDGE('',*,*,#564,.T.);
#721=ORIENTED_EDGE('',*,*,#565,.F.);
#722=ORIENTED_EDGE('',*,*,#564,.F.);
#723=ORIENTED_EDGE('',*,*,#566,.F.);
#724=ORIENTED_EDGE('',*,*,#567,.T.);
#725=ORIENTED_EDGE('',*,*,#568,.F.);
#726=ORIENTED_EDGE('',*,*,#567,.F.);
#727=ORIENTED_EDGE('',*,*,#569,.F.);
#728=ORIENTED_EDGE('',*,*,#556,.T.);
#729=ORIENTED_EDGE('',*,*,#570,.F.);
#730=ORIENTED_EDGE('',*,*,#571,.F.);
#731=ORIENTED_EDGE('',*,*,#572,.F.);
#732=ORIENTED_EDGE('',*,*,#573,.T.);
#733=ORIENTED_EDGE('',*,*,#574,.F.);
#734=ORIENTED_EDGE('',*,*,#573,.F.);
#735=ORIENTED_EDGE('',*,*,#575,.F.);
#736=ORIENTED_EDGE('',*,*,#576,.T.);
#737=ORIENTED_EDGE('',*,*,#577,.F.);
#738=ORIENTED_EDGE('',*,*,#576,.F.);
#739=ORIENTED_EDGE('',*,*,#578,.F.);
#740=ORIENTED_EDGE('',*,*,#579,.T.);
#741=ORIENTED_EDGE('',*,*,#580,.F.);
#742=ORIENTED_EDGE('',*,*,#579,.F.);
#743=ORIENTED_EDGE('',*,*,#581,.F.);
#744=ORIENTED_EDGE('',*,*,#571,.T.);
#745=ORIENTED_EDGE('',*,*,#582,.F.);
#746=ORIENTED_EDGE('',*,*,#583,.F.);
#747=ORIENTED_EDGE('',*,*,#584,.F.);
#748=ORIENTED_EDGE('',*,*,#585,.F.);
#749=ORIENTED_EDGE('',*,*,#578,.T.);
#750=ORIENTED_EDGE('',*,*,#575,.T.);
#751=ORIENTED_EDGE('',*,*,#572,.T.);
#752=ORIENTED_EDGE('',*,*,#581,.T.);
#753=ORIENTED_EDGE('',*,*,#586,.T.);
#754=ORIENTED_EDGE('',*,*,#587,.T.);
#755=ORIENTED_EDGE('',*,*,#588,.T.);
#756=ORIENTED_EDGE('',*,*,#589,.T.);
#757=ORIENTED_EDGE('',*,*,#590,.T.);
#758=ORIENTED_EDGE('',*,*,#591,.T.);
#759=ORIENTED_EDGE('',*,*,#592,.T.);
#760=ORIENTED_EDGE('',*,*,#593,.T.);
#761=ORIENTED_EDGE('',*,*,#562,.T.);
#762=ORIENTED_EDGE('',*,*,#565,.T.);
#763=ORIENTED_EDGE('',*,*,#568,.T.);
#764=ORIENTED_EDGE('',*,*,#555,.T.);
#765=ORIENTED_EDGE('',*,*,#559,.T.);
#766=ORIENTED_EDGE('',*,*,#594,.T.);
#767=ORIENTED_EDGE('',*,*,#584,.T.);
#768=ORIENTED_EDGE('',*,*,#595,.T.);
#769=ORIENTED_EDGE('',*,*,#596,.T.);
#770=ORIENTED_EDGE('',*,*,#588,.F.);
#771=ORIENTED_EDGE('',*,*,#597,.T.);
#772=ORIENTED_EDGE('',*,*,#598,.F.);
#773=ORIENTED_EDGE('',*,*,#599,.F.);
#774=ORIENTED_EDGE('',*,*,#589,.F.);
#775=ORIENTED_EDGE('',*,*,#599,.T.);
#776=ORIENTED_EDGE('',*,*,#600,.F.);
#777=ORIENTED_EDGE('',*,*,#601,.F.);
#778=ORIENTED_EDGE('',*,*,#587,.F.);
#779=ORIENTED_EDGE('',*,*,#602,.F.);
#780=ORIENTED_EDGE('',*,*,#603,.F.);
#781=ORIENTED_EDGE('',*,*,#597,.F.);
#782=ORIENTED_EDGE('',*,*,#602,.T.);
#783=ORIENTED_EDGE('',*,*,#586,.F.);
#784=ORIENTED_EDGE('',*,*,#604,.T.);
#785=ORIENTED_EDGE('',*,*,#605,.F.);
#786=ORIENTED_EDGE('',*,*,#606,.T.);
#787=ORIENTED_EDGE('',*,*,#607,.T.);
#788=ORIENTED_EDGE('',*,*,#608,.T.);
#789=ORIENTED_EDGE('',*,*,#609,.T.);
#790=ORIENTED_EDGE('',*,*,#601,.T.);
#791=ORIENTED_EDGE('',*,*,#610,.T.);
#792=ORIENTED_EDGE('',*,*,#611,.T.);
#793=ORIENTED_EDGE('',*,*,#612,.T.);
#794=ORIENTED_EDGE('',*,*,#613,.T.);
#795=ORIENTED_EDGE('',*,*,#614,.F.);
#796=ORIENTED_EDGE('',*,*,#615,.T.);
#797=ORIENTED_EDGE('',*,*,#590,.F.);
#798=ORIENTED_EDGE('',*,*,#616,.T.);
#799=ORIENTED_EDGE('',*,*,#617,.T.);
#800=ORIENTED_EDGE('',*,*,#618,.F.);
#801=ORIENTED_EDGE('',*,*,#619,.T.);
#802=ORIENTED_EDGE('',*,*,#620,.F.);
#803=ORIENTED_EDGE('',*,*,#621,.F.);
#804=ORIENTED_EDGE('',*,*,#622,.F.);
#805=ORIENTED_EDGE('',*,*,#621,.T.);
#806=ORIENTED_EDGE('',*,*,#623,.F.);
#807=ORIENTED_EDGE('',*,*,#606,.F.);
#808=ORIENTED_EDGE('',*,*,#624,.F.);
#809=ORIENTED_EDGE('',*,*,#613,.F.);
#810=ORIENTED_EDGE('',*,*,#625,.F.);
#811=ORIENTED_EDGE('',*,*,#619,.F.);
#812=ORIENTED_EDGE('',*,*,#626,.F.);
#813=ORIENTED_EDGE('',*,*,#627,.T.);
#814=ORIENTED_EDGE('',*,*,#628,.F.);
#815=ORIENTED_EDGE('',*,*,#629,.F.);
#816=ORIENTED_EDGE('',*,*,#630,.T.);
#817=ORIENTED_EDGE('',*,*,#607,.F.);
#818=ORIENTED_EDGE('',*,*,#623,.T.);
#819=ORIENTED_EDGE('',*,*,#620,.T.);
#820=ORIENTED_EDGE('',*,*,#625,.T.);
#821=ORIENTED_EDGE('',*,*,#612,.F.);
#822=ORIENTED_EDGE('',*,*,#631,.T.);
#823=ORIENTED_EDGE('',*,*,#632,.T.);
#824=ORIENTED_EDGE('',*,*,#633,.F.);
#825=ORIENTED_EDGE('',*,*,#634,.F.);
#826=ORIENTED_EDGE('',*,*,#627,.F.);
#827=ORIENTED_EDGE('',*,*,#635,.F.);
#828=ORIENTED_EDGE('',*,*,#636,.F.);
#829=ORIENTED_EDGE('',*,*,#637,.F.);
#830=ORIENTED_EDGE('',*,*,#638,.F.);
#831=ORIENTED_EDGE('',*,*,#639,.F.);
#832=ORIENTED_EDGE('',*,*,#640,.T.);
#833=ORIENTED_EDGE('',*,*,#636,.T.);
#834=ORIENTED_EDGE('',*,*,#641,.T.);
#835=ORIENTED_EDGE('',*,*,#610,.F.);
#836=ORIENTED_EDGE('',*,*,#600,.T.);
#837=ORIENTED_EDGE('',*,*,#598,.T.);
#838=ORIENTED_EDGE('',*,*,#603,.T.);
#839=ORIENTED_EDGE('',*,*,#609,.F.);
#840=ORIENTED_EDGE('',*,*,#642,.F.);
#841=ORIENTED_EDGE('',*,*,#643,.T.);
#842=ORIENTED_EDGE('',*,*,#644,.T.);
#843=ORIENTED_EDGE('',*,*,#645,.F.);
#844=ORIENTED_EDGE('',*,*,#646,.F.);
#845=ORIENTED_EDGE('',*,*,#638,.T.);
#846=ORIENTED_EDGE('',*,*,#647,.T.);
#847=ORIENTED_EDGE('',*,*,#616,.F.);
#848=ORIENTED_EDGE('',*,*,#617,.F.);
#849=ORIENTED_EDGE('',*,*,#647,.F.);
#850=ORIENTED_EDGE('',*,*,#648,.F.);
#851=ORIENTED_EDGE('',*,*,#642,.T.);
#852=ORIENTED_EDGE('',*,*,#608,.F.);
#853=ORIENTED_EDGE('',*,*,#630,.F.);
#854=ORIENTED_EDGE('',*,*,#649,.F.);
#855=ORIENTED_EDGE('',*,*,#628,.T.);
#856=ORIENTED_EDGE('',*,*,#637,.T.);
#857=ORIENTED_EDGE('',*,*,#640,.F.);
#858=ORIENTED_EDGE('',*,*,#604,.F.);
#859=ORIENTED_EDGE('',*,*,#593,.F.);
#860=ORIENTED_EDGE('',*,*,#650,.F.);
#861=ORIENTED_EDGE('',*,*,#651,.F.);
#862=ORIENTED_EDGE('',*,*,#639,.T.);
#863=ORIENTED_EDGE('',*,*,#648,.T.);
#864=ORIENTED_EDGE('',*,*,#629,.T.);
#865=ORIENTED_EDGE('',*,*,#649,.T.);
#866=ORIENTED_EDGE('',*,*,#635,.T.);
#867=ORIENTED_EDGE('',*,*,#626,.T.);
#868=ORIENTED_EDGE('',*,*,#611,.F.);
#869=ORIENTED_EDGE('',*,*,#641,.F.);
#870=ORIENTED_EDGE('',*,*,#652,.T.);
#871=ORIENTED_EDGE('',*,*,#653,.T.);
#872=ORIENTED_EDGE('',*,*,#654,.F.);
#873=ORIENTED_EDGE('',*,*,#655,.F.);
#874=ORIENTED_EDGE('',*,*,#656,.T.);
#875=ORIENTED_EDGE('',*,*,#657,.F.);
#876=ORIENTED_EDGE('',*,*,#596,.F.);
#877=ORIENTED_EDGE('',*,*,#658,.T.);
#878=ORIENTED_EDGE('',*,*,#659,.F.);
#879=ORIENTED_EDGE('',*,*,#660,.F.);
#880=ORIENTED_EDGE('',*,*,#661,.T.);
#881=ORIENTED_EDGE('',*,*,#662,.T.);
#882=ORIENTED_EDGE('',*,*,#663,.T.);
#883=ORIENTED_EDGE('',*,*,#664,.F.);
#884=ORIENTED_EDGE('',*,*,#665,.F.);
#885=ORIENTED_EDGE('',*,*,#666,.T.);
#886=ORIENTED_EDGE('',*,*,#667,.T.);
#887=ORIENTED_EDGE('',*,*,#658,.F.);
#888=ORIENTED_EDGE('',*,*,#595,.F.);
#889=ORIENTED_EDGE('',*,*,#583,.T.);
#890=ORIENTED_EDGE('',*,*,#668,.T.);
#891=ORIENTED_EDGE('',*,*,#659,.T.);
#892=ORIENTED_EDGE('',*,*,#669,.T.);
#893=ORIENTED_EDGE('',*,*,#666,.F.);
#894=ORIENTED_EDGE('',*,*,#670,.F.);
#895=ORIENTED_EDGE('',*,*,#653,.F.);
#896=ORIENTED_EDGE('',*,*,#671,.T.);
#897=ORIENTED_EDGE('',*,*,#672,.T.);
#898=ORIENTED_EDGE('',*,*,#673,.F.);
#899=ORIENTED_EDGE('',*,*,#674,.F.);
#900=ORIENTED_EDGE('',*,*,#675,.F.);
#901=ORIENTED_EDGE('',*,*,#676,.T.);
#902=ORIENTED_EDGE('',*,*,#663,.F.);
#903=ORIENTED_EDGE('',*,*,#669,.F.);
#904=ORIENTED_EDGE('',*,*,#662,.F.);
#905=ORIENTED_EDGE('',*,*,#677,.T.);
#906=ORIENTED_EDGE('',*,*,#674,.T.);
#907=ORIENTED_EDGE('',*,*,#678,.F.);
#908=ORIENTED_EDGE('',*,*,#679,.T.);
#909=ORIENTED_EDGE('',*,*,#680,.T.);
#910=ORIENTED_EDGE('',*,*,#681,.F.);
#911=ORIENTED_EDGE('',*,*,#675,.T.);
#912=ORIENTED_EDGE('',*,*,#677,.F.);
#913=ORIENTED_EDGE('',*,*,#661,.F.);
#914=ORIENTED_EDGE('',*,*,#680,.F.);
#915=ORIENTED_EDGE('',*,*,#682,.T.);
#916=ORIENTED_EDGE('',*,*,#683,.F.);
#917=ORIENTED_EDGE('',*,*,#682,.F.);
#918=ORIENTED_EDGE('',*,*,#679,.F.);
#919=ORIENTED_EDGE('',*,*,#684,.T.);
#920=ORIENTED_EDGE('',*,*,#685,.F.);
#921=ORIENTED_EDGE('',*,*,#684,.F.);
#922=ORIENTED_EDGE('',*,*,#686,.F.);
#923=ORIENTED_EDGE('',*,*,#676,.F.);
#924=ORIENTED_EDGE('',*,*,#681,.T.);
#925=ORIENTED_EDGE('',*,*,#660,.T.);
#926=ORIENTED_EDGE('',*,*,#668,.F.);
#927=ORIENTED_EDGE('',*,*,#582,.T.);
#928=ORIENTED_EDGE('',*,*,#683,.T.);
#929=ORIENTED_EDGE('',*,*,#685,.T.);
#930=ORIENTED_EDGE('',*,*,#614,.T.);
#931=ORIENTED_EDGE('',*,*,#624,.T.);
#932=ORIENTED_EDGE('',*,*,#618,.T.);
#933=ORIENTED_EDGE('',*,*,#622,.T.);
#934=ORIENTED_EDGE('',*,*,#605,.T.);
#935=ORIENTED_EDGE('',*,*,#651,.T.);
#936=ORIENTED_EDGE('',*,*,#687,.T.);
#937=ORIENTED_EDGE('',*,*,#688,.T.);
#938=ORIENTED_EDGE('',*,*,#563,.T.);
#939=ORIENTED_EDGE('',*,*,#560,.T.);
#940=ORIENTED_EDGE('',*,*,#557,.T.);
#941=ORIENTED_EDGE('',*,*,#569,.T.);
#942=ORIENTED_EDGE('',*,*,#566,.T.);
#943=ORIENTED_EDGE('',*,*,#665,.T.);
#944=ORIENTED_EDGE('',*,*,#689,.T.);
#945=ORIENTED_EDGE('',*,*,#654,.T.);
#946=ORIENTED_EDGE('',*,*,#670,.T.);
#947=ORIENTED_EDGE('',*,*,#690,.T.);
#948=ORIENTED_EDGE('',*,*,#655,.T.);
#949=ORIENTED_EDGE('',*,*,#689,.F.);
#950=ORIENTED_EDGE('',*,*,#664,.T.);
#951=ORIENTED_EDGE('',*,*,#678,.T.);
#952=ORIENTED_EDGE('',*,*,#673,.T.);
#953=ORIENTED_EDGE('',*,*,#686,.T.);
#954=ORIENTED_EDGE('',*,*,#585,.T.);
#955=ORIENTED_EDGE('',*,*,#594,.F.);
#956=ORIENTED_EDGE('',*,*,#657,.T.);
#957=ORIENTED_EDGE('',*,*,#691,.T.);
#958=ORIENTED_EDGE('',*,*,#692,.T.);
#959=ORIENTED_EDGE('',*,*,#650,.T.);
#960=ORIENTED_EDGE('',*,*,#592,.F.);
#961=ORIENTED_EDGE('',*,*,#693,.F.);
#962=ORIENTED_EDGE('',*,*,#687,.F.);
#963=ORIENTED_EDGE('',*,*,#577,.T.);
#964=ORIENTED_EDGE('',*,*,#580,.T.);
#965=ORIENTED_EDGE('',*,*,#570,.T.);
#966=ORIENTED_EDGE('',*,*,#574,.T.);
#967=ORIENTED_EDGE('',*,*,#693,.T.);
#968=ORIENTED_EDGE('',*,*,#591,.F.);
#969=ORIENTED_EDGE('',*,*,#615,.F.);
#970=ORIENTED_EDGE('',*,*,#688,.F.);
#971=ORIENTED_EDGE('',*,*,#694,.T.);
#972=ORIENTED_EDGE('',*,*,#691,.F.);
#973=ORIENTED_EDGE('',*,*,#656,.F.);
#974=ORIENTED_EDGE('',*,*,#667,.F.);
#975=ORIENTED_EDGE('',*,*,#695,.T.);
#976=ORIENTED_EDGE('',*,*,#696,.T.);
#977=ORIENTED_EDGE('',*,*,#697,.F.);
#978=ORIENTED_EDGE('',*,*,#698,.T.);
#979=ORIENTED_EDGE('',*,*,#696,.F.);
#980=ORIENTED_EDGE('',*,*,#698,.F.);
#981=ORIENTED_EDGE('',*,*,#699,.F.);
#982=ORIENTED_EDGE('',*,*,#700,.T.);
#983=ORIENTED_EDGE('',*,*,#695,.F.);
#984=ORIENTED_EDGE('',*,*,#700,.F.);
#985=ORIENTED_EDGE('',*,*,#694,.F.);
#986=ORIENTED_EDGE('',*,*,#672,.F.);
#987=ORIENTED_EDGE('',*,*,#701,.T.);
#988=ORIENTED_EDGE('',*,*,#692,.F.);
#989=ORIENTED_EDGE('',*,*,#701,.F.);
#990=ORIENTED_EDGE('',*,*,#671,.F.);
#991=ORIENTED_EDGE('',*,*,#652,.F.);
#992=ORIENTED_EDGE('',*,*,#690,.F.);
#993=ORIENTED_EDGE('',*,*,#699,.T.);
#994=ORIENTED_EDGE('',*,*,#697,.T.);
#995=ORIENTED_EDGE('',*,*,#633,.T.);
#996=ORIENTED_EDGE('',*,*,#702,.T.);
#997=ORIENTED_EDGE('',*,*,#645,.T.);
#998=ORIENTED_EDGE('',*,*,#703,.T.);
#999=ORIENTED_EDGE('',*,*,#704,.T.);
#1000=ORIENTED_EDGE('',*,*,#631,.F.);
#1001=ORIENTED_EDGE('',*,*,#705,.F.);
#1002=ORIENTED_EDGE('',*,*,#643,.F.);
#1003=ORIENTED_EDGE('',*,*,#706,.F.);
#1004=ORIENTED_EDGE('',*,*,#707,.F.);
#1005=ORIENTED_EDGE('',*,*,#706,.T.);
#1006=ORIENTED_EDGE('',*,*,#646,.T.);
#1007=ORIENTED_EDGE('',*,*,#702,.F.);
#1008=ORIENTED_EDGE('',*,*,#632,.F.);
#1009=ORIENTED_EDGE('',*,*,#705,.T.);
#1010=ORIENTED_EDGE('',*,*,#634,.T.);
#1011=ORIENTED_EDGE('',*,*,#703,.F.);
#1012=ORIENTED_EDGE('',*,*,#644,.F.);
#1013=ORIENTED_EDGE('',*,*,#704,.F.);
#1014=ORIENTED_EDGE('',*,*,#708,.T.);
#1015=ORIENTED_EDGE('',*,*,#707,.T.);
#1016=ORIENTED_EDGE('',*,*,#708,.F.);
#1017=PLANE('',#1125);
#1018=PLANE('',#1129);
#1019=PLANE('',#1130);
#1020=PLANE('',#1131);
#1021=PLANE('',#1132);
#1022=PLANE('',#1134);
#1023=PLANE('',#1135);
#1024=PLANE('',#1137);
#1025=PLANE('',#1138);
#1026=PLANE('',#1139);
#1027=PLANE('',#1143);
#1028=PLANE('',#1144);
#1029=PLANE('',#1145);
#1030=PLANE('',#1154);
#1031=PLANE('',#1155);
#1032=PLANE('',#1156);
#1033=PLANE('',#1157);
#1034=PLANE('',#1158);
#1035=PLANE('',#1160);
#1036=PLANE('',#1162);
#1037=PLANE('',#1163);
#1038=PLANE('',#1164);
#1039=PLANE('',#1165);
#1040=PLANE('',#1166);
#1041=PLANE('',#1167);
#1042=PLANE('',#1168);
#1043=PLANE('',#1169);
#1044=PLANE('',#1170);
#1045=PLANE('',#1171);
#1046=PLANE('',#1172);
#1047=PLANE('',#1175);
#1048=PLANE('',#1180);
#1049=PLANE('',#1181);
#1050=PLANE('',#1183);
#1051=PLANE('',#1185);
#1052=PLANE('',#1186);
#1053=PLANE('',#1193);
#1054=PLANE('',#1194);
#1055=PLANE('',#1195);
#1056=PLANE('',#1197);
#1057=PLANE('',#1199);
#1058=PLANE('',#1200);
#1059=ADVANCED_FACE('',(#73),#1017,.F.);
#1060=ADVANCED_FACE('',(#74),#63,.F.);
#1061=ADVANCED_FACE('',(#75),#1018,.F.);
#1062=ADVANCED_FACE('',(#76),#1019,.F.);
#1063=ADVANCED_FACE('',(#77),#1020,.F.);
#1064=ADVANCED_FACE('',(#78),#1021,.F.);
#1065=ADVANCED_FACE('',(#79),#1022,.F.);
#1066=ADVANCED_FACE('',(#80),#1023,.F.);
#1067=ADVANCED_FACE('',(#81),#1024,.F.);
#1068=ADVANCED_FACE('',(#82,#17),#1025,.F.);
#1069=ADVANCED_FACE('',(#83,#18,#19),#1026,.T.);
#1070=ADVANCED_FACE('',(#84),#1027,.T.);
#1071=ADVANCED_FACE('',(#85),#1028,.T.);
#1072=ADVANCED_FACE('',(#86),#1029,.T.);
#1073=ADVANCED_FACE('',(#87),#64,.T.);
#1074=ADVANCED_FACE('',(#88,#20),#65,.T.);
#1075=ADVANCED_FACE('',(#89),#1030,.T.);
#1076=ADVANCED_FACE('',(#90),#1031,.T.);
#1077=ADVANCED_FACE('',(#91),#1032,.T.);
#1078=ADVANCED_FACE('',(#92,#21),#1033,.F.);
#1079=ADVANCED_FACE('',(#93,#22),#1034,.T.);
#1080=ADVANCED_FACE('',(#94,#23),#1035,.F.);
#1081=ADVANCED_FACE('',(#95),#66,.F.);
#1082=ADVANCED_FACE('',(#96),#1036,.F.);
#1083=ADVANCED_FACE('',(#97),#1037,.F.);
#1084=ADVANCED_FACE('',(#98,#24),#1038,.T.);
#1085=ADVANCED_FACE('',(#99),#1039,.F.);
#1086=ADVANCED_FACE('',(#100),#1040,.F.);
#1087=ADVANCED_FACE('',(#101),#1041,.F.);
#1088=ADVANCED_FACE('',(#102),#1042,.T.);
#1089=ADVANCED_FACE('',(#103),#1043,.F.);
#1090=ADVANCED_FACE('',(#104),#1044,.F.);
#1091=ADVANCED_FACE('',(#105),#1045,.T.);
#1092=ADVANCED_FACE('',(#106,#25,#26),#1046,.F.);
#1093=ADVANCED_FACE('',(#107),#1047,.T.);
#1094=ADVANCED_FACE('',(#108),#67,.F.);
#1095=ADVANCED_FACE('',(#109),#68,.F.);
#1096=ADVANCED_FACE('',(#110,#27,#28),#1048,.F.);
#1097=ADVANCED_FACE('',(#111,#29,#30),#1049,.F.);
#1098=ADVANCED_FACE('',(#112),#1050,.F.);
#1099=ADVANCED_FACE('',(#113,#31),#69,.T.);
#1100=ADVANCED_FACE('',(#114),#1051,.T.);
#1101=ADVANCED_FACE('',(#115,#32,#33),#1052,.F.);
#1102=ADVANCED_FACE('',(#116),#70,.F.);
#1103=ADVANCED_FACE('',(#117),#71,.F.);
#1104=ADVANCED_FACE('',(#118),#1053,.T.);
#1105=ADVANCED_FACE('',(#119,#34,#35),#1054,.F.);
#1106=ADVANCED_FACE('',(#120,#36),#1055,.F.);
#1107=ADVANCED_FACE('',(#121,#37),#1056,.T.);
#1108=ADVANCED_FACE('',(#122),#1057,.T.);
#1109=ADVANCED_FACE('',(#123),#1058,.T.);
#1110=ADVANCED_FACE('',(#124),#72,.F.);
#1111=CLOSED_SHELL('',(#1059,#1060,#1061,#1062,#1063,#1064,#1065,#1066,
#1067,#1068,#1069,#1070,#1071,#1072,#1073,#1074,#1075,#1076,#1077,#1078,
#1079,#1080,#1081,#1082,#1083,#1084,#1085,#1086,#1087,#1088,#1089,#1090,
#1091,#1092,#1093,#1094,#1095,#1096,#1097,#1098,#1099,#1100,#1101,#1102,
#1103,#1104,#1105,#1106,#1107,#1108,#1109,#1110));
#1112=DERIVED_UNIT_ELEMENT(#1114,1.);
#1113=DERIVED_UNIT_ELEMENT(#1834,-3.);
#1114=(
MASS_UNIT()
NAMED_UNIT(*)
SI_UNIT(.KILO.,.GRAM.)
);
#1115=DERIVED_UNIT((#1112,#1113));
#1116=MEASURE_REPRESENTATION_ITEM('density measure',
POSITIVE_RATIO_MEASURE(7850.),#1115);
#1117=PROPERTY_DEFINITION_REPRESENTATION(#1122,#1119);
#1118=PROPERTY_DEFINITION_REPRESENTATION(#1123,#1120);
#1119=REPRESENTATION('material name',(#1121),#1831);
#1120=REPRESENTATION('density',(#1116),#1831);
#1121=DESCRIPTIVE_REPRESENTATION_ITEM('Steel','Steel');
#1122=PROPERTY_DEFINITION('material property','material name',#1841);
#1123=PROPERTY_DEFINITION('material property','density of part',#1841);
#1124=AXIS2_PLACEMENT_3D('',#1485,#1202,#1203);
#1125=AXIS2_PLACEMENT_3D('',#1486,#1204,#1205);
#1126=AXIS2_PLACEMENT_3D('',#1495,#1210,#1211);
#1127=AXIS2_PLACEMENT_3D('',#1497,#1212,#1213);
#1128=AXIS2_PLACEMENT_3D('',#1499,#1214,#1215);
#1129=AXIS2_PLACEMENT_3D('',#1501,#1217,#1218);
#1130=AXIS2_PLACEMENT_3D('',#1507,#1222,#1223);
#1131=AXIS2_PLACEMENT_3D('',#1513,#1227,#1228);
#1132=AXIS2_PLACEMENT_3D('',#1516,#1231,#1232);
#1133=AXIS2_PLACEMENT_3D('',#1519,#1233,#1234);
#1134=AXIS2_PLACEMENT_3D('',#1525,#1238,#1239);
#1135=AXIS2_PLACEMENT_3D('',#1531,#1243,#1244);
#1136=AXIS2_PLACEMENT_3D('',#1533,#1245,#1246);
#1137=AXIS2_PLACEMENT_3D('',#1537,#1249,#1250);
#1138=AXIS2_PLACEMENT_3D('',#1540,#1253,#1254);
#1139=AXIS2_PLACEMENT_3D('',#1549,#1259,#1260);
#1140=AXIS2_PLACEMENT_3D('',#1552,#1261,#1262);
#1141=AXIS2_PLACEMENT_3D('',#1560,#1266,#1267);
#1142=AXIS2_PLACEMENT_3D('',#1564,#1269,#1270);
#1143=AXIS2_PLACEMENT_3D('',#1571,#1275,#1276);
#1144=AXIS2_PLACEMENT_3D('',#1577,#1280,#1281);
#1145=AXIS2_PLACEMENT_3D('',#1581,#1284,#1285);
#1146=AXIS2_PLACEMENT_3D('',#1585,#1288,#1289);
#1147=AXIS2_PLACEMENT_3D('',#1589,#1291,#1292);
#1148=AXIS2_PLACEMENT_3D('',#1593,#1294,#1295);
#1149=AXIS2_PLACEMENT_3D('',#1596,#1297,#1298);
#1150=AXIS2_PLACEMENT_3D('',#1597,#1299,#1300);
#1151=AXIS2_PLACEMENT_3D('',#1599,#1301,#1302);
#1152=AXIS2_PLACEMENT_3D('',#1603,#1304,#1305);
#1153=AXIS2_PLACEMENT_3D('',#1607,#1307,#1308);
#1154=AXIS2_PLACEMENT_3D('',#1647,#1310,#1311);
#1155=AXIS2_PLACEMENT_3D('',#1656,#1316,#1317);
#1156=AXIS2_PLACEMENT_3D('',#1659,#1320,#1321);
#1157=AXIS2_PLACEMENT_3D('',#1662,#1324,#1325);
#1158=AXIS2_PLACEMENT_3D('',#1680,#1335,#1336);
#1159=AXIS2_PLACEMENT_3D('',#1687,#1340,#1341);
#1160=AXIS2_PLACEMENT_3D('',#1688,#1342,#1343);
#1161=AXIS2_PLACEMENT_3D('',#1703,#1352,#1353);
#1162=AXIS2_PLACEMENT_3D('',#1705,#1355,#1356);
#1163=AXIS2_PLACEMENT_3D('',#1707,#1358,#1359);
#1164=AXIS2_PLACEMENT_3D('',#1709,#1361,#1362);
#1165=AXIS2_PLACEMENT_3D('',#1713,#1365,#1366);
#1166=AXIS2_PLACEMENT_3D('',#1714,#1367,#1368);
#1167=AXIS2_PLACEMENT_3D('',#1723,#1373,#1374);
#1168=AXIS2_PLACEMENT_3D('',#1729,#1378,#1379);
#1169=AXIS2_PLACEMENT_3D('',#1738,#1384,#1385);
#1170=AXIS2_PLACEMENT_3D('',#1747,#1390,#1391);
#1171=AXIS2_PLACEMENT_3D('',#1756,#1398,#1399);
#1172=AXIS2_PLACEMENT_3D('',#1765,#1404,#1405);
#1173=AXIS2_PLACEMENT_3D('',#1769,#1408,#1409);
#1174=AXIS2_PLACEMENT_3D('',#1771,#1410,#1411);
#1175=AXIS2_PLACEMENT_3D('',#1772,#1412,#1413);
#1176=AXIS2_PLACEMENT_3D('',#1774,#1415,#1416);
#1177=AXIS2_PLACEMENT_3D('',#1777,#1418,#1419);
#1178=AXIS2_PLACEMENT_3D('',#1778,#1420,#1421);
#1179=AXIS2_PLACEMENT_3D('',#1781,#1423,#1424);
#1180=AXIS2_PLACEMENT_3D('',#1782,#1425,#1426);
#1181=AXIS2_PLACEMENT_3D('',#1784,#1428,#1429);
#1182=AXIS2_PLACEMENT_3D('',#1786,#1430,#1431);
#1183=AXIS2_PLACEMENT_3D('',#1789,#1434,#1435);
#1184=AXIS2_PLACEMENT_3D('',#1795,#1439,#1440);
#1185=AXIS2_PLACEMENT_3D('',#1797,#1442,#1443);
#1186=AXIS2_PLACEMENT_3D('',#1798,#1444,#1445);
#1187=AXIS2_PLACEMENT_3D('',#1801,#1447,#1448);
#1188=AXIS2_PLACEMENT_3D('',#1803,#1449,#1450);
#1189=AXIS2_PLACEMENT_3D('',#1804,#1451,#1452);
#1190=AXIS2_PLACEMENT_3D('',#1806,#1453,#1454);
#1191=AXIS2_PLACEMENT_3D('',#1808,#1456,#1457);
#1192=AXIS2_PLACEMENT_3D('',#1810,#1458,#1459);
#1193=AXIS2_PLACEMENT_3D('',#1812,#1461,#1462);
#1194=AXIS2_PLACEMENT_3D('',#1814,#1464,#1465);
#1195=AXIS2_PLACEMENT_3D('',#1815,#1466,#1467);
#1196=AXIS2_PLACEMENT_3D('',#1819,#1470,#1471);
#1197=AXIS2_PLACEMENT_3D('',#1820,#1472,#1473);
#1198=AXIS2_PLACEMENT_3D('',#1824,#1476,#1477);
#1199=AXIS2_PLACEMENT_3D('',#1825,#1478,#1479);
#1200=AXIS2_PLACEMENT_3D('',#1826,#1480,#1481);
#1201=AXIS2_PLACEMENT_3D('',#1827,#1482,#1483);
#1202=DIRECTION('axis',(0.,0.,1.));
#1203=DIRECTION('refdir',(1.,0.,0.));
#1204=DIRECTION('center_axis',(0.,0.,-1.));
#1205=DIRECTION('ref_axis',(0.,1.,0.));
#1206=DIRECTION('',(0.,-1.,0.));
#1207=DIRECTION('',(1.,0.,0.));
#1208=DIRECTION('',(0.,1.,0.));
#1209=DIRECTION('',(1.,0.,0.));
#1210=DIRECTION('center_axis',(1.,0.,0.));
#1211=DIRECTION('ref_axis',(0.,0.,-1.));
#1212=DIRECTION('center_axis',(-1.,0.,0.));
#1213=DIRECTION('ref_axis',(0.,0.,-1.));
#1214=DIRECTION('center_axis',(1.,0.,0.));
#1215=DIRECTION('ref_axis',(0.,0.,-1.));
#1216=DIRECTION('',(1.,0.,0.));
#1217=DIRECTION('center_axis',(0.,-1.,0.));
#1218=DIRECTION('ref_axis',(0.,0.,-1.));
#1219=DIRECTION('',(0.,0.,1.));
#1220=DIRECTION('',(0.,0.,-1.));
#1221=DIRECTION('',(1.,0.,0.));
#1222=DIRECTION('center_axis',(0.,0.,1.));
#1223=DIRECTION('ref_axis',(0.,-1.,0.));
#1224=DIRECTION('',(0.,1.,0.));
#1225=DIRECTION('',(0.,-1.,0.));
#1226=DIRECTION('',(1.,0.,0.));
#1227=DIRECTION('center_axis',(0.,1.,0.));
#1228=DIRECTION('ref_axis',(0.,0.,1.));
#1229=DIRECTION('',(0.,0.,-1.));
#1230=DIRECTION('',(0.,0.,1.));
#1231=DIRECTION('center_axis',(-1.,0.,0.));
#1232=DIRECTION('ref_axis',(0.,0.,1.));
#1233=DIRECTION('center_axis',(-1.,0.,0.));
#1234=DIRECTION('ref_axis',(0.,0.262258187385344,-0.964997742561792));
#1235=DIRECTION('',(0.,1.,0.));
#1236=DIRECTION('',(0.,0.,1.));
#1237=DIRECTION('',(0.,1.,0.));
#1238=DIRECTION('center_axis',(0.,0.,-1.));
#1239=DIRECTION('ref_axis',(-1.,0.,0.));
#1240=DIRECTION('',(1.,0.,0.));
#1241=DIRECTION('',(-1.,0.,0.));
#1242=DIRECTION('',(0.,1.,0.));
#1243=DIRECTION('center_axis',(1.,0.,0.));
#1244=DIRECTION('ref_axis',(0.,0.,-1.));
#1245=DIRECTION('center_axis',(1.,0.,0.));
#1246=DIRECTION('ref_axis',(0.,0.262258187385344,-0.964997742561792));
#1247=DIRECTION('',(0.,0.,-1.));
#1248=DIRECTION('',(0.,1.,0.));
#1249=DIRECTION('center_axis',(0.,0.,1.));
#1250=DIRECTION('ref_axis',(1.,0.,0.));
#1251=DIRECTION('',(-1.,0.,0.));
#1252=DIRECTION('',(1.,0.,0.));
#1253=DIRECTION('center_axis',(0.,1.,0.));
#1254=DIRECTION('ref_axis',(0.,0.,1.));
#1255=DIRECTION('',(0.,0.,1.));
#1256=DIRECTION('',(-1.,0.,0.));
#1257=DIRECTION('',(0.,0.,-1.));
#1258=DIRECTION('',(1.,0.,0.));
#1259=DIRECTION('center_axis',(1.,0.,0.));
#1260=DIRECTION('ref_axis',(0.,1.,0.));
#1261=DIRECTION('center_axis',(1.,0.,0.));
#1262=DIRECTION('ref_axis',(0.,-0.618949391949988,-0.78543086914428));
#1263=DIRECTION('',(0.,0.,-1.));
#1264=DIRECTION('',(0.,1.,0.));
#1265=DIRECTION('',(0.,0.,1.));
#1266=DIRECTION('center_axis',(1.,0.,0.));
#1267=DIRECTION('ref_axis',(0.,-0.618949391949988,-0.78543086914428));
#1268=DIRECTION('',(0.,1.,0.));
#1269=DIRECTION('center_axis',(1.,0.,0.));
#1270=DIRECTION('ref_axis',(0.,0.262258187385344,-0.964997742561792));
#1271=DIRECTION('',(0.,-1.,0.));
#1272=DIRECTION('',(0.,1.,0.));
#1273=DIRECTION('',(0.,-1.,0.));
#1274=DIRECTION('',(0.,0.,1.));
#1275=DIRECTION('center_axis',(0.,0.,-1.));
#1276=DIRECTION('ref_axis',(0.,-1.,0.));
#1277=DIRECTION('',(-1.,0.,0.));
#1278=DIRECTION('',(0.,-1.,0.));
#1279=DIRECTION('',(-1.,0.,0.));
#1280=DIRECTION('center_axis',(0.,1.,0.));
#1281=DIRECTION('ref_axis',(0.,0.,-1.));
#1282=DIRECTION('',(0.,0.,-1.));
#1283=DIRECTION('',(-1.,0.,0.));
#1284=DIRECTION('center_axis',(0.,-1.,0.));
#1285=DIRECTION('ref_axis',(0.,0.,1.));
#1286=DIRECTION('',(1.,0.,0.));
#1287=DIRECTION('',(0.,0.,1.));
#1288=DIRECTION('center_axis',(1.,0.,0.));
#1289=DIRECTION('ref_axis',(0.,-0.618949391949988,-0.78543086914428));
#1290=DIRECTION('',(-1.,0.,0.));
#1291=DIRECTION('center_axis',(-1.,0.,0.));
#1292=DIRECTION('ref_axis',(0.,-0.618949391949988,-0.78543086914428));
#1293=DIRECTION('',(1.,0.,0.));
#1294=DIRECTION('center_axis',(1.,0.,0.));
#1295=DIRECTION('ref_axis',(0.,-0.618949391949988,-0.78543086914428));
#1296=DIRECTION('',(1.,0.,0.));
#1297=DIRECTION('center_axis',(-1.,0.,0.));
#1298=DIRECTION('ref_axis',(0.,-0.618949391949988,-0.78543086914428));
#1299=DIRECTION('center_axis',(1.,0.,0.));
#1300=DIRECTION('ref_axis',(0.,-0.618949391949988,-0.78543086914428));
#1301=DIRECTION('center_axis',(-1.,0.,0.));
#1302=DIRECTION('ref_axis',(0.,-0.618949391949988,-0.78543086914428));
#1303=DIRECTION('',(-1.,0.,0.));
#1304=DIRECTION('center_axis',(1.,0.,0.));
#1305=DIRECTION('ref_axis',(0.,-0.618949391949988,-0.78543086914428));
#1306=DIRECTION('',(-1.,0.,0.));
#1307=DIRECTION('center_axis',(-1.,0.,0.));
#1308=DIRECTION('ref_axis',(0.,-0.618949391949988,-0.78543086914428));
#1309=DIRECTION('',(1.,0.,0.));
#1310=DIRECTION('center_axis',(0.,0.,-1.));
#1311=DIRECTION('ref_axis',(0.,1.,0.));
#1312=DIRECTION('',(0.,-1.,0.));
#1313=DIRECTION('',(1.,0.,0.));
#1314=DIRECTION('',(0.,1.,0.));
#1315=DIRECTION('',(1.,0.,0.));
#1316=DIRECTION('center_axis',(0.,-1.,0.));
#1317=DIRECTION('ref_axis',(0.,0.,-1.));
#1318=DIRECTION('',(0.,0.,1.));
#1319=DIRECTION('',(0.,0.,-1.));
#1320=DIRECTION('center_axis',(0.,1.,0.));
#1321=DIRECTION('ref_axis',(0.,0.,1.));
#1322=DIRECTION('',(0.,0.,-1.));
#1323=DIRECTION('',(0.,0.,1.));
#1324=DIRECTION('center_axis',(-1.,0.,0.));
#1325=DIRECTION('ref_axis',(0.,1.,0.));
#1326=DIRECTION('',(0.,0.,-1.));
#1327=DIRECTION('',(0.,1.,0.));
#1328=DIRECTION('',(0.,0.,-1.));
#1329=DIRECTION('',(0.,1.,0.));
#1330=DIRECTION('',(0.,0.,-1.));
#1331=DIRECTION('',(0.,1.,0.));
#1332=DIRECTION('',(0.,0.,-1.));
#1333=DIRECTION('',(0.,1.,0.));
#1334=DIRECTION('',(0.,0.,-1.));
#1335=DIRECTION('center_axis',(0.,0.,1.));
#1336=DIRECTION('ref_axis',(-1.,0.,0.));
#1337=DIRECTION('',(-1.,0.,0.));
#1338=DIRECTION('',(0.,-1.,0.));
#1339=DIRECTION('',(1.,0.,0.));
#1340=DIRECTION('center_axis',(0.,0.,1.));
#1341=DIRECTION('ref_axis',(-1.,0.,0.));
#1342=DIRECTION('center_axis',(1.,0.,0.));
#1343=DIRECTION('ref_axis',(0.,-1.,0.));
#1344=DIRECTION('',(0.,-1.,0.));
#1345=DIRECTION('',(0.,0.,-1.));
#1346=DIRECTION('',(0.,0.,-1.));
#1347=DIRECTION('',(0.,0.,-1.));
#1348=DIRECTION('',(0.,-1.,0.));
#1349=DIRECTION('',(0.,0.,-1.));
#1350=DIRECTION('',(0.,-1.,0.));
#1351=DIRECTION('',(0.,0.,-1.));
#1352=DIRECTION('center_axis',(0.,0.,-1.));
#1353=DIRECTION('ref_axis',(-1.,0.,0.));
#1354=DIRECTION('',(0.,0.,-1.));
#1355=DIRECTION('center_axis',(0.,-1.,0.));
#1356=DIRECTION('ref_axis',(-1.,0.,0.));
#1357=DIRECTION('',(-1.,0.,0.));
#1358=DIRECTION('center_axis',(0.,1.,0.));
#1359=DIRECTION('ref_axis',(1.,0.,0.));
#1360=DIRECTION('',(1.,0.,0.));
#1361=DIRECTION('center_axis',(0.,0.,1.));
#1362=DIRECTION('ref_axis',(0.,-1.,0.));
#1363=DIRECTION('',(1.,0.,0.));
#1364=DIRECTION('',(0.,1.,0.));
#1365=DIRECTION('center_axis',(0.,1.,0.));
#1366=DIRECTION('ref_axis',(1.,0.,0.));
#1367=DIRECTION('center_axis',(0.,-1.,0.));
#1368=DIRECTION('ref_axis',(0.,0.,-1.));
#1369=DIRECTION('',(0.,0.,-1.));
#1370=DIRECTION('',(-1.,0.,0.));
#1371=DIRECTION('',(0.,0.,-1.));
#1372=DIRECTION('',(-1.,0.,0.));
#1373=DIRECTION('center_axis',(0.,-1.,0.));
#1374=DIRECTION('ref_axis',(0.,0.,-1.));
#1375=DIRECTION('',(0.,0.,1.));
#1376=DIRECTION('',(-1.,0.,0.));
#1377=DIRECTION('',(-1.,0.,0.));
#1378=DIRECTION('center_axis',(0.,-1.,0.));
#1379=DIRECTION('ref_axis',(-1.,0.,0.));
#1380=DIRECTION('',(-1.,0.,0.));
#1381=DIRECTION('',(0.,0.,-1.));
#1382=DIRECTION('',(-1.,0.,0.));
#1383=DIRECTION('',(0.,0.,-1.));
#1384=DIRECTION('center_axis',(0.,1.,0.));
#1385=DIRECTION('ref_axis',(0.,0.,1.));
#1386=DIRECTION('',(0.,0.,1.));
#1387=DIRECTION('',(1.,0.,0.));
#1388=DIRECTION('',(0.,0.,1.));
#1389=DIRECTION('',(1.,0.,0.));
#1390=DIRECTION('center_axis',(0.,0.,-1.));
#1391=DIRECTION('ref_axis',(-1.,0.,0.));
#1392=DIRECTION('',(0.,-1.,0.));
#1393=DIRECTION('',(0.,-1.,0.));
#1394=DIRECTION('',(0.,1.,0.));
#1395=DIRECTION('',(0.,1.,0.));
#1396=DIRECTION('',(0.,1.,0.));
#1397=DIRECTION('',(1.,0.,0.));
#1398=DIRECTION('center_axis',(0.,-1.,0.));
#1399=DIRECTION('ref_axis',(1.,0.,0.));
#1400=DIRECTION('',(1.,0.,0.));
#1401=DIRECTION('',(0.,0.,1.));
#1402=DIRECTION('',(-1.,0.,0.));
#1403=DIRECTION('',(0.,0.,1.));
#1404=DIRECTION('center_axis',(1.,0.,0.));
#1405=DIRECTION('ref_axis',(0.,1.,0.));
#1406=DIRECTION('',(0.,1.0559883224118E-7,0.999999999999994));
#1407=DIRECTION('',(0.,-1.,0.));
#1408=DIRECTION('center_axis',(1.,0.,0.));
#1409=DIRECTION('ref_axis',(0.,1.,0.));
#1410=DIRECTION('center_axis',(1.,0.,0.));
#1411=DIRECTION('ref_axis',(0.,1.,0.));
#1412=DIRECTION('center_axis',(0.,-0.999999999999994,1.0559883224118E-7));
#1413=DIRECTION('ref_axis',(0.,1.0559883224118E-7,0.999999999999994));
#1414=DIRECTION('',(0.,-1.0559883224118E-7,-0.999999999999994));
#1415=DIRECTION('center_axis',(-1.,0.,0.));
#1416=DIRECTION('ref_axis',(0.,1.,0.));
#1417=DIRECTION('',(1.,0.,0.));
#1418=DIRECTION('center_axis',(-1.,0.,0.));
#1419=DIRECTION('ref_axis',(0.,1.,0.));
#1420=DIRECTION('center_axis',(-1.,0.,0.));
#1421=DIRECTION('ref_axis',(0.,1.,0.));
#1422=DIRECTION('',(1.,0.,0.));
#1423=DIRECTION('center_axis',(-1.,0.,0.));
#1424=DIRECTION('ref_axis',(0.,1.,0.));
#1425=DIRECTION('center_axis',(-1.,0.,0.));
#1426=DIRECTION('ref_axis',(0.,0.,1.));
#1427=DIRECTION('',(0.,1.,0.));
#1428=DIRECTION('center_axis',(1.,0.,0.));
#1429=DIRECTION('ref_axis',(0.,1.,0.));
#1430=DIRECTION('center_axis',(-1.,0.,0.));
#1431=DIRECTION('ref_axis',(0.,0.262258187385344,-0.964997742561792));
#1432=DIRECTION('',(0.,-1.,0.));
#1433=DIRECTION('',(0.,-1.,0.));
#1434=DIRECTION('center_axis',(0.,0.,1.));
#1435=DIRECTION('ref_axis',(1.,0.,0.));
#1436=DIRECTION('',(0.,-1.,0.));
#1437=DIRECTION('',(0.,1.,0.));
#1438=DIRECTION('',(-1.,0.,0.));
#1439=DIRECTION('center_axis',(1.,0.,0.));
#1440=DIRECTION('ref_axis',(0.,0.262258187385344,-0.964997742561792));
#1441=DIRECTION('',(1.,0.,0.));
#1442=DIRECTION('center_axis',(0.,0.,-1.));
#1443=DIRECTION('ref_axis',(0.,1.,0.));
#1444=DIRECTION('center_axis',(-1.,0.,0.));
#1445=DIRECTION('ref_axis',(0.,0.,1.));
#1446=DIRECTION('',(0.,0.,1.));
#1447=DIRECTION('center_axis',(-1.,0.,0.));
#1448=DIRECTION('ref_axis',(0.,1.,0.));
#1449=DIRECTION('center_axis',(-1.,0.,0.));
#1450=DIRECTION('ref_axis',(0.,1.,0.));
#1451=DIRECTION('center_axis',(-1.,0.,0.));
#1452=DIRECTION('ref_axis',(0.,1.,0.));
#1453=DIRECTION('center_axis',(1.,0.,0.));
#1454=DIRECTION('ref_axis',(0.,1.,0.));
#1455=DIRECTION('',(1.,0.,0.));
#1456=DIRECTION('center_axis',(-1.,0.,0.));
#1457=DIRECTION('ref_axis',(0.,1.,0.));
#1458=DIRECTION('center_axis',(1.,0.,0.));
#1459=DIRECTION('ref_axis',(0.,1.,0.));
#1460=DIRECTION('',(1.,0.,0.));
#1461=DIRECTION('center_axis',(0.,1.,0.));
#1462=DIRECTION('ref_axis',(0.,0.,-1.));
#1463=DIRECTION('',(0.,0.,1.));
#1464=DIRECTION('center_axis',(1.,0.,0.));
#1465=DIRECTION('ref_axis',(0.,1.,0.));
#1466=DIRECTION('center_axis',(0.,0.,1.));
#1467=DIRECTION('ref_axis',(-1.,0.,0.));
#1468=DIRECTION('',(1.,0.,0.));
#1469=DIRECTION('',(-1.,0.,0.));
#1470=DIRECTION('center_axis',(0.,0.,1.));
#1471=DIRECTION('ref_axis',(-1.,0.,0.));
#1472=DIRECTION('center_axis',(0.,0.,1.));
#1473=DIRECTION('ref_axis',(-1.,0.,0.));
#1474=DIRECTION('',(-1.,0.,0.));
#1475=DIRECTION('',(1.,0.,0.));
#1476=DIRECTION('center_axis',(0.,0.,1.));
#1477=DIRECTION('ref_axis',(-1.,0.,0.));
#1478=DIRECTION('center_axis',(0.,1.,0.));
#1479=DIRECTION('ref_axis',(1.,0.,0.));
#1480=DIRECTION('center_axis',(0.,-1.,0.));
#1481=DIRECTION('ref_axis',(-1.,0.,0.));
#1482=DIRECTION('center_axis',(0.,0.,-1.));
#1483=DIRECTION('ref_axis',(-1.,0.,0.));
#1484=DIRECTION('',(0.,0.,1.));
#1485=CARTESIAN_POINT('',(0.,0.,0.));
#1486=CARTESIAN_POINT('Origin',(-28.499999523163,-130.000001937151,240.000003576279));
#1487=CARTESIAN_POINT('',(14.500000476837,-105.000001564622,240.000003576279));
#1488=CARTESIAN_POINT('',(14.500000476837,-130.000001937151,240.000003576279));
#1489=CARTESIAN_POINT('',(14.500000476837,-121.265372583265,240.000003576279));
#1490=CARTESIAN_POINT('',(-28.499999523163,-105.000001564622,240.000003576279));
#1491=CARTESIAN_POINT('',(-28.499999523163,-105.000001564622,240.000003576279));
#1492=CARTESIAN_POINT('',(-28.499999523163,-130.000001937151,240.000003576279));
#1493=CARTESIAN_POINT('',(-28.499999523163,-121.265372583265,240.000003576279));
#1494=CARTESIAN_POINT('',(-28.499999523163,-130.000001937151,240.000003576279));
#1495=CARTESIAN_POINT('Origin',(-28.499999523163,-130.000001937151,295.400004401803));
#1496=CARTESIAN_POINT('',(14.500000476837,-153.000002279878,245.000003650784));
#1497=CARTESIAN_POINT('Origin',(14.500000476837,-130.000001937151,295.400004401803));
#1498=CARTESIAN_POINT('',(-28.499999523163,-153.000002279878,245.000003650784));
#1499=CARTESIAN_POINT('Origin',(-28.499999523163,-130.000001937151,295.400004401803));
#1500=CARTESIAN_POINT('',(-28.499999523163,-153.000002279878,245.000003650784));
#1501=CARTESIAN_POINT('Origin',(-28.499999523163,-153.000002279878,261.000003889203));
#1502=CARTESIAN_POINT('',(14.500000476837,-153.000002279878,261.000003889203));
#1503=CARTESIAN_POINT('',(14.500000476837,-153.000002279878,256.000003814697));
#1504=CARTESIAN_POINT('',(-28.499999523163,-153.000002279878,261.000003889203));
#1505=CARTESIAN_POINT('',(-28.499999523163,-153.000002279878,256.000003814697));
#1506=CARTESIAN_POINT('',(-28.499999523163,-153.000002279878,261.000003889203));
#1507=CARTESIAN_POINT('Origin',(-28.499999523163,-105.000001564622,261.000003889203));
#1508=CARTESIAN_POINT('',(14.500000476837,-105.000001564622,261.000003889203));
#1509=CARTESIAN_POINT('',(14.500000476837,-108.765372397,261.000003889203));
#1510=CARTESIAN_POINT('',(-28.499999523163,-105.000001564622,261.000003889203));
#1511=CARTESIAN_POINT('',(-28.499999523163,-108.765372397,261.000003889203));
#1512=CARTESIAN_POINT('',(-28.499999523163,-105.000001564622,261.000003889203));
#1513=CARTESIAN_POINT('Origin',(-28.499999523163,-105.000001564622,240.000003576279));
#1514=CARTESIAN_POINT('',(14.500000476837,-105.000001564622,245.500003658235));
#1515=CARTESIAN_POINT('',(-28.499999523163,-105.000001564622,245.500003658235));
#1516=CARTESIAN_POINT('Origin',(7.00000010430813,-45.6000007003546,242.472331412076));
#1517=CARTESIAN_POINT('',(7.00000010430812,-31.4714190683149,257.000003829598));
#1518=CARTESIAN_POINT('',(7.00000010430812,-33.1041645849363,242.472331412076));
#1519=CARTESIAN_POINT('Origin',(7.00000010430813,-43.5330207643237,251.000003740191));
#1520=CARTESIAN_POINT('',(7.00000010430813,-45.6000007003546,257.000003829598));
#1521=CARTESIAN_POINT('',(7.00000010430813,-45.6000007003546,257.000003829598));
#1522=CARTESIAN_POINT('',(7.00000010430813,-45.6000007003546,242.472331412076));
#1523=CARTESIAN_POINT('',(7.00000010430813,-45.6000007003546,251.236167643189));
#1524=CARTESIAN_POINT('',(7.00000010430813,-45.6000007003546,242.472331412076));
#1525=CARTESIAN_POINT('Origin',(12.4571144244572,-45.6000007003546,242.472331412076));
#1526=CARTESIAN_POINT('',(12.4571144244572,-33.1041645849363,242.472331412076));
#1527=CARTESIAN_POINT('',(-25.499999523163,-33.1041645849363,242.472331412076));
#1528=CARTESIAN_POINT('',(12.4571144244572,-45.6000007003546,242.472331412076));
#1529=CARTESIAN_POINT('',(8.4785574506471,-45.6000007003546,242.472331412076));
#1530=CARTESIAN_POINT('',(12.4571144244572,-45.6000007003546,242.472331412076));
#1531=CARTESIAN_POINT('Origin',(12.4571144244572,-45.6000007003546,257.000003829598));
#1532=CARTESIAN_POINT('',(12.4571144244572,-31.4714190683149,257.000003829598));
#1533=CARTESIAN_POINT('Origin',(12.4571144244572,-43.5330207643237,251.000003740191));
#1534=CARTESIAN_POINT('',(12.4571144244572,-45.6000007003546,257.000003829598));
#1535=CARTESIAN_POINT('',(12.4571144244572,-45.6000007003546,258.50000385195));
#1536=CARTESIAN_POINT('',(12.4571144244572,-45.6000007003546,257.000003829598));
#1537=CARTESIAN_POINT('Origin',(7.00000010430813,-45.6000007003546,257.000003829598));
#1538=CARTESIAN_POINT('',(-25.499999523163,-31.4714190683149,257.000003829598));
#1539=CARTESIAN_POINT('',(5.75000029057254,-45.6000007003546,257.000003829598));
#1540=CARTESIAN_POINT('Origin',(4.50000047683695,-45.6000007003546,260.000003874302));
#1541=CARTESIAN_POINT('',(-13.999999523163,-45.6000007003546,240.30000359118));
#1542=CARTESIAN_POINT('',(-13.999999523163,-45.6000007003546,260.850003874302));
#1543=CARTESIAN_POINT('',(-13.999999523163,-45.6000007003546,250.500003732741));
#1544=CARTESIAN_POINT('',(14.500000476837,-45.6000007003546,240.30000359118));
#1545=CARTESIAN_POINT('',(4.50000047683695,-45.6000007003546,240.30000359118));
#1546=CARTESIAN_POINT('',(14.500000476837,-45.6000007003546,260.850003874302));
#1547=CARTESIAN_POINT('',(14.500000476837,-45.6000007003546,255.500003807247));
#1548=CARTESIAN_POINT('',(4.50000047683695,-45.6000007003546,260.850003874302));
#1549=CARTESIAN_POINT('Origin',(14.500000476837,-112.530743229379,251.000003740191));
#1550=CARTESIAN_POINT('',(14.500000476837,-195.,264.000003933907));
#1551=CARTESIAN_POINT('',(14.500000476837,-188.999743317931,259.564095150935));
#1552=CARTESIAN_POINT('Origin',(14.500000476837,-120.00000178814,359.173073893269));
#1553=CARTESIAN_POINT('',(14.500000476837,-188.999743317931,236.690011242172));
#1554=CARTESIAN_POINT('',(14.500000476837,-188.999743317931,259.564095150935));
#1555=CARTESIAN_POINT('',(14.500000476837,-161.330007662764,236.690011242172));
#1556=CARTESIAN_POINT('',(14.500000476837,-188.999743317931,236.690011242172));
#1557=CARTESIAN_POINT('',(14.500000476837,-161.330007662764,245.266341907524));
#1558=CARTESIAN_POINT('',(14.500000476837,-161.330007662764,236.690011242172));
#1559=CARTESIAN_POINT('',(14.500000476837,-120.000001788139,238.000003546476));
#1560=CARTESIAN_POINT('Origin',(14.500000476837,-120.00000178814,359.173073893269));
#1561=CARTESIAN_POINT('',(14.500000476837,-40.0000005960464,238.000003546476));
#1562=CARTESIAN_POINT('',(14.500000476837,-120.000001788139,238.000003546476));
#1563=CARTESIAN_POINT('',(14.500000476837,-40.0000005960464,264.000003933907));
#1564=CARTESIAN_POINT('Origin',(14.500000476837,-43.5330207643237,251.000003740191));
#1565=CARTESIAN_POINT('',(14.500000476837,-40.0000005960464,264.000003933907));
#1566=CARTESIAN_POINT('',(14.500000476837,-101.300001505017,260.850003874302));
#1567=CARTESIAN_POINT('',(14.500000476837,-79.7653719648667,260.850003874302));
#1568=CARTESIAN_POINT('',(14.500000476837,-101.300001505017,240.30000359118));
#1569=CARTESIAN_POINT('',(14.500000476837,-79.5653719648667,240.30000359118));
#1570=CARTESIAN_POINT('',(14.500000476837,-101.300001505017,246.000003665686));
#1571=CARTESIAN_POINT('Origin',(14.500000476837,-161.330007662764,236.690011242172));
#1572=CARTESIAN_POINT('',(-2.09999952316305,-188.999743317931,236.690011242172));
#1573=CARTESIAN_POINT('',(14.500000476837,-188.999743317931,236.690011242172));
#1574=CARTESIAN_POINT('',(-2.09999952316305,-161.330007662764,236.690011242172));
#1575=CARTESIAN_POINT('',(-2.09999952316305,-188.999743317931,236.690011242172));
#1576=CARTESIAN_POINT('',(14.500000476837,-161.330007662764,236.690011242172));
#1577=CARTESIAN_POINT('Origin',(14.500000476837,-161.330007662764,245.266341907524));
#1578=CARTESIAN_POINT('',(-2.09999952316305,-161.330007662764,245.266341907524));
#1579=CARTESIAN_POINT('',(-2.09999952316305,-161.330007662764,236.690011242172));
#1580=CARTESIAN_POINT('',(-25.499999523163,-161.330007662764,245.266341907524));
#1581=CARTESIAN_POINT('Origin',(14.500000476837,-188.999743317931,236.690011242172));
#1582=CARTESIAN_POINT('',(-2.09999952316305,-188.999743317931,259.564095150935));
#1583=CARTESIAN_POINT('',(-25.499999523163,-188.999743317931,259.564095150935));
#1584=CARTESIAN_POINT('',(-2.09999952316305,-188.999743317931,259.564095150935));
#1585=CARTESIAN_POINT('Origin',(-25.499999523163,-120.00000178814,359.173073893269));
#1586=CARTESIAN_POINT('',(-28.499999523163,-195.,264.000003933907));
#1587=CARTESIAN_POINT('',(-25.499999523163,-195.,264.000003933907));
#1588=CARTESIAN_POINT('',(-28.499999523163,-189.000002816319,259.564274907537));
#1589=CARTESIAN_POINT('Origin',(-28.499999523163,-120.00000178814,359.173073893269));
#1590=CARTESIAN_POINT('',(-13.899999523163,-189.000002816319,259.564274907537));
#1591=CARTESIAN_POINT('',(-25.499999523163,-189.000002816319,259.564274907537));
#1592=CARTESIAN_POINT('',(-13.8999996893108,-188.699995782226,259.357124253538));
#1593=CARTESIAN_POINT('Origin',(-13.899999523163,-120.00000178814,359.173073893269));
#1594=CARTESIAN_POINT('',(-2.09999995306134,-188.699995782226,259.357124253538));
#1595=CARTESIAN_POINT('',(-25.499999523163,-188.699995782226,259.357124253538));
#1596=CARTESIAN_POINT('Origin',(-2.09999952316305,-120.00000178814,359.173073893269));
#1597=CARTESIAN_POINT('Origin',(-25.499999523163,-120.00000178814,359.173073893269));
#1598=CARTESIAN_POINT('',(-2.09999995306134,-161.800007685088,245.437976037401));
#1599=CARTESIAN_POINT('Origin',(-2.09999952316305,-120.00000178814,359.173073893269));
#1600=CARTESIAN_POINT('',(-13.9000006602146,-161.800007685088,245.437976037401));
#1601=CARTESIAN_POINT('',(-25.499999523163,-161.800007685088,245.437976037401));
#1602=CARTESIAN_POINT('',(-13.899999523163,-161.335554756208,245.268354772011));
#1603=CARTESIAN_POINT('Origin',(-13.899999523163,-120.00000178814,359.173073893269));
#1604=CARTESIAN_POINT('',(-28.499999523163,-161.335554756208,245.268354772011));
#1605=CARTESIAN_POINT('',(-25.499999523163,-161.335554756208,245.268354772011));
#1606=CARTESIAN_POINT('',(-28.499999523163,-120.000001788139,238.000003546476));
#1607=CARTESIAN_POINT('Origin',(-28.499999523163,-120.00000178814,359.173073893269));
#1608=CARTESIAN_POINT('',(-25.499999523163,-120.000001788139,238.000003546476));
#1609=CARTESIAN_POINT('',(-7.99999982118607,-158.215110683437,244.183863836893));
#1610=CARTESIAN_POINT('',(-7.01511406302037,-159.199996441603,244.51587439652));
#1611=CARTESIAN_POINT('Ctrl Pts',(-7.99999982118607,-158.215110683437,244.183863836893));
#1612=CARTESIAN_POINT('Ctrl Pts',(-8.12330570954936,-158.215110683437,244.183863836893));
#1613=CARTESIAN_POINT('Ctrl Pts',(-8.2543506035484,-158.239719706056,244.192033495142));
#1614=CARTESIAN_POINT('Ctrl Pts',(-8.4943103290318,-158.33832199803,244.224873033197));
#1615=CARTESIAN_POINT('Ctrl Pts',(-8.60324316591579,-158.412271952289,244.249541385768));
#1616=CARTESIAN_POINT('Ctrl Pts',(-8.78011455893822,-158.585445836817,244.307564135645));
#1617=CARTESIAN_POINT('Ctrl Pts',(-8.85775171425361,-158.698071294082,244.345424076979));
#1618=CARTESIAN_POINT('Ctrl Pts',(-8.96011916196507,-158.94340724931,244.428396818867));
#1619=CARTESIAN_POINT('Ctrl Pts',(-8.98488557935176,-159.076100579334,244.473515807964));
#1620=CARTESIAN_POINT('Ctrl Pts',(-8.98488557935176,-159.324177171864,244.558330378209));
#1621=CARTESIAN_POINT('Ctrl Pts',(-8.96001605606711,-159.457005168957,244.603991171374));
#1622=CARTESIAN_POINT('Ctrl Pts',(-8.85747516896012,-159.70241129403,244.688801999898));
#1623=CARTESIAN_POINT('Ctrl Pts',(-8.77977480330646,-159.814982288186,244.727937609454));
#1624=CARTESIAN_POINT('Ctrl Pts',(-8.60294902991884,-159.987912059368,244.788250237594));
#1625=CARTESIAN_POINT('Ctrl Pts',(-8.49414784994647,-160.061749791152,244.81411250947));
#1626=CARTESIAN_POINT('Ctrl Pts',(-8.25435520406651,-160.160259137348,244.8486695367));
#1627=CARTESIAN_POINT('Ctrl Pts',(-8.12333944604477,-160.184882199768,244.857334103983));
#1628=CARTESIAN_POINT('Ctrl Pts',(-7.87666019632736,-160.184882199768,244.857334103983));
#1629=CARTESIAN_POINT('Ctrl Pts',(-7.74564443830562,-160.160259137348,244.8486695367));
#1630=CARTESIAN_POINT('Ctrl Pts',(-7.50585179242566,-160.061749791152,244.81411250947));
#1631=CARTESIAN_POINT('Ctrl Pts',(-7.39705061245329,-159.987912059368,244.788250237594));
#1632=CARTESIAN_POINT('Ctrl Pts',(-7.22022483906568,-159.814982288186,244.727937609454));
#1633=CARTESIAN_POINT('Ctrl Pts',(-7.14252447341201,-159.70241129403,244.688801999898));
#1634=CARTESIAN_POINT('Ctrl Pts',(-7.03998358630501,-159.457005168957,244.603991171374));
#1635=CARTESIAN_POINT('Ctrl Pts',(-7.01511406302037,-159.324177171864,244.558330378209));
#1636=CARTESIAN_POINT('Ctrl Pts',(-7.01511406302037,-159.199996441603,244.51587439652));
#1637=CARTESIAN_POINT('Ctrl Pts',(-7.01511406302037,-159.199996441603,244.51587439652));
#1638=CARTESIAN_POINT('Ctrl Pts',(-7.01511406302037,-159.076100579334,244.473515807964));
#1639=CARTESIAN_POINT('Ctrl Pts',(-7.03988048040706,-158.94340724931,244.428396818867));
#1640=CARTESIAN_POINT('Ctrl Pts',(-7.14224792811852,-158.698071294082,244.345424076979));
#1641=CARTESIAN_POINT('Ctrl Pts',(-7.21988508343391,-158.585445836817,244.307564135645));
#1642=CARTESIAN_POINT('Ctrl Pts',(-7.39675647645634,-158.412271952289,244.249541385768));
#1643=CARTESIAN_POINT('Ctrl Pts',(-7.50568931334033,-158.33832199803,244.224873033197));
#1644=CARTESIAN_POINT('Ctrl Pts',(-7.74564903882373,-158.239719706056,244.192033495142));
#1645=CARTESIAN_POINT('Ctrl Pts',(-7.87669393282277,-158.215110683437,244.183863836893));
#1646=CARTESIAN_POINT('Ctrl Pts',(-7.99999982118607,-158.215110683437,244.183863836893));
#1647=CARTESIAN_POINT('Origin',(-28.499999523163,-189.000002816319,236.692066281288));
#1648=CARTESIAN_POINT('',(-28.499999523163,-161.335554756208,236.692066281288));
#1649=CARTESIAN_POINT('',(-28.499999523163,-189.000002816319,236.692066281288));
#1650=CARTESIAN_POINT('',(-28.499999523163,-161.335554756208,236.692066281288));
#1651=CARTESIAN_POINT('',(-13.899999523163,-161.335554756208,236.692066281288));
#1652=CARTESIAN_POINT('',(-28.499999523163,-161.335554756208,236.692066281288));
#1653=CARTESIAN_POINT('',(-13.899999523163,-189.000002816319,236.692066281288));
#1654=CARTESIAN_POINT('',(-13.899999523163,-161.335554756208,236.692066281288));
#1655=CARTESIAN_POINT('',(-28.499999523163,-189.000002816319,236.692066281288));
#1656=CARTESIAN_POINT('Origin',(-28.499999523163,-189.000002816319,259.564274907537));
#1657=CARTESIAN_POINT('',(-28.499999523163,-189.000002816319,236.692066281288));
#1658=CARTESIAN_POINT('',(-13.899999523163,-189.000002816319,236.692066281288));
#1659=CARTESIAN_POINT('Origin',(-28.499999523163,-161.335554756208,236.692066281288));
#1660=CARTESIAN_POINT('',(-28.499999523163,-161.335554756208,245.268354772011));
#1661=CARTESIAN_POINT('',(-13.899999523163,-161.335554756208,245.268354772011));
#1662=CARTESIAN_POINT('Origin',(-13.8999996893108,-184.000008739531,264.000003933907));
#1663=CARTESIAN_POINT('',(-13.9000006602146,-161.800007685088,252.000003933907));
#1664=CARTESIAN_POINT('',(-13.9000006602146,-161.800007685088,264.000003933907));
#1665=CARTESIAN_POINT('',(-13.8999996893108,-156.299996506423,252.000003933907));
#1666=CARTESIAN_POINT('',(-13.8999996893108,-188.699995782226,252.000003933907));
#1667=CARTESIAN_POINT('',(-13.8999996893108,-156.299996506423,264.000003933907));
#1668=CARTESIAN_POINT('',(-13.8999996893108,-156.299996506423,264.000003933907));
#1669=CARTESIAN_POINT('',(-13.8999996893108,-188.699995782226,264.000003933907));
#1670=CARTESIAN_POINT('',(-13.8999996893108,-100.900004140567,264.000003933907));
#1671=CARTESIAN_POINT('',(-13.8999996893108,-188.699995782226,264.000003933907));
#1672=CARTESIAN_POINT('',(-13.8999996893108,-188.699995782226,252.900003933907));
#1673=CARTESIAN_POINT('',(-13.9000006602146,-184.000008739531,252.900003933907));
#1674=CARTESIAN_POINT('',(-13.8999996893108,-187.524999021553,252.900003933907));
#1675=CARTESIAN_POINT('',(-13.9000006602146,-184.000008739531,237.000003933907));
#1676=CARTESIAN_POINT('',(-13.9000006602146,-184.000008739531,264.000003933907));
#1677=CARTESIAN_POINT('',(-13.8999996893108,-188.699995782226,237.000003933907));
#1678=CARTESIAN_POINT('',(-13.8999996893108,-188.699995782226,237.000003933907));
#1679=CARTESIAN_POINT('',(-13.8999996893108,-188.699995782226,264.000003933907));
#1680=CARTESIAN_POINT('Origin',(-8.00000030663796,-159.050002095755,252.000003933907));
#1681=CARTESIAN_POINT('',(-2.09999995306134,-161.800007685088,252.000003933907));
#1682=CARTESIAN_POINT('',(-10.9500004834263,-161.800007685088,252.000003933907));
#1683=CARTESIAN_POINT('',(-2.09999995306134,-156.299996506423,252.000003933907));
#1684=CARTESIAN_POINT('',(-2.09999995306134,-156.299996506423,252.000003933907));
#1685=CARTESIAN_POINT('',(-13.8999996893108,-156.299996506423,252.000003933907));
#1686=CARTESIAN_POINT('',(-7.01511406302037,-159.199996441603,252.000003933907));
#1687=CARTESIAN_POINT('Origin',(-7.99999982118607,-159.199996441603,252.000003933907));
#1688=CARTESIAN_POINT('Origin',(-2.09999995306134,-161.800007685088,264.000003933907));
#1689=CARTESIAN_POINT('',(-2.09999995306134,-156.299996506423,264.000003933907));
#1690=CARTESIAN_POINT('',(-2.09999995306134,-188.699995782226,264.000003933907));
#1691=CARTESIAN_POINT('',(-2.09999995306134,-100.900004140567,264.000003933907));
#1692=CARTESIAN_POINT('',(-2.09999995306134,-156.299996506423,264.000003933907));
#1693=CARTESIAN_POINT('',(-2.09999995306134,-161.800007685088,264.000003933907));
#1694=CARTESIAN_POINT('',(-2.09999995306134,-188.699995782226,264.000003933907));
#1695=CARTESIAN_POINT('',(-2.09999995306134,-184.000008739531,252.900003933907));
#1696=CARTESIAN_POINT('',(-2.09999995306134,-188.699995782226,252.900003933907));
#1697=CARTESIAN_POINT('',(-2.09999995306134,-185.175005500205,252.900003933907));
#1698=CARTESIAN_POINT('',(-2.09999995306134,-188.699995782226,237.000003933907));
#1699=CARTESIAN_POINT('',(-2.09999995306134,-188.699995782226,264.000003933907));
#1700=CARTESIAN_POINT('',(-2.09999995306134,-184.000008739531,237.000003933907));
#1701=CARTESIAN_POINT('',(-2.09999995306134,-156.299996506423,237.000003933907));
#1702=CARTESIAN_POINT('',(-2.09999995306134,-184.000008739531,264.000003933907));
#1703=CARTESIAN_POINT('Origin',(-7.99999982118607,-159.199996441603,264.000003933907));
#1704=CARTESIAN_POINT('',(-7.01511406302037,-159.199996441603,264.000003933907));
#1705=CARTESIAN_POINT('Origin',(-2.09999995306134,-188.699995782226,264.000003933907));
#1706=CARTESIAN_POINT('',(-13.7999997381122,-188.699995782226,264.000003933907));
#1707=CARTESIAN_POINT('Origin',(-13.8999996893108,-156.299996506423,264.000003933907));
#1708=CARTESIAN_POINT('',(-19.6999996062369,-156.299996506423,264.000003933907));
#1709=CARTESIAN_POINT('Origin',(-25.499999523163,-40.0000005960464,264.000003933907));
#1710=CARTESIAN_POINT('',(-28.499999523163,-40.0000005960464,264.000003933907));
#1711=CARTESIAN_POINT('',(-25.499999523163,-40.0000005960464,264.000003933907));
#1712=CARTESIAN_POINT('',(-28.499999523163,-40.0000005960464,264.000003933907));
#1713=CARTESIAN_POINT('Origin',(-13.9000006602146,-161.800007685088,264.000003933907));
#1714=CARTESIAN_POINT('Origin',(4.50000047683695,-101.300001505017,241.00000359118));
#1715=CARTESIAN_POINT('',(-17.899999523163,-101.300001505017,260.850003874302));
#1716=CARTESIAN_POINT('',(-17.899999523163,-101.300001505017,240.30000359118));
#1717=CARTESIAN_POINT('',(-17.899999523163,-101.300001505017,241.00000359118));
#1718=CARTESIAN_POINT('',(-28.499999523163,-101.300001505017,240.30000359118));
#1719=CARTESIAN_POINT('',(-25.499999523163,-101.300001505017,240.30000359118));
#1720=CARTESIAN_POINT('',(-28.499999523163,-101.300001505017,260.850003874302));
#1721=CARTESIAN_POINT('',(-28.499999523163,-101.300001505017,246.000003665686));
#1722=CARTESIAN_POINT('',(-25.499999523163,-101.300001505017,260.850003874302));
#1723=CARTESIAN_POINT('Origin',(4.50000047683695,-101.300001505017,241.00000359118));
#1724=CARTESIAN_POINT('',(-13.899999523163,-101.300001505017,240.30000359118));
#1725=CARTESIAN_POINT('',(-13.899999523163,-101.300001505017,260.850003874302));
#1726=CARTESIAN_POINT('',(-13.899999523163,-101.300001505017,241.00000359118));
#1727=CARTESIAN_POINT('',(-25.499999523163,-101.300001505017,260.850003874302));
#1728=CARTESIAN_POINT('',(-25.499999523163,-101.300001505017,240.30000359118));
#1729=CARTESIAN_POINT('Origin',(-13.999999523163,-53.5000008046627,241.00000359118));
#1730=CARTESIAN_POINT('',(-13.999999523163,-53.5000008046627,240.30000359118));
#1731=CARTESIAN_POINT('',(-17.999999523163,-53.5000008046627,240.30000359118));
#1732=CARTESIAN_POINT('',(-4.74999952316305,-53.5000008046627,240.30000359118));
#1733=CARTESIAN_POINT('',(-13.999999523163,-53.5000008046627,241.00000359118));
#1734=CARTESIAN_POINT('',(-13.999999523163,-53.5000008046627,241.00000359118));
#1735=CARTESIAN_POINT('',(-17.999999523163,-53.5000008046627,241.00000359118));
#1736=CARTESIAN_POINT('',(-13.999999523163,-53.5000008046627,241.00000359118));
#1737=CARTESIAN_POINT('',(-17.999999523163,-53.5000008046627,241.00000359118));
#1738=CARTESIAN_POINT('Origin',(4.50000047683695,-46.6000007003546,260.000003874302));
#1739=CARTESIAN_POINT('',(-17.999999523163,-46.6000007003546,240.30000359118));
#1740=CARTESIAN_POINT('',(-17.999999523163,-46.6000007003546,260.850003874302));
#1741=CARTESIAN_POINT('',(-17.999999523163,-46.6000007003546,255.262501381803));
#1742=CARTESIAN_POINT('',(-28.499999523163,-46.6000007003546,260.850003874302));
#1743=CARTESIAN_POINT('',(4.50000047683695,-46.6000007003546,260.850003874302));
#1744=CARTESIAN_POINT('',(-28.499999523163,-46.5999989494681,240.30000359118));
#1745=CARTESIAN_POINT('',(-28.499999523163,-46.6000007003546,246.000003665686));
#1746=CARTESIAN_POINT('',(4.50000047683695,-46.6000007003546,240.30000359118));
#1747=CARTESIAN_POINT('Origin',(4.50000047683695,-47.0000007003546,240.30000359118));
#1748=CARTESIAN_POINT('',(-13.899999523163,-94.0000014007092,240.30000359118));
#1749=CARTESIAN_POINT('',(-13.899999523163,-70.5000010505319,240.30000359118));
#1750=CARTESIAN_POINT('',(-13.999999523163,-46.8000007003546,240.30000359118));
#1751=CARTESIAN_POINT('',(-17.999999523163,-50.2500007525086,240.30000359118));
#1752=CARTESIAN_POINT('',(-28.499999523163,-79.7653719648667,240.30000359118));
#1753=CARTESIAN_POINT('',(-17.899999523163,-94.0000014007092,240.30000359118));
#1754=CARTESIAN_POINT('',(-17.899999523163,-74.1500011026859,240.30000359118));
#1755=CARTESIAN_POINT('',(-6.69999952316305,-94.0000014007092,240.30000359118));
#1756=CARTESIAN_POINT('Origin',(-17.999999523163,-53.4999987930059,260.04999418743));
#1757=CARTESIAN_POINT('',(-17.999999523163,-53.4999987930059,260.850003874302));
#1758=CARTESIAN_POINT('',(-13.999999523163,-53.4999987930059,260.850003874302));
#1759=CARTESIAN_POINT('',(-6.74999952316305,-53.4999987930059,260.850003874302));
#1760=CARTESIAN_POINT('',(-17.999999523163,-53.4999987930059,260.04999418743));
#1761=CARTESIAN_POINT('',(-17.999999523163,-53.4999987930059,260.04999418743));
#1762=CARTESIAN_POINT('',(-13.999999523163,-53.4999987930059,260.04999418743));
#1763=CARTESIAN_POINT('',(-13.999999523163,-53.4999987930059,260.04999418743));
#1764=CARTESIAN_POINT('',(-13.999999523163,-53.4999987930059,260.04999418743));
#1765=CARTESIAN_POINT('Origin',(-17.999999523163,-49.9999998770654,250.524998889305));
#1766=CARTESIAN_POINT('',(-17.999999523163,-53.4999987930059,260.04999418743));
#1767=CARTESIAN_POINT('',(-17.999999523163,-73.7500002272427,260.850003874302));
#1768=CARTESIAN_POINT('',(-17.999999523163,-51.5110310920012,245.500003658235));
#1769=CARTESIAN_POINT('Origin',(-17.999999523163,-49.5000007450581,245.500003658235));
#1770=CARTESIAN_POINT('',(-17.999999523163,-51.4104961571643,255.49999428913));
#1771=CARTESIAN_POINT('Origin',(-17.999999523163,-49.4999988824129,255.49999428913));
#1772=CARTESIAN_POINT('Origin',(-13.999999523163,-53.5000008046627,241.00000359118));
#1773=CARTESIAN_POINT('',(-13.999999523163,-53.4999987930059,260.04999418743));
#1774=CARTESIAN_POINT('Origin',(-13.999999523163,-49.4999988824129,255.49999428913));
#1775=CARTESIAN_POINT('',(-13.999999523163,-51.4104961571643,255.49999428913));
#1776=CARTESIAN_POINT('',(-13.999999523163,-51.4104961571643,255.49999428913));
#1777=CARTESIAN_POINT('Origin',(-13.999999523163,-49.4999988824129,255.49999428913));
#1778=CARTESIAN_POINT('Origin',(-13.999999523163,-49.5000007450581,245.500003658235));
#1779=CARTESIAN_POINT('',(-13.999999523163,-51.5110310920012,245.500003658235));
#1780=CARTESIAN_POINT('',(-13.999999523163,-51.5110310920012,245.500003658235));
#1781=CARTESIAN_POINT('Origin',(-13.999999523163,-49.5000007450581,245.500003658235));
#1782=CARTESIAN_POINT('Origin',(-13.999999523163,-73.5000011026859,250.500003732741));
#1783=CARTESIAN_POINT('',(-13.999999523163,-46.6000007003546,260.850003874302));
#1784=CARTESIAN_POINT('Origin',(-28.499999523163,-112.530743229379,251.000003740191));
#1785=CARTESIAN_POINT('',(-28.499999523163,-40.0000005960464,238.000003546476));
#1786=CARTESIAN_POINT('Origin',(-28.499999523163,-43.5330207643237,251.000003740191));
#1787=CARTESIAN_POINT('',(-28.499999523163,-120.000001788139,238.000003546476));
#1788=CARTESIAN_POINT('',(-28.499999523163,-79.7653719648667,260.850003874302));
#1789=CARTESIAN_POINT('Origin',(4.50000047683695,-101.000001505017,260.850003874302));
#1790=CARTESIAN_POINT('',(-17.899999523163,-94.0000014007092,260.850003874302));
#1791=CARTESIAN_POINT('',(-17.899999523163,-101.000001505017,260.850003874302));
#1792=CARTESIAN_POINT('',(-13.899999523163,-94.0000014007092,260.850003874302));
#1793=CARTESIAN_POINT('',(-13.899999523163,-101.000001505017,260.850003874302));
#1794=CARTESIAN_POINT('',(-4.69999952316305,-94.0000014007092,260.850003874302));
#1795=CARTESIAN_POINT('Origin',(-25.499999523163,-43.5330207643237,251.000003740191));
#1796=CARTESIAN_POINT('',(-25.499999523163,-40.0000005960464,238.000003546476));
#1797=CARTESIAN_POINT('Origin',(-25.499999523163,-120.000001788139,238.000003546476));
#1798=CARTESIAN_POINT('Origin',(-13.8999995231631,-74.0000011026859,250.500003732741));
#1799=CARTESIAN_POINT('',(-13.899999523163,-94.0000014007092,260.000003874302));
#1800=CARTESIAN_POINT('',(-13.899999523163,-100.052725789616,255.500003807247));
#1801=CARTESIAN_POINT('Origin',(-13.899999523163,-98.0000014603138,255.500003807247));
#1802=CARTESIAN_POINT('',(-13.899999523163,-100.069151378125,245.500003658235));
#1803=CARTESIAN_POINT('Origin',(-13.899999523163,-98.0000014603138,245.500003658235));
#1804=CARTESIAN_POINT('Origin',(-13.899999523163,-98.0000014603138,245.500003658235));
#1805=CARTESIAN_POINT('',(-17.899999523163,-100.069151378125,245.500003658235));
#1806=CARTESIAN_POINT('Origin',(-17.899999523163,-98.0000014603138,245.500003658235));
#1807=CARTESIAN_POINT('',(-13.899999523163,-100.069151378125,245.500003658235));
#1808=CARTESIAN_POINT('Origin',(-13.899999523163,-98.0000014603138,255.500003807247));
#1809=CARTESIAN_POINT('',(-17.899999523163,-100.052725789616,255.500003807247));
#1810=CARTESIAN_POINT('Origin',(-17.899999523163,-98.0000014603138,255.500003807247));
#1811=CARTESIAN_POINT('',(-13.899999523163,-100.052725789616,255.500003807247));
#1812=CARTESIAN_POINT('Origin',(-13.899999523163,-94.0000014007092,260.000003874302));
#1813=CARTESIAN_POINT('',(-17.899999523163,-94.0000014007092,260.000003874302));
#1814=CARTESIAN_POINT('Origin',(-17.899999523163,-97.5000014528632,250.500003732741));
#1815=CARTESIAN_POINT('Origin',(-8.00000030663796,-186.350002260879,237.000003933907));
#1816=CARTESIAN_POINT('',(-13.9000006602146,-184.000008739531,237.000003933907));
#1817=CARTESIAN_POINT('',(-2.09999995306134,-188.699995782226,237.000003933907));
#1818=CARTESIAN_POINT('',(-6.97043683009989,-186.299995835871,237.000003933907));
#1819=CARTESIAN_POINT('Origin',(-7.99999982118607,-186.299995835871,237.000003933907));
#1820=CARTESIAN_POINT('Origin',(-8.00000030663796,-186.350002260879,252.900003933907));
#1821=CARTESIAN_POINT('',(-5.05000012984965,-188.699995782226,252.900003933907));
#1822=CARTESIAN_POINT('',(-10.9500004834263,-184.000008739531,252.900003933907));
#1823=CARTESIAN_POINT('',(-6.97043683009989,-186.299995835871,252.900003933907));
#1824=CARTESIAN_POINT('Origin',(-7.99999982118607,-186.299995835871,252.900003933907));
#1825=CARTESIAN_POINT('Origin',(-13.9000006602146,-184.000008739531,264.000003933907));
#1826=CARTESIAN_POINT('Origin',(-2.09999995306134,-188.699995782226,264.000003933907));
#1827=CARTESIAN_POINT('Origin',(-7.99999982118607,-186.299995835871,264.000003933907));
#1828=CARTESIAN_POINT('',(-6.97043683009989,-186.299995835871,264.000003933907));
#1829=UNCERTAINTY_MEASURE_WITH_UNIT(LENGTH_MEASURE(0.01),#1833,
'DISTANCE_ACCURACY_VALUE',
'Maximum model space distance between geometric entities at asserted c
onnectivities');
#1830=UNCERTAINTY_MEASURE_WITH_UNIT(LENGTH_MEASURE(0.01),#1833,
'DISTANCE_ACCURACY_VALUE',
'Maximum model space distance between geometric entities at asserted c
onnectivities');
#1831=(
GEOMETRIC_REPRESENTATION_CONTEXT(3)
GLOBAL_UNCERTAINTY_ASSIGNED_CONTEXT((#1829))
GLOBAL_UNIT_ASSIGNED_CONTEXT((#1833,#1835,#1836))
REPRESENTATION_CONTEXT('','3D')
);
#1832=(
GEOMETRIC_REPRESENTATION_CONTEXT(3)
GLOBAL_UNCERTAINTY_ASSIGNED_CONTEXT((#1830))
GLOBAL_UNIT_ASSIGNED_CONTEXT((#1833,#1835,#1836))
REPRESENTATION_CONTEXT('','3D')
);
#1833=(
LENGTH_UNIT()
NAMED_UNIT(*)
SI_UNIT(.MILLI.,.METRE.)
);
#1834=(
LENGTH_UNIT()
NAMED_UNIT(*)
SI_UNIT($,.METRE.)
);
#1835=(
NAMED_UNIT(*)
PLANE_ANGLE_UNIT()
SI_UNIT($,.RADIAN.)
);
#1836=(
NAMED_UNIT(*)
SI_UNIT($,.STERADIAN.)
SOLID_ANGLE_UNIT()
);
#1837=SHAPE_DEFINITION_REPRESENTATION(#1838,#1839);
#1838=PRODUCT_DEFINITION_SHAPE('',$,#1841);
#1839=SHAPE_REPRESENTATION('',(#1124),#1831);
#1840=PRODUCT_DEFINITION_CONTEXT('part definition',#1845,'design');
#1841=PRODUCT_DEFINITION('2026-08-07-14-57-04-115',
'final arm to claw link',#1842,#1840);
#1842=PRODUCT_DEFINITION_FORMATION('',$,#1847);
#1843=PRODUCT_RELATED_PRODUCT_CATEGORY('final arm to claw link',
'final arm to claw link',(#1847));
#1844=APPLICATION_PROTOCOL_DEFINITION('international standard',
'automotive_design',2009,#1845);
#1845=APPLICATION_CONTEXT(
'Core Data for Automotive Mechanical Design Process');
#1846=PRODUCT_CONTEXT('part definition',#1845,'mechanical');
#1847=PRODUCT('2026-08-07-14-57-04-115','final arm to claw link',$,(#1846));
#1848=PRESENTATION_STYLE_ASSIGNMENT((#1849));
#1849=SURFACE_STYLE_USAGE(.BOTH.,#1850);
#1850=SURFACE_SIDE_STYLE('',(#1851));
#1851=SURFACE_STYLE_FILL_AREA(#1852);
#1852=FILL_AREA_STYLE('Steel - Satin',(#1853));
#1853=FILL_AREA_STYLE_COLOUR('Steel - Satin',#1854);
#1854=COLOUR_RGB('Steel - Satin',0.627450980392157,0.627450980392157,0.627450980392157);
ENDSEC;
END-ISO-10303-21;
