ISO-10303-21;
HEADER;
/* Generated by software containing ST-Developer
 * from STEP Tools, Inc. (www.steptools.com) 
 */

FILE_DESCRIPTION(
/* description */ (''),
/* implementation_level */ '2;1');

FILE_NAME(
/* name */ 'base to arm linkage final.step',
/* time_stamp */ '2026-08-10T21:30:10-05:00',
/* author */ (''),
/* organization */ (''),
/* preprocessor_version */ 'ST-DEVELOPER v20.1',
/* originating_system */ 'Autodesk Translation Framework v15.8.0.0',
/* authorisation */ '');

FILE_SCHEMA (('AUTOMOTIVE_DESIGN { 1 0 10303 214 3 1 1 }'));
ENDSEC;

DATA;
#10=MECHANICAL_DESIGN_GEOMETRIC_PRESENTATION_REPRESENTATION('',(#13,#14),
#900);
#11=SHAPE_REPRESENTATION_RELATIONSHIP('SRR','None',#907,#12);
#12=ADVANCED_BREP_SHAPE_REPRESENTATION('',(#15,#16),#899);
#13=STYLED_ITEM('',(#916),#15);
#14=STYLED_ITEM('',(#916),#16);
#15=MANIFOLD_SOLID_BREP('Body1',#519);
#16=MANIFOLD_SOLID_BREP('Body2',#520);
#17=FACE_BOUND('',#135,.T.);
#18=FACE_BOUND('',#136,.T.);
#19=FACE_BOUND('',#137,.T.);
#20=FACE_BOUND('',#138,.T.);
#21=FACE_BOUND('',#139,.T.);
#22=FACE_BOUND('',#141,.T.);
#23=FACE_BOUND('',#142,.T.);
#24=FACE_BOUND('',#143,.T.);
#25=FACE_BOUND('',#144,.T.);
#26=FACE_BOUND('',#145,.T.);
#27=FACE_BOUND('',#154,.T.);
#28=FACE_BOUND('',#155,.T.);
#29=FACE_BOUND('',#156,.T.);
#30=FACE_BOUND('',#158,.T.);
#31=FACE_BOUND('',#159,.T.);
#32=FACE_BOUND('',#160,.T.);
#33=FACE_BOUND('',#162,.T.);
#34=FACE_BOUND('',#163,.T.);
#35=FACE_BOUND('',#164,.T.);
#36=FACE_BOUND('',#165,.T.);
#37=FACE_BOUND('',#166,.T.);
#38=FACE_BOUND('',#174,.T.);
#39=FACE_BOUND('',#175,.T.);
#40=FACE_BOUND('',#176,.T.);
#41=FACE_BOUND('',#177,.T.);
#42=FACE_BOUND('',#178,.T.);
#43=CIRCLE('',#539,1.5);
#44=CIRCLE('',#540,1.5);
#45=CIRCLE('',#542,1.49999999999999);
#46=CIRCLE('',#543,1.49999999999999);
#47=CIRCLE('',#545,1.5);
#48=CIRCLE('',#546,1.5);
#49=CIRCLE('',#548,1.5);
#50=CIRCLE('',#549,1.5);
#51=CIRCLE('',#551,1.5);
#52=CIRCLE('',#552,1.5);
#53=CIRCLE('',#554,10.);
#54=CIRCLE('',#556,10.);
#55=CIRCLE('',#558,10.);
#56=CIRCLE('',#560,10.);
#57=CIRCLE('',#562,10.);
#58=CIRCLE('',#563,10.);
#59=CIRCLE('',#565,287.5669328611);
#60=CIRCLE('',#566,287.5669328611);
#61=CIRCLE('',#568,20.);
#62=CIRCLE('',#569,20.);
#63=CIRCLE('',#571,290.589464666979);
#64=CIRCLE('',#572,290.589464666979);
#65=CIRCLE('',#574,20.);
#66=CIRCLE('',#575,20.);
#67=CIRCLE('',#579,9.9);
#68=CIRCLE('',#580,1.6);
#69=CIRCLE('',#581,1.6);
#70=CIRCLE('',#582,1.6);
#71=CIRCLE('',#583,1.6);
#72=CIRCLE('',#584,1.6);
#73=CIRCLE('',#586,1.6);
#74=CIRCLE('',#588,1.6);
#75=CIRCLE('',#590,1.6);
#76=CIRCLE('',#592,1.6);
#77=CIRCLE('',#594,1.6);
#78=CIRCLE('',#596,9.9);
#79=CYLINDRICAL_SURFACE('',#538,1.5);
#80=CYLINDRICAL_SURFACE('',#541,1.49999999999999);
#81=CYLINDRICAL_SURFACE('',#544,1.5);
#82=CYLINDRICAL_SURFACE('',#547,1.5);
#83=CYLINDRICAL_SURFACE('',#550,1.5);
#84=CYLINDRICAL_SURFACE('',#557,10.);
#85=CYLINDRICAL_SURFACE('',#559,10.);
#86=CYLINDRICAL_SURFACE('',#561,10.);
#87=CYLINDRICAL_SURFACE('',#564,287.5669328611);
#88=CYLINDRICAL_SURFACE('',#567,20.);
#89=CYLINDRICAL_SURFACE('',#570,290.589464666979);
#90=CYLINDRICAL_SURFACE('',#573,20.);
#91=CYLINDRICAL_SURFACE('',#585,1.6);
#92=CYLINDRICAL_SURFACE('',#587,1.6);
#93=CYLINDRICAL_SURFACE('',#589,1.6);
#94=CYLINDRICAL_SURFACE('',#591,1.6);
#95=CYLINDRICAL_SURFACE('',#593,1.6);
#96=CYLINDRICAL_SURFACE('',#595,9.9);
#97=FACE_OUTER_BOUND('',#125,.T.);
#98=FACE_OUTER_BOUND('',#126,.T.);
#99=FACE_OUTER_BOUND('',#127,.T.);
#100=FACE_OUTER_BOUND('',#128,.T.);
#101=FACE_OUTER_BOUND('',#129,.T.);
#102=FACE_OUTER_BOUND('',#130,.T.);
#103=FACE_OUTER_BOUND('',#131,.T.);
#104=FACE_OUTER_BOUND('',#132,.T.);
#105=FACE_OUTER_BOUND('',#133,.T.);
#106=FACE_OUTER_BOUND('',#134,.T.);
#107=FACE_OUTER_BOUND('',#140,.T.);
#108=FACE_OUTER_BOUND('',#146,.T.);
#109=FACE_OUTER_BOUND('',#147,.T.);
#110=FACE_OUTER_BOUND('',#148,.T.);
#111=FACE_OUTER_BOUND('',#149,.T.);
#112=FACE_OUTER_BOUND('',#150,.T.);
#113=FACE_OUTER_BOUND('',#151,.T.);
#114=FACE_OUTER_BOUND('',#152,.T.);
#115=FACE_OUTER_BOUND('',#153,.T.);
#116=FACE_OUTER_BOUND('',#157,.T.);
#117=FACE_OUTER_BOUND('',#161,.T.);
#118=FACE_OUTER_BOUND('',#167,.T.);
#119=FACE_OUTER_BOUND('',#168,.T.);
#120=FACE_OUTER_BOUND('',#169,.T.);
#121=FACE_OUTER_BOUND('',#170,.T.);
#122=FACE_OUTER_BOUND('',#171,.T.);
#123=FACE_OUTER_BOUND('',#172,.T.);
#124=FACE_OUTER_BOUND('',#173,.T.);
#125=EDGE_LOOP('',(#349,#350,#351,#352));
#126=EDGE_LOOP('',(#353,#354,#355,#356));
#127=EDGE_LOOP('',(#357,#358,#359,#360));
#128=EDGE_LOOP('',(#361,#362,#363,#364));
#129=EDGE_LOOP('',(#365,#366,#367,#368));
#130=EDGE_LOOP('',(#369,#370,#371,#372));
#131=EDGE_LOOP('',(#373,#374,#375,#376));
#132=EDGE_LOOP('',(#377,#378,#379,#380));
#133=EDGE_LOOP('',(#381,#382,#383,#384));
#134=EDGE_LOOP('',(#385));
#135=EDGE_LOOP('',(#386));
#136=EDGE_LOOP('',(#387));
#137=EDGE_LOOP('',(#388));
#138=EDGE_LOOP('',(#389));
#139=EDGE_LOOP('',(#390));
#140=EDGE_LOOP('',(#391));
#141=EDGE_LOOP('',(#392));
#142=EDGE_LOOP('',(#393));
#143=EDGE_LOOP('',(#394));
#144=EDGE_LOOP('',(#395));
#145=EDGE_LOOP('',(#396));
#146=EDGE_LOOP('',(#397,#398,#399,#400));
#147=EDGE_LOOP('',(#401,#402,#403,#404));
#148=EDGE_LOOP('',(#405,#406,#407,#408));
#149=EDGE_LOOP('',(#409,#410,#411,#412));
#150=EDGE_LOOP('',(#413,#414,#415,#416));
#151=EDGE_LOOP('',(#417,#418,#419,#420));
#152=EDGE_LOOP('',(#421,#422,#423,#424));
#153=EDGE_LOOP('',(#425,#426,#427,#428));
#154=EDGE_LOOP('',(#429,#430,#431,#432));
#155=EDGE_LOOP('',(#433));
#156=EDGE_LOOP('',(#434));
#157=EDGE_LOOP('',(#435,#436,#437,#438));
#158=EDGE_LOOP('',(#439,#440,#441,#442));
#159=EDGE_LOOP('',(#443));
#160=EDGE_LOOP('',(#444));
#161=EDGE_LOOP('',(#445));
#162=EDGE_LOOP('',(#446));
#163=EDGE_LOOP('',(#447));
#164=EDGE_LOOP('',(#448));
#165=EDGE_LOOP('',(#449));
#166=EDGE_LOOP('',(#450));
#167=EDGE_LOOP('',(#451,#452,#453,#454));
#168=EDGE_LOOP('',(#455,#456,#457,#458));
#169=EDGE_LOOP('',(#459,#460,#461,#462));
#170=EDGE_LOOP('',(#463,#464,#465,#466));
#171=EDGE_LOOP('',(#467,#468,#469,#470));
#172=EDGE_LOOP('',(#471,#472,#473,#474));
#173=EDGE_LOOP('',(#475));
#174=EDGE_LOOP('',(#476));
#175=EDGE_LOOP('',(#477));
#176=EDGE_LOOP('',(#478));
#177=EDGE_LOOP('',(#479));
#178=EDGE_LOOP('',(#480));
#179=LINE('',#762,#209);
#180=LINE('',#764,#210);
#181=LINE('',#766,#211);
#182=LINE('',#767,#212);
#183=LINE('',#770,#213);
#184=LINE('',#772,#214);
#185=LINE('',#773,#215);
#186=LINE('',#776,#216);
#187=LINE('',#778,#217);
#188=LINE('',#779,#218);
#189=LINE('',#781,#219);
#190=LINE('',#782,#220);
#191=LINE('',#787,#221);
#192=LINE('',#793,#222);
#193=LINE('',#799,#223);
#194=LINE('',#805,#224);
#195=LINE('',#811,#225);
#196=LINE('',#821,#226);
#197=LINE('',#826,#227);
#198=LINE('',#831,#228);
#199=LINE('',#838,#229);
#200=LINE('',#841,#230);
#201=LINE('',#847,#231);
#202=LINE('',#853,#232);
#203=LINE('',#874,#233);
#204=LINE('',#878,#234);
#205=LINE('',#882,#235);
#206=LINE('',#886,#236);
#207=LINE('',#890,#237);
#208=LINE('',#894,#238);
#209=VECTOR('',#602,10.);
#210=VECTOR('',#603,10.);
#211=VECTOR('',#604,10.);
#212=VECTOR('',#605,10.);
#213=VECTOR('',#608,10.);
#214=VECTOR('',#609,10.);
#215=VECTOR('',#610,10.);
#216=VECTOR('',#613,10.);
#217=VECTOR('',#614,10.);
#218=VECTOR('',#615,10.);
#219=VECTOR('',#618,10.);
#220=VECTOR('',#619,10.);
#221=VECTOR('',#624,1.5);
#222=VECTOR('',#631,1.49999999999999);
#223=VECTOR('',#638,1.5);
#224=VECTOR('',#645,1.5);
#225=VECTOR('',#652,1.5);
#226=VECTOR('',#665,10.);
#227=VECTOR('',#672,10.);
#228=VECTOR('',#677,10.);
#229=VECTOR('',#684,10.);
#230=VECTOR('',#687,10.);
#231=VECTOR('',#694,10.);
#232=VECTOR('',#701,10.);
#233=VECTOR('',#728,1.6);
#234=VECTOR('',#733,1.6);
#235=VECTOR('',#738,1.6);
#236=VECTOR('',#743,1.6);
#237=VECTOR('',#748,1.6);
#238=VECTOR('',#753,9.9);
#239=VERTEX_POINT('',#760);
#240=VERTEX_POINT('',#761);
#241=VERTEX_POINT('',#763);
#242=VERTEX_POINT('',#765);
#243=VERTEX_POINT('',#769);
#244=VERTEX_POINT('',#771);
#245=VERTEX_POINT('',#775);
#246=VERTEX_POINT('',#777);
#247=VERTEX_POINT('',#784);
#248=VERTEX_POINT('',#786);
#249=VERTEX_POINT('',#790);
#250=VERTEX_POINT('',#792);
#251=VERTEX_POINT('',#796);
#252=VERTEX_POINT('',#798);
#253=VERTEX_POINT('',#802);
#254=VERTEX_POINT('',#804);
#255=VERTEX_POINT('',#808);
#256=VERTEX_POINT('',#810);
#257=VERTEX_POINT('',#814);
#258=VERTEX_POINT('',#817);
#259=VERTEX_POINT('',#820);
#260=VERTEX_POINT('',#824);
#261=VERTEX_POINT('',#828);
#262=VERTEX_POINT('',#830);
#263=VERTEX_POINT('',#834);
#264=VERTEX_POINT('',#835);
#265=VERTEX_POINT('',#837);
#266=VERTEX_POINT('',#839);
#267=VERTEX_POINT('',#843);
#268=VERTEX_POINT('',#845);
#269=VERTEX_POINT('',#849);
#270=VERTEX_POINT('',#851);
#271=VERTEX_POINT('',#860);
#272=VERTEX_POINT('',#862);
#273=VERTEX_POINT('',#864);
#274=VERTEX_POINT('',#866);
#275=VERTEX_POINT('',#868);
#276=VERTEX_POINT('',#870);
#277=VERTEX_POINT('',#873);
#278=VERTEX_POINT('',#877);
#279=VERTEX_POINT('',#881);
#280=VERTEX_POINT('',#885);
#281=VERTEX_POINT('',#889);
#282=VERTEX_POINT('',#893);
#283=EDGE_CURVE('',#239,#240,#179,.T.);
#284=EDGE_CURVE('',#241,#239,#180,.T.);
#285=EDGE_CURVE('',#242,#241,#181,.T.);
#286=EDGE_CURVE('',#242,#240,#182,.T.);
#287=EDGE_CURVE('',#240,#243,#183,.T.);
#288=EDGE_CURVE('',#244,#242,#184,.T.);
#289=EDGE_CURVE('',#244,#243,#185,.T.);
#290=EDGE_CURVE('',#243,#245,#186,.T.);
#291=EDGE_CURVE('',#246,#244,#187,.T.);
#292=EDGE_CURVE('',#246,#245,#188,.T.);
#293=EDGE_CURVE('',#245,#239,#189,.T.);
#294=EDGE_CURVE('',#241,#246,#190,.T.);
#295=EDGE_CURVE('',#247,#247,#43,.T.);
#296=EDGE_CURVE('',#247,#248,#191,.T.);
#297=EDGE_CURVE('',#248,#248,#44,.T.);
#298=EDGE_CURVE('',#249,#249,#45,.T.);
#299=EDGE_CURVE('',#249,#250,#192,.T.);
#300=EDGE_CURVE('',#250,#250,#46,.T.);
#301=EDGE_CURVE('',#251,#251,#47,.T.);
#302=EDGE_CURVE('',#251,#252,#193,.T.);
#303=EDGE_CURVE('',#252,#252,#48,.T.);
#304=EDGE_CURVE('',#253,#253,#49,.T.);
#305=EDGE_CURVE('',#253,#254,#194,.T.);
#306=EDGE_CURVE('',#254,#254,#50,.T.);
#307=EDGE_CURVE('',#255,#255,#51,.T.);
#308=EDGE_CURVE('',#255,#256,#195,.T.);
#309=EDGE_CURVE('',#256,#256,#52,.T.);
#310=EDGE_CURVE('',#257,#257,#53,.T.);
#311=EDGE_CURVE('',#258,#258,#54,.T.);
#312=EDGE_CURVE('',#258,#259,#196,.T.);
#313=EDGE_CURVE('',#259,#259,#55,.T.);
#314=EDGE_CURVE('',#260,#260,#56,.T.);
#315=EDGE_CURVE('',#260,#257,#197,.T.);
#316=EDGE_CURVE('',#261,#261,#57,.T.);
#317=EDGE_CURVE('',#261,#262,#198,.T.);
#318=EDGE_CURVE('',#262,#262,#58,.T.);
#319=EDGE_CURVE('',#263,#264,#59,.T.);
#320=EDGE_CURVE('',#263,#265,#199,.T.);
#321=EDGE_CURVE('',#266,#265,#60,.T.);
#322=EDGE_CURVE('',#264,#266,#200,.T.);
#323=EDGE_CURVE('',#267,#264,#61,.T.);
#324=EDGE_CURVE('',#268,#266,#62,.T.);
#325=EDGE_CURVE('',#267,#268,#201,.T.);
#326=EDGE_CURVE('',#267,#269,#63,.T.);
#327=EDGE_CURVE('',#270,#268,#64,.T.);
#328=EDGE_CURVE('',#269,#270,#202,.T.);
#329=EDGE_CURVE('',#263,#269,#65,.T.);
#330=EDGE_CURVE('',#265,#270,#66,.T.);
#331=EDGE_CURVE('',#271,#271,#67,.T.);
#332=EDGE_CURVE('',#272,#272,#68,.T.);
#333=EDGE_CURVE('',#273,#273,#69,.T.);
#334=EDGE_CURVE('',#274,#274,#70,.T.);
#335=EDGE_CURVE('',#275,#275,#71,.T.);
#336=EDGE_CURVE('',#276,#276,#72,.T.);
#337=EDGE_CURVE('',#276,#277,#203,.T.);
#338=EDGE_CURVE('',#277,#277,#73,.T.);
#339=EDGE_CURVE('',#275,#278,#204,.T.);
#340=EDGE_CURVE('',#278,#278,#74,.T.);
#341=EDGE_CURVE('',#274,#279,#205,.T.);
#342=EDGE_CURVE('',#279,#279,#75,.T.);
#343=EDGE_CURVE('',#273,#280,#206,.T.);
#344=EDGE_CURVE('',#280,#280,#76,.T.);
#345=EDGE_CURVE('',#272,#281,#207,.T.);
#346=EDGE_CURVE('',#281,#281,#77,.T.);
#347=EDGE_CURVE('',#271,#282,#208,.T.);
#348=EDGE_CURVE('',#282,#282,#78,.T.);
#349=ORIENTED_EDGE('',*,*,#283,.F.);
#350=ORIENTED_EDGE('',*,*,#284,.F.);
#351=ORIENTED_EDGE('',*,*,#285,.F.);
#352=ORIENTED_EDGE('',*,*,#286,.T.);
#353=ORIENTED_EDGE('',*,*,#287,.F.);
#354=ORIENTED_EDGE('',*,*,#286,.F.);
#355=ORIENTED_EDGE('',*,*,#288,.F.);
#356=ORIENTED_EDGE('',*,*,#289,.T.);
#357=ORIENTED_EDGE('',*,*,#290,.F.);
#358=ORIENTED_EDGE('',*,*,#289,.F.);
#359=ORIENTED_EDGE('',*,*,#291,.F.);
#360=ORIENTED_EDGE('',*,*,#292,.T.);
#361=ORIENTED_EDGE('',*,*,#293,.F.);
#362=ORIENTED_EDGE('',*,*,#292,.F.);
#363=ORIENTED_EDGE('',*,*,#294,.F.);
#364=ORIENTED_EDGE('',*,*,#284,.T.);
#365=ORIENTED_EDGE('',*,*,#295,.F.);
#366=ORIENTED_EDGE('',*,*,#296,.T.);
#367=ORIENTED_EDGE('',*,*,#297,.T.);
#368=ORIENTED_EDGE('',*,*,#296,.F.);
#369=ORIENTED_EDGE('',*,*,#298,.F.);
#370=ORIENTED_EDGE('',*,*,#299,.T.);
#371=ORIENTED_EDGE('',*,*,#300,.T.);
#372=ORIENTED_EDGE('',*,*,#299,.F.);
#373=ORIENTED_EDGE('',*,*,#301,.F.);
#374=ORIENTED_EDGE('',*,*,#302,.T.);
#375=ORIENTED_EDGE('',*,*,#303,.T.);
#376=ORIENTED_EDGE('',*,*,#302,.F.);
#377=ORIENTED_EDGE('',*,*,#304,.F.);
#378=ORIENTED_EDGE('',*,*,#305,.T.);
#379=ORIENTED_EDGE('',*,*,#306,.T.);
#380=ORIENTED_EDGE('',*,*,#305,.F.);
#381=ORIENTED_EDGE('',*,*,#307,.F.);
#382=ORIENTED_EDGE('',*,*,#308,.T.);
#383=ORIENTED_EDGE('',*,*,#309,.T.);
#384=ORIENTED_EDGE('',*,*,#308,.F.);
#385=ORIENTED_EDGE('',*,*,#310,.F.);
#386=ORIENTED_EDGE('',*,*,#307,.T.);
#387=ORIENTED_EDGE('',*,*,#304,.T.);
#388=ORIENTED_EDGE('',*,*,#301,.T.);
#389=ORIENTED_EDGE('',*,*,#298,.T.);
#390=ORIENTED_EDGE('',*,*,#295,.T.);
#391=ORIENTED_EDGE('',*,*,#311,.F.);
#392=ORIENTED_EDGE('',*,*,#309,.F.);
#393=ORIENTED_EDGE('',*,*,#306,.F.);
#394=ORIENTED_EDGE('',*,*,#303,.F.);
#395=ORIENTED_EDGE('',*,*,#300,.F.);
#396=ORIENTED_EDGE('',*,*,#297,.F.);
#397=ORIENTED_EDGE('',*,*,#311,.T.);
#398=ORIENTED_EDGE('',*,*,#312,.T.);
#399=ORIENTED_EDGE('',*,*,#313,.T.);
#400=ORIENTED_EDGE('',*,*,#312,.F.);
#401=ORIENTED_EDGE('',*,*,#314,.F.);
#402=ORIENTED_EDGE('',*,*,#315,.T.);
#403=ORIENTED_EDGE('',*,*,#310,.T.);
#404=ORIENTED_EDGE('',*,*,#315,.F.);
#405=ORIENTED_EDGE('',*,*,#316,.F.);
#406=ORIENTED_EDGE('',*,*,#317,.T.);
#407=ORIENTED_EDGE('',*,*,#318,.T.);
#408=ORIENTED_EDGE('',*,*,#317,.F.);
#409=ORIENTED_EDGE('',*,*,#319,.F.);
#410=ORIENTED_EDGE('',*,*,#320,.T.);
#411=ORIENTED_EDGE('',*,*,#321,.F.);
#412=ORIENTED_EDGE('',*,*,#322,.F.);
#413=ORIENTED_EDGE('',*,*,#323,.T.);
#414=ORIENTED_EDGE('',*,*,#322,.T.);
#415=ORIENTED_EDGE('',*,*,#324,.F.);
#416=ORIENTED_EDGE('',*,*,#325,.F.);
#417=ORIENTED_EDGE('',*,*,#326,.F.);
#418=ORIENTED_EDGE('',*,*,#325,.T.);
#419=ORIENTED_EDGE('',*,*,#327,.F.);
#420=ORIENTED_EDGE('',*,*,#328,.F.);
#421=ORIENTED_EDGE('',*,*,#329,.T.);
#422=ORIENTED_EDGE('',*,*,#328,.T.);
#423=ORIENTED_EDGE('',*,*,#330,.F.);
#424=ORIENTED_EDGE('',*,*,#320,.F.);
#425=ORIENTED_EDGE('',*,*,#330,.T.);
#426=ORIENTED_EDGE('',*,*,#327,.T.);
#427=ORIENTED_EDGE('',*,*,#324,.T.);
#428=ORIENTED_EDGE('',*,*,#321,.T.);
#429=ORIENTED_EDGE('',*,*,#290,.T.);
#430=ORIENTED_EDGE('',*,*,#293,.T.);
#431=ORIENTED_EDGE('',*,*,#283,.T.);
#432=ORIENTED_EDGE('',*,*,#287,.T.);
#433=ORIENTED_EDGE('',*,*,#316,.T.);
#434=ORIENTED_EDGE('',*,*,#314,.T.);
#435=ORIENTED_EDGE('',*,*,#329,.F.);
#436=ORIENTED_EDGE('',*,*,#319,.T.);
#437=ORIENTED_EDGE('',*,*,#323,.F.);
#438=ORIENTED_EDGE('',*,*,#326,.T.);
#439=ORIENTED_EDGE('',*,*,#291,.T.);
#440=ORIENTED_EDGE('',*,*,#288,.T.);
#441=ORIENTED_EDGE('',*,*,#285,.T.);
#442=ORIENTED_EDGE('',*,*,#294,.T.);
#443=ORIENTED_EDGE('',*,*,#318,.F.);
#444=ORIENTED_EDGE('',*,*,#313,.F.);
#445=ORIENTED_EDGE('',*,*,#331,.F.);
#446=ORIENTED_EDGE('',*,*,#332,.F.);
#447=ORIENTED_EDGE('',*,*,#333,.F.);
#448=ORIENTED_EDGE('',*,*,#334,.F.);
#449=ORIENTED_EDGE('',*,*,#335,.F.);
#450=ORIENTED_EDGE('',*,*,#336,.F.);
#451=ORIENTED_EDGE('',*,*,#336,.T.);
#452=ORIENTED_EDGE('',*,*,#337,.T.);
#453=ORIENTED_EDGE('',*,*,#338,.T.);
#454=ORIENTED_EDGE('',*,*,#337,.F.);
#455=ORIENTED_EDGE('',*,*,#335,.T.);
#456=ORIENTED_EDGE('',*,*,#339,.T.);
#457=ORIENTED_EDGE('',*,*,#340,.T.);
#458=ORIENTED_EDGE('',*,*,#339,.F.);
#459=ORIENTED_EDGE('',*,*,#334,.T.);
#460=ORIENTED_EDGE('',*,*,#341,.T.);
#461=ORIENTED_EDGE('',*,*,#342,.T.);
#462=ORIENTED_EDGE('',*,*,#341,.F.);
#463=ORIENTED_EDGE('',*,*,#333,.T.);
#464=ORIENTED_EDGE('',*,*,#343,.T.);
#465=ORIENTED_EDGE('',*,*,#344,.T.);
#466=ORIENTED_EDGE('',*,*,#343,.F.);
#467=ORIENTED_EDGE('',*,*,#332,.T.);
#468=ORIENTED_EDGE('',*,*,#345,.T.);
#469=ORIENTED_EDGE('',*,*,#346,.T.);
#470=ORIENTED_EDGE('',*,*,#345,.F.);
#471=ORIENTED_EDGE('',*,*,#331,.T.);
#472=ORIENTED_EDGE('',*,*,#347,.T.);
#473=ORIENTED_EDGE('',*,*,#348,.T.);
#474=ORIENTED_EDGE('',*,*,#347,.F.);
#475=ORIENTED_EDGE('',*,*,#348,.F.);
#476=ORIENTED_EDGE('',*,*,#346,.F.);
#477=ORIENTED_EDGE('',*,*,#344,.F.);
#478=ORIENTED_EDGE('',*,*,#342,.F.);
#479=ORIENTED_EDGE('',*,*,#340,.F.);
#480=ORIENTED_EDGE('',*,*,#338,.F.);
#481=PLANE('',#534);
#482=PLANE('',#535);
#483=PLANE('',#536);
#484=PLANE('',#537);
#485=PLANE('',#553);
#486=PLANE('',#555);
#487=PLANE('',#576);
#488=PLANE('',#577);
#489=PLANE('',#578);
#490=PLANE('',#597);
#491=ADVANCED_FACE('',(#97),#481,.F.);
#492=ADVANCED_FACE('',(#98),#482,.F.);
#493=ADVANCED_FACE('',(#99),#483,.F.);
#494=ADVANCED_FACE('',(#100),#484,.F.);
#495=ADVANCED_FACE('',(#101),#79,.F.);
#496=ADVANCED_FACE('',(#102),#80,.F.);
#497=ADVANCED_FACE('',(#103),#81,.F.);
#498=ADVANCED_FACE('',(#104),#82,.F.);
#499=ADVANCED_FACE('',(#105),#83,.F.);
#500=ADVANCED_FACE('',(#106,#17,#18,#19,#20,#21),#485,.T.);
#501=ADVANCED_FACE('',(#107,#22,#23,#24,#25,#26),#486,.F.);
#502=ADVANCED_FACE('',(#108),#84,.F.);
#503=ADVANCED_FACE('',(#109),#85,.F.);
#504=ADVANCED_FACE('',(#110),#86,.F.);
#505=ADVANCED_FACE('',(#111),#87,.F.);
#506=ADVANCED_FACE('',(#112),#88,.T.);
#507=ADVANCED_FACE('',(#113),#89,.F.);
#508=ADVANCED_FACE('',(#114),#90,.T.);
#509=ADVANCED_FACE('',(#115,#27,#28,#29),#487,.T.);
#510=ADVANCED_FACE('',(#116,#30,#31,#32),#488,.F.);
#511=ADVANCED_FACE('',(#117,#33,#34,#35,#36,#37),#489,.T.);
#512=ADVANCED_FACE('',(#118),#91,.F.);
#513=ADVANCED_FACE('',(#119),#92,.F.);
#514=ADVANCED_FACE('',(#120),#93,.F.);
#515=ADVANCED_FACE('',(#121),#94,.F.);
#516=ADVANCED_FACE('',(#122),#95,.F.);
#517=ADVANCED_FACE('',(#123),#96,.T.);
#518=ADVANCED_FACE('',(#124,#38,#39,#40,#41,#42),#490,.F.);
#519=CLOSED_SHELL('',(#491,#492,#493,#494,#495,#496,#497,#498,#499,#500,
#501,#502,#503,#504,#505,#506,#507,#508,#509,#510));
#520=CLOSED_SHELL('',(#511,#512,#513,#514,#515,#516,#517,#518));
#521=DERIVED_UNIT_ELEMENT(#523,1.);
#522=DERIVED_UNIT_ELEMENT(#902,-3.);
#523=(
MASS_UNIT()
NAMED_UNIT(*)
SI_UNIT(.KILO.,.GRAM.)
);
#524=DERIVED_UNIT((#521,#522));
#525=MEASURE_REPRESENTATION_ITEM('density measure',
POSITIVE_RATIO_MEASURE(7850.),#524);
#526=PROPERTY_DEFINITION_REPRESENTATION(#531,#528);
#527=PROPERTY_DEFINITION_REPRESENTATION(#532,#529);
#528=REPRESENTATION('material name',(#530),#899);
#529=REPRESENTATION('density',(#525),#899);
#530=DESCRIPTIVE_REPRESENTATION_ITEM('Steel','Steel');
#531=PROPERTY_DEFINITION('material property','material name',#909);
#532=PROPERTY_DEFINITION('material property','density of part',#909);
#533=AXIS2_PLACEMENT_3D('',#758,#598,#599);
#534=AXIS2_PLACEMENT_3D('',#759,#600,#601);
#535=AXIS2_PLACEMENT_3D('',#768,#606,#607);
#536=AXIS2_PLACEMENT_3D('',#774,#611,#612);
#537=AXIS2_PLACEMENT_3D('',#780,#616,#617);
#538=AXIS2_PLACEMENT_3D('',#783,#620,#621);
#539=AXIS2_PLACEMENT_3D('',#785,#622,#623);
#540=AXIS2_PLACEMENT_3D('',#788,#625,#626);
#541=AXIS2_PLACEMENT_3D('',#789,#627,#628);
#542=AXIS2_PLACEMENT_3D('',#791,#629,#630);
#543=AXIS2_PLACEMENT_3D('',#794,#632,#633);
#544=AXIS2_PLACEMENT_3D('',#795,#634,#635);
#545=AXIS2_PLACEMENT_3D('',#797,#636,#637);
#546=AXIS2_PLACEMENT_3D('',#800,#639,#640);
#547=AXIS2_PLACEMENT_3D('',#801,#641,#642);
#548=AXIS2_PLACEMENT_3D('',#803,#643,#644);
#549=AXIS2_PLACEMENT_3D('',#806,#646,#647);
#550=AXIS2_PLACEMENT_3D('',#807,#648,#649);
#551=AXIS2_PLACEMENT_3D('',#809,#650,#651);
#552=AXIS2_PLACEMENT_3D('',#812,#653,#654);
#553=AXIS2_PLACEMENT_3D('',#813,#655,#656);
#554=AXIS2_PLACEMENT_3D('',#815,#657,#658);
#555=AXIS2_PLACEMENT_3D('',#816,#659,#660);
#556=AXIS2_PLACEMENT_3D('',#818,#661,#662);
#557=AXIS2_PLACEMENT_3D('',#819,#663,#664);
#558=AXIS2_PLACEMENT_3D('',#822,#666,#667);
#559=AXIS2_PLACEMENT_3D('',#823,#668,#669);
#560=AXIS2_PLACEMENT_3D('',#825,#670,#671);
#561=AXIS2_PLACEMENT_3D('',#827,#673,#674);
#562=AXIS2_PLACEMENT_3D('',#829,#675,#676);
#563=AXIS2_PLACEMENT_3D('',#832,#678,#679);
#564=AXIS2_PLACEMENT_3D('',#833,#680,#681);
#565=AXIS2_PLACEMENT_3D('',#836,#682,#683);
#566=AXIS2_PLACEMENT_3D('',#840,#685,#686);
#567=AXIS2_PLACEMENT_3D('',#842,#688,#689);
#568=AXIS2_PLACEMENT_3D('',#844,#690,#691);
#569=AXIS2_PLACEMENT_3D('',#846,#692,#693);
#570=AXIS2_PLACEMENT_3D('',#848,#695,#696);
#571=AXIS2_PLACEMENT_3D('',#850,#697,#698);
#572=AXIS2_PLACEMENT_3D('',#852,#699,#700);
#573=AXIS2_PLACEMENT_3D('',#854,#702,#703);
#574=AXIS2_PLACEMENT_3D('',#855,#704,#705);
#575=AXIS2_PLACEMENT_3D('',#856,#706,#707);
#576=AXIS2_PLACEMENT_3D('',#857,#708,#709);
#577=AXIS2_PLACEMENT_3D('',#858,#710,#711);
#578=AXIS2_PLACEMENT_3D('',#859,#712,#713);
#579=AXIS2_PLACEMENT_3D('',#861,#714,#715);
#580=AXIS2_PLACEMENT_3D('',#863,#716,#717);
#581=AXIS2_PLACEMENT_3D('',#865,#718,#719);
#582=AXIS2_PLACEMENT_3D('',#867,#720,#721);
#583=AXIS2_PLACEMENT_3D('',#869,#722,#723);
#584=AXIS2_PLACEMENT_3D('',#871,#724,#725);
#585=AXIS2_PLACEMENT_3D('',#872,#726,#727);
#586=AXIS2_PLACEMENT_3D('',#875,#729,#730);
#587=AXIS2_PLACEMENT_3D('',#876,#731,#732);
#588=AXIS2_PLACEMENT_3D('',#879,#734,#735);
#589=AXIS2_PLACEMENT_3D('',#880,#736,#737);
#590=AXIS2_PLACEMENT_3D('',#883,#739,#740);
#591=AXIS2_PLACEMENT_3D('',#884,#741,#742);
#592=AXIS2_PLACEMENT_3D('',#887,#744,#745);
#593=AXIS2_PLACEMENT_3D('',#888,#746,#747);
#594=AXIS2_PLACEMENT_3D('',#891,#749,#750);
#595=AXIS2_PLACEMENT_3D('',#892,#751,#752);
#596=AXIS2_PLACEMENT_3D('',#895,#754,#755);
#597=AXIS2_PLACEMENT_3D('',#896,#756,#757);
#598=DIRECTION('axis',(0.,0.,1.));
#599=DIRECTION('refdir',(1.,0.,0.));
#600=DIRECTION('center_axis',(0.,-0.924905067484198,-0.380198127483619));
#601=DIRECTION('ref_axis',(0.,-0.380198127483619,0.924905067484198));
#602=DIRECTION('',(4.74086851188211E-15,0.380198127483619,-0.924905067484198));
#603=DIRECTION('',(-1.,0.,0.));
#604=DIRECTION('',(-4.74086851188211E-15,-0.380198127483619,0.924905067484198));
#605=DIRECTION('',(-1.,0.,0.));
#606=DIRECTION('center_axis',(0.,0.371390676354103,-0.92847669088526));
#607=DIRECTION('ref_axis',(0.,-0.928476690885259,-0.371390676354103));
#608=DIRECTION('',(-1.90367036037874E-15,0.928476690885259,0.371390676354103));
#609=DIRECTION('',(1.90367036037874E-15,-0.928476690885259,-0.371390676354103));
#610=DIRECTION('',(-1.,0.,0.));
#611=DIRECTION('center_axis',(0.,0.928476690885259,0.371390676354103));
#612=DIRECTION('ref_axis',(0.,0.371390676354103,-0.928476690885259));
#613=DIRECTION('',(-4.75917590094686E-15,-0.371390676354103,0.928476690885259));
#614=DIRECTION('',(4.75917590094686E-15,0.371390676354103,-0.928476690885259));
#615=DIRECTION('',(-1.,0.,0.));
#616=DIRECTION('center_axis',(0.,-0.371390676354104,0.928476690885259));
#617=DIRECTION('ref_axis',(0.,0.928476690885259,0.371390676354104));
#618=DIRECTION('',(1.90367036037874E-15,-0.928476690885259,-0.371390676354104));
#619=DIRECTION('',(-1.90367036037874E-15,0.928476690885259,0.371390676354104));
#620=DIRECTION('center_axis',(-1.,0.,0.));
#621=DIRECTION('ref_axis',(0.,-1.,0.));
#622=DIRECTION('center_axis',(1.,0.,5.12578931454833E-15));
#623=DIRECTION('ref_axis',(0.,-1.,0.));
#624=DIRECTION('',(1.,0.,0.));
#625=DIRECTION('center_axis',(1.,0.,5.12578931454833E-15));
#626=DIRECTION('ref_axis',(0.,-1.,0.));
#627=DIRECTION('center_axis',(-1.,0.,0.));
#628=DIRECTION('ref_axis',(0.,-1.,0.));
#629=DIRECTION('center_axis',(1.,0.,5.12578931454833E-15));
#630=DIRECTION('ref_axis',(0.,-1.,0.));
#631=DIRECTION('',(1.,0.,0.));
#632=DIRECTION('center_axis',(1.,0.,5.12578931454833E-15));
#633=DIRECTION('ref_axis',(0.,-1.,0.));
#634=DIRECTION('center_axis',(-1.,0.,0.));
#635=DIRECTION('ref_axis',(0.,-1.,0.));
#636=DIRECTION('center_axis',(1.,0.,5.12578931454833E-15));
#637=DIRECTION('ref_axis',(0.,-1.,0.));
#638=DIRECTION('',(1.,0.,0.));
#639=DIRECTION('center_axis',(1.,0.,5.12578931454833E-15));
#640=DIRECTION('ref_axis',(0.,-1.,0.));
#641=DIRECTION('center_axis',(-1.,0.,0.));
#642=DIRECTION('ref_axis',(0.,-1.,0.));
#643=DIRECTION('center_axis',(1.,0.,5.12578931454833E-15));
#644=DIRECTION('ref_axis',(0.,-1.,0.));
#645=DIRECTION('',(1.,0.,0.));
#646=DIRECTION('center_axis',(1.,0.,5.12578931454833E-15));
#647=DIRECTION('ref_axis',(0.,-1.,0.));
#648=DIRECTION('center_axis',(-1.,0.,0.));
#649=DIRECTION('ref_axis',(0.,-1.,0.));
#650=DIRECTION('center_axis',(1.,0.,5.12578931454833E-15));
#651=DIRECTION('ref_axis',(0.,-1.,0.));
#652=DIRECTION('',(1.,0.,0.));
#653=DIRECTION('center_axis',(1.,0.,5.12578931454833E-15));
#654=DIRECTION('ref_axis',(0.,-1.,0.));
#655=DIRECTION('center_axis',(-1.,0.,-5.12578931454833E-15));
#656=DIRECTION('ref_axis',(0.,-1.,0.));
#657=DIRECTION('center_axis',(1.,0.,5.12578931454833E-15));
#658=DIRECTION('ref_axis',(0.,-1.,0.));
#659=DIRECTION('center_axis',(-1.,0.,-5.12578931454833E-15));
#660=DIRECTION('ref_axis',(0.,-1.,0.));
#661=DIRECTION('center_axis',(-1.,0.,-5.12578931454833E-15));
#662=DIRECTION('ref_axis',(0.,-1.,0.));
#663=DIRECTION('center_axis',(-1.,0.,-4.9737991503207E-15));
#664=DIRECTION('ref_axis',(0.,-1.,0.));
#665=DIRECTION('',(1.,0.,4.9737991503207E-15));
#666=DIRECTION('center_axis',(1.,0.,5.12578931454833E-15));
#667=DIRECTION('ref_axis',(0.,-1.,0.));
#668=DIRECTION('center_axis',(-1.,0.,-4.9737991503207E-15));
#669=DIRECTION('ref_axis',(0.,-1.,0.));
#670=DIRECTION('center_axis',(1.,0.,5.12578931454833E-15));
#671=DIRECTION('ref_axis',(0.,-1.,0.));
#672=DIRECTION('',(1.,0.,4.9737991503207E-15));
#673=DIRECTION('center_axis',(-1.,0.,-4.9737991503207E-15));
#674=DIRECTION('ref_axis',(0.,-1.,0.));
#675=DIRECTION('center_axis',(1.,0.,5.12578931454833E-15));
#676=DIRECTION('ref_axis',(0.,-1.,0.));
#677=DIRECTION('',(1.,0.,4.9737991503207E-15));
#678=DIRECTION('center_axis',(1.,0.,5.12578931454833E-15));
#679=DIRECTION('ref_axis',(0.,-1.,0.));
#680=DIRECTION('center_axis',(-1.,0.,-4.9737991503207E-15));
#681=DIRECTION('ref_axis',(2.46564245125124E-15,-0.868478874116363,-0.495726179673391));
#682=DIRECTION('center_axis',(-1.,0.,-5.12578931454833E-15));
#683=DIRECTION('ref_axis',(2.54098795471173E-15,-0.868478874116363,-0.495726179673391));
#684=DIRECTION('',(-1.,0.,-4.9737991503207E-15));
#685=DIRECTION('center_axis',(1.,0.,5.12578931454833E-15));
#686=DIRECTION('ref_axis',(2.54098795471173E-15,-0.868478874116363,-0.495726179673391));
#687=DIRECTION('',(-1.,0.,-4.9737991503207E-15));
#688=DIRECTION('center_axis',(-1.,0.,-4.9737991503207E-15));
#689=DIRECTION('ref_axis',(0.,-1.,0.));
#690=DIRECTION('center_axis',(-1.,0.,-5.12578931454833E-15));
#691=DIRECTION('ref_axis',(0.,-1.,0.));
#692=DIRECTION('center_axis',(-1.,0.,-5.12578931454833E-15));
#693=DIRECTION('ref_axis',(0.,-1.,0.));
#694=DIRECTION('',(-1.,0.,-4.9737991503207E-15));
#695=DIRECTION('center_axis',(-1.,0.,-4.9737991503207E-15));
#696=DIRECTION('ref_axis',(-2.65273073537995E-15,0.845900370716527,0.533340944257651));
#697=DIRECTION('center_axis',(-1.,0.,-5.12578931454833E-15));
#698=DIRECTION('ref_axis',(-2.73379331308699E-15,0.845900370716527,0.533340944257651));
#699=DIRECTION('center_axis',(1.,0.,5.12578931454833E-15));
#700=DIRECTION('ref_axis',(-2.73379331308699E-15,0.845900370716527,0.533340944257651));
#701=DIRECTION('',(-1.,0.,-4.9737991503207E-15));
#702=DIRECTION('center_axis',(-1.,0.,-4.9737991503207E-15));
#703=DIRECTION('ref_axis',(4.29034749176314E-15,0.505904296212597,-0.862589614517608));
#704=DIRECTION('center_axis',(-1.,0.,-5.12578931454833E-15));
#705=DIRECTION('ref_axis',(0.,-1.,0.));
#706=DIRECTION('center_axis',(-1.,0.,-5.12578931454833E-15));
#707=DIRECTION('ref_axis',(0.,-1.,0.));
#708=DIRECTION('center_axis',(-1.,0.,-5.12578931454833E-15));
#709=DIRECTION('ref_axis',(0.,-1.,0.));
#710=DIRECTION('center_axis',(-1.,0.,-5.12578931454833E-15));
#711=DIRECTION('ref_axis',(0.,-1.,0.));
#712=DIRECTION('center_axis',(-1.,0.,-5.12578931454833E-15));
#713=DIRECTION('ref_axis',(0.,-1.,0.));
#714=DIRECTION('center_axis',(1.,0.,5.12578931454833E-15));
#715=DIRECTION('ref_axis',(0.,-1.,0.));
#716=DIRECTION('center_axis',(-1.,0.,-5.12578931454833E-15));
#717=DIRECTION('ref_axis',(0.,-1.,0.));
#718=DIRECTION('center_axis',(-1.,0.,-5.12578931454833E-15));
#719=DIRECTION('ref_axis',(0.,-1.,0.));
#720=DIRECTION('center_axis',(-1.,0.,-5.12578931454833E-15));
#721=DIRECTION('ref_axis',(0.,-1.,0.));
#722=DIRECTION('center_axis',(-1.,0.,-5.12578931454833E-15));
#723=DIRECTION('ref_axis',(0.,-1.,0.));
#724=DIRECTION('center_axis',(-1.,0.,-5.12578931454833E-15));
#725=DIRECTION('ref_axis',(0.,-1.,0.));
#726=DIRECTION('center_axis',(-1.,0.,-5.32907051820075E-15));
#727=DIRECTION('ref_axis',(0.,-1.,0.));
#728=DIRECTION('',(1.,0.,5.32907051820075E-15));
#729=DIRECTION('center_axis',(1.,0.,5.12578931454833E-15));
#730=DIRECTION('ref_axis',(0.,-1.,0.));
#731=DIRECTION('center_axis',(-1.,0.,-5.32907051820075E-15));
#732=DIRECTION('ref_axis',(0.,-1.,0.));
#733=DIRECTION('',(1.,0.,5.32907051820075E-15));
#734=DIRECTION('center_axis',(1.,0.,5.12578931454833E-15));
#735=DIRECTION('ref_axis',(0.,-1.,0.));
#736=DIRECTION('center_axis',(-1.,0.,-5.32907051820075E-15));
#737=DIRECTION('ref_axis',(0.,-1.,0.));
#738=DIRECTION('',(1.,0.,5.32907051820075E-15));
#739=DIRECTION('center_axis',(1.,0.,5.12578931454833E-15));
#740=DIRECTION('ref_axis',(0.,-1.,0.));
#741=DIRECTION('center_axis',(-1.,0.,-5.32907051820075E-15));
#742=DIRECTION('ref_axis',(0.,-1.,0.));
#743=DIRECTION('',(1.,0.,5.32907051820075E-15));
#744=DIRECTION('center_axis',(1.,0.,5.12578931454833E-15));
#745=DIRECTION('ref_axis',(0.,-1.,0.));
#746=DIRECTION('center_axis',(-1.,0.,-5.32907051820075E-15));
#747=DIRECTION('ref_axis',(0.,-1.,0.));
#748=DIRECTION('',(1.,0.,5.32907051820075E-15));
#749=DIRECTION('center_axis',(1.,0.,5.12578931454833E-15));
#750=DIRECTION('ref_axis',(0.,-1.,0.));
#751=DIRECTION('center_axis',(-1.,0.,-5.32907051820075E-15));
#752=DIRECTION('ref_axis',(0.,-1.,0.));
#753=DIRECTION('',(1.,0.,5.32907051820075E-15));
#754=DIRECTION('center_axis',(-1.,0.,-5.12578931454833E-15));
#755=DIRECTION('ref_axis',(0.,-1.,0.));
#756=DIRECTION('center_axis',(-1.,0.,-5.12578931454833E-15));
#757=DIRECTION('ref_axis',(0.,-1.,0.));
#758=CARTESIAN_POINT('',(0.,0.,0.));
#759=CARTESIAN_POINT('Origin',(-28.499999523163,-42.1424328527125,162.231110150805));
#760=CARTESIAN_POINT('',(-53.4999995231632,-70.,230.));
#761=CARTESIAN_POINT('',(-53.4999995231628,-42.1424328527125,162.231110150805));
#762=CARTESIAN_POINT('',(-53.4999995231629,-48.9908075272207,178.891098674173));
#763=CARTESIAN_POINT('',(-28.499999523163,-70.,230.));
#764=CARTESIAN_POINT('',(-28.499999523163,-70.,230.));
#765=CARTESIAN_POINT('',(-28.499999523163,-42.1424328527125,162.231110150805));
#766=CARTESIAN_POINT('',(-28.4999995231629,-48.9908075272207,178.891098674173));
#767=CARTESIAN_POINT('',(-28.499999523163,-42.1424328527125,162.231110150805));
#768=CARTESIAN_POINT('Origin',(-28.499999523163,-18.6398389829147,171.632147698724));
#769=CARTESIAN_POINT('',(-53.4999995231629,-18.6398389829147,171.632147698724));
#770=CARTESIAN_POINT('',(-53.4999995231629,-24.5075200590247,169.28507526828));
#771=CARTESIAN_POINT('',(-28.499999523163,-18.6398389829147,171.632147698724));
#772=CARTESIAN_POINT('',(-28.4999995231629,-24.5075200590246,169.28507526828));
#773=CARTESIAN_POINT('',(-28.499999523163,-18.6398389829147,171.632147698724));
#774=CARTESIAN_POINT('Origin',(-28.499999523163,-45.8508447443319,239.659662102267));
#775=CARTESIAN_POINT('',(-53.4999995231632,-45.8508447443319,239.659662102267));
#776=CARTESIAN_POINT('',(-53.4999995231632,-38.957741296056,222.426903481577));
#777=CARTESIAN_POINT('',(-28.499999523163,-45.8508447443319,239.659662102267));
#778=CARTESIAN_POINT('',(-28.4999995231632,-38.9577412960561,222.426903481578));
#779=CARTESIAN_POINT('',(-28.499999523163,-45.8508447443319,239.659662102267));
#780=CARTESIAN_POINT('Origin',(-28.499999523163,-70.,230.));
#781=CARTESIAN_POINT('',(-53.4999995231632,-63.7931034482759,232.48275862069));
#782=CARTESIAN_POINT('',(-28.4999995231632,-63.7931034482759,232.48275862069));
#783=CARTESIAN_POINT('Origin',(-30.4999995231633,-63.8,250.5));
#784=CARTESIAN_POINT('',(-32.4999995231633,-62.3,250.5));
#785=CARTESIAN_POINT('Origin',(-32.4999995231633,-63.8,250.5));
#786=CARTESIAN_POINT('',(-30.4999995231633,-62.3,250.5));
#787=CARTESIAN_POINT('',(-30.4999995231633,-62.3,250.5));
#788=CARTESIAN_POINT('Origin',(-30.4999995231633,-63.8,250.5));
#789=CARTESIAN_POINT('Origin',(-30.4999995231633,-70.8,250.5));
#790=CARTESIAN_POINT('',(-32.4999995231633,-69.3,250.5));
#791=CARTESIAN_POINT('Origin',(-32.4999995231633,-70.8,250.5));
#792=CARTESIAN_POINT('',(-30.4999995231633,-69.3,250.5));
#793=CARTESIAN_POINT('',(-30.4999995231633,-69.3,250.5));
#794=CARTESIAN_POINT('Origin',(-30.4999995231633,-70.8,250.5));
#795=CARTESIAN_POINT('Origin',(-30.4999995231633,-56.8,250.5));
#796=CARTESIAN_POINT('',(-32.4999995231633,-55.3,250.5));
#797=CARTESIAN_POINT('Origin',(-32.4999995231633,-56.8,250.5));
#798=CARTESIAN_POINT('',(-30.4999995231633,-55.3,250.5));
#799=CARTESIAN_POINT('',(-30.4999995231633,-55.3,250.5));
#800=CARTESIAN_POINT('Origin',(-30.4999995231633,-56.8,250.5));
#801=CARTESIAN_POINT('Origin',(-30.4999995231633,-63.8,243.5));
#802=CARTESIAN_POINT('',(-32.4999995231633,-62.3,243.5));
#803=CARTESIAN_POINT('Origin',(-32.4999995231633,-63.8,243.5));
#804=CARTESIAN_POINT('',(-30.4999995231633,-62.3,243.5));
#805=CARTESIAN_POINT('',(-30.4999995231633,-62.3,243.5));
#806=CARTESIAN_POINT('Origin',(-30.4999995231633,-63.8,243.5));
#807=CARTESIAN_POINT('Origin',(-30.4999995231633,-63.8,257.5));
#808=CARTESIAN_POINT('',(-32.4999995231633,-62.3,257.5));
#809=CARTESIAN_POINT('Origin',(-32.4999995231633,-63.8,257.5));
#810=CARTESIAN_POINT('',(-30.4999995231633,-62.3,257.5));
#811=CARTESIAN_POINT('',(-30.4999995231633,-62.3,257.5));
#812=CARTESIAN_POINT('Origin',(-30.4999995231633,-63.8,257.5));
#813=CARTESIAN_POINT('Origin',(-32.4999995231633,-63.8,250.5));
#814=CARTESIAN_POINT('',(-32.4999995231633,-53.8,250.5));
#815=CARTESIAN_POINT('Origin',(-32.4999995231633,-63.8,250.5));
#816=CARTESIAN_POINT('Origin',(-30.4999995231633,-63.8,250.5));
#817=CARTESIAN_POINT('',(-30.4999995231633,-53.8,250.5));
#818=CARTESIAN_POINT('Origin',(-30.4999995231633,-63.8,250.5));
#819=CARTESIAN_POINT('Origin',(-28.4999995231633,-63.8,250.5));
#820=CARTESIAN_POINT('',(-28.4999995231633,-53.8,250.5));
#821=CARTESIAN_POINT('',(-28.4999995231633,-53.8,250.5));
#822=CARTESIAN_POINT('Origin',(-28.4999995231633,-63.8,250.5));
#823=CARTESIAN_POINT('Origin',(-28.4999995231633,-63.8,250.5));
#824=CARTESIAN_POINT('',(-53.4999995231633,-53.8,250.5));
#825=CARTESIAN_POINT('Origin',(-53.4999995231633,-63.8,250.5));
#826=CARTESIAN_POINT('',(-28.4999995231633,-53.8,250.5));
#827=CARTESIAN_POINT('Origin',(-28.4999995231628,-23.8,150.5));
#828=CARTESIAN_POINT('',(-53.4999995231628,-13.8,150.5));
#829=CARTESIAN_POINT('Origin',(-53.4999995231628,-23.8,150.5));
#830=CARTESIAN_POINT('',(-28.4999995231628,-13.8,150.5));
#831=CARTESIAN_POINT('',(-28.4999995231628,-13.8,150.5));
#832=CARTESIAN_POINT('Origin',(-28.4999995231628,-23.8,150.5));
#833=CARTESIAN_POINT('Origin',(-28.4999995231636,238.137413583867,308.908942404851));
#834=CARTESIAN_POINT('',(-28.4999995231629,-11.6083925004369,166.354485377224));
#835=CARTESIAN_POINT('',(-28.4999995231633,-43.9859779494409,253.221126637986));
#836=CARTESIAN_POINT('Origin',(-28.4999995231636,238.137413583867,308.908942404851));
#837=CARTESIAN_POINT('',(-53.4999995231629,-11.6083925004369,166.354485377224));
#838=CARTESIAN_POINT('',(-28.4999995231629,-11.6083925004369,166.354485377224));
#839=CARTESIAN_POINT('',(-53.4999995231633,-43.9859779494409,253.221126637986));
#840=CARTESIAN_POINT('Origin',(-53.4999995231636,238.137413583867,308.908942404851));
#841=CARTESIAN_POINT('',(-28.4999995231633,-43.9859779494409,253.221126637986));
#842=CARTESIAN_POINT('Origin',(-28.4999995231633,-63.8,250.5));
#843=CARTESIAN_POINT('',(-28.4999995231633,-82.0513081004963,242.321384431289));
#844=CARTESIAN_POINT('Origin',(-28.4999995231633,-63.8,250.5));
#845=CARTESIAN_POINT('',(-53.4999995231633,-82.0513081004963,242.321384431289));
#846=CARTESIAN_POINT('Origin',(-53.4999995231633,-63.8,250.5));
#847=CARTESIAN_POINT('',(-28.4999995231633,-82.0513081004963,242.321384431289));
#848=CARTESIAN_POINT('Origin',(-28.4999995231625,-327.861043988611,87.3381249544773));
#849=CARTESIAN_POINT('',(-28.4999995231628,-43.5883957389916,147.598380783586));
#850=CARTESIAN_POINT('Origin',(-28.4999995231625,-327.861043988611,87.3381249544773));
#851=CARTESIAN_POINT('',(-53.4999995231628,-43.5883957389916,147.598380783586));
#852=CARTESIAN_POINT('Origin',(-53.4999995231625,-327.861043988611,87.3381249544772));
#853=CARTESIAN_POINT('',(-28.4999995231628,-43.5883957389916,147.598380783586));
#854=CARTESIAN_POINT('Origin',(-28.4999995231628,-23.8,150.5));
#855=CARTESIAN_POINT('Origin',(-28.4999995231628,-23.8,150.5));
#856=CARTESIAN_POINT('Origin',(-53.4999995231628,-23.8,150.5));
#857=CARTESIAN_POINT('Origin',(-53.499999523163,-43.8,200.5));
#858=CARTESIAN_POINT('Origin',(-28.499999523163,-43.8,200.5));
#859=CARTESIAN_POINT('Origin',(-32.4999995231628,-23.8,150.5));
#860=CARTESIAN_POINT('',(-32.4999995231628,-13.9,150.5));
#861=CARTESIAN_POINT('Origin',(-32.4999995231628,-23.8,150.5));
#862=CARTESIAN_POINT('',(-32.4999995231628,-22.2,157.5));
#863=CARTESIAN_POINT('Origin',(-32.4999995231628,-23.8,157.5));
#864=CARTESIAN_POINT('',(-32.4999995231628,-15.2,150.5));
#865=CARTESIAN_POINT('Origin',(-32.4999995231628,-16.8,150.5));
#866=CARTESIAN_POINT('',(-32.4999995231628,-22.2,150.5));
#867=CARTESIAN_POINT('Origin',(-32.4999995231628,-23.8,150.5));
#868=CARTESIAN_POINT('',(-32.4999995231628,-29.2,150.5));
#869=CARTESIAN_POINT('Origin',(-32.4999995231628,-30.8,150.5));
#870=CARTESIAN_POINT('',(-32.4999995231627,-22.2,143.5));
#871=CARTESIAN_POINT('Origin',(-32.4999995231627,-23.8,143.5));
#872=CARTESIAN_POINT('Origin',(-30.4999995231627,-23.8,143.5));
#873=CARTESIAN_POINT('',(-30.4999995231627,-22.2,143.5));
#874=CARTESIAN_POINT('',(-30.4999995231627,-22.2,143.5));
#875=CARTESIAN_POINT('Origin',(-30.4999995231627,-23.8,143.5));
#876=CARTESIAN_POINT('Origin',(-30.4999995231628,-30.8,150.5));
#877=CARTESIAN_POINT('',(-30.4999995231628,-29.2,150.5));
#878=CARTESIAN_POINT('',(-30.4999995231628,-29.2,150.5));
#879=CARTESIAN_POINT('Origin',(-30.4999995231628,-30.8,150.5));
#880=CARTESIAN_POINT('Origin',(-30.4999995231628,-23.8,150.5));
#881=CARTESIAN_POINT('',(-30.4999995231628,-22.2,150.5));
#882=CARTESIAN_POINT('',(-30.4999995231628,-22.2,150.5));
#883=CARTESIAN_POINT('Origin',(-30.4999995231628,-23.8,150.5));
#884=CARTESIAN_POINT('Origin',(-30.4999995231628,-16.8,150.5));
#885=CARTESIAN_POINT('',(-30.4999995231628,-15.2,150.5));
#886=CARTESIAN_POINT('',(-30.4999995231628,-15.2,150.5));
#887=CARTESIAN_POINT('Origin',(-30.4999995231628,-16.8,150.5));
#888=CARTESIAN_POINT('Origin',(-30.4999995231628,-23.8,157.5));
#889=CARTESIAN_POINT('',(-30.4999995231628,-22.2,157.5));
#890=CARTESIAN_POINT('',(-30.4999995231628,-22.2,157.5));
#891=CARTESIAN_POINT('Origin',(-30.4999995231628,-23.8,157.5));
#892=CARTESIAN_POINT('Origin',(-30.4999995231628,-23.8,150.5));
#893=CARTESIAN_POINT('',(-30.4999995231628,-13.9,150.5));
#894=CARTESIAN_POINT('',(-30.4999995231628,-13.9,150.5));
#895=CARTESIAN_POINT('Origin',(-30.4999995231628,-23.8,150.5));
#896=CARTESIAN_POINT('Origin',(-30.4999995231628,-23.8,150.5));
#897=UNCERTAINTY_MEASURE_WITH_UNIT(LENGTH_MEASURE(0.01),#901,
'DISTANCE_ACCURACY_VALUE',
'Maximum model space distance between geometric entities at asserted c
onnectivities');
#898=UNCERTAINTY_MEASURE_WITH_UNIT(LENGTH_MEASURE(0.01),#901,
'DISTANCE_ACCURACY_VALUE',
'Maximum model space distance between geometric entities at asserted c
onnectivities');
#899=(
GEOMETRIC_REPRESENTATION_CONTEXT(3)
GLOBAL_UNCERTAINTY_ASSIGNED_CONTEXT((#897))
GLOBAL_UNIT_ASSIGNED_CONTEXT((#901,#903,#904))
REPRESENTATION_CONTEXT('','3D')
);
#900=(
GEOMETRIC_REPRESENTATION_CONTEXT(3)
GLOBAL_UNCERTAINTY_ASSIGNED_CONTEXT((#898))
GLOBAL_UNIT_ASSIGNED_CONTEXT((#901,#903,#904))
REPRESENTATION_CONTEXT('','3D')
);
#901=(
LENGTH_UNIT()
NAMED_UNIT(*)
SI_UNIT(.MILLI.,.METRE.)
);
#902=(
LENGTH_UNIT()
NAMED_UNIT(*)
SI_UNIT($,.METRE.)
);
#903=(
NAMED_UNIT(*)
PLANE_ANGLE_UNIT()
SI_UNIT($,.RADIAN.)
);
#904=(
NAMED_UNIT(*)
SI_UNIT($,.STERADIAN.)
SOLID_ANGLE_UNIT()
);
#905=SHAPE_DEFINITION_REPRESENTATION(#906,#907);
#906=PRODUCT_DEFINITION_SHAPE('',$,#909);
#907=SHAPE_REPRESENTATION('',(#533),#899);
#908=PRODUCT_DEFINITION_CONTEXT('part definition',#913,'design');
#909=PRODUCT_DEFINITION('2026-08-07-10-48-55-754',
'base to arm linkage final',#910,#908);
#910=PRODUCT_DEFINITION_FORMATION('',$,#915);
#911=PRODUCT_RELATED_PRODUCT_CATEGORY('base to arm linkage final',
'base to arm linkage final',(#915));
#912=APPLICATION_PROTOCOL_DEFINITION('international standard',
'automotive_design',2009,#913);
#913=APPLICATION_CONTEXT(
'Core Data for Automotive Mechanical Design Process');
#914=PRODUCT_CONTEXT('part definition',#913,'mechanical');
#915=PRODUCT('2026-08-07-10-48-55-754','base to arm linkage final',$,(#914));
#916=PRESENTATION_STYLE_ASSIGNMENT((#917));
#917=SURFACE_STYLE_USAGE(.BOTH.,#918);
#918=SURFACE_SIDE_STYLE('',(#919));
#919=SURFACE_STYLE_FILL_AREA(#920);
#920=FILL_AREA_STYLE('Steel - Satin',(#921));
#921=FILL_AREA_STYLE_COLOUR('Steel - Satin',#922);
#922=COLOUR_RGB('Steel - Satin',0.627450980392157,0.627450980392157,0.627450980392157);
ENDSEC;
END-ISO-10303-21;
