ISO-10303-21;
HEADER;
/* Generated by software containing ST-Developer
 * from STEP Tools, Inc. (www.steptools.com) 
 */

FILE_DESCRIPTION(
/* description */ (''),
/* implementation_level */ '2;1');

FILE_NAME(
/* name */ 'final servo arm.step',
/* time_stamp */ '2026-08-10T21:32:27-05:00',
/* author */ (''),
/* organization */ (''),
/* preprocessor_version */ 'ST-DEVELOPER v20.1',
/* originating_system */ 'Autodesk Translation Framework v15.8.0.0',
/* authorisation */ '');

FILE_SCHEMA (('AUTOMOTIVE_DESIGN { 1 0 10303 214 3 1 1 }'));
ENDSEC;

DATA;
#10=MECHANICAL_DESIGN_GEOMETRIC_PRESENTATION_REPRESENTATION('',(#51,#52,
#53),#1627);
#11=ITEM_DEFINED_TRANSFORMATION($,$,#987,#1080);
#12=(
REPRESENTATION_RELATIONSHIP($,$,#1638,#1637)
REPRESENTATION_RELATIONSHIP_WITH_TRANSFORMATION(#11)
SHAPE_REPRESENTATION_RELATIONSHIP()
);
#13=CONTEXT_DEPENDENT_SHAPE_REPRESENTATION(#12,#1636);
#14=NEXT_ASSEMBLY_USAGE_OCCURRENCE('final assembly_Component17:1',
'final assembly_Component17:1','final assembly_Component17:1',#1640,#1641,
'final assembly_Component17:1');
#15=FACE_BOUND('',#317,.T.);
#16=FACE_BOUND('',#324,.T.);
#17=FACE_BOUND('',#328,.T.);
#18=FACE_BOUND('',#334,.T.);
#19=FACE_BOUND('',#335,.T.);
#20=FACE_BOUND('',#336,.T.);
#21=FACE_BOUND('',#350,.T.);
#22=FACE_BOUND('',#351,.T.);
#23=FACE_BOUND('',#352,.T.);
#24=FACE_BOUND('',#353,.T.);
#25=FACE_BOUND('',#354,.T.);
#26=FACE_BOUND('',#355,.T.);
#27=FACE_BOUND('',#356,.T.);
#28=FACE_BOUND('',#357,.T.);
#29=FACE_BOUND('',#358,.T.);
#30=FACE_BOUND('',#359,.T.);
#31=FACE_BOUND('',#360,.T.);
#32=FACE_BOUND('',#361,.T.);
#33=FACE_BOUND('',#365,.T.);
#34=FACE_BOUND('',#369,.T.);
#35=FACE_BOUND('',#370,.T.);
#36=FACE_BOUND('',#371,.T.);
#37=FACE_BOUND('',#372,.T.);
#38=FACE_BOUND('',#373,.T.);
#39=FACE_BOUND('',#374,.T.);
#40=FACE_BOUND('',#375,.T.);
#41=FACE_BOUND('',#376,.T.);
#42=FACE_BOUND('',#377,.T.);
#43=FACE_BOUND('',#378,.T.);
#44=FACE_BOUND('',#379,.T.);
#45=FACE_BOUND('',#380,.T.);
#46=FACE_BOUND('',#381,.T.);
#47=SHAPE_REPRESENTATION_RELATIONSHIP('SRR','None',#1638,#49);
#48=SHAPE_REPRESENTATION_RELATIONSHIP('SRR','None',#1637,#50);
#49=ADVANCED_BREP_SHAPE_REPRESENTATION('',(#54),#1626);
#50=ADVANCED_BREP_SHAPE_REPRESENTATION('',(#55,#56),#1625);
#51=STYLED_ITEM('',(#1651),#54);
#52=STYLED_ITEM('',(#1651),#55);
#53=STYLED_ITEM('',(#1651),#56);
#54=MANIFOLD_SOLID_BREP('Body1',#971);
#55=MANIFOLD_SOLID_BREP('Body1',#972);
#56=MANIFOLD_SOLID_BREP('Body2',#973);
#57=LINE('',#1364,#143);
#58=LINE('',#1370,#144);
#59=LINE('',#1372,#145);
#60=LINE('',#1374,#146);
#61=LINE('',#1375,#147);
#62=LINE('',#1379,#148);
#63=LINE('',#1381,#149);
#64=LINE('',#1383,#150);
#65=LINE('',#1384,#151);
#66=LINE('',#1387,#152);
#67=LINE('',#1389,#153);
#68=LINE('',#1390,#154);
#69=LINE('',#1393,#155);
#70=LINE('',#1395,#156);
#71=LINE('',#1397,#157);
#72=LINE('',#1399,#158);
#73=LINE('',#1401,#159);
#74=LINE('',#1403,#160);
#75=LINE('',#1404,#161);
#76=LINE('',#1407,#162);
#77=LINE('',#1409,#163);
#78=LINE('',#1410,#164);
#79=LINE('',#1413,#165);
#80=LINE('',#1415,#166);
#81=LINE('',#1417,#167);
#82=LINE('',#1419,#168);
#83=LINE('',#1421,#169);
#84=LINE('',#1423,#170);
#85=LINE('',#1424,#171);
#86=LINE('',#1428,#172);
#87=LINE('',#1430,#173);
#88=LINE('',#1432,#174);
#89=LINE('',#1433,#175);
#90=LINE('',#1436,#176);
#91=LINE('',#1437,#177);
#92=LINE('',#1438,#178);
#93=LINE('',#1441,#179);
#94=LINE('',#1442,#180);
#95=LINE('',#1444,#181);
#96=LINE('',#1445,#182);
#97=LINE('',#1449,#183);
#98=LINE('',#1450,#184);
#99=LINE('',#1451,#185);
#100=LINE('',#1454,#186);
#101=LINE('',#1455,#187);
#102=LINE('',#1458,#188);
#103=LINE('',#1459,#189);
#104=LINE('',#1461,#190);
#105=LINE('',#1466,#191);
#106=LINE('',#1477,#192);
#107=LINE('',#1479,#193);
#108=LINE('',#1480,#194);
#109=LINE('',#1485,#195);
#110=LINE('',#1486,#196);
#111=LINE('',#1489,#197);
#112=LINE('',#1490,#198);
#113=LINE('',#1493,#199);
#114=LINE('',#1494,#200);
#115=LINE('',#1499,#201);
#116=LINE('',#1500,#202);
#117=LINE('',#1502,#203);
#118=LINE('',#1503,#204);
#119=LINE('',#1505,#205);
#120=LINE('',#1507,#206);
#121=LINE('',#1511,#207);
#122=LINE('',#1515,#208);
#123=LINE('',#1523,#209);
#124=LINE('',#1529,#210);
#125=LINE('',#1535,#211);
#126=LINE('',#1541,#212);
#127=LINE('',#1547,#213);
#128=LINE('',#1553,#214);
#129=LINE('',#1559,#215);
#130=LINE('',#1565,#216);
#131=LINE('',#1571,#217);
#132=LINE('',#1577,#218);
#133=LINE('',#1583,#219);
#134=LINE('',#1589,#220);
#135=LINE('',#1595,#221);
#136=LINE('',#1600,#222);
#137=LINE('',#1601,#223);
#138=LINE('',#1604,#224);
#139=LINE('',#1605,#225);
#140=LINE('',#1609,#226);
#141=LINE('',#1611,#227);
#142=LINE('',#1618,#228);
#143=VECTOR('',#1091,2.00000000000001);
#144=VECTOR('',#1098,10.);
#145=VECTOR('',#1099,10.);
#146=VECTOR('',#1100,10.);
#147=VECTOR('',#1101,10.);
#148=VECTOR('',#1104,10.);
#149=VECTOR('',#1105,10.);
#150=VECTOR('',#1106,10.);
#151=VECTOR('',#1107,10.);
#152=VECTOR('',#1110,10.);
#153=VECTOR('',#1111,10.);
#154=VECTOR('',#1112,10.);
#155=VECTOR('',#1115,10.);
#156=VECTOR('',#1116,10.);
#157=VECTOR('',#1117,10.);
#158=VECTOR('',#1118,10.);
#159=VECTOR('',#1119,10.);
#160=VECTOR('',#1120,10.);
#161=VECTOR('',#1121,10.);
#162=VECTOR('',#1124,10.);
#163=VECTOR('',#1125,10.);
#164=VECTOR('',#1126,10.);
#165=VECTOR('',#1129,10.);
#166=VECTOR('',#1130,10.);
#167=VECTOR('',#1131,10.);
#168=VECTOR('',#1132,10.);
#169=VECTOR('',#1133,10.);
#170=VECTOR('',#1134,10.);
#171=VECTOR('',#1135,10.);
#172=VECTOR('',#1138,10.);
#173=VECTOR('',#1139,10.);
#174=VECTOR('',#1140,10.);
#175=VECTOR('',#1141,10.);
#176=VECTOR('',#1144,10.);
#177=VECTOR('',#1145,10.);
#178=VECTOR('',#1146,10.);
#179=VECTOR('',#1149,10.);
#180=VECTOR('',#1150,10.);
#181=VECTOR('',#1153,10.);
#182=VECTOR('',#1154,10.);
#183=VECTOR('',#1157,10.);
#184=VECTOR('',#1158,10.);
#185=VECTOR('',#1159,10.);
#186=VECTOR('',#1162,10.);
#187=VECTOR('',#1163,10.);
#188=VECTOR('',#1166,10.);
#189=VECTOR('',#1167,10.);
#190=VECTOR('',#1170,10.);
#191=VECTOR('',#1175,2.00000000000001);
#192=VECTOR('',#1190,10.);
#193=VECTOR('',#1191,10.);
#194=VECTOR('',#1192,10.);
#195=VECTOR('',#1197,10.);
#196=VECTOR('',#1198,10.);
#197=VECTOR('',#1201,10.);
#198=VECTOR('',#1202,10.);
#199=VECTOR('',#1205,10.);
#200=VECTOR('',#1206,10.);
#201=VECTOR('',#1211,10.);
#202=VECTOR('',#1212,10.);
#203=VECTOR('',#1215,10.);
#204=VECTOR('',#1216,10.);
#205=VECTOR('',#1219,1.04277165197109);
#206=VECTOR('',#1222,1.0062305673839);
#207=VECTOR('',#1225,10.);
#208=VECTOR('',#1228,10.);
#209=VECTOR('',#1237,0.600000000000018);
#210=VECTOR('',#1244,0.600000000000005);
#211=VECTOR('',#1251,0.600000000000023);
#212=VECTOR('',#1258,0.600000000000025);
#213=VECTOR('',#1265,0.600000000000024);
#214=VECTOR('',#1272,0.600000000000028);
#215=VECTOR('',#1279,0.600000000000024);
#216=VECTOR('',#1286,0.600000000000023);
#217=VECTOR('',#1293,0.600000000000014);
#218=VECTOR('',#1300,0.600000000000001);
#219=VECTOR('',#1307,0.600000000000003);
#220=VECTOR('',#1314,0.599999999999998);
#221=VECTOR('',#1323,22.5887143327511);
#222=VECTOR('',#1328,10.);
#223=VECTOR('',#1329,10.);
#224=VECTOR('',#1332,10.);
#225=VECTOR('',#1333,10.);
#226=VECTOR('',#1338,10.);
#227=VECTOR('',#1341,10.);
#228=VECTOR('',#1350,2.00000000000001);
#229=CYLINDRICAL_SURFACE('',#990,2.00000000000001);
#230=CYLINDRICAL_SURFACE('',#1007,2.00000000000001);
#231=CYLINDRICAL_SURFACE('',#1023,1.04277165197109);
#232=CYLINDRICAL_SURFACE('',#1024,1.0062305673839);
#233=CYLINDRICAL_SURFACE('',#1029,0.600000000000018);
#234=CYLINDRICAL_SURFACE('',#1032,0.600000000000005);
#235=CYLINDRICAL_SURFACE('',#1035,0.600000000000023);
#236=CYLINDRICAL_SURFACE('',#1038,0.600000000000025);
#237=CYLINDRICAL_SURFACE('',#1041,0.600000000000024);
#238=CYLINDRICAL_SURFACE('',#1044,0.600000000000028);
#239=CYLINDRICAL_SURFACE('',#1047,0.600000000000024);
#240=CYLINDRICAL_SURFACE('',#1050,0.600000000000023);
#241=CYLINDRICAL_SURFACE('',#1053,0.600000000000014);
#242=CYLINDRICAL_SURFACE('',#1056,0.600000000000001);
#243=CYLINDRICAL_SURFACE('',#1059,0.600000000000003);
#244=CYLINDRICAL_SURFACE('',#1062,0.599999999999998);
#245=CYLINDRICAL_SURFACE('',#1067,22.5887143327511);
#246=CYLINDRICAL_SURFACE('',#1068,30.0541225577465);
#247=CYLINDRICAL_SURFACE('',#1071,37.5);
#248=CYLINDRICAL_SURFACE('',#1077,2.00000000000001);
#249=FACE_OUTER_BOUND('',#301,.T.);
#250=FACE_OUTER_BOUND('',#302,.T.);
#251=FACE_OUTER_BOUND('',#303,.T.);
#252=FACE_OUTER_BOUND('',#304,.T.);
#253=FACE_OUTER_BOUND('',#305,.T.);
#254=FACE_OUTER_BOUND('',#306,.T.);
#255=FACE_OUTER_BOUND('',#307,.T.);
#256=FACE_OUTER_BOUND('',#308,.T.);
#257=FACE_OUTER_BOUND('',#309,.T.);
#258=FACE_OUTER_BOUND('',#310,.T.);
#259=FACE_OUTER_BOUND('',#311,.T.);
#260=FACE_OUTER_BOUND('',#312,.T.);
#261=FACE_OUTER_BOUND('',#313,.T.);
#262=FACE_OUTER_BOUND('',#314,.T.);
#263=FACE_OUTER_BOUND('',#315,.T.);
#264=FACE_OUTER_BOUND('',#316,.T.);
#265=FACE_OUTER_BOUND('',#318,.T.);
#266=FACE_OUTER_BOUND('',#319,.T.);
#267=FACE_OUTER_BOUND('',#320,.T.);
#268=FACE_OUTER_BOUND('',#321,.T.);
#269=FACE_OUTER_BOUND('',#322,.T.);
#270=FACE_OUTER_BOUND('',#323,.T.);
#271=FACE_OUTER_BOUND('',#325,.T.);
#272=FACE_OUTER_BOUND('',#326,.T.);
#273=FACE_OUTER_BOUND('',#327,.T.);
#274=FACE_OUTER_BOUND('',#329,.T.);
#275=FACE_OUTER_BOUND('',#330,.T.);
#276=FACE_OUTER_BOUND('',#331,.T.);
#277=FACE_OUTER_BOUND('',#332,.T.);
#278=FACE_OUTER_BOUND('',#333,.T.);
#279=FACE_OUTER_BOUND('',#337,.T.);
#280=FACE_OUTER_BOUND('',#338,.T.);
#281=FACE_OUTER_BOUND('',#339,.T.);
#282=FACE_OUTER_BOUND('',#340,.T.);
#283=FACE_OUTER_BOUND('',#341,.T.);
#284=FACE_OUTER_BOUND('',#342,.T.);
#285=FACE_OUTER_BOUND('',#343,.T.);
#286=FACE_OUTER_BOUND('',#344,.T.);
#287=FACE_OUTER_BOUND('',#345,.T.);
#288=FACE_OUTER_BOUND('',#346,.T.);
#289=FACE_OUTER_BOUND('',#347,.T.);
#290=FACE_OUTER_BOUND('',#348,.T.);
#291=FACE_OUTER_BOUND('',#349,.T.);
#292=FACE_OUTER_BOUND('',#362,.T.);
#293=FACE_OUTER_BOUND('',#363,.T.);
#294=FACE_OUTER_BOUND('',#364,.T.);
#295=FACE_OUTER_BOUND('',#366,.T.);
#296=FACE_OUTER_BOUND('',#367,.T.);
#297=FACE_OUTER_BOUND('',#368,.T.);
#298=FACE_OUTER_BOUND('',#382,.T.);
#299=FACE_OUTER_BOUND('',#383,.T.);
#300=FACE_OUTER_BOUND('',#384,.T.);
#301=EDGE_LOOP('',(#635));
#302=EDGE_LOOP('',(#636,#637,#638,#639));
#303=EDGE_LOOP('',(#640));
#304=EDGE_LOOP('',(#641,#642,#643,#644));
#305=EDGE_LOOP('',(#645,#646,#647,#648));
#306=EDGE_LOOP('',(#649,#650,#651,#652));
#307=EDGE_LOOP('',(#653,#654,#655,#656,#657,#658,#659,#660));
#308=EDGE_LOOP('',(#661,#662,#663,#664));
#309=EDGE_LOOP('',(#665,#666,#667,#668,#669,#670,#671,#672));
#310=EDGE_LOOP('',(#673,#674,#675,#676));
#311=EDGE_LOOP('',(#677,#678,#679,#680,#681,#682,#683,#684));
#312=EDGE_LOOP('',(#685,#686,#687,#688));
#313=EDGE_LOOP('',(#689,#690,#691,#692,#693,#694,#695,#696));
#314=EDGE_LOOP('',(#697,#698,#699,#700));
#315=EDGE_LOOP('',(#701,#702,#703,#704));
#316=EDGE_LOOP('',(#705,#706,#707,#708));
#317=EDGE_LOOP('',(#709,#710,#711,#712));
#318=EDGE_LOOP('',(#713,#714,#715,#716));
#319=EDGE_LOOP('',(#717,#718,#719,#720));
#320=EDGE_LOOP('',(#721));
#321=EDGE_LOOP('',(#722));
#322=EDGE_LOOP('',(#723));
#323=EDGE_LOOP('',(#724,#725,#726,#727));
#324=EDGE_LOOP('',(#728));
#325=EDGE_LOOP('',(#729,#730,#731,#732));
#326=EDGE_LOOP('',(#733,#734,#735,#736,#737,#738,#739,#740));
#327=EDGE_LOOP('',(#741,#742,#743,#744));
#328=EDGE_LOOP('',(#745));
#329=EDGE_LOOP('',(#746,#747,#748,#749));
#330=EDGE_LOOP('',(#750,#751,#752,#753,#754,#755,#756,#757));
#331=EDGE_LOOP('',(#758,#759,#760,#761));
#332=EDGE_LOOP('',(#762,#763,#764,#765));
#333=EDGE_LOOP('',(#766,#767,#768,#769));
#334=EDGE_LOOP('',(#770));
#335=EDGE_LOOP('',(#771));
#336=EDGE_LOOP('',(#772,#773,#774,#775));
#337=EDGE_LOOP('',(#776,#777,#778,#779));
#338=EDGE_LOOP('',(#780,#781,#782,#783));
#339=EDGE_LOOP('',(#784,#785,#786,#787));
#340=EDGE_LOOP('',(#788,#789,#790,#791));
#341=EDGE_LOOP('',(#792,#793,#794,#795));
#342=EDGE_LOOP('',(#796,#797,#798,#799));
#343=EDGE_LOOP('',(#800,#801,#802,#803));
#344=EDGE_LOOP('',(#804,#805,#806,#807));
#345=EDGE_LOOP('',(#808,#809,#810,#811));
#346=EDGE_LOOP('',(#812,#813,#814,#815));
#347=EDGE_LOOP('',(#816,#817,#818,#819));
#348=EDGE_LOOP('',(#820,#821,#822,#823));
#349=EDGE_LOOP('',(#824));
#350=EDGE_LOOP('',(#825));
#351=EDGE_LOOP('',(#826));
#352=EDGE_LOOP('',(#827));
#353=EDGE_LOOP('',(#828));
#354=EDGE_LOOP('',(#829));
#355=EDGE_LOOP('',(#830));
#356=EDGE_LOOP('',(#831));
#357=EDGE_LOOP('',(#832));
#358=EDGE_LOOP('',(#833));
#359=EDGE_LOOP('',(#834));
#360=EDGE_LOOP('',(#835));
#361=EDGE_LOOP('',(#836));
#362=EDGE_LOOP('',(#837,#838,#839,#840));
#363=EDGE_LOOP('',(#841,#842,#843,#844));
#364=EDGE_LOOP('',(#845,#846,#847,#848));
#365=EDGE_LOOP('',(#849,#850,#851,#852));
#366=EDGE_LOOP('',(#853,#854,#855,#856));
#367=EDGE_LOOP('',(#857,#858,#859,#860));
#368=EDGE_LOOP('',(#861,#862,#863,#864));
#369=EDGE_LOOP('',(#865));
#370=EDGE_LOOP('',(#866));
#371=EDGE_LOOP('',(#867));
#372=EDGE_LOOP('',(#868));
#373=EDGE_LOOP('',(#869));
#374=EDGE_LOOP('',(#870));
#375=EDGE_LOOP('',(#871));
#376=EDGE_LOOP('',(#872));
#377=EDGE_LOOP('',(#873));
#378=EDGE_LOOP('',(#874));
#379=EDGE_LOOP('',(#875));
#380=EDGE_LOOP('',(#876));
#381=EDGE_LOOP('',(#877,#878,#879,#880));
#382=EDGE_LOOP('',(#881));
#383=EDGE_LOOP('',(#882,#883,#884,#885));
#384=EDGE_LOOP('',(#886));
#385=CIRCLE('',#989,2.00000000000001);
#386=CIRCLE('',#991,2.00000000000001);
#387=CIRCLE('',#1008,2.00000000000001);
#388=CIRCLE('',#1009,2.00000000000001);
#389=CIRCLE('',#1012,1.0062305673839);
#390=CIRCLE('',#1014,1.04277165197109);
#391=CIRCLE('',#1016,1.0062305673839);
#392=CIRCLE('',#1020,1.04277165197109);
#393=CIRCLE('',#1026,37.5);
#394=CIRCLE('',#1027,30.0541225577465);
#395=CIRCLE('',#1028,22.5887143327511);
#396=CIRCLE('',#1030,0.600000000000018);
#397=CIRCLE('',#1031,0.600000000000018);
#398=CIRCLE('',#1033,0.600000000000005);
#399=CIRCLE('',#1034,0.600000000000005);
#400=CIRCLE('',#1036,0.600000000000023);
#401=CIRCLE('',#1037,0.600000000000023);
#402=CIRCLE('',#1039,0.600000000000025);
#403=CIRCLE('',#1040,0.600000000000025);
#404=CIRCLE('',#1042,0.600000000000024);
#405=CIRCLE('',#1043,0.600000000000024);
#406=CIRCLE('',#1045,0.600000000000028);
#407=CIRCLE('',#1046,0.600000000000028);
#408=CIRCLE('',#1048,0.600000000000024);
#409=CIRCLE('',#1049,0.600000000000024);
#410=CIRCLE('',#1051,0.600000000000023);
#411=CIRCLE('',#1052,0.600000000000023);
#412=CIRCLE('',#1054,0.600000000000014);
#413=CIRCLE('',#1055,0.600000000000014);
#414=CIRCLE('',#1057,0.600000000000001);
#415=CIRCLE('',#1058,0.600000000000001);
#416=CIRCLE('',#1060,0.600000000000003);
#417=CIRCLE('',#1061,0.600000000000003);
#418=CIRCLE('',#1063,0.599999999999998);
#419=CIRCLE('',#1064,0.599999999999998);
#420=CIRCLE('',#1066,22.5887143327511);
#421=CIRCLE('',#1069,30.0541225577465);
#422=CIRCLE('',#1072,37.5);
#423=CIRCLE('',#1076,2.00000000000001);
#424=CIRCLE('',#1078,2.00000000000001);
#425=VERTEX_POINT('',#1360);
#426=VERTEX_POINT('',#1363);
#427=VERTEX_POINT('',#1368);
#428=VERTEX_POINT('',#1369);
#429=VERTEX_POINT('',#1371);
#430=VERTEX_POINT('',#1373);
#431=VERTEX_POINT('',#1377);
#432=VERTEX_POINT('',#1378);
#433=VERTEX_POINT('',#1380);
#434=VERTEX_POINT('',#1382);
#435=VERTEX_POINT('',#1386);
#436=VERTEX_POINT('',#1388);
#437=VERTEX_POINT('',#1392);
#438=VERTEX_POINT('',#1394);
#439=VERTEX_POINT('',#1396);
#440=VERTEX_POINT('',#1398);
#441=VERTEX_POINT('',#1400);
#442=VERTEX_POINT('',#1402);
#443=VERTEX_POINT('',#1406);
#444=VERTEX_POINT('',#1408);
#445=VERTEX_POINT('',#1412);
#446=VERTEX_POINT('',#1414);
#447=VERTEX_POINT('',#1416);
#448=VERTEX_POINT('',#1418);
#449=VERTEX_POINT('',#1420);
#450=VERTEX_POINT('',#1422);
#451=VERTEX_POINT('',#1426);
#452=VERTEX_POINT('',#1427);
#453=VERTEX_POINT('',#1429);
#454=VERTEX_POINT('',#1431);
#455=VERTEX_POINT('',#1435);
#456=VERTEX_POINT('',#1440);
#457=VERTEX_POINT('',#1447);
#458=VERTEX_POINT('',#1448);
#459=VERTEX_POINT('',#1453);
#460=VERTEX_POINT('',#1457);
#461=VERTEX_POINT('',#1463);
#462=VERTEX_POINT('',#1465);
#463=VERTEX_POINT('',#1470);
#464=VERTEX_POINT('',#1473);
#465=VERTEX_POINT('',#1476);
#466=VERTEX_POINT('',#1478);
#467=VERTEX_POINT('',#1481);
#468=VERTEX_POINT('',#1484);
#469=VERTEX_POINT('',#1488);
#470=VERTEX_POINT('',#1492);
#471=VERTEX_POINT('',#1495);
#472=VERTEX_POINT('',#1498);
#473=VERTEX_POINT('',#1509);
#474=VERTEX_POINT('',#1510);
#475=VERTEX_POINT('',#1512);
#476=VERTEX_POINT('',#1514);
#477=VERTEX_POINT('',#1517);
#478=VERTEX_POINT('',#1520);
#479=VERTEX_POINT('',#1522);
#480=VERTEX_POINT('',#1526);
#481=VERTEX_POINT('',#1528);
#482=VERTEX_POINT('',#1532);
#483=VERTEX_POINT('',#1534);
#484=VERTEX_POINT('',#1538);
#485=VERTEX_POINT('',#1540);
#486=VERTEX_POINT('',#1544);
#487=VERTEX_POINT('',#1546);
#488=VERTEX_POINT('',#1550);
#489=VERTEX_POINT('',#1552);
#490=VERTEX_POINT('',#1556);
#491=VERTEX_POINT('',#1558);
#492=VERTEX_POINT('',#1562);
#493=VERTEX_POINT('',#1564);
#494=VERTEX_POINT('',#1568);
#495=VERTEX_POINT('',#1570);
#496=VERTEX_POINT('',#1574);
#497=VERTEX_POINT('',#1576);
#498=VERTEX_POINT('',#1580);
#499=VERTEX_POINT('',#1582);
#500=VERTEX_POINT('',#1586);
#501=VERTEX_POINT('',#1588);
#502=VERTEX_POINT('',#1592);
#503=VERTEX_POINT('',#1597);
#504=VERTEX_POINT('',#1598);
#505=VERTEX_POINT('',#1603);
#506=VERTEX_POINT('',#1607);
#507=VERTEX_POINT('',#1614);
#508=VERTEX_POINT('',#1617);
#509=EDGE_CURVE('',#425,#425,#385,.T.);
#510=EDGE_CURVE('',#425,#426,#57,.T.);
#511=EDGE_CURVE('',#426,#426,#386,.T.);
#512=EDGE_CURVE('',#427,#428,#58,.T.);
#513=EDGE_CURVE('',#429,#427,#59,.T.);
#514=EDGE_CURVE('',#430,#429,#60,.T.);
#515=EDGE_CURVE('',#428,#430,#61,.T.);
#516=EDGE_CURVE('',#431,#432,#62,.T.);
#517=EDGE_CURVE('',#431,#433,#63,.T.);
#518=EDGE_CURVE('',#433,#434,#64,.T.);
#519=EDGE_CURVE('',#432,#434,#65,.T.);
#520=EDGE_CURVE('',#434,#435,#66,.T.);
#521=EDGE_CURVE('',#436,#433,#67,.T.);
#522=EDGE_CURVE('',#435,#436,#68,.T.);
#523=EDGE_CURVE('',#437,#431,#69,.T.);
#524=EDGE_CURVE('',#432,#438,#70,.T.);
#525=EDGE_CURVE('',#438,#439,#71,.T.);
#526=EDGE_CURVE('',#440,#439,#72,.T.);
#527=EDGE_CURVE('',#441,#440,#73,.T.);
#528=EDGE_CURVE('',#441,#442,#74,.T.);
#529=EDGE_CURVE('',#442,#437,#75,.T.);
#530=EDGE_CURVE('',#438,#443,#76,.T.);
#531=EDGE_CURVE('',#443,#444,#77,.T.);
#532=EDGE_CURVE('',#439,#444,#78,.T.);
#533=EDGE_CURVE('',#445,#437,#79,.T.);
#534=EDGE_CURVE('',#442,#446,#80,.T.);
#535=EDGE_CURVE('',#447,#446,#81,.T.);
#536=EDGE_CURVE('',#448,#447,#82,.T.);
#537=EDGE_CURVE('',#448,#449,#83,.T.);
#538=EDGE_CURVE('',#449,#450,#84,.T.);
#539=EDGE_CURVE('',#450,#445,#85,.T.);
#540=EDGE_CURVE('',#451,#452,#86,.T.);
#541=EDGE_CURVE('',#451,#453,#87,.T.);
#542=EDGE_CURVE('',#454,#453,#88,.T.);
#543=EDGE_CURVE('',#452,#454,#89,.T.);
#544=EDGE_CURVE('',#455,#451,#90,.T.);
#545=EDGE_CURVE('',#455,#436,#91,.T.);
#546=EDGE_CURVE('',#453,#445,#92,.T.);
#547=EDGE_CURVE('',#456,#455,#93,.T.);
#548=EDGE_CURVE('',#456,#435,#94,.T.);
#549=EDGE_CURVE('',#452,#456,#95,.T.);
#550=EDGE_CURVE('',#443,#454,#96,.T.);
#551=EDGE_CURVE('',#457,#458,#97,.T.);
#552=EDGE_CURVE('',#457,#429,#98,.T.);
#553=EDGE_CURVE('',#458,#427,#99,.T.);
#554=EDGE_CURVE('',#459,#457,#100,.T.);
#555=EDGE_CURVE('',#459,#430,#101,.T.);
#556=EDGE_CURVE('',#460,#459,#102,.T.);
#557=EDGE_CURVE('',#460,#428,#103,.T.);
#558=EDGE_CURVE('',#458,#460,#104,.T.);
#559=EDGE_CURVE('',#461,#461,#387,.T.);
#560=EDGE_CURVE('',#461,#462,#105,.T.);
#561=EDGE_CURVE('',#462,#462,#388,.T.);
#562=EDGE_CURVE('',#463,#463,#389,.T.);
#563=EDGE_CURVE('',#464,#464,#390,.T.);
#564=EDGE_CURVE('',#465,#449,#106,.T.);
#565=EDGE_CURVE('',#466,#465,#107,.T.);
#566=EDGE_CURVE('',#466,#450,#108,.T.);
#567=EDGE_CURVE('',#467,#467,#391,.T.);
#568=EDGE_CURVE('',#468,#448,#109,.T.);
#569=EDGE_CURVE('',#468,#465,#110,.T.);
#570=EDGE_CURVE('',#466,#469,#111,.T.);
#571=EDGE_CURVE('',#444,#469,#112,.T.);
#572=EDGE_CURVE('',#470,#441,#113,.T.);
#573=EDGE_CURVE('',#446,#470,#114,.T.);
#574=EDGE_CURVE('',#471,#471,#392,.T.);
#575=EDGE_CURVE('',#472,#470,#115,.T.);
#576=EDGE_CURVE('',#447,#472,#116,.T.);
#577=EDGE_CURVE('',#472,#468,#117,.T.);
#578=EDGE_CURVE('',#469,#440,#118,.T.);
#579=EDGE_CURVE('',#464,#471,#119,.T.);
#580=EDGE_CURVE('',#463,#467,#120,.T.);
#581=EDGE_CURVE('',#473,#474,#121,.T.);
#582=EDGE_CURVE('',#474,#475,#393,.T.);
#583=EDGE_CURVE('',#475,#476,#122,.T.);
#584=EDGE_CURVE('',#476,#473,#394,.T.);
#585=EDGE_CURVE('',#477,#477,#395,.T.);
#586=EDGE_CURVE('',#478,#478,#396,.T.);
#587=EDGE_CURVE('',#478,#479,#123,.T.);
#588=EDGE_CURVE('',#479,#479,#397,.T.);
#589=EDGE_CURVE('',#480,#480,#398,.T.);
#590=EDGE_CURVE('',#480,#481,#124,.T.);
#591=EDGE_CURVE('',#481,#481,#399,.T.);
#592=EDGE_CURVE('',#482,#482,#400,.T.);
#593=EDGE_CURVE('',#482,#483,#125,.T.);
#594=EDGE_CURVE('',#483,#483,#401,.T.);
#595=EDGE_CURVE('',#484,#484,#402,.T.);
#596=EDGE_CURVE('',#484,#485,#126,.T.);
#597=EDGE_CURVE('',#485,#485,#403,.T.);
#598=EDGE_CURVE('',#486,#486,#404,.T.);
#599=EDGE_CURVE('',#486,#487,#127,.T.);
#600=EDGE_CURVE('',#487,#487,#405,.T.);
#601=EDGE_CURVE('',#488,#488,#406,.T.);
#602=EDGE_CURVE('',#488,#489,#128,.T.);
#603=EDGE_CURVE('',#489,#489,#407,.T.);
#604=EDGE_CURVE('',#490,#490,#408,.T.);
#605=EDGE_CURVE('',#490,#491,#129,.T.);
#606=EDGE_CURVE('',#491,#491,#409,.T.);
#607=EDGE_CURVE('',#492,#492,#410,.T.);
#608=EDGE_CURVE('',#492,#493,#130,.T.);
#609=EDGE_CURVE('',#493,#493,#411,.T.);
#610=EDGE_CURVE('',#494,#494,#412,.T.);
#611=EDGE_CURVE('',#494,#495,#131,.T.);
#612=EDGE_CURVE('',#495,#495,#413,.T.);
#613=EDGE_CURVE('',#496,#496,#414,.T.);
#614=EDGE_CURVE('',#496,#497,#132,.T.);
#615=EDGE_CURVE('',#497,#497,#415,.T.);
#616=EDGE_CURVE('',#498,#498,#416,.T.);
#617=EDGE_CURVE('',#498,#499,#133,.T.);
#618=EDGE_CURVE('',#499,#499,#417,.T.);
#619=EDGE_CURVE('',#500,#500,#418,.T.);
#620=EDGE_CURVE('',#500,#501,#134,.T.);
#621=EDGE_CURVE('',#501,#501,#419,.T.);
#622=EDGE_CURVE('',#502,#502,#420,.T.);
#623=EDGE_CURVE('',#477,#502,#135,.T.);
#624=EDGE_CURVE('',#503,#504,#421,.T.);
#625=EDGE_CURVE('',#504,#473,#136,.T.);
#626=EDGE_CURVE('',#503,#476,#137,.T.);
#627=EDGE_CURVE('',#503,#505,#138,.T.);
#628=EDGE_CURVE('',#505,#475,#139,.T.);
#629=EDGE_CURVE('',#506,#505,#422,.T.);
#630=EDGE_CURVE('',#506,#474,#140,.T.);
#631=EDGE_CURVE('',#504,#506,#141,.T.);
#632=EDGE_CURVE('',#507,#507,#423,.T.);
#633=EDGE_CURVE('',#507,#508,#142,.T.);
#634=EDGE_CURVE('',#508,#508,#424,.T.);
#635=ORIENTED_EDGE('',*,*,#509,.T.);
#636=ORIENTED_EDGE('',*,*,#509,.F.);
#637=ORIENTED_EDGE('',*,*,#510,.T.);
#638=ORIENTED_EDGE('',*,*,#511,.T.);
#639=ORIENTED_EDGE('',*,*,#510,.F.);
#640=ORIENTED_EDGE('',*,*,#511,.F.);
#641=ORIENTED_EDGE('',*,*,#512,.F.);
#642=ORIENTED_EDGE('',*,*,#513,.F.);
#643=ORIENTED_EDGE('',*,*,#514,.F.);
#644=ORIENTED_EDGE('',*,*,#515,.F.);
#645=ORIENTED_EDGE('',*,*,#516,.F.);
#646=ORIENTED_EDGE('',*,*,#517,.T.);
#647=ORIENTED_EDGE('',*,*,#518,.T.);
#648=ORIENTED_EDGE('',*,*,#519,.F.);
#649=ORIENTED_EDGE('',*,*,#520,.F.);
#650=ORIENTED_EDGE('',*,*,#518,.F.);
#651=ORIENTED_EDGE('',*,*,#521,.F.);
#652=ORIENTED_EDGE('',*,*,#522,.F.);
#653=ORIENTED_EDGE('',*,*,#523,.T.);
#654=ORIENTED_EDGE('',*,*,#516,.T.);
#655=ORIENTED_EDGE('',*,*,#524,.T.);
#656=ORIENTED_EDGE('',*,*,#525,.T.);
#657=ORIENTED_EDGE('',*,*,#526,.F.);
#658=ORIENTED_EDGE('',*,*,#527,.F.);
#659=ORIENTED_EDGE('',*,*,#528,.T.);
#660=ORIENTED_EDGE('',*,*,#529,.T.);
#661=ORIENTED_EDGE('',*,*,#530,.T.);
#662=ORIENTED_EDGE('',*,*,#531,.T.);
#663=ORIENTED_EDGE('',*,*,#532,.F.);
#664=ORIENTED_EDGE('',*,*,#525,.F.);
#665=ORIENTED_EDGE('',*,*,#533,.T.);
#666=ORIENTED_EDGE('',*,*,#529,.F.);
#667=ORIENTED_EDGE('',*,*,#534,.T.);
#668=ORIENTED_EDGE('',*,*,#535,.F.);
#669=ORIENTED_EDGE('',*,*,#536,.F.);
#670=ORIENTED_EDGE('',*,*,#537,.T.);
#671=ORIENTED_EDGE('',*,*,#538,.T.);
#672=ORIENTED_EDGE('',*,*,#539,.T.);
#673=ORIENTED_EDGE('',*,*,#540,.F.);
#674=ORIENTED_EDGE('',*,*,#541,.T.);
#675=ORIENTED_EDGE('',*,*,#542,.F.);
#676=ORIENTED_EDGE('',*,*,#543,.F.);
#677=ORIENTED_EDGE('',*,*,#544,.F.);
#678=ORIENTED_EDGE('',*,*,#545,.T.);
#679=ORIENTED_EDGE('',*,*,#521,.T.);
#680=ORIENTED_EDGE('',*,*,#517,.F.);
#681=ORIENTED_EDGE('',*,*,#523,.F.);
#682=ORIENTED_EDGE('',*,*,#533,.F.);
#683=ORIENTED_EDGE('',*,*,#546,.F.);
#684=ORIENTED_EDGE('',*,*,#541,.F.);
#685=ORIENTED_EDGE('',*,*,#547,.F.);
#686=ORIENTED_EDGE('',*,*,#548,.T.);
#687=ORIENTED_EDGE('',*,*,#522,.T.);
#688=ORIENTED_EDGE('',*,*,#545,.F.);
#689=ORIENTED_EDGE('',*,*,#549,.F.);
#690=ORIENTED_EDGE('',*,*,#543,.T.);
#691=ORIENTED_EDGE('',*,*,#550,.F.);
#692=ORIENTED_EDGE('',*,*,#530,.F.);
#693=ORIENTED_EDGE('',*,*,#524,.F.);
#694=ORIENTED_EDGE('',*,*,#519,.T.);
#695=ORIENTED_EDGE('',*,*,#520,.T.);
#696=ORIENTED_EDGE('',*,*,#548,.F.);
#697=ORIENTED_EDGE('',*,*,#551,.F.);
#698=ORIENTED_EDGE('',*,*,#552,.T.);
#699=ORIENTED_EDGE('',*,*,#513,.T.);
#700=ORIENTED_EDGE('',*,*,#553,.F.);
#701=ORIENTED_EDGE('',*,*,#554,.F.);
#702=ORIENTED_EDGE('',*,*,#555,.T.);
#703=ORIENTED_EDGE('',*,*,#514,.T.);
#704=ORIENTED_EDGE('',*,*,#552,.F.);
#705=ORIENTED_EDGE('',*,*,#556,.F.);
#706=ORIENTED_EDGE('',*,*,#557,.T.);
#707=ORIENTED_EDGE('',*,*,#515,.T.);
#708=ORIENTED_EDGE('',*,*,#555,.F.);
#709=ORIENTED_EDGE('',*,*,#540,.T.);
#710=ORIENTED_EDGE('',*,*,#549,.T.);
#711=ORIENTED_EDGE('',*,*,#547,.T.);
#712=ORIENTED_EDGE('',*,*,#544,.T.);
#713=ORIENTED_EDGE('',*,*,#558,.F.);
#714=ORIENTED_EDGE('',*,*,#553,.T.);
#715=ORIENTED_EDGE('',*,*,#512,.T.);
#716=ORIENTED_EDGE('',*,*,#557,.F.);
#717=ORIENTED_EDGE('',*,*,#559,.F.);
#718=ORIENTED_EDGE('',*,*,#560,.T.);
#719=ORIENTED_EDGE('',*,*,#561,.F.);
#720=ORIENTED_EDGE('',*,*,#560,.F.);
#721=ORIENTED_EDGE('',*,*,#559,.T.);
#722=ORIENTED_EDGE('',*,*,#562,.F.);
#723=ORIENTED_EDGE('',*,*,#563,.F.);
#724=ORIENTED_EDGE('',*,*,#538,.F.);
#725=ORIENTED_EDGE('',*,*,#564,.F.);
#726=ORIENTED_EDGE('',*,*,#565,.F.);
#727=ORIENTED_EDGE('',*,*,#566,.T.);
#728=ORIENTED_EDGE('',*,*,#567,.F.);
#729=ORIENTED_EDGE('',*,*,#564,.T.);
#730=ORIENTED_EDGE('',*,*,#537,.F.);
#731=ORIENTED_EDGE('',*,*,#568,.F.);
#732=ORIENTED_EDGE('',*,*,#569,.T.);
#733=ORIENTED_EDGE('',*,*,#546,.T.);
#734=ORIENTED_EDGE('',*,*,#539,.F.);
#735=ORIENTED_EDGE('',*,*,#566,.F.);
#736=ORIENTED_EDGE('',*,*,#570,.T.);
#737=ORIENTED_EDGE('',*,*,#571,.F.);
#738=ORIENTED_EDGE('',*,*,#531,.F.);
#739=ORIENTED_EDGE('',*,*,#550,.T.);
#740=ORIENTED_EDGE('',*,*,#542,.T.);
#741=ORIENTED_EDGE('',*,*,#572,.F.);
#742=ORIENTED_EDGE('',*,*,#573,.F.);
#743=ORIENTED_EDGE('',*,*,#534,.F.);
#744=ORIENTED_EDGE('',*,*,#528,.F.);
#745=ORIENTED_EDGE('',*,*,#574,.F.);
#746=ORIENTED_EDGE('',*,*,#575,.F.);
#747=ORIENTED_EDGE('',*,*,#576,.F.);
#748=ORIENTED_EDGE('',*,*,#535,.T.);
#749=ORIENTED_EDGE('',*,*,#573,.T.);
#750=ORIENTED_EDGE('',*,*,#565,.T.);
#751=ORIENTED_EDGE('',*,*,#569,.F.);
#752=ORIENTED_EDGE('',*,*,#577,.F.);
#753=ORIENTED_EDGE('',*,*,#575,.T.);
#754=ORIENTED_EDGE('',*,*,#572,.T.);
#755=ORIENTED_EDGE('',*,*,#527,.T.);
#756=ORIENTED_EDGE('',*,*,#578,.F.);
#757=ORIENTED_EDGE('',*,*,#570,.F.);
#758=ORIENTED_EDGE('',*,*,#563,.T.);
#759=ORIENTED_EDGE('',*,*,#579,.T.);
#760=ORIENTED_EDGE('',*,*,#574,.T.);
#761=ORIENTED_EDGE('',*,*,#579,.F.);
#762=ORIENTED_EDGE('',*,*,#562,.T.);
#763=ORIENTED_EDGE('',*,*,#580,.T.);
#764=ORIENTED_EDGE('',*,*,#567,.T.);
#765=ORIENTED_EDGE('',*,*,#580,.F.);
#766=ORIENTED_EDGE('',*,*,#581,.T.);
#767=ORIENTED_EDGE('',*,*,#582,.T.);
#768=ORIENTED_EDGE('',*,*,#583,.T.);
#769=ORIENTED_EDGE('',*,*,#584,.T.);
#770=ORIENTED_EDGE('',*,*,#561,.T.);
#771=ORIENTED_EDGE('',*,*,#585,.T.);
#772=ORIENTED_EDGE('',*,*,#536,.T.);
#773=ORIENTED_EDGE('',*,*,#576,.T.);
#774=ORIENTED_EDGE('',*,*,#577,.T.);
#775=ORIENTED_EDGE('',*,*,#568,.T.);
#776=ORIENTED_EDGE('',*,*,#586,.F.);
#777=ORIENTED_EDGE('',*,*,#587,.T.);
#778=ORIENTED_EDGE('',*,*,#588,.F.);
#779=ORIENTED_EDGE('',*,*,#587,.F.);
#780=ORIENTED_EDGE('',*,*,#589,.F.);
#781=ORIENTED_EDGE('',*,*,#590,.T.);
#782=ORIENTED_EDGE('',*,*,#591,.F.);
#783=ORIENTED_EDGE('',*,*,#590,.F.);
#784=ORIENTED_EDGE('',*,*,#592,.F.);
#785=ORIENTED_EDGE('',*,*,#593,.T.);
#786=ORIENTED_EDGE('',*,*,#594,.F.);
#787=ORIENTED_EDGE('',*,*,#593,.F.);
#788=ORIENTED_EDGE('',*,*,#595,.F.);
#789=ORIENTED_EDGE('',*,*,#596,.T.);
#790=ORIENTED_EDGE('',*,*,#597,.F.);
#791=ORIENTED_EDGE('',*,*,#596,.F.);
#792=ORIENTED_EDGE('',*,*,#598,.F.);
#793=ORIENTED_EDGE('',*,*,#599,.T.);
#794=ORIENTED_EDGE('',*,*,#600,.F.);
#795=ORIENTED_EDGE('',*,*,#599,.F.);
#796=ORIENTED_EDGE('',*,*,#601,.F.);
#797=ORIENTED_EDGE('',*,*,#602,.T.);
#798=ORIENTED_EDGE('',*,*,#603,.F.);
#799=ORIENTED_EDGE('',*,*,#602,.F.);
#800=ORIENTED_EDGE('',*,*,#604,.F.);
#801=ORIENTED_EDGE('',*,*,#605,.T.);
#802=ORIENTED_EDGE('',*,*,#606,.F.);
#803=ORIENTED_EDGE('',*,*,#605,.F.);
#804=ORIENTED_EDGE('',*,*,#607,.F.);
#805=ORIENTED_EDGE('',*,*,#608,.T.);
#806=ORIENTED_EDGE('',*,*,#609,.F.);
#807=ORIENTED_EDGE('',*,*,#608,.F.);
#808=ORIENTED_EDGE('',*,*,#610,.F.);
#809=ORIENTED_EDGE('',*,*,#611,.T.);
#810=ORIENTED_EDGE('',*,*,#612,.F.);
#811=ORIENTED_EDGE('',*,*,#611,.F.);
#812=ORIENTED_EDGE('',*,*,#613,.F.);
#813=ORIENTED_EDGE('',*,*,#614,.T.);
#814=ORIENTED_EDGE('',*,*,#615,.F.);
#815=ORIENTED_EDGE('',*,*,#614,.F.);
#816=ORIENTED_EDGE('',*,*,#616,.F.);
#817=ORIENTED_EDGE('',*,*,#617,.T.);
#818=ORIENTED_EDGE('',*,*,#618,.F.);
#819=ORIENTED_EDGE('',*,*,#617,.F.);
#820=ORIENTED_EDGE('',*,*,#619,.F.);
#821=ORIENTED_EDGE('',*,*,#620,.T.);
#822=ORIENTED_EDGE('',*,*,#621,.F.);
#823=ORIENTED_EDGE('',*,*,#620,.F.);
#824=ORIENTED_EDGE('',*,*,#622,.F.);
#825=ORIENTED_EDGE('',*,*,#621,.T.);
#826=ORIENTED_EDGE('',*,*,#618,.T.);
#827=ORIENTED_EDGE('',*,*,#615,.T.);
#828=ORIENTED_EDGE('',*,*,#612,.T.);
#829=ORIENTED_EDGE('',*,*,#609,.T.);
#830=ORIENTED_EDGE('',*,*,#606,.T.);
#831=ORIENTED_EDGE('',*,*,#603,.T.);
#832=ORIENTED_EDGE('',*,*,#600,.T.);
#833=ORIENTED_EDGE('',*,*,#597,.T.);
#834=ORIENTED_EDGE('',*,*,#594,.T.);
#835=ORIENTED_EDGE('',*,*,#591,.T.);
#836=ORIENTED_EDGE('',*,*,#588,.T.);
#837=ORIENTED_EDGE('',*,*,#585,.F.);
#838=ORIENTED_EDGE('',*,*,#623,.T.);
#839=ORIENTED_EDGE('',*,*,#622,.T.);
#840=ORIENTED_EDGE('',*,*,#623,.F.);
#841=ORIENTED_EDGE('',*,*,#624,.T.);
#842=ORIENTED_EDGE('',*,*,#625,.T.);
#843=ORIENTED_EDGE('',*,*,#584,.F.);
#844=ORIENTED_EDGE('',*,*,#626,.F.);
#845=ORIENTED_EDGE('',*,*,#627,.F.);
#846=ORIENTED_EDGE('',*,*,#626,.T.);
#847=ORIENTED_EDGE('',*,*,#583,.F.);
#848=ORIENTED_EDGE('',*,*,#628,.F.);
#849=ORIENTED_EDGE('',*,*,#551,.T.);
#850=ORIENTED_EDGE('',*,*,#558,.T.);
#851=ORIENTED_EDGE('',*,*,#556,.T.);
#852=ORIENTED_EDGE('',*,*,#554,.T.);
#853=ORIENTED_EDGE('',*,*,#629,.T.);
#854=ORIENTED_EDGE('',*,*,#628,.T.);
#855=ORIENTED_EDGE('',*,*,#582,.F.);
#856=ORIENTED_EDGE('',*,*,#630,.F.);
#857=ORIENTED_EDGE('',*,*,#631,.T.);
#858=ORIENTED_EDGE('',*,*,#630,.T.);
#859=ORIENTED_EDGE('',*,*,#581,.F.);
#860=ORIENTED_EDGE('',*,*,#625,.F.);
#861=ORIENTED_EDGE('',*,*,#631,.F.);
#862=ORIENTED_EDGE('',*,*,#624,.F.);
#863=ORIENTED_EDGE('',*,*,#627,.T.);
#864=ORIENTED_EDGE('',*,*,#629,.F.);
#865=ORIENTED_EDGE('',*,*,#586,.T.);
#866=ORIENTED_EDGE('',*,*,#589,.T.);
#867=ORIENTED_EDGE('',*,*,#592,.T.);
#868=ORIENTED_EDGE('',*,*,#595,.T.);
#869=ORIENTED_EDGE('',*,*,#598,.T.);
#870=ORIENTED_EDGE('',*,*,#601,.T.);
#871=ORIENTED_EDGE('',*,*,#604,.T.);
#872=ORIENTED_EDGE('',*,*,#607,.T.);
#873=ORIENTED_EDGE('',*,*,#610,.T.);
#874=ORIENTED_EDGE('',*,*,#613,.T.);
#875=ORIENTED_EDGE('',*,*,#616,.T.);
#876=ORIENTED_EDGE('',*,*,#619,.T.);
#877=ORIENTED_EDGE('',*,*,#532,.T.);
#878=ORIENTED_EDGE('',*,*,#571,.T.);
#879=ORIENTED_EDGE('',*,*,#578,.T.);
#880=ORIENTED_EDGE('',*,*,#526,.T.);
#881=ORIENTED_EDGE('',*,*,#632,.T.);
#882=ORIENTED_EDGE('',*,*,#632,.F.);
#883=ORIENTED_EDGE('',*,*,#633,.T.);
#884=ORIENTED_EDGE('',*,*,#634,.T.);
#885=ORIENTED_EDGE('',*,*,#633,.F.);
#886=ORIENTED_EDGE('',*,*,#634,.F.);
#887=PLANE('',#988);
#888=PLANE('',#992);
#889=PLANE('',#993);
#890=PLANE('',#994);
#891=PLANE('',#995);
#892=PLANE('',#996);
#893=PLANE('',#997);
#894=PLANE('',#998);
#895=PLANE('',#999);
#896=PLANE('',#1000);
#897=PLANE('',#1001);
#898=PLANE('',#1002);
#899=PLANE('',#1003);
#900=PLANE('',#1004);
#901=PLANE('',#1005);
#902=PLANE('',#1006);
#903=PLANE('',#1010);
#904=PLANE('',#1011);
#905=PLANE('',#1013);
#906=PLANE('',#1015);
#907=PLANE('',#1017);
#908=PLANE('',#1018);
#909=PLANE('',#1019);
#910=PLANE('',#1021);
#911=PLANE('',#1022);
#912=PLANE('',#1025);
#913=PLANE('',#1065);
#914=PLANE('',#1070);
#915=PLANE('',#1073);
#916=PLANE('',#1074);
#917=PLANE('',#1075);
#918=PLANE('',#1079);
#919=ADVANCED_FACE('',(#249),#887,.T.);
#920=ADVANCED_FACE('',(#250),#229,.T.);
#921=ADVANCED_FACE('',(#251),#888,.F.);
#922=ADVANCED_FACE('',(#252),#889,.F.);
#923=ADVANCED_FACE('',(#253),#890,.F.);
#924=ADVANCED_FACE('',(#254),#891,.F.);
#925=ADVANCED_FACE('',(#255),#892,.F.);
#926=ADVANCED_FACE('',(#256),#893,.F.);
#927=ADVANCED_FACE('',(#257),#894,.F.);
#928=ADVANCED_FACE('',(#258),#895,.F.);
#929=ADVANCED_FACE('',(#259),#896,.F.);
#930=ADVANCED_FACE('',(#260),#897,.F.);
#931=ADVANCED_FACE('',(#261),#898,.F.);
#932=ADVANCED_FACE('',(#262),#899,.F.);
#933=ADVANCED_FACE('',(#263),#900,.F.);
#934=ADVANCED_FACE('',(#264,#15),#901,.F.);
#935=ADVANCED_FACE('',(#265),#902,.F.);
#936=ADVANCED_FACE('',(#266),#230,.T.);
#937=ADVANCED_FACE('',(#267),#903,.T.);
#938=ADVANCED_FACE('',(#268),#904,.T.);
#939=ADVANCED_FACE('',(#269),#905,.T.);
#940=ADVANCED_FACE('',(#270,#16),#906,.T.);
#941=ADVANCED_FACE('',(#271),#907,.F.);
#942=ADVANCED_FACE('',(#272),#908,.F.);
#943=ADVANCED_FACE('',(#273,#17),#909,.T.);
#944=ADVANCED_FACE('',(#274),#910,.F.);
#945=ADVANCED_FACE('',(#275),#911,.F.);
#946=ADVANCED_FACE('',(#276),#231,.T.);
#947=ADVANCED_FACE('',(#277),#232,.T.);
#948=ADVANCED_FACE('',(#278,#18,#19,#20),#912,.T.);
#949=ADVANCED_FACE('',(#279),#233,.F.);
#950=ADVANCED_FACE('',(#280),#234,.F.);
#951=ADVANCED_FACE('',(#281),#235,.F.);
#952=ADVANCED_FACE('',(#282),#236,.F.);
#953=ADVANCED_FACE('',(#283),#237,.F.);
#954=ADVANCED_FACE('',(#284),#238,.F.);
#955=ADVANCED_FACE('',(#285),#239,.F.);
#956=ADVANCED_FACE('',(#286),#240,.F.);
#957=ADVANCED_FACE('',(#287),#241,.F.);
#958=ADVANCED_FACE('',(#288),#242,.F.);
#959=ADVANCED_FACE('',(#289),#243,.F.);
#960=ADVANCED_FACE('',(#290),#244,.F.);
#961=ADVANCED_FACE('',(#291,#21,#22,#23,#24,#25,#26,#27,#28,#29,#30,#31,
#32),#913,.T.);
#962=ADVANCED_FACE('',(#292),#245,.F.);
#963=ADVANCED_FACE('',(#293),#246,.T.);
#964=ADVANCED_FACE('',(#294,#33),#914,.T.);
#965=ADVANCED_FACE('',(#295),#247,.T.);
#966=ADVANCED_FACE('',(#296),#915,.T.);
#967=ADVANCED_FACE('',(#297,#34,#35,#36,#37,#38,#39,#40,#41,#42,#43,#44,
#45,#46),#916,.F.);
#968=ADVANCED_FACE('',(#298),#917,.T.);
#969=ADVANCED_FACE('',(#299),#248,.T.);
#970=ADVANCED_FACE('',(#300),#918,.F.);
#971=CLOSED_SHELL('',(#919,#920,#921));
#972=CLOSED_SHELL('',(#922,#923,#924,#925,#926,#927,#928,#929,#930,#931,
#932,#933,#934,#935,#936,#937,#938,#939,#940,#941,#942,#943,#944,#945,#946,
#947,#948,#949,#950,#951,#952,#953,#954,#955,#956,#957,#958,#959,#960,#961,
#962,#963,#964,#965,#966,#967));
#973=CLOSED_SHELL('',(#968,#969,#970));
#974=DERIVED_UNIT_ELEMENT(#976,1.);
#975=DERIVED_UNIT_ELEMENT(#1629,-3.);
#976=(
MASS_UNIT()
NAMED_UNIT(*)
SI_UNIT(.KILO.,.GRAM.)
);
#977=DERIVED_UNIT((#974,#975));
#978=MEASURE_REPRESENTATION_ITEM('density measure',
POSITIVE_RATIO_MEASURE(7850.),#977);
#979=PROPERTY_DEFINITION_REPRESENTATION(#984,#981);
#980=PROPERTY_DEFINITION_REPRESENTATION(#985,#982);
#981=REPRESENTATION('material name',(#983),#1626);
#982=REPRESENTATION('density',(#978),#1626);
#983=DESCRIPTIVE_REPRESENTATION_ITEM('Steel','Steel');
#984=PROPERTY_DEFINITION('material property','material name',#1641);
#985=PROPERTY_DEFINITION('material property','density of part',#1641);
#986=AXIS2_PLACEMENT_3D('',#1357,#1081,#1082);
#987=AXIS2_PLACEMENT_3D('',#1358,#1083,#1084);
#988=AXIS2_PLACEMENT_3D('',#1359,#1085,#1086);
#989=AXIS2_PLACEMENT_3D('',#1361,#1087,#1088);
#990=AXIS2_PLACEMENT_3D('',#1362,#1089,#1090);
#991=AXIS2_PLACEMENT_3D('',#1365,#1092,#1093);
#992=AXIS2_PLACEMENT_3D('',#1366,#1094,#1095);
#993=AXIS2_PLACEMENT_3D('',#1367,#1096,#1097);
#994=AXIS2_PLACEMENT_3D('',#1376,#1102,#1103);
#995=AXIS2_PLACEMENT_3D('',#1385,#1108,#1109);
#996=AXIS2_PLACEMENT_3D('',#1391,#1113,#1114);
#997=AXIS2_PLACEMENT_3D('',#1405,#1122,#1123);
#998=AXIS2_PLACEMENT_3D('',#1411,#1127,#1128);
#999=AXIS2_PLACEMENT_3D('',#1425,#1136,#1137);
#1000=AXIS2_PLACEMENT_3D('',#1434,#1142,#1143);
#1001=AXIS2_PLACEMENT_3D('',#1439,#1147,#1148);
#1002=AXIS2_PLACEMENT_3D('',#1443,#1151,#1152);
#1003=AXIS2_PLACEMENT_3D('',#1446,#1155,#1156);
#1004=AXIS2_PLACEMENT_3D('',#1452,#1160,#1161);
#1005=AXIS2_PLACEMENT_3D('',#1456,#1164,#1165);
#1006=AXIS2_PLACEMENT_3D('',#1460,#1168,#1169);
#1007=AXIS2_PLACEMENT_3D('',#1462,#1171,#1172);
#1008=AXIS2_PLACEMENT_3D('',#1464,#1173,#1174);
#1009=AXIS2_PLACEMENT_3D('',#1467,#1176,#1177);
#1010=AXIS2_PLACEMENT_3D('',#1468,#1178,#1179);
#1011=AXIS2_PLACEMENT_3D('',#1469,#1180,#1181);
#1012=AXIS2_PLACEMENT_3D('',#1471,#1182,#1183);
#1013=AXIS2_PLACEMENT_3D('',#1472,#1184,#1185);
#1014=AXIS2_PLACEMENT_3D('',#1474,#1186,#1187);
#1015=AXIS2_PLACEMENT_3D('',#1475,#1188,#1189);
#1016=AXIS2_PLACEMENT_3D('',#1482,#1193,#1194);
#1017=AXIS2_PLACEMENT_3D('',#1483,#1195,#1196);
#1018=AXIS2_PLACEMENT_3D('',#1487,#1199,#1200);
#1019=AXIS2_PLACEMENT_3D('',#1491,#1203,#1204);
#1020=AXIS2_PLACEMENT_3D('',#1496,#1207,#1208);
#1021=AXIS2_PLACEMENT_3D('',#1497,#1209,#1210);
#1022=AXIS2_PLACEMENT_3D('',#1501,#1213,#1214);
#1023=AXIS2_PLACEMENT_3D('',#1504,#1217,#1218);
#1024=AXIS2_PLACEMENT_3D('',#1506,#1220,#1221);
#1025=AXIS2_PLACEMENT_3D('',#1508,#1223,#1224);
#1026=AXIS2_PLACEMENT_3D('',#1513,#1226,#1227);
#1027=AXIS2_PLACEMENT_3D('',#1516,#1229,#1230);
#1028=AXIS2_PLACEMENT_3D('',#1518,#1231,#1232);
#1029=AXIS2_PLACEMENT_3D('',#1519,#1233,#1234);
#1030=AXIS2_PLACEMENT_3D('',#1521,#1235,#1236);
#1031=AXIS2_PLACEMENT_3D('',#1524,#1238,#1239);
#1032=AXIS2_PLACEMENT_3D('',#1525,#1240,#1241);
#1033=AXIS2_PLACEMENT_3D('',#1527,#1242,#1243);
#1034=AXIS2_PLACEMENT_3D('',#1530,#1245,#1246);
#1035=AXIS2_PLACEMENT_3D('',#1531,#1247,#1248);
#1036=AXIS2_PLACEMENT_3D('',#1533,#1249,#1250);
#1037=AXIS2_PLACEMENT_3D('',#1536,#1252,#1253);
#1038=AXIS2_PLACEMENT_3D('',#1537,#1254,#1255);
#1039=AXIS2_PLACEMENT_3D('',#1539,#1256,#1257);
#1040=AXIS2_PLACEMENT_3D('',#1542,#1259,#1260);
#1041=AXIS2_PLACEMENT_3D('',#1543,#1261,#1262);
#1042=AXIS2_PLACEMENT_3D('',#1545,#1263,#1264);
#1043=AXIS2_PLACEMENT_3D('',#1548,#1266,#1267);
#1044=AXIS2_PLACEMENT_3D('',#1549,#1268,#1269);
#1045=AXIS2_PLACEMENT_3D('',#1551,#1270,#1271);
#1046=AXIS2_PLACEMENT_3D('',#1554,#1273,#1274);
#1047=AXIS2_PLACEMENT_3D('',#1555,#1275,#1276);
#1048=AXIS2_PLACEMENT_3D('',#1557,#1277,#1278);
#1049=AXIS2_PLACEMENT_3D('',#1560,#1280,#1281);
#1050=AXIS2_PLACEMENT_3D('',#1561,#1282,#1283);
#1051=AXIS2_PLACEMENT_3D('',#1563,#1284,#1285);
#1052=AXIS2_PLACEMENT_3D('',#1566,#1287,#1288);
#1053=AXIS2_PLACEMENT_3D('',#1567,#1289,#1290);
#1054=AXIS2_PLACEMENT_3D('',#1569,#1291,#1292);
#1055=AXIS2_PLACEMENT_3D('',#1572,#1294,#1295);
#1056=AXIS2_PLACEMENT_3D('',#1573,#1296,#1297);
#1057=AXIS2_PLACEMENT_3D('',#1575,#1298,#1299);
#1058=AXIS2_PLACEMENT_3D('',#1578,#1301,#1302);
#1059=AXIS2_PLACEMENT_3D('',#1579,#1303,#1304);
#1060=AXIS2_PLACEMENT_3D('',#1581,#1305,#1306);
#1061=AXIS2_PLACEMENT_3D('',#1584,#1308,#1309);
#1062=AXIS2_PLACEMENT_3D('',#1585,#1310,#1311);
#1063=AXIS2_PLACEMENT_3D('',#1587,#1312,#1313);
#1064=AXIS2_PLACEMENT_3D('',#1590,#1315,#1316);
#1065=AXIS2_PLACEMENT_3D('',#1591,#1317,#1318);
#1066=AXIS2_PLACEMENT_3D('',#1593,#1319,#1320);
#1067=AXIS2_PLACEMENT_3D('',#1594,#1321,#1322);
#1068=AXIS2_PLACEMENT_3D('',#1596,#1324,#1325);
#1069=AXIS2_PLACEMENT_3D('',#1599,#1326,#1327);
#1070=AXIS2_PLACEMENT_3D('',#1602,#1330,#1331);
#1071=AXIS2_PLACEMENT_3D('',#1606,#1334,#1335);
#1072=AXIS2_PLACEMENT_3D('',#1608,#1336,#1337);
#1073=AXIS2_PLACEMENT_3D('',#1610,#1339,#1340);
#1074=AXIS2_PLACEMENT_3D('',#1612,#1342,#1343);
#1075=AXIS2_PLACEMENT_3D('',#1613,#1344,#1345);
#1076=AXIS2_PLACEMENT_3D('',#1615,#1346,#1347);
#1077=AXIS2_PLACEMENT_3D('',#1616,#1348,#1349);
#1078=AXIS2_PLACEMENT_3D('',#1619,#1351,#1352);
#1079=AXIS2_PLACEMENT_3D('',#1620,#1353,#1354);
#1080=AXIS2_PLACEMENT_3D('',#1621,#1355,#1356);
#1081=DIRECTION('axis',(0.,0.,1.));
#1082=DIRECTION('refdir',(1.,0.,0.));
#1083=DIRECTION('axis',(0.,0.,1.));
#1084=DIRECTION('refdir',(1.,0.,0.));
#1085=DIRECTION('center_axis',(0.,0.,1.));
#1086=DIRECTION('ref_axis',(-1.,0.,0.));
#1087=DIRECTION('center_axis',(0.,0.,1.));
#1088=DIRECTION('ref_axis',(-1.,0.,0.));
#1089=DIRECTION('center_axis',(0.,0.,1.));
#1090=DIRECTION('ref_axis',(-1.,0.,0.));
#1091=DIRECTION('',(0.,0.,-1.));
#1092=DIRECTION('center_axis',(0.,0.,1.));
#1093=DIRECTION('ref_axis',(-1.,0.,0.));
#1094=DIRECTION('center_axis',(0.,0.,1.));
#1095=DIRECTION('ref_axis',(-1.,0.,0.));
#1096=DIRECTION('center_axis',(-0.999578828470428,-0.0290200908628317,0.));
#1097=DIRECTION('ref_axis',(0.,0.,1.));
#1098=DIRECTION('',(0.0290200908628321,-0.999578828470428,0.));
#1099=DIRECTION('',(0.,0.,-1.));
#1100=DIRECTION('',(-0.0290200908628321,0.999578828470428,0.));
#1101=DIRECTION('',(0.,0.,1.));
#1102=DIRECTION('center_axis',(-0.999578828470428,-0.0290200908628322,0.));
#1103=DIRECTION('ref_axis',(0.,0.,-1.));
#1104=DIRECTION('',(0.,0.,-1.));
#1105=DIRECTION('',(0.0290200908628322,-0.999578828470428,0.));
#1106=DIRECTION('',(0.,0.,-1.));
#1107=DIRECTION('',(0.0290200908628322,-0.999578828470428,0.));
#1108=DIRECTION('center_axis',(0.0290200908628322,-0.999578828470428,0.));
#1109=DIRECTION('ref_axis',(0.,0.,-1.));
#1110=DIRECTION('',(0.999578828470428,0.0290200908628321,0.));
#1111=DIRECTION('',(-0.999578828470428,-0.0290200908628321,0.));
#1112=DIRECTION('',(0.,0.,1.));
#1113=DIRECTION('center_axis',(0.,-1.,0.));
#1114=DIRECTION('ref_axis',(-1.,0.,0.));
#1115=DIRECTION('',(-1.,0.,0.));
#1116=DIRECTION('',(1.,0.,0.));
#1117=DIRECTION('',(0.,0.,-1.));
#1118=DIRECTION('',(1.,0.,0.));
#1119=DIRECTION('',(0.,0.,-1.));
#1120=DIRECTION('',(1.,0.,0.));
#1121=DIRECTION('',(0.,0.,-1.));
#1122=DIRECTION('center_axis',(1.,0.,0.));
#1123=DIRECTION('ref_axis',(0.,-1.,0.));
#1124=DIRECTION('',(0.,1.,0.));
#1125=DIRECTION('',(0.,0.,-1.));
#1126=DIRECTION('',(0.,1.,-6.00908212078365E-15));
#1127=DIRECTION('center_axis',(1.,0.,0.));
#1128=DIRECTION('ref_axis',(0.,-1.,0.));
#1129=DIRECTION('',(0.,-1.,0.));
#1130=DIRECTION('',(0.,-1.,0.));
#1131=DIRECTION('',(0.,0.,-1.));
#1132=DIRECTION('',(0.,-1.,6.00908212078365E-15));
#1133=DIRECTION('',(0.,0.,-1.));
#1134=DIRECTION('',(0.,-1.,0.));
#1135=DIRECTION('',(0.,0.,-1.));
#1136=DIRECTION('center_axis',(-0.999578828470428,-0.0290200908628322,0.));
#1137=DIRECTION('ref_axis',(0.,0.,-1.));
#1138=DIRECTION('',(0.,0.,-1.));
#1139=DIRECTION('',(0.0290200908628322,-0.999578828470428,0.));
#1140=DIRECTION('',(0.,0.,1.));
#1141=DIRECTION('',(0.0290200908628322,-0.999578828470428,0.));
#1142=DIRECTION('center_axis',(0.,0.,1.));
#1143=DIRECTION('ref_axis',(-0.999578828470428,-0.0290200908628321,0.));
#1144=DIRECTION('',(-0.999578828470428,-0.0290200908628321,0.));
#1145=DIRECTION('',(0.0290200908628322,-0.999578828470428,0.));
#1146=DIRECTION('',(1.,0.,0.));
#1147=DIRECTION('center_axis',(0.999578828470428,0.0290200908628322,0.));
#1148=DIRECTION('ref_axis',(0.,0.,1.));
#1149=DIRECTION('',(0.,0.,1.));
#1150=DIRECTION('',(0.0290200908628322,-0.999578828470428,0.));
#1151=DIRECTION('center_axis',(0.,0.,-1.));
#1152=DIRECTION('ref_axis',(0.999578828470428,0.0290200908628321,0.));
#1153=DIRECTION('',(0.999578828470428,0.0290200908628321,0.));
#1154=DIRECTION('',(-1.,0.,0.));
#1155=DIRECTION('center_axis',(-0.0290200908628321,0.999578828470428,0.));
#1156=DIRECTION('ref_axis',(0.,0.,-1.));
#1157=DIRECTION('',(-1.71761084921082E-16,-4.98662251454026E-18,-1.));
#1158=DIRECTION('',(-0.999578828470428,-0.0290200908628321,0.));
#1159=DIRECTION('',(-0.999578828470428,-0.0290200908628321,0.));
#1160=DIRECTION('center_axis',(0.,0.,1.));
#1161=DIRECTION('ref_axis',(-0.0290200908628321,0.999578828470428,0.));
#1162=DIRECTION('',(-0.0290200908628321,0.999578828470428,0.));
#1163=DIRECTION('',(-0.999578828470428,-0.0290200908628321,0.));
#1164=DIRECTION('center_axis',(0.0290200908628321,-0.999578828470428,0.));
#1165=DIRECTION('ref_axis',(0.,0.,1.));
#1166=DIRECTION('',(1.71761084921082E-16,4.98662251454026E-18,1.));
#1167=DIRECTION('',(-0.999578828470428,-0.0290200908628321,0.));
#1168=DIRECTION('center_axis',(0.,0.,-1.));
#1169=DIRECTION('ref_axis',(0.0290200908628321,-0.999578828470428,0.));
#1170=DIRECTION('',(0.0290200908628321,-0.999578828470428,0.));
#1171=DIRECTION('center_axis',(0.,0.,1.));
#1172=DIRECTION('ref_axis',(-1.,0.,0.));
#1173=DIRECTION('center_axis',(0.,0.,1.));
#1174=DIRECTION('ref_axis',(-1.,0.,0.));
#1175=DIRECTION('',(0.,0.,-1.));
#1176=DIRECTION('center_axis',(0.,-6.00908212078365E-15,-1.));
#1177=DIRECTION('ref_axis',(-1.,0.,0.));
#1178=DIRECTION('center_axis',(0.,0.,1.));
#1179=DIRECTION('ref_axis',(-1.,0.,0.));
#1180=DIRECTION('center_axis',(0.,6.00908212078365E-15,1.));
#1181=DIRECTION('ref_axis',(-1.,0.,0.));
#1182=DIRECTION('center_axis',(0.,-6.00908212078365E-15,-1.));
#1183=DIRECTION('ref_axis',(-1.,0.,0.));
#1184=DIRECTION('center_axis',(0.,6.00908212078365E-15,1.));
#1185=DIRECTION('ref_axis',(-1.,0.,0.));
#1186=DIRECTION('center_axis',(0.,-6.00908212078365E-15,-1.));
#1187=DIRECTION('ref_axis',(-1.,0.,0.));
#1188=DIRECTION('center_axis',(0.,0.,1.));
#1189=DIRECTION('ref_axis',(-1.,0.,0.));
#1190=DIRECTION('',(1.,0.,0.));
#1191=DIRECTION('',(0.,1.,0.));
#1192=DIRECTION('',(1.,0.,0.));
#1193=DIRECTION('center_axis',(0.,0.,1.));
#1194=DIRECTION('ref_axis',(-1.,0.,0.));
#1195=DIRECTION('center_axis',(0.,1.,0.));
#1196=DIRECTION('ref_axis',(1.,0.,0.));
#1197=DIRECTION('',(1.,0.,0.));
#1198=DIRECTION('',(0.,0.,-1.));
#1199=DIRECTION('center_axis',(0.,1.,0.));
#1200=DIRECTION('ref_axis',(1.,0.,0.));
#1201=DIRECTION('',(0.,0.,-1.));
#1202=DIRECTION('',(-1.,0.,0.));
#1203=DIRECTION('center_axis',(0.,0.,1.));
#1204=DIRECTION('ref_axis',(-1.,0.,0.));
#1205=DIRECTION('',(0.,1.,0.));
#1206=DIRECTION('',(-1.,0.,0.));
#1207=DIRECTION('center_axis',(0.,0.,1.));
#1208=DIRECTION('ref_axis',(-1.,0.,0.));
#1209=DIRECTION('center_axis',(0.,-1.,0.));
#1210=DIRECTION('ref_axis',(-1.,0.,0.));
#1211=DIRECTION('',(0.,0.,-1.));
#1212=DIRECTION('',(-1.,0.,0.));
#1213=DIRECTION('center_axis',(-1.,0.,0.));
#1214=DIRECTION('ref_axis',(0.,1.,0.));
#1215=DIRECTION('',(0.,1.,-6.00908212078365E-15));
#1216=DIRECTION('',(0.,-1.,6.00908212078365E-15));
#1217=DIRECTION('center_axis',(0.,0.,-1.));
#1218=DIRECTION('ref_axis',(-1.,0.,0.));
#1219=DIRECTION('',(0.,0.,-1.));
#1220=DIRECTION('center_axis',(0.,0.,-1.));
#1221=DIRECTION('ref_axis',(-1.,0.,0.));
#1222=DIRECTION('',(0.,0.,-1.));
#1223=DIRECTION('center_axis',(0.,6.00908212078365E-15,1.));
#1224=DIRECTION('ref_axis',(-1.,0.,0.));
#1225=DIRECTION('',(-0.0290200908628322,-0.999578828470428,6.00655126647551E-15));
#1226=DIRECTION('center_axis',(0.,6.00908212078365E-15,1.));
#1227=DIRECTION('ref_axis',(-1.,0.,0.));
#1228=DIRECTION('',(-0.0290200908628321,0.999578828470428,-6.00655126647551E-15));
#1229=DIRECTION('center_axis',(0.,6.00908212078365E-15,1.));
#1230=DIRECTION('ref_axis',(-1.,0.,0.));
#1231=DIRECTION('center_axis',(0.,-6.00908212078365E-15,-1.));
#1232=DIRECTION('ref_axis',(-1.,0.,0.));
#1233=DIRECTION('center_axis',(0.,6.269494727295E-15,1.));
#1234=DIRECTION('ref_axis',(-1.,0.,0.));
#1235=DIRECTION('center_axis',(0.,6.00908212078365E-15,1.));
#1236=DIRECTION('ref_axis',(-1.,0.,0.));
#1237=DIRECTION('',(0.,6.269494727295E-15,1.));
#1238=DIRECTION('center_axis',(0.,-6.00908212078365E-15,-1.));
#1239=DIRECTION('ref_axis',(-1.,0.,0.));
#1240=DIRECTION('center_axis',(0.,6.269494727295E-15,1.));
#1241=DIRECTION('ref_axis',(-1.,0.,0.));
#1242=DIRECTION('center_axis',(0.,6.00908212078365E-15,1.));
#1243=DIRECTION('ref_axis',(-1.,0.,0.));
#1244=DIRECTION('',(0.,6.269494727295E-15,1.));
#1245=DIRECTION('center_axis',(0.,-6.00908212078365E-15,-1.));
#1246=DIRECTION('ref_axis',(-1.,0.,0.));
#1247=DIRECTION('center_axis',(0.,6.269494727295E-15,1.));
#1248=DIRECTION('ref_axis',(-1.,0.,0.));
#1249=DIRECTION('center_axis',(0.,6.00908212078365E-15,1.));
#1250=DIRECTION('ref_axis',(-1.,0.,0.));
#1251=DIRECTION('',(0.,6.269494727295E-15,1.));
#1252=DIRECTION('center_axis',(0.,-6.00908212078365E-15,-1.));
#1253=DIRECTION('ref_axis',(-1.,0.,0.));
#1254=DIRECTION('center_axis',(0.,6.269494727295E-15,1.));
#1255=DIRECTION('ref_axis',(-1.,0.,0.));
#1256=DIRECTION('center_axis',(0.,6.00908212078365E-15,1.));
#1257=DIRECTION('ref_axis',(-1.,0.,0.));
#1258=DIRECTION('',(0.,6.26949472729501E-15,1.));
#1259=DIRECTION('center_axis',(0.,-6.00908212078365E-15,-1.));
#1260=DIRECTION('ref_axis',(-1.,0.,0.));
#1261=DIRECTION('center_axis',(0.,6.269494727295E-15,1.));
#1262=DIRECTION('ref_axis',(-1.,0.,0.));
#1263=DIRECTION('center_axis',(0.,6.00908212078365E-15,1.));
#1264=DIRECTION('ref_axis',(-1.,0.,0.));
#1265=DIRECTION('',(0.,6.269494727295E-15,1.));
#1266=DIRECTION('center_axis',(0.,-6.00908212078365E-15,-1.));
#1267=DIRECTION('ref_axis',(-1.,0.,0.));
#1268=DIRECTION('center_axis',(0.,6.269494727295E-15,1.));
#1269=DIRECTION('ref_axis',(-1.,0.,0.));
#1270=DIRECTION('center_axis',(0.,6.00908212078365E-15,1.));
#1271=DIRECTION('ref_axis',(-1.,0.,0.));
#1272=DIRECTION('',(0.,6.269494727295E-15,1.));
#1273=DIRECTION('center_axis',(0.,-6.00908212078365E-15,-1.));
#1274=DIRECTION('ref_axis',(-1.,0.,0.));
#1275=DIRECTION('center_axis',(0.,6.269494727295E-15,1.));
#1276=DIRECTION('ref_axis',(-1.,0.,0.));
#1277=DIRECTION('center_axis',(0.,6.00908212078365E-15,1.));
#1278=DIRECTION('ref_axis',(-1.,0.,0.));
#1279=DIRECTION('',(0.,6.269494727295E-15,1.));
#1280=DIRECTION('center_axis',(0.,-6.00908212078365E-15,-1.));
#1281=DIRECTION('ref_axis',(-1.,0.,0.));
#1282=DIRECTION('center_axis',(0.,6.269494727295E-15,1.));
#1283=DIRECTION('ref_axis',(-1.,0.,0.));
#1284=DIRECTION('center_axis',(0.,6.00908212078365E-15,1.));
#1285=DIRECTION('ref_axis',(-1.,0.,0.));
#1286=DIRECTION('',(0.,6.269494727295E-15,1.));
#1287=DIRECTION('center_axis',(0.,-6.00908212078365E-15,-1.));
#1288=DIRECTION('ref_axis',(-1.,0.,0.));
#1289=DIRECTION('center_axis',(0.,6.269494727295E-15,1.));
#1290=DIRECTION('ref_axis',(-1.,0.,0.));
#1291=DIRECTION('center_axis',(0.,6.00908212078365E-15,1.));
#1292=DIRECTION('ref_axis',(-1.,0.,0.));
#1293=DIRECTION('',(0.,6.269494727295E-15,1.));
#1294=DIRECTION('center_axis',(0.,-6.00908212078365E-15,-1.));
#1295=DIRECTION('ref_axis',(-1.,0.,0.));
#1296=DIRECTION('center_axis',(0.,6.269494727295E-15,1.));
#1297=DIRECTION('ref_axis',(-1.,0.,0.));
#1298=DIRECTION('center_axis',(0.,6.00908212078365E-15,1.));
#1299=DIRECTION('ref_axis',(-1.,0.,0.));
#1300=DIRECTION('',(0.,6.269494727295E-15,1.));
#1301=DIRECTION('center_axis',(0.,-6.00908212078365E-15,-1.));
#1302=DIRECTION('ref_axis',(-1.,0.,0.));
#1303=DIRECTION('center_axis',(0.,6.269494727295E-15,1.));
#1304=DIRECTION('ref_axis',(-1.,0.,0.));
#1305=DIRECTION('center_axis',(0.,6.00908212078365E-15,1.));
#1306=DIRECTION('ref_axis',(-1.,0.,0.));
#1307=DIRECTION('',(0.,6.269494727295E-15,1.));
#1308=DIRECTION('center_axis',(0.,-6.00908212078365E-15,-1.));
#1309=DIRECTION('ref_axis',(-1.,0.,0.));
#1310=DIRECTION('center_axis',(0.,6.269494727295E-15,1.));
#1311=DIRECTION('ref_axis',(-1.,0.,0.));
#1312=DIRECTION('center_axis',(0.,6.00908212078365E-15,1.));
#1313=DIRECTION('ref_axis',(-1.,0.,0.));
#1314=DIRECTION('',(0.,6.269494727295E-15,1.));
#1315=DIRECTION('center_axis',(0.,-6.00908212078365E-15,-1.));
#1316=DIRECTION('ref_axis',(-1.,0.,0.));
#1317=DIRECTION('center_axis',(0.,6.00908212078365E-15,1.));
#1318=DIRECTION('ref_axis',(-1.,0.,0.));
#1319=DIRECTION('center_axis',(0.,-6.00908212078365E-15,-1.));
#1320=DIRECTION('ref_axis',(-1.,0.,0.));
#1321=DIRECTION('center_axis',(0.,5.9211894646675E-15,1.));
#1322=DIRECTION('ref_axis',(-1.,0.,0.));
#1323=DIRECTION('',(0.,-5.9211894646675E-15,-1.));
#1324=DIRECTION('center_axis',(0.,5.9211894646675E-15,1.));
#1325=DIRECTION('ref_axis',(1.83697019872103E-16,1.,-5.9211894646675E-15));
#1326=DIRECTION('center_axis',(0.,6.00908212078365E-15,1.));
#1327=DIRECTION('ref_axis',(-1.,0.,0.));
#1328=DIRECTION('',(0.,5.9211894646675E-15,1.));
#1329=DIRECTION('',(0.,5.9211894646675E-15,1.));
#1330=DIRECTION('center_axis',(0.999578828470428,0.0290200908628321,-1.71833456280695E-16));
#1331=DIRECTION('ref_axis',(-0.0290200908628321,0.999578828470428,-6.00655126647551E-15));
#1332=DIRECTION('',(0.0290200908628321,-0.999578828470428,6.00655126647551E-15));
#1333=DIRECTION('',(0.,5.9211894646675E-15,1.));
#1334=DIRECTION('center_axis',(0.,5.9211894646675E-15,1.));
#1335=DIRECTION('ref_axis',(-2.83276944882399E-16,-1.,5.9211894646675E-15));
#1336=DIRECTION('center_axis',(0.,6.00908212078365E-15,1.));
#1337=DIRECTION('ref_axis',(-1.,0.,0.));
#1338=DIRECTION('',(0.,5.9211894646675E-15,1.));
#1339=DIRECTION('center_axis',(-0.999578828470428,0.0290200908628322,-1.71833456280696E-16));
#1340=DIRECTION('ref_axis',(-0.0290200908628322,-0.999578828470428,6.00655126647551E-15));
#1341=DIRECTION('',(-0.0290200908628322,-0.999578828470428,6.00655126647551E-15));
#1342=DIRECTION('center_axis',(0.,6.00908212078365E-15,1.));
#1343=DIRECTION('ref_axis',(-1.,0.,0.));
#1344=DIRECTION('center_axis',(0.,0.,1.));
#1345=DIRECTION('ref_axis',(-1.,0.,0.));
#1346=DIRECTION('center_axis',(0.,0.,1.));
#1347=DIRECTION('ref_axis',(-1.,0.,0.));
#1348=DIRECTION('center_axis',(0.,0.,1.));
#1349=DIRECTION('ref_axis',(-1.,0.,0.));
#1350=DIRECTION('',(0.,0.,-1.));
#1351=DIRECTION('center_axis',(0.,0.,1.));
#1352=DIRECTION('ref_axis',(-1.,0.,0.));
#1353=DIRECTION('center_axis',(0.,0.,1.));
#1354=DIRECTION('ref_axis',(-1.,0.,0.));
#1355=DIRECTION('',(0.,0.,1.));
#1356=DIRECTION('',(1.,0.,0.));
#1357=CARTESIAN_POINT('',(0.,0.,0.));
#1358=CARTESIAN_POINT('',(0.,0.,0.));
#1359=CARTESIAN_POINT('Origin',(12.0000001788139,-289.000004306436,309.874270695307));
#1360=CARTESIAN_POINT('',(14.0000001788139,-289.000004306436,309.874270695307));
#1361=CARTESIAN_POINT('Origin',(12.0000001788139,-289.000004306436,309.874270695307));
#1362=CARTESIAN_POINT('Origin',(12.0000001788139,-289.000004306436,298.874270695307));
#1363=CARTESIAN_POINT('',(14.0000001788139,-289.000004306436,298.874270695307));
#1364=CARTESIAN_POINT('',(14.0000001788139,-289.000004306436,298.874270695307));
#1365=CARTESIAN_POINT('Origin',(12.0000001788139,-289.000004306436,298.874270695307));
#1366=CARTESIAN_POINT('Origin',(12.0000001788139,-289.000004306436,298.874270695307));
#1367=CARTESIAN_POINT('Origin',(-28.4469191078264,-228.92195098299,279.000004157424));
#1368=CARTESIAN_POINT('',(-28.7951602033696,-216.927004862606,271.000004038215));
#1369=CARTESIAN_POINT('',(-28.0986780122832,-240.916897103373,271.000004038215));
#1370=CARTESIAN_POINT('',(-28.7951602033696,-216.927004862606,271.000004038215));
#1371=CARTESIAN_POINT('',(-28.7951602033696,-216.927004862606,287.000004276633));
#1372=CARTESIAN_POINT('',(-28.7951602033696,-216.927004862606,287.000004276633));
#1373=CARTESIAN_POINT('',(-28.0986780122832,-240.916897103373,287.000004276633));
#1374=CARTESIAN_POINT('',(-28.0986780122832,-240.916897103373,287.000004276633));
#1375=CARTESIAN_POINT('',(-28.0986780122832,-240.916897103373,271.000004038215));
#1376=CARTESIAN_POINT('Origin',(-11.2436336597808,-267.438932510987,281.756505318921));
#1377=CARTESIAN_POINT('',(-10.5911057304684,-289.914847772911,281.756505318921));
#1378=CARTESIAN_POINT('',(-10.5911057304684,-289.914847772911,273.000004068017));
#1379=CARTESIAN_POINT('',(-10.5911057304684,-289.914847772911,289.958835443285));
#1380=CARTESIAN_POINT('',(-10.51813138821,-292.428403222747,281.756505318921));
#1381=CARTESIAN_POINT('',(-11.2436336597808,-267.438932510987,281.756505318921));
#1382=CARTESIAN_POINT('',(-10.51813138821,-292.428403222747,273.000004068017));
#1383=CARTESIAN_POINT('',(-10.51813138821,-292.428403222747,281.756505318921));
#1384=CARTESIAN_POINT('',(-11.2436336597808,-267.438932510987,273.000004068017));
#1385=CARTESIAN_POINT('Origin',(-2.52150064128753,-292.196242492385,277.378254693469));
#1386=CARTESIAN_POINT('',(5.47513010563498,-291.964081762023,273.000004068017));
#1387=CARTESIAN_POINT('',(-10.51813138821,-292.428403222747,273.000004068017));
#1388=CARTESIAN_POINT('',(5.47513010563498,-291.964081762023,281.756505318921));
#1389=CARTESIAN_POINT('',(5.47513010563498,-291.964081762023,281.756505318921));
#1390=CARTESIAN_POINT('',(5.47513010563498,-291.964081762023,273.000004068017));
#1391=CARTESIAN_POINT('Origin',(-2.09999995306134,-289.914847772911,298.161165567649));
#1392=CARTESIAN_POINT('',(-2.09999995306134,-289.914847772911,281.756505318921));
#1393=CARTESIAN_POINT('',(1.32481394050141,-289.914847772911,281.756505318921));
#1394=CARTESIAN_POINT('',(-2.09999995306134,-289.914847772911,273.000004068017));
#1395=CARTESIAN_POINT('',(-6.67181680642109,-289.914847772911,273.000004068017));
#1396=CARTESIAN_POINT('',(-2.09999995306134,-289.914847772911,268.161165567649));
#1397=CARTESIAN_POINT('',(-2.09999995306134,-289.914847772911,298.161165567649));
#1398=CARTESIAN_POINT('',(-13.8999996893108,-289.914847772911,268.161165567649));
#1399=CARTESIAN_POINT('',(-5.0499998871237,-289.914847772911,268.161165567649));
#1400=CARTESIAN_POINT('',(-13.8999996893108,-289.914847772911,287.361165567649));
#1401=CARTESIAN_POINT('',(-13.8999996893108,-289.914847772911,298.161165567649));
#1402=CARTESIAN_POINT('',(-2.09999995306134,-289.914847772911,287.361165567649));
#1403=CARTESIAN_POINT('',(-5.0499998871237,-289.914847772911,287.361165567649));
#1404=CARTESIAN_POINT('',(-2.09999995306134,-289.914847772911,298.161165567649));
#1405=CARTESIAN_POINT('Origin',(-2.09999995306134,-267.619079031008,298.161165567649));
#1406=CARTESIAN_POINT('',(-2.09999995306134,-267.619079031008,273.000004068017));
#1407=CARTESIAN_POINT('',(-2.09999995306134,-267.529005770998,273.000004068017));
#1408=CARTESIAN_POINT('',(-2.09999995306134,-267.619079031008,268.161165567649));
#1409=CARTESIAN_POINT('',(-2.09999995306134,-267.619079031008,298.161165567649));
#1410=CARTESIAN_POINT('',(-2.09999995306134,-246.017301775649,268.161165567649));
#1411=CARTESIAN_POINT('Origin',(-2.09999995306134,-267.619079031008,298.161165567649));
#1412=CARTESIAN_POINT('',(-2.09999995306134,-267.619079031008,281.756505318921));
#1413=CARTESIAN_POINT('',(-2.09999995306134,-267.296845040636,281.756505318921));
#1414=CARTESIAN_POINT('',(-2.09999995306134,-294.699993412942,287.361165567649));
#1415=CARTESIAN_POINT('',(-2.09999995306134,-279.963249811967,287.361165567649));
#1416=CARTESIAN_POINT('',(-2.09999995306134,-294.699993412942,298.161165567649));
#1417=CARTESIAN_POINT('',(-2.09999995306134,-294.699993412942,298.161165567649));
#1418=CARTESIAN_POINT('',(-2.09999995306134,-262.299994137138,298.161165567649));
#1419=CARTESIAN_POINT('',(-2.09999995306134,-246.017301775649,298.161165567649));
#1420=CARTESIAN_POINT('',(-2.09999995306134,-262.299994137138,287.361165567649));
#1421=CARTESIAN_POINT('',(-2.09999995306134,-262.299994137138,298.161165567649));
#1422=CARTESIAN_POINT('',(-2.09999995306134,-267.619079031008,287.361165567649));
#1423=CARTESIAN_POINT('',(-2.09999995306134,-266.289307807541,287.361165567649));
#1424=CARTESIAN_POINT('',(-2.09999995306134,-267.619079031008,298.161165567649));
#1425=CARTESIAN_POINT('Origin',(-12.0271761130773,-240.450304142285,281.756505318921));
#1426=CARTESIAN_POINT('',(-12.0271761130773,-240.450304142285,281.756505318921));
#1427=CARTESIAN_POINT('',(-12.0271761130773,-240.450304142285,273.000004068017));
#1428=CARTESIAN_POINT('',(-12.0271761130773,-240.450304142285,276.378254678568));
#1429=CARTESIAN_POINT('',(-11.2384035886441,-267.619079031008,281.756505318921));
#1430=CARTESIAN_POINT('',(-12.0271761130773,-240.450304142285,281.756505318921));
#1431=CARTESIAN_POINT('',(-11.2384035886441,-267.619079031008,273.000004068017));
#1432=CARTESIAN_POINT('',(-11.2384035886441,-267.619079031008,289.958835443285));
#1433=CARTESIAN_POINT('',(-12.0271761130773,-240.450304142285,273.000004068017));
#1434=CARTESIAN_POINT('Origin',(3.96608538076769,-239.985982681561,281.756505318921));
#1435=CARTESIAN_POINT('',(3.96608538076769,-239.985982681561,281.756505318921));
#1436=CARTESIAN_POINT('',(9.42464849635643,-239.827507938916,281.756505318921));
#1437=CARTESIAN_POINT('',(3.96608538076769,-239.985982681561,281.756505318921));
#1438=CARTESIAN_POINT('',(-4.57518592762331,-267.619079031008,281.756505318921));
#1439=CARTESIAN_POINT('Origin',(3.96608538076769,-239.985982681561,273.000004068017));
#1440=CARTESIAN_POINT('',(3.96608538076769,-239.985982681561,273.000004068017));
#1441=CARTESIAN_POINT('',(3.9660853807677,-239.985982681561,272.000004053116));
#1442=CARTESIAN_POINT('',(3.96608538076769,-239.985982681561,273.000004068017));
#1443=CARTESIAN_POINT('Origin',(-12.0271761130773,-240.450304142285,273.000004068017));
#1444=CARTESIAN_POINT('',(1.42801774943393,-240.059668669278,273.000004068017));
#1445=CARTESIAN_POINT('',(-12.5718166745458,-267.619079031008,273.000004068017));
#1446=CARTESIAN_POINT('Origin',(14.1867294208588,-215.679140955504,287.000004276633));
#1447=CARTESIAN_POINT('',(14.1867294208588,-215.679140955504,287.000004276633));
#1448=CARTESIAN_POINT('',(14.1867294208588,-215.679140955504,271.000004038215));
#1449=CARTESIAN_POINT('',(14.1867294208588,-215.679140955504,277.580584922141));
#1450=CARTESIAN_POINT('',(14.1867294208588,-215.679140955504,287.000004276633));
#1451=CARTESIAN_POINT('',(14.1867294208588,-215.679140955504,271.000004038215));
#1452=CARTESIAN_POINT('Origin',(14.8832116119452,-239.669033196272,287.000004276633));
#1453=CARTESIAN_POINT('',(14.8832116119452,-239.669033196272,287.000004276633));
#1454=CARTESIAN_POINT('',(14.9501457194618,-241.974536548841,287.000004276633));
#1455=CARTESIAN_POINT('',(14.8832116119452,-239.669033196272,287.000004276633));
#1456=CARTESIAN_POINT('Origin',(14.8832116119452,-239.669033196272,271.000004038215));
#1457=CARTESIAN_POINT('',(14.8832116119452,-239.669033196272,271.000004038215));
#1458=CARTESIAN_POINT('',(14.8832116119452,-239.669033196272,269.580584802932));
#1459=CARTESIAN_POINT('',(14.8832116119452,-239.669033196272,271.000004038215));
#1460=CARTESIAN_POINT('Origin',(14.1867294208588,-215.679140955504,271.000004038215));
#1461=CARTESIAN_POINT('',(14.6019046239186,-229.979590428458,271.000004038215));
#1462=CARTESIAN_POINT('Origin',(-22.0000003278255,-295.000004395843,298.161165567649));
#1463=CARTESIAN_POINT('',(-20.0000003278255,-295.000004395843,310.161165567649));
#1464=CARTESIAN_POINT('Origin',(-22.0000003278255,-295.000004395843,310.161165567649));
#1465=CARTESIAN_POINT('',(-20.0000003278255,-295.000004395843,298.161165567649));
#1466=CARTESIAN_POINT('',(-20.0000003278255,-295.000004395843,298.161165567649));
#1467=CARTESIAN_POINT('Origin',(-22.0000003278255,-295.000004395843,298.161165567649));
#1468=CARTESIAN_POINT('Origin',(-22.0000003278255,-294.000004395843,310.161165567649));
#1469=CARTESIAN_POINT('Origin',(-7.99999982118607,-224.415524520289,294.161165567649));
#1470=CARTESIAN_POINT('',(-6.99376925380217,-265.149994073436,294.161165567649));
#1471=CARTESIAN_POINT('Origin',(-7.99999982118607,-265.149994073436,294.161165567649));
#1472=CARTESIAN_POINT('Origin',(-7.99999982118607,-224.415524520289,294.161165567649));
#1473=CARTESIAN_POINT('',(-6.95722816921497,-292.299993466586,294.161165567649));
#1474=CARTESIAN_POINT('Origin',(-7.99999982118607,-292.299993466586,294.161165567649));
#1475=CARTESIAN_POINT('Origin',(-7.99999982118607,-264.959536584073,287.361165567649));
#1476=CARTESIAN_POINT('',(-13.8999996893108,-262.299994137138,287.361165567649));
#1477=CARTESIAN_POINT('',(-10.9499997552484,-262.299994137138,287.361165567649));
#1478=CARTESIAN_POINT('',(-13.8999996893108,-267.619079031008,287.361165567649));
#1479=CARTESIAN_POINT('',(-13.8999996893108,-277.437192178492,287.361165567649));
#1480=CARTESIAN_POINT('',(-10.9499997552484,-267.619079031008,287.361165567649));
#1481=CARTESIAN_POINT('',(-6.99376925380217,-265.149994073436,287.361165567649));
#1482=CARTESIAN_POINT('Origin',(-7.99999982118607,-265.149994073436,287.361165567649));
#1483=CARTESIAN_POINT('Origin',(-13.8999996893108,-262.299994137138,298.161165567649));
#1484=CARTESIAN_POINT('',(-13.8999996893108,-262.299994137138,298.161165567649));
#1485=CARTESIAN_POINT('',(-10.9499997552484,-262.299994137138,298.161165567649));
#1486=CARTESIAN_POINT('',(-13.8999996893108,-262.299994137138,298.161165567649));
#1487=CARTESIAN_POINT('Origin',(-13.8999996893108,-267.619079031008,298.161165567649));
#1488=CARTESIAN_POINT('',(-13.8999996893108,-267.619079031008,268.161165567649));
#1489=CARTESIAN_POINT('',(-13.8999996893108,-267.619079031008,298.161165567649));
#1490=CARTESIAN_POINT('',(-10.9499997552484,-267.619079031008,268.161165567649));
#1491=CARTESIAN_POINT('Origin',(-7.99999982118607,-292.307420592926,287.361165567649));
#1492=CARTESIAN_POINT('',(-13.8999996893108,-294.699993412942,287.361165567649));
#1493=CARTESIAN_POINT('',(-13.8999996893108,-291.111134182919,287.361165567649));
#1494=CARTESIAN_POINT('',(-5.0499998871237,-294.699993412942,287.361165567649));
#1495=CARTESIAN_POINT('',(-6.95722816921497,-292.299993466586,287.361165567649));
#1496=CARTESIAN_POINT('Origin',(-7.99999982118607,-292.299993466586,287.361165567649));
#1497=CARTESIAN_POINT('Origin',(-2.09999995306134,-294.699993412942,298.161165567649));
#1498=CARTESIAN_POINT('',(-13.8999996893108,-294.699993412942,298.161165567649));
#1499=CARTESIAN_POINT('',(-13.8999996893108,-294.699993412942,291.361165567649));
#1500=CARTESIAN_POINT('',(-5.0499998871237,-294.699993412942,298.161165567649));
#1501=CARTESIAN_POINT('Origin',(-13.8999996893108,-289.914847772911,298.161165567649));
#1502=CARTESIAN_POINT('',(-13.8999996893108,-246.017301775649,298.161165567649));
#1503=CARTESIAN_POINT('',(-13.8999996893108,-257.1651861466,268.161165567649));
#1504=CARTESIAN_POINT('Origin',(-7.99999982118607,-292.299993466586,298.161165567649));
#1505=CARTESIAN_POINT('',(-6.95722816921497,-292.299993466586,298.161165567649));
#1506=CARTESIAN_POINT('Origin',(-7.99999982118607,-265.149994073436,298.161165567649));
#1507=CARTESIAN_POINT('',(-6.99376925380217,-265.149994073436,298.161165567649));
#1508=CARTESIAN_POINT('Origin',(-7.99999982118607,-224.415524520289,298.161165567649));
#1509=CARTESIAN_POINT('',(-29.4005963760463,-188.601293605111,298.161165567648));
#1510=CARTESIAN_POINT('',(-31.0170794693505,-244.280039901411,298.161165567649));
#1511=CARTESIAN_POINT('',(-29.4005963760463,-188.601293605111,298.161165567648));
#1512=CARTESIAN_POINT('',(15.0170798269783,-244.280039901411,298.161165567649));
#1513=CARTESIAN_POINT('Origin',(-7.99999982118607,-273.885175342244,298.161165567649));
#1514=CARTESIAN_POINT('',(13.4005967336742,-188.601293605111,298.161165567648));
#1515=CARTESIAN_POINT('',(13.4005967336742,-188.601293605111,298.161165567648));
#1516=CARTESIAN_POINT('Origin',(-7.99999982118607,-167.499996256082,298.161165567648));
#1517=CARTESIAN_POINT('',(14.5887142135418,-167.500002495943,298.161165567648));
#1518=CARTESIAN_POINT('Origin',(-8.00000011920929,-167.500002495943,298.161165567648));
#1519=CARTESIAN_POINT('Origin',(2.45,-167.161165567649,267.161165567648));
#1520=CARTESIAN_POINT('',(3.05000000000002,-167.161165567649,268.161165567648));
#1521=CARTESIAN_POINT('Origin',(2.45,-167.161165567649,268.161165567648));
#1522=CARTESIAN_POINT('',(3.05000000000002,-167.161165567649,273.161165567648));
#1523=CARTESIAN_POINT('',(3.05000000000002,-167.161165567649,267.161165567648));
#1524=CARTESIAN_POINT('Origin',(2.45,-167.161165567649,273.161165567648));
#1525=CARTESIAN_POINT('Origin',(-12.45,-167.161165567649,267.161165567648));
#1526=CARTESIAN_POINT('',(-11.85,-167.161165567649,268.161165567648));
#1527=CARTESIAN_POINT('Origin',(-12.45,-167.161165567649,268.161165567648));
#1528=CARTESIAN_POINT('',(-11.85,-167.161165567649,273.161165567648));
#1529=CARTESIAN_POINT('',(-11.85,-167.161165567649,267.161165567648));
#1530=CARTESIAN_POINT('Origin',(-12.45,-167.161165567649,273.161165567648));
#1531=CARTESIAN_POINT('Origin',(-20.45,-167.161165567649,267.161165567648));
#1532=CARTESIAN_POINT('',(-19.85,-167.161165567649,268.161165567648));
#1533=CARTESIAN_POINT('Origin',(-20.45,-167.161165567649,268.161165567648));
#1534=CARTESIAN_POINT('',(-19.85,-167.161165567649,273.161165567648));
#1535=CARTESIAN_POINT('',(-19.85,-167.161165567649,267.161165567648));
#1536=CARTESIAN_POINT('Origin',(-20.45,-167.161165567649,273.161165567648));
#1537=CARTESIAN_POINT('Origin',(-18.45,-167.161165567649,267.161165567648));
#1538=CARTESIAN_POINT('',(-17.85,-167.161165567649,268.161165567648));
#1539=CARTESIAN_POINT('Origin',(-18.45,-167.161165567649,268.161165567648));
#1540=CARTESIAN_POINT('',(-17.85,-167.161165567649,273.161165567648));
#1541=CARTESIAN_POINT('',(-17.85,-167.161165567649,267.161165567648));
#1542=CARTESIAN_POINT('Origin',(-18.45,-167.161165567649,273.161165567648));
#1543=CARTESIAN_POINT('Origin',(-3.55,-167.161165567649,267.161165567648));
#1544=CARTESIAN_POINT('',(-2.94999999999998,-167.161165567649,268.161165567648));
#1545=CARTESIAN_POINT('Origin',(-3.55,-167.161165567649,268.161165567648));
#1546=CARTESIAN_POINT('',(-2.94999999999998,-167.161165567649,273.161165567648));
#1547=CARTESIAN_POINT('',(-2.94999999999998,-167.161165567649,267.161165567648));
#1548=CARTESIAN_POINT('Origin',(-3.55,-167.161165567649,273.161165567648));
#1549=CARTESIAN_POINT('Origin',(4.45,-167.161165567649,267.161165567648));
#1550=CARTESIAN_POINT('',(5.05000000000003,-167.161165567649,268.161165567648));
#1551=CARTESIAN_POINT('Origin',(4.45,-167.161165567649,268.161165567648));
#1552=CARTESIAN_POINT('',(5.05000000000003,-167.161165567649,273.161165567648));
#1553=CARTESIAN_POINT('',(5.05000000000003,-167.161165567649,267.161165567648));
#1554=CARTESIAN_POINT('Origin',(4.45,-167.161165567649,273.161165567648));
#1555=CARTESIAN_POINT('Origin',(0.449999999999999,-167.161165567649,267.161165567648));
#1556=CARTESIAN_POINT('',(1.05000000000002,-167.161165567649,268.161165567648));
#1557=CARTESIAN_POINT('Origin',(0.449999999999999,-167.161165567649,268.161165567648));
#1558=CARTESIAN_POINT('',(1.05000000000002,-167.161165567649,273.161165567648));
#1559=CARTESIAN_POINT('',(1.05000000000002,-167.161165567649,267.161165567648));
#1560=CARTESIAN_POINT('Origin',(0.449999999999999,-167.161165567649,273.161165567648));
#1561=CARTESIAN_POINT('Origin',(-14.45,-167.161165567649,267.161165567648));
#1562=CARTESIAN_POINT('',(-13.85,-167.161165567649,268.161165567648));
#1563=CARTESIAN_POINT('Origin',(-14.45,-167.161165567649,268.161165567648));
#1564=CARTESIAN_POINT('',(-13.85,-167.161165567649,273.161165567648));
#1565=CARTESIAN_POINT('',(-13.85,-167.161165567649,267.161165567648));
#1566=CARTESIAN_POINT('Origin',(-14.45,-167.161165567649,273.161165567648));
#1567=CARTESIAN_POINT('Origin',(-22.45,-167.161165567649,267.161165567648));
#1568=CARTESIAN_POINT('',(-21.85,-167.161165567649,268.161165567648));
#1569=CARTESIAN_POINT('Origin',(-22.45,-167.161165567649,268.161165567648));
#1570=CARTESIAN_POINT('',(-21.85,-167.161165567649,273.161165567648));
#1571=CARTESIAN_POINT('',(-21.85,-167.161165567649,267.161165567648));
#1572=CARTESIAN_POINT('Origin',(-22.45,-167.161165567649,273.161165567648));
#1573=CARTESIAN_POINT('Origin',(-16.45,-167.161165567649,267.161165567648));
#1574=CARTESIAN_POINT('',(-15.85,-167.161165567649,268.161165567648));
#1575=CARTESIAN_POINT('Origin',(-16.45,-167.161165567649,268.161165567648));
#1576=CARTESIAN_POINT('',(-15.85,-167.161165567649,273.161165567648));
#1577=CARTESIAN_POINT('',(-15.85,-167.161165567649,267.161165567648));
#1578=CARTESIAN_POINT('Origin',(-16.45,-167.161165567649,273.161165567648));
#1579=CARTESIAN_POINT('Origin',(-1.55,-167.161165567649,267.161165567648));
#1580=CARTESIAN_POINT('',(-0.949999999999999,-167.161165567649,268.161165567648));
#1581=CARTESIAN_POINT('Origin',(-1.55,-167.161165567649,268.161165567648));
#1582=CARTESIAN_POINT('',(-0.949999999999999,-167.161165567649,273.161165567648));
#1583=CARTESIAN_POINT('',(-0.949999999999999,-167.161165567649,267.161165567648));
#1584=CARTESIAN_POINT('Origin',(-1.55,-167.161165567649,273.161165567648));
#1585=CARTESIAN_POINT('Origin',(6.45,-167.161165567649,267.161165567648));
#1586=CARTESIAN_POINT('',(7.05,-167.161165567649,268.161165567648));
#1587=CARTESIAN_POINT('Origin',(6.45,-167.161165567649,268.161165567648));
#1588=CARTESIAN_POINT('',(7.05,-167.161165567649,273.161165567648));
#1589=CARTESIAN_POINT('',(7.05,-167.161165567649,267.161165567648));
#1590=CARTESIAN_POINT('Origin',(6.45,-167.161165567649,273.161165567648));
#1591=CARTESIAN_POINT('Origin',(-8.00000011920929,-167.500002495943,273.161165567648));
#1592=CARTESIAN_POINT('',(14.5887142135418,-167.500002495943,273.161165567648));
#1593=CARTESIAN_POINT('Origin',(-8.00000011920929,-167.500002495943,273.161165567648));
#1594=CARTESIAN_POINT('Origin',(-8.00000011920929,-167.500002495943,268.161165567648));
#1595=CARTESIAN_POINT('',(14.5887142135418,-167.500002495943,268.161165567648));
#1596=CARTESIAN_POINT('Origin',(-7.99999982118607,-167.499996256082,268.161165567648));
#1597=CARTESIAN_POINT('',(13.4005967336742,-188.601293605111,268.161165567648));
#1598=CARTESIAN_POINT('',(-29.4005963760463,-188.601293605111,268.161165567648));
#1599=CARTESIAN_POINT('Origin',(-7.99999982118607,-167.499996256082,268.161165567648));
#1600=CARTESIAN_POINT('',(-29.4005963760463,-188.601293605111,268.161165567648));
#1601=CARTESIAN_POINT('',(13.4005967336742,-188.601293605111,268.161165567648));
#1602=CARTESIAN_POINT('Origin',(15.0170798269783,-244.280039901411,268.161165567649));
#1603=CARTESIAN_POINT('',(15.0170798269783,-244.280039901411,268.161165567649));
#1604=CARTESIAN_POINT('',(13.4005967336742,-188.601293605111,268.161165567648));
#1605=CARTESIAN_POINT('',(15.0170798269783,-244.280039901411,268.161165567649));
#1606=CARTESIAN_POINT('Origin',(-7.99999982118607,-273.885175342244,268.161165567649));
#1607=CARTESIAN_POINT('',(-31.0170794693505,-244.280039901411,268.161165567649));
#1608=CARTESIAN_POINT('Origin',(-7.99999982118607,-273.885175342244,268.161165567649));
#1609=CARTESIAN_POINT('',(-31.0170794693505,-244.280039901411,268.161165567649));
#1610=CARTESIAN_POINT('Origin',(-29.4005963760463,-188.601293605111,268.161165567648));
#1611=CARTESIAN_POINT('',(-29.4005963760463,-188.601293605111,268.161165567648));
#1612=CARTESIAN_POINT('Origin',(-7.99999982118607,-224.415524520289,268.161165567649));
#1613=CARTESIAN_POINT('Origin',(12.0000001788139,-289.000004306436,309.874270695307));
#1614=CARTESIAN_POINT('',(14.0000001788139,-289.000004306436,309.874270695307));
#1615=CARTESIAN_POINT('Origin',(12.0000001788139,-289.000004306436,309.874270695307));
#1616=CARTESIAN_POINT('Origin',(12.0000001788139,-289.000004306436,298.874270695307));
#1617=CARTESIAN_POINT('',(14.0000001788139,-289.000004306436,298.874270695307));
#1618=CARTESIAN_POINT('',(14.0000001788139,-289.000004306436,298.874270695307));
#1619=CARTESIAN_POINT('Origin',(12.0000001788139,-289.000004306436,298.874270695307));
#1620=CARTESIAN_POINT('Origin',(12.0000001788139,-289.000004306436,298.874270695307));
#1621=CARTESIAN_POINT('',(0.,0.,0.));
#1622=UNCERTAINTY_MEASURE_WITH_UNIT(LENGTH_MEASURE(0.01),#1628,
'DISTANCE_ACCURACY_VALUE',
'Maximum model space distance between geometric entities at asserted c
onnectivities');
#1623=UNCERTAINTY_MEASURE_WITH_UNIT(LENGTH_MEASURE(0.01),#1628,
'DISTANCE_ACCURACY_VALUE',
'Maximum model space distance between geometric entities at asserted c
onnectivities');
#1624=UNCERTAINTY_MEASURE_WITH_UNIT(LENGTH_MEASURE(0.01),#1628,
'DISTANCE_ACCURACY_VALUE',
'Maximum model space distance between geometric entities at asserted c
onnectivities');
#1625=(
GEOMETRIC_REPRESENTATION_CONTEXT(3)
GLOBAL_UNCERTAINTY_ASSIGNED_CONTEXT((#1622))
GLOBAL_UNIT_ASSIGNED_CONTEXT((#1628,#1630,#1631))
REPRESENTATION_CONTEXT('','3D')
);
#1626=(
GEOMETRIC_REPRESENTATION_CONTEXT(3)
GLOBAL_UNCERTAINTY_ASSIGNED_CONTEXT((#1623))
GLOBAL_UNIT_ASSIGNED_CONTEXT((#1628,#1630,#1631))
REPRESENTATION_CONTEXT('','3D')
);
#1627=(
GEOMETRIC_REPRESENTATION_CONTEXT(3)
GLOBAL_UNCERTAINTY_ASSIGNED_CONTEXT((#1624))
GLOBAL_UNIT_ASSIGNED_CONTEXT((#1628,#1630,#1631))
REPRESENTATION_CONTEXT('','3D')
);
#1628=(
LENGTH_UNIT()
NAMED_UNIT(*)
SI_UNIT(.MILLI.,.METRE.)
);
#1629=(
LENGTH_UNIT()
NAMED_UNIT(*)
SI_UNIT($,.METRE.)
);
#1630=(
NAMED_UNIT(*)
PLANE_ANGLE_UNIT()
SI_UNIT($,.RADIAN.)
);
#1631=(
NAMED_UNIT(*)
SI_UNIT($,.STERADIAN.)
SOLID_ANGLE_UNIT()
);
#1632=SHAPE_DEFINITION_REPRESENTATION(#1634,#1637);
#1633=SHAPE_DEFINITION_REPRESENTATION(#1635,#1638);
#1634=PRODUCT_DEFINITION_SHAPE('',$,#1640);
#1635=PRODUCT_DEFINITION_SHAPE('',$,#1641);
#1636=PRODUCT_DEFINITION_SHAPE($,$,#14);
#1637=SHAPE_REPRESENTATION('',(#986,#1080),#1625);
#1638=SHAPE_REPRESENTATION('',(#987),#1626);
#1639=PRODUCT_DEFINITION_CONTEXT('part definition',#1647,'design');
#1640=PRODUCT_DEFINITION('2026-08-10-15-17-34-336','final servo arm',#1642,
#1639);
#1641=PRODUCT_DEFINITION('2026-08-10-15-18-48-453',
'final assembly_Component17',#1643,#1639);
#1642=PRODUCT_DEFINITION_FORMATION('',$,#1649);
#1643=PRODUCT_DEFINITION_FORMATION('',$,#1650);
#1644=PRODUCT_RELATED_PRODUCT_CATEGORY('final servo arm',
'final servo arm',(#1649));
#1645=PRODUCT_RELATED_PRODUCT_CATEGORY('final assembly_Component17',
'final assembly_Component17',(#1650));
#1646=APPLICATION_PROTOCOL_DEFINITION('international standard',
'automotive_design',2009,#1647);
#1647=APPLICATION_CONTEXT(
'Core Data for Automotive Mechanical Design Process');
#1648=PRODUCT_CONTEXT('part definition',#1647,'mechanical');
#1649=PRODUCT('2026-08-10-15-17-34-336','final servo arm',$,(#1648));
#1650=PRODUCT('2026-08-10-15-18-48-453','final assembly_Component17',$,
(#1648));
#1651=PRESENTATION_STYLE_ASSIGNMENT((#1652));
#1652=SURFACE_STYLE_USAGE(.BOTH.,#1653);
#1653=SURFACE_SIDE_STYLE('',(#1654));
#1654=SURFACE_STYLE_FILL_AREA(#1655);
#1655=FILL_AREA_STYLE('Steel - Satin',(#1656));
#1656=FILL_AREA_STYLE_COLOUR('Steel - Satin',#1657);
#1657=COLOUR_RGB('Steel - Satin',0.627450980392157,0.627450980392157,0.627450980392157);
ENDSEC;
END-ISO-10303-21;
