ISO-10303-21;
HEADER;
/* Generated by software containing ST-Developer
 * from STEP Tools, Inc. (www.steptools.com) 
 */

FILE_DESCRIPTION(
/* description */ (''),
/* implementation_level */ '2;1');

FILE_NAME(
/* name */ 'final base linkage.step',
/* time_stamp */ '2026-08-10T21:32:09-05:00',
/* author */ (''),
/* organization */ (''),
/* preprocessor_version */ 'ST-DEVELOPER v20.1',
/* originating_system */ 'Autodesk Translation Framework v15.8.0.0',
/* authorisation */ '');

FILE_SCHEMA (('AUTOMOTIVE_DESIGN { 1 0 10303 214 3 1 1 }'));
ENDSEC;

DATA;
#10=MECHANICAL_DESIGN_GEOMETRIC_PRESENTATION_REPRESENTATION('',(#13),#2022);
#11=SHAPE_REPRESENTATION_RELATIONSHIP('SRR','None',#2029,#12);
#12=ADVANCED_BREP_SHAPE_REPRESENTATION('',(#1234),#2021);
#13=STYLED_ITEM('',(#2038),#1234);
#14=FACE_BOUND('',#411,.T.);
#15=FACE_BOUND('',#412,.T.);
#16=FACE_BOUND('',#418,.T.);
#17=FACE_BOUND('',#419,.T.);
#18=FACE_BOUND('',#422,.T.);
#19=FACE_BOUND('',#423,.T.);
#20=FACE_BOUND('',#424,.T.);
#21=FACE_BOUND('',#425,.T.);
#22=FACE_BOUND('',#426,.T.);
#23=FACE_BOUND('',#427,.T.);
#24=FACE_BOUND('',#433,.T.);
#25=FACE_BOUND('',#434,.T.);
#26=FACE_BOUND('',#435,.T.);
#27=FACE_BOUND('',#436,.T.);
#28=FACE_BOUND('',#437,.T.);
#29=FACE_BOUND('',#438,.T.);
#30=FACE_BOUND('',#450,.T.);
#31=FACE_BOUND('',#451,.T.);
#32=FACE_BOUND('',#453,.T.);
#33=FACE_BOUND('',#454,.T.);
#34=FACE_BOUND('',#466,.T.);
#35=FACE_BOUND('',#467,.T.);
#36=FACE_BOUND('',#468,.T.);
#37=FACE_BOUND('',#469,.T.);
#38=FACE_BOUND('',#470,.T.);
#39=FACE_BOUND('',#474,.T.);
#40=FACE_BOUND('',#476,.T.);
#41=FACE_BOUND('',#477,.T.);
#42=ORIENTED_CLOSED_SHELL('',*,#1232,.F.);
#43=LINE('',#1684,#174);
#44=LINE('',#1691,#175);
#45=LINE('',#1696,#176);
#46=LINE('',#1698,#177);
#47=LINE('',#1700,#178);
#48=LINE('',#1701,#179);
#49=LINE('',#1704,#180);
#50=LINE('',#1706,#181);
#51=LINE('',#1707,#182);
#52=LINE('',#1710,#183);
#53=LINE('',#1712,#184);
#54=LINE('',#1713,#185);
#55=LINE('',#1715,#186);
#56=LINE('',#1716,#187);
#57=LINE('',#1721,#188);
#58=LINE('',#1723,#189);
#59=LINE('',#1725,#190);
#60=LINE('',#1726,#191);
#61=LINE('',#1734,#192);
#62=LINE('',#1736,#193);
#63=LINE('',#1738,#194);
#64=LINE('',#1739,#195);
#65=LINE('',#1747,#196);
#66=LINE('',#1749,#197);
#67=LINE('',#1751,#198);
#68=LINE('',#1752,#199);
#69=LINE('',#1755,#200);
#70=LINE('',#1757,#201);
#71=LINE('',#1758,#202);
#72=LINE('',#1761,#203);
#73=LINE('',#1763,#204);
#74=LINE('',#1764,#205);
#75=LINE('',#1766,#206);
#76=LINE('',#1767,#207);
#77=LINE('',#1772,#208);
#78=LINE('',#1774,#209);
#79=LINE('',#1776,#210);
#80=LINE('',#1778,#211);
#81=LINE('',#1780,#212);
#82=LINE('',#1782,#213);
#83=LINE('',#1784,#214);
#84=LINE('',#1785,#215);
#85=LINE('',#1788,#216);
#86=LINE('',#1790,#217);
#87=LINE('',#1792,#218);
#88=LINE('',#1793,#219);
#89=LINE('',#1796,#220);
#90=LINE('',#1798,#221);
#91=LINE('',#1800,#222);
#92=LINE('',#1802,#223);
#93=LINE('',#1803,#224);
#94=LINE('',#1805,#225);
#95=LINE('',#1806,#226);
#96=LINE('',#1813,#227);
#97=LINE('',#1814,#228);
#98=LINE('',#1817,#229);
#99=LINE('',#1818,#230);
#100=LINE('',#1821,#231);
#101=LINE('',#1823,#232);
#102=LINE('',#1825,#233);
#103=LINE('',#1826,#234);
#104=LINE('',#1829,#235);
#105=LINE('',#1831,#236);
#106=LINE('',#1832,#237);
#107=LINE('',#1835,#238);
#108=LINE('',#1836,#239);
#109=LINE('',#1842,#240);
#110=LINE('',#1848,#241);
#111=LINE('',#1851,#242);
#112=LINE('',#1854,#243);
#113=LINE('',#1856,#244);
#114=LINE('',#1858,#245);
#115=LINE('',#1859,#246);
#116=LINE('',#1862,#247);
#117=LINE('',#1864,#248);
#118=LINE('',#1866,#249);
#119=LINE('',#1867,#250);
#120=LINE('',#1870,#251);
#121=LINE('',#1872,#252);
#122=LINE('',#1873,#253);
#123=LINE('',#1876,#254);
#124=LINE('',#1878,#255);
#125=LINE('',#1880,#256);
#126=LINE('',#1882,#257);
#127=LINE('',#1884,#258);
#128=LINE('',#1885,#259);
#129=LINE('',#1888,#260);
#130=LINE('',#1890,#261);
#131=LINE('',#1891,#262);
#132=LINE('',#1894,#263);
#133=LINE('',#1898,#264);
#134=LINE('',#1903,#265);
#135=LINE('',#1905,#266);
#136=LINE('',#1906,#267);
#137=LINE('',#1916,#268);
#138=LINE('',#1920,#269);
#139=LINE('',#1921,#270);
#140=LINE('',#1923,#271);
#141=LINE('',#1925,#272);
#142=LINE('',#1926,#273);
#143=LINE('',#1928,#274);
#144=LINE('',#1930,#275);
#145=LINE('',#1934,#276);
#146=LINE('',#1938,#277);
#147=LINE('',#1942,#278);
#148=LINE('',#1946,#279);
#149=LINE('',#1948,#280);
#150=LINE('',#1954,#281);
#151=LINE('',#1958,#282);
#152=LINE('',#1961,#283);
#153=LINE('',#1962,#284);
#154=LINE('',#1966,#285);
#155=LINE('',#1970,#286);
#156=LINE('',#1975,#287);
#157=LINE('',#1976,#288);
#158=LINE('',#1977,#289);
#159=LINE('',#1980,#290);
#160=LINE('',#1981,#291);
#161=LINE('',#1983,#292);
#162=LINE('',#1987,#293);
#163=LINE('',#1991,#294);
#164=LINE('',#1995,#295);
#165=LINE('',#1999,#296);
#166=LINE('',#2002,#297);
#167=LINE('',#2003,#298);
#168=LINE('',#2004,#299);
#169=LINE('',#2006,#300);
#170=LINE('',#2009,#301);
#171=LINE('',#2010,#302);
#172=LINE('',#2012,#303);
#173=LINE('',#2018,#304);
#174=VECTOR('',#1355,10.);
#175=VECTOR('',#1364,11.6619039634665);
#176=VECTOR('',#1369,10.);
#177=VECTOR('',#1370,10.);
#178=VECTOR('',#1371,10.);
#179=VECTOR('',#1372,10.);
#180=VECTOR('',#1375,10.);
#181=VECTOR('',#1376,10.);
#182=VECTOR('',#1377,10.);
#183=VECTOR('',#1380,10.);
#184=VECTOR('',#1381,10.);
#185=VECTOR('',#1382,10.);
#186=VECTOR('',#1385,10.);
#187=VECTOR('',#1386,10.);
#188=VECTOR('',#1391,10.);
#189=VECTOR('',#1392,10.);
#190=VECTOR('',#1393,10.);
#191=VECTOR('',#1394,10.);
#192=VECTOR('',#1405,10.);
#193=VECTOR('',#1406,10.);
#194=VECTOR('',#1407,10.);
#195=VECTOR('',#1408,10.);
#196=VECTOR('',#1419,10.);
#197=VECTOR('',#1420,10.);
#198=VECTOR('',#1421,10.);
#199=VECTOR('',#1422,10.);
#200=VECTOR('',#1425,10.);
#201=VECTOR('',#1426,10.);
#202=VECTOR('',#1427,10.);
#203=VECTOR('',#1430,10.);
#204=VECTOR('',#1431,10.);
#205=VECTOR('',#1432,10.);
#206=VECTOR('',#1435,10.);
#207=VECTOR('',#1436,10.);
#208=VECTOR('',#1441,10.);
#209=VECTOR('',#1442,10.);
#210=VECTOR('',#1443,10.);
#211=VECTOR('',#1444,10.);
#212=VECTOR('',#1445,10.);
#213=VECTOR('',#1446,10.);
#214=VECTOR('',#1447,10.);
#215=VECTOR('',#1448,10.);
#216=VECTOR('',#1451,10.);
#217=VECTOR('',#1452,10.);
#218=VECTOR('',#1453,10.);
#219=VECTOR('',#1454,10.);
#220=VECTOR('',#1457,10.);
#221=VECTOR('',#1458,10.);
#222=VECTOR('',#1459,10.);
#223=VECTOR('',#1460,10.);
#224=VECTOR('',#1461,10.);
#225=VECTOR('',#1464,10.);
#226=VECTOR('',#1465,10.);
#227=VECTOR('',#1472,10.);
#228=VECTOR('',#1473,10.);
#229=VECTOR('',#1476,10.);
#230=VECTOR('',#1477,10.);
#231=VECTOR('',#1480,10.);
#232=VECTOR('',#1481,10.);
#233=VECTOR('',#1482,10.);
#234=VECTOR('',#1483,10.);
#235=VECTOR('',#1486,10.);
#236=VECTOR('',#1487,10.);
#237=VECTOR('',#1488,10.);
#238=VECTOR('',#1491,10.);
#239=VECTOR('',#1492,10.);
#240=VECTOR('',#1499,10.);
#241=VECTOR('',#1504,10.);
#242=VECTOR('',#1507,10.);
#243=VECTOR('',#1508,10.);
#244=VECTOR('',#1509,10.);
#245=VECTOR('',#1510,10.);
#246=VECTOR('',#1511,10.);
#247=VECTOR('',#1512,10.);
#248=VECTOR('',#1513,10.);
#249=VECTOR('',#1514,10.);
#250=VECTOR('',#1515,10.);
#251=VECTOR('',#1518,10.);
#252=VECTOR('',#1519,10.);
#253=VECTOR('',#1520,10.);
#254=VECTOR('',#1523,10.);
#255=VECTOR('',#1524,10.);
#256=VECTOR('',#1525,10.);
#257=VECTOR('',#1526,10.);
#258=VECTOR('',#1527,10.);
#259=VECTOR('',#1528,10.);
#260=VECTOR('',#1531,10.);
#261=VECTOR('',#1532,10.);
#262=VECTOR('',#1533,10.);
#263=VECTOR('',#1536,10.);
#264=VECTOR('',#1541,10.);
#265=VECTOR('',#1546,10.);
#266=VECTOR('',#1547,10.);
#267=VECTOR('',#1548,10.);
#268=VECTOR('',#1559,10.);
#269=VECTOR('',#1564,10.);
#270=VECTOR('',#1565,10.);
#271=VECTOR('',#1566,10.);
#272=VECTOR('',#1567,10.);
#273=VECTOR('',#1568,10.);
#274=VECTOR('',#1571,10.);
#275=VECTOR('',#1574,10.);
#276=VECTOR('',#1579,1.99999999999999);
#277=VECTOR('',#1584,2.00000000000001);
#278=VECTOR('',#1589,2.00000000000001);
#279=VECTOR('',#1594,2.00000000000001);
#280=VECTOR('',#1597,10.);
#281=VECTOR('',#1604,10.);
#282=VECTOR('',#1607,10.);
#283=VECTOR('',#1612,10.);
#284=VECTOR('',#1613,10.);
#285=VECTOR('',#1616,10.);
#286=VECTOR('',#1619,10.);
#287=VECTOR('',#1624,10.);
#288=VECTOR('',#1625,10.);
#289=VECTOR('',#1626,10.);
#290=VECTOR('',#1629,10.);
#291=VECTOR('',#1630,10.);
#292=VECTOR('',#1633,10.);
#293=VECTOR('',#1638,1.5);
#294=VECTOR('',#1643,1.5);
#295=VECTOR('',#1648,1.5);
#296=VECTOR('',#1653,1.5);
#297=VECTOR('',#1656,10.);
#298=VECTOR('',#1657,10.);
#299=VECTOR('',#1658,10.);
#300=VECTOR('',#1661,10.);
#301=VECTOR('',#1664,10.);
#302=VECTOR('',#1665,10.);
#303=VECTOR('',#1668,10.);
#304=VECTOR('',#1677,20.);
#305=CYLINDRICAL_SURFACE('',#1250,10.);
#306=CYLINDRICAL_SURFACE('',#1253,11.6619039634665);
#307=CYLINDRICAL_SURFACE('',#1262,78.0277777777778);
#308=CYLINDRICAL_SURFACE('',#1267,77.2113249602766);
#309=CYLINDRICAL_SURFACE('',#1296,82.5);
#310=CYLINDRICAL_SURFACE('',#1305,20.6489119259938);
#311=CYLINDRICAL_SURFACE('',#1310,1.99999999999999);
#312=CYLINDRICAL_SURFACE('',#1312,2.00000000000001);
#313=CYLINDRICAL_SURFACE('',#1314,2.00000000000001);
#314=CYLINDRICAL_SURFACE('',#1316,2.00000000000001);
#315=CYLINDRICAL_SURFACE('',#1321,21.5145152469366);
#316=CYLINDRICAL_SURFACE('',#1325,25.0151431406568);
#317=CYLINDRICAL_SURFACE('',#1331,1.5);
#318=CYLINDRICAL_SURFACE('',#1333,1.5);
#319=CYLINDRICAL_SURFACE('',#1335,1.5);
#320=CYLINDRICAL_SURFACE('',#1337,1.5);
#321=CYLINDRICAL_SURFACE('',#1346,20.);
#322=FACE_OUTER_BOUND('',#387,.T.);
#323=FACE_OUTER_BOUND('',#388,.T.);
#324=FACE_OUTER_BOUND('',#389,.T.);
#325=FACE_OUTER_BOUND('',#390,.T.);
#326=FACE_OUTER_BOUND('',#391,.T.);
#327=FACE_OUTER_BOUND('',#392,.T.);
#328=FACE_OUTER_BOUND('',#393,.T.);
#329=FACE_OUTER_BOUND('',#394,.T.);
#330=FACE_OUTER_BOUND('',#395,.T.);
#331=FACE_OUTER_BOUND('',#396,.T.);
#332=FACE_OUTER_BOUND('',#397,.T.);
#333=FACE_OUTER_BOUND('',#398,.T.);
#334=FACE_OUTER_BOUND('',#399,.T.);
#335=FACE_OUTER_BOUND('',#400,.T.);
#336=FACE_OUTER_BOUND('',#401,.T.);
#337=FACE_OUTER_BOUND('',#402,.T.);
#338=FACE_OUTER_BOUND('',#403,.T.);
#339=FACE_OUTER_BOUND('',#404,.T.);
#340=FACE_OUTER_BOUND('',#405,.T.);
#341=FACE_OUTER_BOUND('',#406,.T.);
#342=FACE_OUTER_BOUND('',#407,.T.);
#343=FACE_OUTER_BOUND('',#408,.T.);
#344=FACE_OUTER_BOUND('',#409,.T.);
#345=FACE_OUTER_BOUND('',#410,.T.);
#346=FACE_OUTER_BOUND('',#413,.T.);
#347=FACE_OUTER_BOUND('',#414,.T.);
#348=FACE_OUTER_BOUND('',#415,.T.);
#349=FACE_OUTER_BOUND('',#416,.T.);
#350=FACE_OUTER_BOUND('',#417,.T.);
#351=FACE_OUTER_BOUND('',#420,.T.);
#352=FACE_OUTER_BOUND('',#421,.T.);
#353=FACE_OUTER_BOUND('',#428,.T.);
#354=FACE_OUTER_BOUND('',#429,.T.);
#355=FACE_OUTER_BOUND('',#430,.T.);
#356=FACE_OUTER_BOUND('',#431,.T.);
#357=FACE_OUTER_BOUND('',#432,.T.);
#358=FACE_OUTER_BOUND('',#439,.T.);
#359=FACE_OUTER_BOUND('',#440,.T.);
#360=FACE_OUTER_BOUND('',#441,.T.);
#361=FACE_OUTER_BOUND('',#442,.T.);
#362=FACE_OUTER_BOUND('',#443,.T.);
#363=FACE_OUTER_BOUND('',#444,.T.);
#364=FACE_OUTER_BOUND('',#445,.T.);
#365=FACE_OUTER_BOUND('',#446,.T.);
#366=FACE_OUTER_BOUND('',#447,.T.);
#367=FACE_OUTER_BOUND('',#448,.T.);
#368=FACE_OUTER_BOUND('',#449,.T.);
#369=FACE_OUTER_BOUND('',#452,.T.);
#370=FACE_OUTER_BOUND('',#455,.T.);
#371=FACE_OUTER_BOUND('',#456,.T.);
#372=FACE_OUTER_BOUND('',#457,.T.);
#373=FACE_OUTER_BOUND('',#458,.T.);
#374=FACE_OUTER_BOUND('',#459,.T.);
#375=FACE_OUTER_BOUND('',#460,.T.);
#376=FACE_OUTER_BOUND('',#461,.T.);
#377=FACE_OUTER_BOUND('',#462,.T.);
#378=FACE_OUTER_BOUND('',#463,.T.);
#379=FACE_OUTER_BOUND('',#464,.T.);
#380=FACE_OUTER_BOUND('',#465,.T.);
#381=FACE_OUTER_BOUND('',#471,.T.);
#382=FACE_OUTER_BOUND('',#472,.T.);
#383=FACE_OUTER_BOUND('',#473,.T.);
#384=FACE_OUTER_BOUND('',#475,.T.);
#385=FACE_OUTER_BOUND('',#478,.T.);
#386=FACE_OUTER_BOUND('',#479,.T.);
#387=EDGE_LOOP('',(#789));
#388=EDGE_LOOP('',(#790,#791,#792,#793));
#389=EDGE_LOOP('',(#794));
#390=EDGE_LOOP('',(#795,#796,#797,#798));
#391=EDGE_LOOP('',(#799,#800,#801,#802));
#392=EDGE_LOOP('',(#803,#804,#805,#806));
#393=EDGE_LOOP('',(#807,#808,#809,#810));
#394=EDGE_LOOP('',(#811,#812,#813,#814));
#395=EDGE_LOOP('',(#815,#816,#817,#818));
#396=EDGE_LOOP('',(#819,#820,#821,#822));
#397=EDGE_LOOP('',(#823,#824,#825,#826));
#398=EDGE_LOOP('',(#827,#828));
#399=EDGE_LOOP('',(#829,#830,#831,#832));
#400=EDGE_LOOP('',(#833,#834,#835,#836));
#401=EDGE_LOOP('',(#837,#838));
#402=EDGE_LOOP('',(#839,#840,#841,#842));
#403=EDGE_LOOP('',(#843,#844,#845,#846));
#404=EDGE_LOOP('',(#847,#848,#849,#850));
#405=EDGE_LOOP('',(#851,#852,#853,#854));
#406=EDGE_LOOP('',(#855,#856,#857,#858));
#407=EDGE_LOOP('',(#859,#860,#861,#862,#863,#864,#865,#866));
#408=EDGE_LOOP('',(#867,#868,#869,#870,#871));
#409=EDGE_LOOP('',(#872,#873,#874,#875,#876,#877));
#410=EDGE_LOOP('',(#878,#879,#880,#881));
#411=EDGE_LOOP('',(#882));
#412=EDGE_LOOP('',(#883));
#413=EDGE_LOOP('',(#884,#885,#886));
#414=EDGE_LOOP('',(#887,#888,#889,#890,#891,#892));
#415=EDGE_LOOP('',(#893,#894,#895,#896,#897,#898));
#416=EDGE_LOOP('',(#899,#900,#901,#902,#903,#904));
#417=EDGE_LOOP('',(#905,#906,#907,#908,#909));
#418=EDGE_LOOP('',(#910));
#419=EDGE_LOOP('',(#911));
#420=EDGE_LOOP('',(#912,#913,#914));
#421=EDGE_LOOP('',(#915,#916,#917,#918));
#422=EDGE_LOOP('',(#919,#920,#921,#922));
#423=EDGE_LOOP('',(#923,#924,#925,#926));
#424=EDGE_LOOP('',(#927,#928,#929,#930));
#425=EDGE_LOOP('',(#931,#932));
#426=EDGE_LOOP('',(#933,#934));
#427=EDGE_LOOP('',(#935,#936,#937,#938));
#428=EDGE_LOOP('',(#939,#940,#941,#942));
#429=EDGE_LOOP('',(#943,#944,#945,#946,#947,#948,#949,#950));
#430=EDGE_LOOP('',(#951,#952,#953,#954));
#431=EDGE_LOOP('',(#955,#956,#957,#958));
#432=EDGE_LOOP('',(#959,#960,#961,#962));
#433=EDGE_LOOP('',(#963));
#434=EDGE_LOOP('',(#964,#965,#966,#967));
#435=EDGE_LOOP('',(#968));
#436=EDGE_LOOP('',(#969));
#437=EDGE_LOOP('',(#970));
#438=EDGE_LOOP('',(#971));
#439=EDGE_LOOP('',(#972,#973,#974,#975));
#440=EDGE_LOOP('',(#976,#977,#978,#979));
#441=EDGE_LOOP('',(#980,#981,#982,#983,#984,#985,#986,#987));
#442=EDGE_LOOP('',(#988,#989,#990,#991));
#443=EDGE_LOOP('',(#992,#993,#994,#995));
#444=EDGE_LOOP('',(#996,#997,#998,#999));
#445=EDGE_LOOP('',(#1000,#1001,#1002,#1003));
#446=EDGE_LOOP('',(#1004,#1005,#1006,#1007));
#447=EDGE_LOOP('',(#1008,#1009,#1010,#1011));
#448=EDGE_LOOP('',(#1012,#1013,#1014,#1015));
#449=EDGE_LOOP('',(#1016,#1017,#1018,#1019));
#450=EDGE_LOOP('',(#1020));
#451=EDGE_LOOP('',(#1021));
#452=EDGE_LOOP('',(#1022,#1023,#1024,#1025));
#453=EDGE_LOOP('',(#1026));
#454=EDGE_LOOP('',(#1027));
#455=EDGE_LOOP('',(#1028,#1029,#1030,#1031));
#456=EDGE_LOOP('',(#1032,#1033,#1034,#1035));
#457=EDGE_LOOP('',(#1036,#1037,#1038,#1039));
#458=EDGE_LOOP('',(#1040,#1041,#1042,#1043));
#459=EDGE_LOOP('',(#1044,#1045,#1046,#1047));
#460=EDGE_LOOP('',(#1048,#1049,#1050,#1051,#1052,#1053,#1054,#1055));
#461=EDGE_LOOP('',(#1056,#1057,#1058,#1059));
#462=EDGE_LOOP('',(#1060,#1061,#1062,#1063));
#463=EDGE_LOOP('',(#1064,#1065,#1066,#1067));
#464=EDGE_LOOP('',(#1068,#1069,#1070,#1071));
#465=EDGE_LOOP('',(#1072,#1073,#1074,#1075,#1076,#1077,#1078,#1079));
#466=EDGE_LOOP('',(#1080));
#467=EDGE_LOOP('',(#1081));
#468=EDGE_LOOP('',(#1082));
#469=EDGE_LOOP('',(#1083));
#470=EDGE_LOOP('',(#1084));
#471=EDGE_LOOP('',(#1085,#1086,#1087,#1088));
#472=EDGE_LOOP('',(#1089,#1090,#1091,#1092));
#473=EDGE_LOOP('',(#1093,#1094,#1095,#1096));
#474=EDGE_LOOP('',(#1097,#1098,#1099,#1100));
#475=EDGE_LOOP('',(#1101,#1102,#1103,#1104,#1105,#1106,#1107,#1108));
#476=EDGE_LOOP('',(#1109));
#477=EDGE_LOOP('',(#1110,#1111,#1112,#1113));
#478=EDGE_LOOP('',(#1114));
#479=EDGE_LOOP('',(#1115,#1116,#1117,#1118));
#480=CIRCLE('',#1249,10.);
#481=CIRCLE('',#1251,10.);
#482=CIRCLE('',#1254,11.6619039634665);
#483=CIRCLE('',#1255,11.6619039634665);
#484=CIRCLE('',#1263,78.0277777777778);
#485=CIRCLE('',#1264,78.0277777777778);
#486=CIRCLE('',#1268,77.2113249602766);
#487=CIRCLE('',#1269,77.2113249602766);
#488=CIRCLE('',#1280,1.5);
#489=CIRCLE('',#1281,1.5);
#490=CIRCLE('',#1287,1.5);
#491=CIRCLE('',#1288,1.5);
#492=CIRCLE('',#1291,82.5);
#493=CIRCLE('',#1292,20.6489119259938);
#494=CIRCLE('',#1297,82.5);
#495=CIRCLE('',#1299,20.6489119259938);
#496=CIRCLE('',#1300,20.);
#497=CIRCLE('',#1301,1.99999999999999);
#498=CIRCLE('',#1302,2.00000000000001);
#499=CIRCLE('',#1303,2.00000000000001);
#500=CIRCLE('',#1304,2.00000000000001);
#501=CIRCLE('',#1311,1.99999999999999);
#502=CIRCLE('',#1313,2.00000000000001);
#503=CIRCLE('',#1315,2.00000000000001);
#504=CIRCLE('',#1317,2.00000000000001);
#505=CIRCLE('',#1322,21.5145152469366);
#506=CIRCLE('',#1323,21.5145152469366);
#507=CIRCLE('',#1326,25.0151431406568);
#508=CIRCLE('',#1327,25.0151431406568);
#509=CIRCLE('',#1332,1.5);
#510=CIRCLE('',#1334,1.5);
#511=CIRCLE('',#1336,1.5);
#512=CIRCLE('',#1338,1.5);
#513=CIRCLE('',#1345,20.);
#514=VERTEX_POINT('',#1680);
#515=VERTEX_POINT('',#1683);
#516=VERTEX_POINT('',#1688);
#517=VERTEX_POINT('',#1690);
#518=VERTEX_POINT('',#1694);
#519=VERTEX_POINT('',#1695);
#520=VERTEX_POINT('',#1697);
#521=VERTEX_POINT('',#1699);
#522=VERTEX_POINT('',#1703);
#523=VERTEX_POINT('',#1705);
#524=VERTEX_POINT('',#1709);
#525=VERTEX_POINT('',#1711);
#526=VERTEX_POINT('',#1719);
#527=VERTEX_POINT('',#1720);
#528=VERTEX_POINT('',#1722);
#529=VERTEX_POINT('',#1724);
#530=VERTEX_POINT('',#1732);
#531=VERTEX_POINT('',#1733);
#532=VERTEX_POINT('',#1735);
#533=VERTEX_POINT('',#1737);
#534=VERTEX_POINT('',#1745);
#535=VERTEX_POINT('',#1746);
#536=VERTEX_POINT('',#1748);
#537=VERTEX_POINT('',#1750);
#538=VERTEX_POINT('',#1754);
#539=VERTEX_POINT('',#1756);
#540=VERTEX_POINT('',#1760);
#541=VERTEX_POINT('',#1762);
#542=VERTEX_POINT('',#1770);
#543=VERTEX_POINT('',#1771);
#544=VERTEX_POINT('',#1773);
#545=VERTEX_POINT('',#1775);
#546=VERTEX_POINT('',#1777);
#547=VERTEX_POINT('',#1779);
#548=VERTEX_POINT('',#1781);
#549=VERTEX_POINT('',#1783);
#550=VERTEX_POINT('',#1787);
#551=VERTEX_POINT('',#1789);
#552=VERTEX_POINT('',#1791);
#553=VERTEX_POINT('',#1795);
#554=VERTEX_POINT('',#1797);
#555=VERTEX_POINT('',#1799);
#556=VERTEX_POINT('',#1801);
#557=VERTEX_POINT('',#1807);
#558=VERTEX_POINT('',#1809);
#559=VERTEX_POINT('',#1812);
#560=VERTEX_POINT('',#1816);
#561=VERTEX_POINT('',#1820);
#562=VERTEX_POINT('',#1822);
#563=VERTEX_POINT('',#1824);
#564=VERTEX_POINT('',#1828);
#565=VERTEX_POINT('',#1830);
#566=VERTEX_POINT('',#1834);
#567=VERTEX_POINT('',#1837);
#568=VERTEX_POINT('',#1839);
#569=VERTEX_POINT('',#1844);
#570=VERTEX_POINT('',#1845);
#571=VERTEX_POINT('',#1847);
#572=VERTEX_POINT('',#1849);
#573=VERTEX_POINT('',#1852);
#574=VERTEX_POINT('',#1853);
#575=VERTEX_POINT('',#1855);
#576=VERTEX_POINT('',#1857);
#577=VERTEX_POINT('',#1860);
#578=VERTEX_POINT('',#1861);
#579=VERTEX_POINT('',#1863);
#580=VERTEX_POINT('',#1865);
#581=VERTEX_POINT('',#1869);
#582=VERTEX_POINT('',#1871);
#583=VERTEX_POINT('',#1875);
#584=VERTEX_POINT('',#1877);
#585=VERTEX_POINT('',#1879);
#586=VERTEX_POINT('',#1881);
#587=VERTEX_POINT('',#1883);
#588=VERTEX_POINT('',#1887);
#589=VERTEX_POINT('',#1889);
#590=VERTEX_POINT('',#1893);
#591=VERTEX_POINT('',#1897);
#592=VERTEX_POINT('',#1900);
#593=VERTEX_POINT('',#1902);
#594=VERTEX_POINT('',#1904);
#595=VERTEX_POINT('',#1907);
#596=VERTEX_POINT('',#1909);
#597=VERTEX_POINT('',#1911);
#598=VERTEX_POINT('',#1913);
#599=VERTEX_POINT('',#1919);
#600=VERTEX_POINT('',#1922);
#601=VERTEX_POINT('',#1924);
#602=VERTEX_POINT('',#1932);
#603=VERTEX_POINT('',#1936);
#604=VERTEX_POINT('',#1940);
#605=VERTEX_POINT('',#1944);
#606=VERTEX_POINT('',#1952);
#607=VERTEX_POINT('',#1953);
#608=VERTEX_POINT('',#1955);
#609=VERTEX_POINT('',#1957);
#610=VERTEX_POINT('',#1964);
#611=VERTEX_POINT('',#1965);
#612=VERTEX_POINT('',#1967);
#613=VERTEX_POINT('',#1969);
#614=VERTEX_POINT('',#1973);
#615=VERTEX_POINT('',#1974);
#616=VERTEX_POINT('',#1979);
#617=VERTEX_POINT('',#1985);
#618=VERTEX_POINT('',#1989);
#619=VERTEX_POINT('',#1993);
#620=VERTEX_POINT('',#1997);
#621=VERTEX_POINT('',#2001);
#622=VERTEX_POINT('',#2008);
#623=VERTEX_POINT('',#2015);
#624=EDGE_CURVE('',#514,#514,#480,.T.);
#625=EDGE_CURVE('',#514,#515,#43,.T.);
#626=EDGE_CURVE('',#515,#515,#481,.T.);
#627=EDGE_CURVE('',#516,#516,#482,.T.);
#628=EDGE_CURVE('',#516,#517,#44,.T.);
#629=EDGE_CURVE('',#517,#517,#483,.T.);
#630=EDGE_CURVE('',#518,#519,#45,.T.);
#631=EDGE_CURVE('',#518,#520,#46,.T.);
#632=EDGE_CURVE('',#520,#521,#47,.T.);
#633=EDGE_CURVE('',#519,#521,#48,.T.);
#634=EDGE_CURVE('',#522,#518,#49,.T.);
#635=EDGE_CURVE('',#522,#523,#50,.T.);
#636=EDGE_CURVE('',#523,#520,#51,.T.);
#637=EDGE_CURVE('',#524,#522,#52,.T.);
#638=EDGE_CURVE('',#524,#525,#53,.T.);
#639=EDGE_CURVE('',#525,#523,#54,.T.);
#640=EDGE_CURVE('',#519,#524,#55,.T.);
#641=EDGE_CURVE('',#521,#525,#56,.T.);
#642=EDGE_CURVE('',#526,#527,#57,.T.);
#643=EDGE_CURVE('',#526,#528,#58,.T.);
#644=EDGE_CURVE('',#528,#529,#59,.T.);
#645=EDGE_CURVE('',#527,#529,#60,.T.);
#646=EDGE_CURVE('',#527,#526,#484,.T.);
#647=EDGE_CURVE('',#529,#528,#485,.T.);
#648=EDGE_CURVE('',#530,#531,#61,.T.);
#649=EDGE_CURVE('',#530,#532,#62,.T.);
#650=EDGE_CURVE('',#532,#533,#63,.T.);
#651=EDGE_CURVE('',#531,#533,#64,.T.);
#652=EDGE_CURVE('',#531,#530,#486,.T.);
#653=EDGE_CURVE('',#533,#532,#487,.T.);
#654=EDGE_CURVE('',#534,#535,#65,.T.);
#655=EDGE_CURVE('',#534,#536,#66,.T.);
#656=EDGE_CURVE('',#536,#537,#67,.T.);
#657=EDGE_CURVE('',#535,#537,#68,.T.);
#658=EDGE_CURVE('',#538,#534,#69,.T.);
#659=EDGE_CURVE('',#538,#539,#70,.T.);
#660=EDGE_CURVE('',#539,#536,#71,.T.);
#661=EDGE_CURVE('',#540,#538,#72,.T.);
#662=EDGE_CURVE('',#540,#541,#73,.T.);
#663=EDGE_CURVE('',#541,#539,#74,.T.);
#664=EDGE_CURVE('',#535,#540,#75,.T.);
#665=EDGE_CURVE('',#537,#541,#76,.T.);
#666=EDGE_CURVE('',#542,#543,#77,.T.);
#667=EDGE_CURVE('',#542,#544,#78,.T.);
#668=EDGE_CURVE('',#544,#545,#79,.T.);
#669=EDGE_CURVE('',#546,#545,#80,.T.);
#670=EDGE_CURVE('',#547,#546,#81,.T.);
#671=EDGE_CURVE('',#547,#548,#82,.T.);
#672=EDGE_CURVE('',#549,#548,#83,.T.);
#673=EDGE_CURVE('',#543,#549,#84,.T.);
#674=EDGE_CURVE('',#548,#550,#85,.T.);
#675=EDGE_CURVE('',#551,#547,#86,.T.);
#676=EDGE_CURVE('',#551,#552,#87,.T.);
#677=EDGE_CURVE('',#550,#552,#88,.T.);
#678=EDGE_CURVE('',#552,#553,#89,.T.);
#679=EDGE_CURVE('',#554,#551,#90,.T.);
#680=EDGE_CURVE('',#554,#555,#91,.T.);
#681=EDGE_CURVE('',#555,#556,#92,.T.);
#682=EDGE_CURVE('',#553,#556,#93,.T.);
#683=EDGE_CURVE('',#546,#554,#94,.T.);
#684=EDGE_CURVE('',#545,#555,#95,.T.);
#685=EDGE_CURVE('',#557,#557,#488,.T.);
#686=EDGE_CURVE('',#558,#558,#489,.T.);
#687=EDGE_CURVE('',#559,#542,#96,.T.);
#688=EDGE_CURVE('',#559,#544,#97,.T.);
#689=EDGE_CURVE('',#560,#559,#98,.T.);
#690=EDGE_CURVE('',#556,#560,#99,.T.);
#691=EDGE_CURVE('',#561,#550,#100,.T.);
#692=EDGE_CURVE('',#562,#561,#101,.T.);
#693=EDGE_CURVE('',#563,#562,#102,.T.);
#694=EDGE_CURVE('',#563,#549,#103,.T.);
#695=EDGE_CURVE('',#553,#564,#104,.T.);
#696=EDGE_CURVE('',#564,#565,#105,.T.);
#697=EDGE_CURVE('',#561,#565,#106,.T.);
#698=EDGE_CURVE('',#566,#560,#107,.T.);
#699=EDGE_CURVE('',#564,#566,#108,.T.);
#700=EDGE_CURVE('',#567,#567,#490,.T.);
#701=EDGE_CURVE('',#568,#568,#491,.T.);
#702=EDGE_CURVE('',#543,#563,#109,.T.);
#703=EDGE_CURVE('',#569,#570,#492,.T.);
#704=EDGE_CURVE('',#571,#569,#110,.T.);
#705=EDGE_CURVE('',#572,#571,#493,.T.);
#706=EDGE_CURVE('',#570,#572,#111,.T.);
#707=EDGE_CURVE('',#573,#574,#112,.T.);
#708=EDGE_CURVE('',#575,#573,#113,.T.);
#709=EDGE_CURVE('',#576,#575,#114,.T.);
#710=EDGE_CURVE('',#574,#576,#115,.T.);
#711=EDGE_CURVE('',#577,#578,#116,.T.);
#712=EDGE_CURVE('',#579,#577,#117,.T.);
#713=EDGE_CURVE('',#580,#579,#118,.T.);
#714=EDGE_CURVE('',#578,#580,#119,.T.);
#715=EDGE_CURVE('',#573,#581,#120,.T.);
#716=EDGE_CURVE('',#581,#582,#121,.T.);
#717=EDGE_CURVE('',#575,#582,#122,.T.);
#718=EDGE_CURVE('',#574,#583,#123,.T.);
#719=EDGE_CURVE('',#583,#584,#124,.T.);
#720=EDGE_CURVE('',#584,#585,#125,.T.);
#721=EDGE_CURVE('',#586,#585,#126,.T.);
#722=EDGE_CURVE('',#587,#586,#127,.T.);
#723=EDGE_CURVE('',#587,#581,#128,.T.);
#724=EDGE_CURVE('',#588,#569,#129,.T.);
#725=EDGE_CURVE('',#589,#588,#130,.T.);
#726=EDGE_CURVE('',#589,#571,#131,.T.);
#727=EDGE_CURVE('',#570,#590,#132,.T.);
#728=EDGE_CURVE('',#590,#588,#494,.T.);
#729=EDGE_CURVE('',#590,#591,#133,.T.);
#730=EDGE_CURVE('',#589,#591,#495,.T.);
#731=EDGE_CURVE('',#592,#592,#496,.T.);
#732=EDGE_CURVE('',#585,#593,#134,.T.);
#733=EDGE_CURVE('',#593,#594,#135,.T.);
#734=EDGE_CURVE('',#594,#586,#136,.T.);
#735=EDGE_CURVE('',#595,#595,#497,.T.);
#736=EDGE_CURVE('',#596,#596,#498,.T.);
#737=EDGE_CURVE('',#597,#597,#499,.T.);
#738=EDGE_CURVE('',#598,#598,#500,.T.);
#739=EDGE_CURVE('',#591,#572,#137,.T.);
#740=EDGE_CURVE('',#582,#599,#138,.T.);
#741=EDGE_CURVE('',#599,#594,#139,.T.);
#742=EDGE_CURVE('',#600,#593,#140,.T.);
#743=EDGE_CURVE('',#600,#601,#141,.T.);
#744=EDGE_CURVE('',#576,#601,#142,.T.);
#745=EDGE_CURVE('',#601,#583,#143,.T.);
#746=EDGE_CURVE('',#584,#600,#144,.T.);
#747=EDGE_CURVE('',#602,#602,#501,.T.);
#748=EDGE_CURVE('',#602,#595,#145,.T.);
#749=EDGE_CURVE('',#603,#603,#502,.T.);
#750=EDGE_CURVE('',#603,#596,#146,.T.);
#751=EDGE_CURVE('',#604,#604,#503,.T.);
#752=EDGE_CURVE('',#604,#597,#147,.T.);
#753=EDGE_CURVE('',#605,#605,#504,.T.);
#754=EDGE_CURVE('',#605,#598,#148,.T.);
#755=EDGE_CURVE('',#599,#587,#149,.T.);
#756=EDGE_CURVE('',#606,#607,#150,.T.);
#757=EDGE_CURVE('',#608,#607,#505,.T.);
#758=EDGE_CURVE('',#608,#609,#151,.T.);
#759=EDGE_CURVE('',#606,#609,#506,.T.);
#760=EDGE_CURVE('',#607,#580,#152,.T.);
#761=EDGE_CURVE('',#578,#606,#153,.T.);
#762=EDGE_CURVE('',#610,#611,#154,.T.);
#763=EDGE_CURVE('',#612,#611,#507,.T.);
#764=EDGE_CURVE('',#613,#612,#155,.T.);
#765=EDGE_CURVE('',#610,#613,#508,.T.);
#766=EDGE_CURVE('',#614,#615,#156,.T.);
#767=EDGE_CURVE('',#611,#615,#157,.T.);
#768=EDGE_CURVE('',#614,#610,#158,.T.);
#769=EDGE_CURVE('',#566,#616,#159,.T.);
#770=EDGE_CURVE('',#565,#616,#160,.T.);
#771=EDGE_CURVE('',#616,#562,#161,.T.);
#772=EDGE_CURVE('',#617,#617,#509,.T.);
#773=EDGE_CURVE('',#617,#557,#162,.T.);
#774=EDGE_CURVE('',#618,#618,#510,.T.);
#775=EDGE_CURVE('',#618,#558,#163,.T.);
#776=EDGE_CURVE('',#619,#619,#511,.T.);
#777=EDGE_CURVE('',#619,#568,#164,.T.);
#778=EDGE_CURVE('',#620,#620,#512,.T.);
#779=EDGE_CURVE('',#620,#567,#165,.T.);
#780=EDGE_CURVE('',#621,#614,#166,.T.);
#781=EDGE_CURVE('',#613,#577,#167,.T.);
#782=EDGE_CURVE('',#609,#621,#168,.T.);
#783=EDGE_CURVE('',#612,#579,#169,.T.);
#784=EDGE_CURVE('',#622,#621,#170,.T.);
#785=EDGE_CURVE('',#622,#608,#171,.T.);
#786=EDGE_CURVE('',#615,#622,#172,.T.);
#787=EDGE_CURVE('',#623,#623,#513,.T.);
#788=EDGE_CURVE('',#623,#592,#173,.T.);
#789=ORIENTED_EDGE('',*,*,#624,.T.);
#790=ORIENTED_EDGE('',*,*,#624,.F.);
#791=ORIENTED_EDGE('',*,*,#625,.T.);
#792=ORIENTED_EDGE('',*,*,#626,.T.);
#793=ORIENTED_EDGE('',*,*,#625,.F.);
#794=ORIENTED_EDGE('',*,*,#626,.F.);
#795=ORIENTED_EDGE('',*,*,#627,.F.);
#796=ORIENTED_EDGE('',*,*,#628,.T.);
#797=ORIENTED_EDGE('',*,*,#629,.F.);
#798=ORIENTED_EDGE('',*,*,#628,.F.);
#799=ORIENTED_EDGE('',*,*,#630,.F.);
#800=ORIENTED_EDGE('',*,*,#631,.T.);
#801=ORIENTED_EDGE('',*,*,#632,.T.);
#802=ORIENTED_EDGE('',*,*,#633,.F.);
#803=ORIENTED_EDGE('',*,*,#634,.F.);
#804=ORIENTED_EDGE('',*,*,#635,.T.);
#805=ORIENTED_EDGE('',*,*,#636,.T.);
#806=ORIENTED_EDGE('',*,*,#631,.F.);
#807=ORIENTED_EDGE('',*,*,#637,.F.);
#808=ORIENTED_EDGE('',*,*,#638,.T.);
#809=ORIENTED_EDGE('',*,*,#639,.T.);
#810=ORIENTED_EDGE('',*,*,#635,.F.);
#811=ORIENTED_EDGE('',*,*,#640,.F.);
#812=ORIENTED_EDGE('',*,*,#633,.T.);
#813=ORIENTED_EDGE('',*,*,#641,.T.);
#814=ORIENTED_EDGE('',*,*,#638,.F.);
#815=ORIENTED_EDGE('',*,*,#641,.F.);
#816=ORIENTED_EDGE('',*,*,#632,.F.);
#817=ORIENTED_EDGE('',*,*,#636,.F.);
#818=ORIENTED_EDGE('',*,*,#639,.F.);
#819=ORIENTED_EDGE('',*,*,#642,.F.);
#820=ORIENTED_EDGE('',*,*,#643,.T.);
#821=ORIENTED_EDGE('',*,*,#644,.T.);
#822=ORIENTED_EDGE('',*,*,#645,.F.);
#823=ORIENTED_EDGE('',*,*,#646,.F.);
#824=ORIENTED_EDGE('',*,*,#645,.T.);
#825=ORIENTED_EDGE('',*,*,#647,.T.);
#826=ORIENTED_EDGE('',*,*,#643,.F.);
#827=ORIENTED_EDGE('',*,*,#647,.F.);
#828=ORIENTED_EDGE('',*,*,#644,.F.);
#829=ORIENTED_EDGE('',*,*,#648,.F.);
#830=ORIENTED_EDGE('',*,*,#649,.T.);
#831=ORIENTED_EDGE('',*,*,#650,.T.);
#832=ORIENTED_EDGE('',*,*,#651,.F.);
#833=ORIENTED_EDGE('',*,*,#652,.F.);
#834=ORIENTED_EDGE('',*,*,#651,.T.);
#835=ORIENTED_EDGE('',*,*,#653,.T.);
#836=ORIENTED_EDGE('',*,*,#649,.F.);
#837=ORIENTED_EDGE('',*,*,#653,.F.);
#838=ORIENTED_EDGE('',*,*,#650,.F.);
#839=ORIENTED_EDGE('',*,*,#654,.F.);
#840=ORIENTED_EDGE('',*,*,#655,.T.);
#841=ORIENTED_EDGE('',*,*,#656,.T.);
#842=ORIENTED_EDGE('',*,*,#657,.F.);
#843=ORIENTED_EDGE('',*,*,#658,.F.);
#844=ORIENTED_EDGE('',*,*,#659,.T.);
#845=ORIENTED_EDGE('',*,*,#660,.T.);
#846=ORIENTED_EDGE('',*,*,#655,.F.);
#847=ORIENTED_EDGE('',*,*,#661,.F.);
#848=ORIENTED_EDGE('',*,*,#662,.T.);
#849=ORIENTED_EDGE('',*,*,#663,.T.);
#850=ORIENTED_EDGE('',*,*,#659,.F.);
#851=ORIENTED_EDGE('',*,*,#664,.F.);
#852=ORIENTED_EDGE('',*,*,#657,.T.);
#853=ORIENTED_EDGE('',*,*,#665,.T.);
#854=ORIENTED_EDGE('',*,*,#662,.F.);
#855=ORIENTED_EDGE('',*,*,#665,.F.);
#856=ORIENTED_EDGE('',*,*,#656,.F.);
#857=ORIENTED_EDGE('',*,*,#660,.F.);
#858=ORIENTED_EDGE('',*,*,#663,.F.);
#859=ORIENTED_EDGE('',*,*,#666,.F.);
#860=ORIENTED_EDGE('',*,*,#667,.T.);
#861=ORIENTED_EDGE('',*,*,#668,.T.);
#862=ORIENTED_EDGE('',*,*,#669,.F.);
#863=ORIENTED_EDGE('',*,*,#670,.F.);
#864=ORIENTED_EDGE('',*,*,#671,.T.);
#865=ORIENTED_EDGE('',*,*,#672,.F.);
#866=ORIENTED_EDGE('',*,*,#673,.F.);
#867=ORIENTED_EDGE('',*,*,#674,.F.);
#868=ORIENTED_EDGE('',*,*,#671,.F.);
#869=ORIENTED_EDGE('',*,*,#675,.F.);
#870=ORIENTED_EDGE('',*,*,#676,.T.);
#871=ORIENTED_EDGE('',*,*,#677,.F.);
#872=ORIENTED_EDGE('',*,*,#678,.F.);
#873=ORIENTED_EDGE('',*,*,#676,.F.);
#874=ORIENTED_EDGE('',*,*,#679,.F.);
#875=ORIENTED_EDGE('',*,*,#680,.T.);
#876=ORIENTED_EDGE('',*,*,#681,.T.);
#877=ORIENTED_EDGE('',*,*,#682,.F.);
#878=ORIENTED_EDGE('',*,*,#683,.F.);
#879=ORIENTED_EDGE('',*,*,#669,.T.);
#880=ORIENTED_EDGE('',*,*,#684,.T.);
#881=ORIENTED_EDGE('',*,*,#680,.F.);
#882=ORIENTED_EDGE('',*,*,#685,.F.);
#883=ORIENTED_EDGE('',*,*,#686,.F.);
#884=ORIENTED_EDGE('',*,*,#687,.F.);
#885=ORIENTED_EDGE('',*,*,#688,.T.);
#886=ORIENTED_EDGE('',*,*,#667,.F.);
#887=ORIENTED_EDGE('',*,*,#689,.F.);
#888=ORIENTED_EDGE('',*,*,#690,.F.);
#889=ORIENTED_EDGE('',*,*,#681,.F.);
#890=ORIENTED_EDGE('',*,*,#684,.F.);
#891=ORIENTED_EDGE('',*,*,#668,.F.);
#892=ORIENTED_EDGE('',*,*,#688,.F.);
#893=ORIENTED_EDGE('',*,*,#672,.T.);
#894=ORIENTED_EDGE('',*,*,#674,.T.);
#895=ORIENTED_EDGE('',*,*,#691,.F.);
#896=ORIENTED_EDGE('',*,*,#692,.F.);
#897=ORIENTED_EDGE('',*,*,#693,.F.);
#898=ORIENTED_EDGE('',*,*,#694,.T.);
#899=ORIENTED_EDGE('',*,*,#677,.T.);
#900=ORIENTED_EDGE('',*,*,#678,.T.);
#901=ORIENTED_EDGE('',*,*,#695,.T.);
#902=ORIENTED_EDGE('',*,*,#696,.T.);
#903=ORIENTED_EDGE('',*,*,#697,.F.);
#904=ORIENTED_EDGE('',*,*,#691,.T.);
#905=ORIENTED_EDGE('',*,*,#690,.T.);
#906=ORIENTED_EDGE('',*,*,#698,.F.);
#907=ORIENTED_EDGE('',*,*,#699,.F.);
#908=ORIENTED_EDGE('',*,*,#695,.F.);
#909=ORIENTED_EDGE('',*,*,#682,.T.);
#910=ORIENTED_EDGE('',*,*,#700,.T.);
#911=ORIENTED_EDGE('',*,*,#701,.T.);
#912=ORIENTED_EDGE('',*,*,#673,.T.);
#913=ORIENTED_EDGE('',*,*,#694,.F.);
#914=ORIENTED_EDGE('',*,*,#702,.F.);
#915=ORIENTED_EDGE('',*,*,#703,.F.);
#916=ORIENTED_EDGE('',*,*,#704,.F.);
#917=ORIENTED_EDGE('',*,*,#705,.F.);
#918=ORIENTED_EDGE('',*,*,#706,.F.);
#919=ORIENTED_EDGE('',*,*,#707,.F.);
#920=ORIENTED_EDGE('',*,*,#708,.F.);
#921=ORIENTED_EDGE('',*,*,#709,.F.);
#922=ORIENTED_EDGE('',*,*,#710,.F.);
#923=ORIENTED_EDGE('',*,*,#711,.F.);
#924=ORIENTED_EDGE('',*,*,#712,.F.);
#925=ORIENTED_EDGE('',*,*,#713,.F.);
#926=ORIENTED_EDGE('',*,*,#714,.F.);
#927=ORIENTED_EDGE('',*,*,#654,.T.);
#928=ORIENTED_EDGE('',*,*,#664,.T.);
#929=ORIENTED_EDGE('',*,*,#661,.T.);
#930=ORIENTED_EDGE('',*,*,#658,.T.);
#931=ORIENTED_EDGE('',*,*,#648,.T.);
#932=ORIENTED_EDGE('',*,*,#652,.T.);
#933=ORIENTED_EDGE('',*,*,#642,.T.);
#934=ORIENTED_EDGE('',*,*,#646,.T.);
#935=ORIENTED_EDGE('',*,*,#630,.T.);
#936=ORIENTED_EDGE('',*,*,#640,.T.);
#937=ORIENTED_EDGE('',*,*,#637,.T.);
#938=ORIENTED_EDGE('',*,*,#634,.T.);
#939=ORIENTED_EDGE('',*,*,#708,.T.);
#940=ORIENTED_EDGE('',*,*,#715,.T.);
#941=ORIENTED_EDGE('',*,*,#716,.T.);
#942=ORIENTED_EDGE('',*,*,#717,.F.);
#943=ORIENTED_EDGE('',*,*,#707,.T.);
#944=ORIENTED_EDGE('',*,*,#718,.T.);
#945=ORIENTED_EDGE('',*,*,#719,.T.);
#946=ORIENTED_EDGE('',*,*,#720,.T.);
#947=ORIENTED_EDGE('',*,*,#721,.F.);
#948=ORIENTED_EDGE('',*,*,#722,.F.);
#949=ORIENTED_EDGE('',*,*,#723,.T.);
#950=ORIENTED_EDGE('',*,*,#715,.F.);
#951=ORIENTED_EDGE('',*,*,#704,.T.);
#952=ORIENTED_EDGE('',*,*,#724,.F.);
#953=ORIENTED_EDGE('',*,*,#725,.F.);
#954=ORIENTED_EDGE('',*,*,#726,.T.);
#955=ORIENTED_EDGE('',*,*,#703,.T.);
#956=ORIENTED_EDGE('',*,*,#727,.T.);
#957=ORIENTED_EDGE('',*,*,#728,.T.);
#958=ORIENTED_EDGE('',*,*,#724,.T.);
#959=ORIENTED_EDGE('',*,*,#729,.T.);
#960=ORIENTED_EDGE('',*,*,#730,.F.);
#961=ORIENTED_EDGE('',*,*,#725,.T.);
#962=ORIENTED_EDGE('',*,*,#728,.F.);
#963=ORIENTED_EDGE('',*,*,#731,.T.);
#964=ORIENTED_EDGE('',*,*,#721,.T.);
#965=ORIENTED_EDGE('',*,*,#732,.T.);
#966=ORIENTED_EDGE('',*,*,#733,.T.);
#967=ORIENTED_EDGE('',*,*,#734,.T.);
#968=ORIENTED_EDGE('',*,*,#735,.T.);
#969=ORIENTED_EDGE('',*,*,#736,.T.);
#970=ORIENTED_EDGE('',*,*,#737,.T.);
#971=ORIENTED_EDGE('',*,*,#738,.T.);
#972=ORIENTED_EDGE('',*,*,#705,.T.);
#973=ORIENTED_EDGE('',*,*,#726,.F.);
#974=ORIENTED_EDGE('',*,*,#730,.T.);
#975=ORIENTED_EDGE('',*,*,#739,.T.);
#976=ORIENTED_EDGE('',*,*,#706,.T.);
#977=ORIENTED_EDGE('',*,*,#739,.F.);
#978=ORIENTED_EDGE('',*,*,#729,.F.);
#979=ORIENTED_EDGE('',*,*,#727,.F.);
#980=ORIENTED_EDGE('',*,*,#709,.T.);
#981=ORIENTED_EDGE('',*,*,#717,.T.);
#982=ORIENTED_EDGE('',*,*,#740,.T.);
#983=ORIENTED_EDGE('',*,*,#741,.T.);
#984=ORIENTED_EDGE('',*,*,#733,.F.);
#985=ORIENTED_EDGE('',*,*,#742,.F.);
#986=ORIENTED_EDGE('',*,*,#743,.T.);
#987=ORIENTED_EDGE('',*,*,#744,.F.);
#988=ORIENTED_EDGE('',*,*,#710,.T.);
#989=ORIENTED_EDGE('',*,*,#744,.T.);
#990=ORIENTED_EDGE('',*,*,#745,.T.);
#991=ORIENTED_EDGE('',*,*,#718,.F.);
#992=ORIENTED_EDGE('',*,*,#746,.T.);
#993=ORIENTED_EDGE('',*,*,#742,.T.);
#994=ORIENTED_EDGE('',*,*,#732,.F.);
#995=ORIENTED_EDGE('',*,*,#720,.F.);
#996=ORIENTED_EDGE('',*,*,#747,.T.);
#997=ORIENTED_EDGE('',*,*,#748,.T.);
#998=ORIENTED_EDGE('',*,*,#735,.F.);
#999=ORIENTED_EDGE('',*,*,#748,.F.);
#1000=ORIENTED_EDGE('',*,*,#749,.T.);
#1001=ORIENTED_EDGE('',*,*,#750,.T.);
#1002=ORIENTED_EDGE('',*,*,#736,.F.);
#1003=ORIENTED_EDGE('',*,*,#750,.F.);
#1004=ORIENTED_EDGE('',*,*,#751,.T.);
#1005=ORIENTED_EDGE('',*,*,#752,.T.);
#1006=ORIENTED_EDGE('',*,*,#737,.F.);
#1007=ORIENTED_EDGE('',*,*,#752,.F.);
#1008=ORIENTED_EDGE('',*,*,#753,.T.);
#1009=ORIENTED_EDGE('',*,*,#754,.T.);
#1010=ORIENTED_EDGE('',*,*,#738,.F.);
#1011=ORIENTED_EDGE('',*,*,#754,.F.);
#1012=ORIENTED_EDGE('',*,*,#755,.T.);
#1013=ORIENTED_EDGE('',*,*,#722,.T.);
#1014=ORIENTED_EDGE('',*,*,#734,.F.);
#1015=ORIENTED_EDGE('',*,*,#741,.F.);
#1016=ORIENTED_EDGE('',*,*,#723,.F.);
#1017=ORIENTED_EDGE('',*,*,#755,.F.);
#1018=ORIENTED_EDGE('',*,*,#740,.F.);
#1019=ORIENTED_EDGE('',*,*,#716,.F.);
#1020=ORIENTED_EDGE('',*,*,#753,.F.);
#1021=ORIENTED_EDGE('',*,*,#749,.F.);
#1022=ORIENTED_EDGE('',*,*,#719,.F.);
#1023=ORIENTED_EDGE('',*,*,#745,.F.);
#1024=ORIENTED_EDGE('',*,*,#743,.F.);
#1025=ORIENTED_EDGE('',*,*,#746,.F.);
#1026=ORIENTED_EDGE('',*,*,#751,.F.);
#1027=ORIENTED_EDGE('',*,*,#747,.F.);
#1028=ORIENTED_EDGE('',*,*,#756,.T.);
#1029=ORIENTED_EDGE('',*,*,#757,.F.);
#1030=ORIENTED_EDGE('',*,*,#758,.T.);
#1031=ORIENTED_EDGE('',*,*,#759,.F.);
#1032=ORIENTED_EDGE('',*,*,#760,.F.);
#1033=ORIENTED_EDGE('',*,*,#756,.F.);
#1034=ORIENTED_EDGE('',*,*,#761,.F.);
#1035=ORIENTED_EDGE('',*,*,#714,.T.);
#1036=ORIENTED_EDGE('',*,*,#762,.T.);
#1037=ORIENTED_EDGE('',*,*,#763,.F.);
#1038=ORIENTED_EDGE('',*,*,#764,.F.);
#1039=ORIENTED_EDGE('',*,*,#765,.F.);
#1040=ORIENTED_EDGE('',*,*,#766,.T.);
#1041=ORIENTED_EDGE('',*,*,#767,.F.);
#1042=ORIENTED_EDGE('',*,*,#762,.F.);
#1043=ORIENTED_EDGE('',*,*,#768,.F.);
#1044=ORIENTED_EDGE('',*,*,#699,.T.);
#1045=ORIENTED_EDGE('',*,*,#769,.T.);
#1046=ORIENTED_EDGE('',*,*,#770,.F.);
#1047=ORIENTED_EDGE('',*,*,#696,.F.);
#1048=ORIENTED_EDGE('',*,*,#666,.T.);
#1049=ORIENTED_EDGE('',*,*,#702,.T.);
#1050=ORIENTED_EDGE('',*,*,#693,.T.);
#1051=ORIENTED_EDGE('',*,*,#771,.F.);
#1052=ORIENTED_EDGE('',*,*,#769,.F.);
#1053=ORIENTED_EDGE('',*,*,#698,.T.);
#1054=ORIENTED_EDGE('',*,*,#689,.T.);
#1055=ORIENTED_EDGE('',*,*,#687,.T.);
#1056=ORIENTED_EDGE('',*,*,#772,.F.);
#1057=ORIENTED_EDGE('',*,*,#773,.T.);
#1058=ORIENTED_EDGE('',*,*,#685,.T.);
#1059=ORIENTED_EDGE('',*,*,#773,.F.);
#1060=ORIENTED_EDGE('',*,*,#774,.F.);
#1061=ORIENTED_EDGE('',*,*,#775,.T.);
#1062=ORIENTED_EDGE('',*,*,#686,.T.);
#1063=ORIENTED_EDGE('',*,*,#775,.F.);
#1064=ORIENTED_EDGE('',*,*,#776,.F.);
#1065=ORIENTED_EDGE('',*,*,#777,.T.);
#1066=ORIENTED_EDGE('',*,*,#701,.F.);
#1067=ORIENTED_EDGE('',*,*,#777,.F.);
#1068=ORIENTED_EDGE('',*,*,#778,.F.);
#1069=ORIENTED_EDGE('',*,*,#779,.T.);
#1070=ORIENTED_EDGE('',*,*,#700,.F.);
#1071=ORIENTED_EDGE('',*,*,#779,.F.);
#1072=ORIENTED_EDGE('',*,*,#780,.T.);
#1073=ORIENTED_EDGE('',*,*,#768,.T.);
#1074=ORIENTED_EDGE('',*,*,#765,.T.);
#1075=ORIENTED_EDGE('',*,*,#781,.T.);
#1076=ORIENTED_EDGE('',*,*,#711,.T.);
#1077=ORIENTED_EDGE('',*,*,#761,.T.);
#1078=ORIENTED_EDGE('',*,*,#759,.T.);
#1079=ORIENTED_EDGE('',*,*,#782,.T.);
#1080=ORIENTED_EDGE('',*,*,#627,.T.);
#1081=ORIENTED_EDGE('',*,*,#772,.T.);
#1082=ORIENTED_EDGE('',*,*,#774,.T.);
#1083=ORIENTED_EDGE('',*,*,#776,.T.);
#1084=ORIENTED_EDGE('',*,*,#778,.T.);
#1085=ORIENTED_EDGE('',*,*,#781,.F.);
#1086=ORIENTED_EDGE('',*,*,#764,.T.);
#1087=ORIENTED_EDGE('',*,*,#783,.T.);
#1088=ORIENTED_EDGE('',*,*,#712,.T.);
#1089=ORIENTED_EDGE('',*,*,#784,.T.);
#1090=ORIENTED_EDGE('',*,*,#782,.F.);
#1091=ORIENTED_EDGE('',*,*,#758,.F.);
#1092=ORIENTED_EDGE('',*,*,#785,.F.);
#1093=ORIENTED_EDGE('',*,*,#784,.F.);
#1094=ORIENTED_EDGE('',*,*,#786,.F.);
#1095=ORIENTED_EDGE('',*,*,#766,.F.);
#1096=ORIENTED_EDGE('',*,*,#780,.F.);
#1097=ORIENTED_EDGE('',*,*,#683,.T.);
#1098=ORIENTED_EDGE('',*,*,#679,.T.);
#1099=ORIENTED_EDGE('',*,*,#675,.T.);
#1100=ORIENTED_EDGE('',*,*,#670,.T.);
#1101=ORIENTED_EDGE('',*,*,#786,.T.);
#1102=ORIENTED_EDGE('',*,*,#785,.T.);
#1103=ORIENTED_EDGE('',*,*,#757,.T.);
#1104=ORIENTED_EDGE('',*,*,#760,.T.);
#1105=ORIENTED_EDGE('',*,*,#713,.T.);
#1106=ORIENTED_EDGE('',*,*,#783,.F.);
#1107=ORIENTED_EDGE('',*,*,#763,.T.);
#1108=ORIENTED_EDGE('',*,*,#767,.T.);
#1109=ORIENTED_EDGE('',*,*,#629,.T.);
#1110=ORIENTED_EDGE('',*,*,#697,.T.);
#1111=ORIENTED_EDGE('',*,*,#770,.T.);
#1112=ORIENTED_EDGE('',*,*,#771,.T.);
#1113=ORIENTED_EDGE('',*,*,#692,.T.);
#1114=ORIENTED_EDGE('',*,*,#787,.T.);
#1115=ORIENTED_EDGE('',*,*,#787,.F.);
#1116=ORIENTED_EDGE('',*,*,#788,.T.);
#1117=ORIENTED_EDGE('',*,*,#731,.F.);
#1118=ORIENTED_EDGE('',*,*,#788,.F.);
#1119=PLANE('',#1248);
#1120=PLANE('',#1252);
#1121=PLANE('',#1256);
#1122=PLANE('',#1257);
#1123=PLANE('',#1258);
#1124=PLANE('',#1259);
#1125=PLANE('',#1260);
#1126=PLANE('',#1261);
#1127=PLANE('',#1265);
#1128=PLANE('',#1266);
#1129=PLANE('',#1270);
#1130=PLANE('',#1271);
#1131=PLANE('',#1272);
#1132=PLANE('',#1273);
#1133=PLANE('',#1274);
#1134=PLANE('',#1275);
#1135=PLANE('',#1276);
#1136=PLANE('',#1277);
#1137=PLANE('',#1278);
#1138=PLANE('',#1279);
#1139=PLANE('',#1282);
#1140=PLANE('',#1283);
#1141=PLANE('',#1284);
#1142=PLANE('',#1285);
#1143=PLANE('',#1286);
#1144=PLANE('',#1289);
#1145=PLANE('',#1290);
#1146=PLANE('',#1293);
#1147=PLANE('',#1294);
#1148=PLANE('',#1295);
#1149=PLANE('',#1298);
#1150=PLANE('',#1306);
#1151=PLANE('',#1307);
#1152=PLANE('',#1308);
#1153=PLANE('',#1309);
#1154=PLANE('',#1318);
#1155=PLANE('',#1319);
#1156=PLANE('',#1320);
#1157=PLANE('',#1324);
#1158=PLANE('',#1328);
#1159=PLANE('',#1329);
#1160=PLANE('',#1330);
#1161=PLANE('',#1339);
#1162=PLANE('',#1340);
#1163=PLANE('',#1341);
#1164=PLANE('',#1342);
#1165=PLANE('',#1343);
#1166=PLANE('',#1344);
#1167=ADVANCED_FACE('',(#322),#1119,.T.);
#1168=ADVANCED_FACE('',(#323),#305,.F.);
#1169=ADVANCED_FACE('',(#324),#1120,.F.);
#1170=ADVANCED_FACE('',(#325),#306,.F.);
#1171=ADVANCED_FACE('',(#326),#1121,.F.);
#1172=ADVANCED_FACE('',(#327),#1122,.F.);
#1173=ADVANCED_FACE('',(#328),#1123,.F.);
#1174=ADVANCED_FACE('',(#329),#1124,.F.);
#1175=ADVANCED_FACE('',(#330),#1125,.F.);
#1176=ADVANCED_FACE('',(#331),#1126,.F.);
#1177=ADVANCED_FACE('',(#332),#307,.F.);
#1178=ADVANCED_FACE('',(#333),#1127,.T.);
#1179=ADVANCED_FACE('',(#334),#1128,.F.);
#1180=ADVANCED_FACE('',(#335),#308,.F.);
#1181=ADVANCED_FACE('',(#336),#1129,.T.);
#1182=ADVANCED_FACE('',(#337),#1130,.F.);
#1183=ADVANCED_FACE('',(#338),#1131,.F.);
#1184=ADVANCED_FACE('',(#339),#1132,.F.);
#1185=ADVANCED_FACE('',(#340),#1133,.F.);
#1186=ADVANCED_FACE('',(#341),#1134,.F.);
#1187=ADVANCED_FACE('',(#342),#1135,.F.);
#1188=ADVANCED_FACE('',(#343),#1136,.F.);
#1189=ADVANCED_FACE('',(#344),#1137,.F.);
#1190=ADVANCED_FACE('',(#345,#14,#15),#1138,.F.);
#1191=ADVANCED_FACE('',(#346),#1139,.F.);
#1192=ADVANCED_FACE('',(#347),#1140,.F.);
#1193=ADVANCED_FACE('',(#348),#1141,.T.);
#1194=ADVANCED_FACE('',(#349),#1142,.T.);
#1195=ADVANCED_FACE('',(#350,#16,#17),#1143,.T.);
#1196=ADVANCED_FACE('',(#351),#1144,.T.);
#1197=ADVANCED_FACE('',(#352,#18,#19,#20,#21,#22,#23),#1145,.T.);
#1198=ADVANCED_FACE('',(#353),#1146,.F.);
#1199=ADVANCED_FACE('',(#354),#1147,.F.);
#1200=ADVANCED_FACE('',(#355),#1148,.T.);
#1201=ADVANCED_FACE('',(#356),#309,.T.);
#1202=ADVANCED_FACE('',(#357,#24,#25,#26,#27,#28,#29),#1149,.F.);
#1203=ADVANCED_FACE('',(#358),#310,.T.);
#1204=ADVANCED_FACE('',(#359),#1150,.T.);
#1205=ADVANCED_FACE('',(#360),#1151,.F.);
#1206=ADVANCED_FACE('',(#361),#1152,.F.);
#1207=ADVANCED_FACE('',(#362),#1153,.F.);
#1208=ADVANCED_FACE('',(#363),#311,.F.);
#1209=ADVANCED_FACE('',(#364),#312,.F.);
#1210=ADVANCED_FACE('',(#365),#313,.F.);
#1211=ADVANCED_FACE('',(#366),#314,.F.);
#1212=ADVANCED_FACE('',(#367),#1154,.F.);
#1213=ADVANCED_FACE('',(#368,#30,#31),#1155,.F.);
#1214=ADVANCED_FACE('',(#369,#32,#33),#1156,.F.);
#1215=ADVANCED_FACE('',(#370),#315,.T.);
#1216=ADVANCED_FACE('',(#371),#1157,.T.);
#1217=ADVANCED_FACE('',(#372),#316,.F.);
#1218=ADVANCED_FACE('',(#373),#1158,.T.);
#1219=ADVANCED_FACE('',(#374),#1159,.T.);
#1220=ADVANCED_FACE('',(#375),#1160,.T.);
#1221=ADVANCED_FACE('',(#376),#317,.F.);
#1222=ADVANCED_FACE('',(#377),#318,.F.);
#1223=ADVANCED_FACE('',(#378),#319,.F.);
#1224=ADVANCED_FACE('',(#379),#320,.F.);
#1225=ADVANCED_FACE('',(#380,#34,#35,#36,#37,#38),#1161,.F.);
#1226=ADVANCED_FACE('',(#381),#1162,.T.);
#1227=ADVANCED_FACE('',(#382),#1163,.T.);
#1228=ADVANCED_FACE('',(#383,#39),#1164,.F.);
#1229=ADVANCED_FACE('',(#384,#40,#41),#1165,.T.);
#1230=ADVANCED_FACE('',(#385),#1166,.F.);
#1231=ADVANCED_FACE('',(#386),#321,.T.);
#1232=CLOSED_SHELL('',(#1167,#1168,#1169));
#1233=CLOSED_SHELL('',(#1170,#1171,#1172,#1173,#1174,#1175,#1176,#1177,
#1178,#1179,#1180,#1181,#1182,#1183,#1184,#1185,#1186,#1187,#1188,#1189,
#1190,#1191,#1192,#1193,#1194,#1195,#1196,#1197,#1198,#1199,#1200,#1201,
#1202,#1203,#1204,#1205,#1206,#1207,#1208,#1209,#1210,#1211,#1212,#1213,
#1214,#1215,#1216,#1217,#1218,#1219,#1220,#1221,#1222,#1223,#1224,#1225,
#1226,#1227,#1228,#1229,#1230,#1231));
#1234=BREP_WITH_VOIDS('Body1',#1233,(#42));
#1235=DERIVED_UNIT_ELEMENT(#1237,1.);
#1236=DERIVED_UNIT_ELEMENT(#2024,-3.);
#1237=(
MASS_UNIT()
NAMED_UNIT(*)
SI_UNIT(.KILO.,.GRAM.)
);
#1238=DERIVED_UNIT((#1235,#1236));
#1239=MEASURE_REPRESENTATION_ITEM('density measure',
POSITIVE_RATIO_MEASURE(7850.),#1238);
#1240=PROPERTY_DEFINITION_REPRESENTATION(#1245,#1242);
#1241=PROPERTY_DEFINITION_REPRESENTATION(#1246,#1243);
#1242=REPRESENTATION('material name',(#1244),#2021);
#1243=REPRESENTATION('density',(#1239),#2021);
#1244=DESCRIPTIVE_REPRESENTATION_ITEM('Steel','Steel');
#1245=PROPERTY_DEFINITION('material property','material name',#2031);
#1246=PROPERTY_DEFINITION('material property','density of part',#2031);
#1247=AXIS2_PLACEMENT_3D('',#1678,#1347,#1348);
#1248=AXIS2_PLACEMENT_3D('',#1679,#1349,#1350);
#1249=AXIS2_PLACEMENT_3D('',#1681,#1351,#1352);
#1250=AXIS2_PLACEMENT_3D('',#1682,#1353,#1354);
#1251=AXIS2_PLACEMENT_3D('',#1685,#1356,#1357);
#1252=AXIS2_PLACEMENT_3D('',#1686,#1358,#1359);
#1253=AXIS2_PLACEMENT_3D('',#1687,#1360,#1361);
#1254=AXIS2_PLACEMENT_3D('',#1689,#1362,#1363);
#1255=AXIS2_PLACEMENT_3D('',#1692,#1365,#1366);
#1256=AXIS2_PLACEMENT_3D('',#1693,#1367,#1368);
#1257=AXIS2_PLACEMENT_3D('',#1702,#1373,#1374);
#1258=AXIS2_PLACEMENT_3D('',#1708,#1378,#1379);
#1259=AXIS2_PLACEMENT_3D('',#1714,#1383,#1384);
#1260=AXIS2_PLACEMENT_3D('',#1717,#1387,#1388);
#1261=AXIS2_PLACEMENT_3D('',#1718,#1389,#1390);
#1262=AXIS2_PLACEMENT_3D('',#1727,#1395,#1396);
#1263=AXIS2_PLACEMENT_3D('',#1728,#1397,#1398);
#1264=AXIS2_PLACEMENT_3D('',#1729,#1399,#1400);
#1265=AXIS2_PLACEMENT_3D('',#1730,#1401,#1402);
#1266=AXIS2_PLACEMENT_3D('',#1731,#1403,#1404);
#1267=AXIS2_PLACEMENT_3D('',#1740,#1409,#1410);
#1268=AXIS2_PLACEMENT_3D('',#1741,#1411,#1412);
#1269=AXIS2_PLACEMENT_3D('',#1742,#1413,#1414);
#1270=AXIS2_PLACEMENT_3D('',#1743,#1415,#1416);
#1271=AXIS2_PLACEMENT_3D('',#1744,#1417,#1418);
#1272=AXIS2_PLACEMENT_3D('',#1753,#1423,#1424);
#1273=AXIS2_PLACEMENT_3D('',#1759,#1428,#1429);
#1274=AXIS2_PLACEMENT_3D('',#1765,#1433,#1434);
#1275=AXIS2_PLACEMENT_3D('',#1768,#1437,#1438);
#1276=AXIS2_PLACEMENT_3D('',#1769,#1439,#1440);
#1277=AXIS2_PLACEMENT_3D('',#1786,#1449,#1450);
#1278=AXIS2_PLACEMENT_3D('',#1794,#1455,#1456);
#1279=AXIS2_PLACEMENT_3D('',#1804,#1462,#1463);
#1280=AXIS2_PLACEMENT_3D('',#1808,#1466,#1467);
#1281=AXIS2_PLACEMENT_3D('',#1810,#1468,#1469);
#1282=AXIS2_PLACEMENT_3D('',#1811,#1470,#1471);
#1283=AXIS2_PLACEMENT_3D('',#1815,#1474,#1475);
#1284=AXIS2_PLACEMENT_3D('',#1819,#1478,#1479);
#1285=AXIS2_PLACEMENT_3D('',#1827,#1484,#1485);
#1286=AXIS2_PLACEMENT_3D('',#1833,#1489,#1490);
#1287=AXIS2_PLACEMENT_3D('',#1838,#1493,#1494);
#1288=AXIS2_PLACEMENT_3D('',#1840,#1495,#1496);
#1289=AXIS2_PLACEMENT_3D('',#1841,#1497,#1498);
#1290=AXIS2_PLACEMENT_3D('',#1843,#1500,#1501);
#1291=AXIS2_PLACEMENT_3D('',#1846,#1502,#1503);
#1292=AXIS2_PLACEMENT_3D('',#1850,#1505,#1506);
#1293=AXIS2_PLACEMENT_3D('',#1868,#1516,#1517);
#1294=AXIS2_PLACEMENT_3D('',#1874,#1521,#1522);
#1295=AXIS2_PLACEMENT_3D('',#1886,#1529,#1530);
#1296=AXIS2_PLACEMENT_3D('',#1892,#1534,#1535);
#1297=AXIS2_PLACEMENT_3D('',#1895,#1537,#1538);
#1298=AXIS2_PLACEMENT_3D('',#1896,#1539,#1540);
#1299=AXIS2_PLACEMENT_3D('',#1899,#1542,#1543);
#1300=AXIS2_PLACEMENT_3D('',#1901,#1544,#1545);
#1301=AXIS2_PLACEMENT_3D('',#1908,#1549,#1550);
#1302=AXIS2_PLACEMENT_3D('',#1910,#1551,#1552);
#1303=AXIS2_PLACEMENT_3D('',#1912,#1553,#1554);
#1304=AXIS2_PLACEMENT_3D('',#1914,#1555,#1556);
#1305=AXIS2_PLACEMENT_3D('',#1915,#1557,#1558);
#1306=AXIS2_PLACEMENT_3D('',#1917,#1560,#1561);
#1307=AXIS2_PLACEMENT_3D('',#1918,#1562,#1563);
#1308=AXIS2_PLACEMENT_3D('',#1927,#1569,#1570);
#1309=AXIS2_PLACEMENT_3D('',#1929,#1572,#1573);
#1310=AXIS2_PLACEMENT_3D('',#1931,#1575,#1576);
#1311=AXIS2_PLACEMENT_3D('',#1933,#1577,#1578);
#1312=AXIS2_PLACEMENT_3D('',#1935,#1580,#1581);
#1313=AXIS2_PLACEMENT_3D('',#1937,#1582,#1583);
#1314=AXIS2_PLACEMENT_3D('',#1939,#1585,#1586);
#1315=AXIS2_PLACEMENT_3D('',#1941,#1587,#1588);
#1316=AXIS2_PLACEMENT_3D('',#1943,#1590,#1591);
#1317=AXIS2_PLACEMENT_3D('',#1945,#1592,#1593);
#1318=AXIS2_PLACEMENT_3D('',#1947,#1595,#1596);
#1319=AXIS2_PLACEMENT_3D('',#1949,#1598,#1599);
#1320=AXIS2_PLACEMENT_3D('',#1950,#1600,#1601);
#1321=AXIS2_PLACEMENT_3D('',#1951,#1602,#1603);
#1322=AXIS2_PLACEMENT_3D('',#1956,#1605,#1606);
#1323=AXIS2_PLACEMENT_3D('',#1959,#1608,#1609);
#1324=AXIS2_PLACEMENT_3D('',#1960,#1610,#1611);
#1325=AXIS2_PLACEMENT_3D('',#1963,#1614,#1615);
#1326=AXIS2_PLACEMENT_3D('',#1968,#1617,#1618);
#1327=AXIS2_PLACEMENT_3D('',#1971,#1620,#1621);
#1328=AXIS2_PLACEMENT_3D('',#1972,#1622,#1623);
#1329=AXIS2_PLACEMENT_3D('',#1978,#1627,#1628);
#1330=AXIS2_PLACEMENT_3D('',#1982,#1631,#1632);
#1331=AXIS2_PLACEMENT_3D('',#1984,#1634,#1635);
#1332=AXIS2_PLACEMENT_3D('',#1986,#1636,#1637);
#1333=AXIS2_PLACEMENT_3D('',#1988,#1639,#1640);
#1334=AXIS2_PLACEMENT_3D('',#1990,#1641,#1642);
#1335=AXIS2_PLACEMENT_3D('',#1992,#1644,#1645);
#1336=AXIS2_PLACEMENT_3D('',#1994,#1646,#1647);
#1337=AXIS2_PLACEMENT_3D('',#1996,#1649,#1650);
#1338=AXIS2_PLACEMENT_3D('',#1998,#1651,#1652);
#1339=AXIS2_PLACEMENT_3D('',#2000,#1654,#1655);
#1340=AXIS2_PLACEMENT_3D('',#2005,#1659,#1660);
#1341=AXIS2_PLACEMENT_3D('',#2007,#1662,#1663);
#1342=AXIS2_PLACEMENT_3D('',#2011,#1666,#1667);
#1343=AXIS2_PLACEMENT_3D('',#2013,#1669,#1670);
#1344=AXIS2_PLACEMENT_3D('',#2014,#1671,#1672);
#1345=AXIS2_PLACEMENT_3D('',#2016,#1673,#1674);
#1346=AXIS2_PLACEMENT_3D('',#2017,#1675,#1676);
#1347=DIRECTION('axis',(0.,0.,1.));
#1348=DIRECTION('refdir',(1.,0.,0.));
#1349=DIRECTION('center_axis',(0.,0.,1.));
#1350=DIRECTION('ref_axis',(1.,0.,0.));
#1351=DIRECTION('center_axis',(0.,0.,1.));
#1352=DIRECTION('ref_axis',(1.,0.,0.));
#1353=DIRECTION('center_axis',(0.,0.,1.));
#1354=DIRECTION('ref_axis',(1.,0.,0.));
#1355=DIRECTION('',(0.,0.,1.));
#1356=DIRECTION('center_axis',(0.,0.,1.));
#1357=DIRECTION('ref_axis',(1.,0.,0.));
#1358=DIRECTION('center_axis',(0.,0.,1.));
#1359=DIRECTION('ref_axis',(1.,0.,0.));
#1360=DIRECTION('center_axis',(1.,0.,0.));
#1361=DIRECTION('ref_axis',(0.,-1.,0.));
#1362=DIRECTION('center_axis',(1.,-6.25888230132432E-15,1.90702205659698E-16));
#1363=DIRECTION('ref_axis',(0.,-1.,0.));
#1364=DIRECTION('',(1.,0.,0.));
#1365=DIRECTION('center_axis',(-1.,6.25888230132432E-15,-1.90702205659698E-16));
#1366=DIRECTION('ref_axis',(0.,-1.,0.));
#1367=DIRECTION('center_axis',(-1.,0.,0.));
#1368=DIRECTION('ref_axis',(0.,1.,0.));
#1369=DIRECTION('',(0.,1.,0.));
#1370=DIRECTION('',(0.,0.,-1.));
#1371=DIRECTION('',(0.,1.,0.));
#1372=DIRECTION('',(0.,0.,-1.));
#1373=DIRECTION('center_axis',(0.,-1.,0.));
#1374=DIRECTION('ref_axis',(-1.,0.,0.));
#1375=DIRECTION('',(-1.,0.,0.));
#1376=DIRECTION('',(0.,0.,-1.));
#1377=DIRECTION('',(-1.,0.,0.));
#1378=DIRECTION('center_axis',(1.,0.,0.));
#1379=DIRECTION('ref_axis',(0.,-1.,0.));
#1380=DIRECTION('',(0.,-1.,0.));
#1381=DIRECTION('',(0.,0.,-1.));
#1382=DIRECTION('',(0.,-1.,0.));
#1383=DIRECTION('center_axis',(0.,1.,0.));
#1384=DIRECTION('ref_axis',(1.,0.,0.));
#1385=DIRECTION('',(1.,0.,0.));
#1386=DIRECTION('',(1.,0.,0.));
#1387=DIRECTION('center_axis',(0.,0.,-1.));
#1388=DIRECTION('ref_axis',(-1.,0.,0.));
#1389=DIRECTION('center_axis',(1.,0.,0.));
#1390=DIRECTION('ref_axis',(0.,-1.,0.));
#1391=DIRECTION('',(0.,-1.,0.));
#1392=DIRECTION('',(0.,0.,-1.));
#1393=DIRECTION('',(0.,-1.,0.));
#1394=DIRECTION('',(0.,0.,-1.));
#1395=DIRECTION('center_axis',(0.,0.,-1.));
#1396=DIRECTION('ref_axis',(-0.441794232823069,0.897116411534354,0.));
#1397=DIRECTION('center_axis',(0.,0.,-1.));
#1398=DIRECTION('ref_axis',(-0.441794232823069,0.897116411534354,0.));
#1399=DIRECTION('center_axis',(0.,0.,-1.));
#1400=DIRECTION('ref_axis',(-0.441794232823069,0.897116411534354,0.));
#1401=DIRECTION('center_axis',(0.,0.,1.));
#1402=DIRECTION('ref_axis',(-1.,0.,0.));
#1403=DIRECTION('center_axis',(-1.,0.,0.));
#1404=DIRECTION('ref_axis',(0.,1.,0.));
#1405=DIRECTION('',(0.,1.,0.));
#1406=DIRECTION('',(0.,0.,-1.));
#1407=DIRECTION('',(0.,1.,0.));
#1408=DIRECTION('',(0.,0.,-1.));
#1409=DIRECTION('center_axis',(0.,0.,-1.));
#1410=DIRECTION('ref_axis',(0.421985121648868,-0.906602755955987,0.));
#1411=DIRECTION('center_axis',(0.,0.,-1.));
#1412=DIRECTION('ref_axis',(0.421985121648868,-0.906602755955987,0.));
#1413=DIRECTION('center_axis',(0.,0.,-1.));
#1414=DIRECTION('ref_axis',(0.421985121648868,-0.906602755955987,0.));
#1415=DIRECTION('center_axis',(0.,0.,1.));
#1416=DIRECTION('ref_axis',(-1.,0.,0.));
#1417=DIRECTION('center_axis',(-1.,0.,0.));
#1418=DIRECTION('ref_axis',(0.,1.,0.));
#1419=DIRECTION('',(0.,1.,0.));
#1420=DIRECTION('',(0.,0.,-1.));
#1421=DIRECTION('',(0.,1.,0.));
#1422=DIRECTION('',(0.,0.,-1.));
#1423=DIRECTION('center_axis',(0.,-1.,0.));
#1424=DIRECTION('ref_axis',(-1.,0.,0.));
#1425=DIRECTION('',(-1.,0.,0.));
#1426=DIRECTION('',(0.,0.,-1.));
#1427=DIRECTION('',(-1.,0.,0.));
#1428=DIRECTION('center_axis',(1.,0.,0.));
#1429=DIRECTION('ref_axis',(0.,-1.,0.));
#1430=DIRECTION('',(0.,-1.,0.));
#1431=DIRECTION('',(0.,0.,-1.));
#1432=DIRECTION('',(0.,-1.,0.));
#1433=DIRECTION('center_axis',(0.,1.,0.));
#1434=DIRECTION('ref_axis',(1.,0.,0.));
#1435=DIRECTION('',(1.,0.,0.));
#1436=DIRECTION('',(1.,0.,0.));
#1437=DIRECTION('center_axis',(0.,0.,-1.));
#1438=DIRECTION('ref_axis',(-1.,0.,0.));
#1439=DIRECTION('center_axis',(0.,-0.446789891369759,0.894638917647672));
#1440=DIRECTION('ref_axis',(-1.,0.,0.));
#1441=DIRECTION('',(-1.,4.88088534482501E-14,2.43755350900287E-14));
#1442=DIRECTION('',(0.,-0.894638917647672,-0.446789891369759));
#1443=DIRECTION('',(-1.,0.,0.));
#1444=DIRECTION('',(0.,-0.894638917647672,-0.446789891369759));
#1445=DIRECTION('',(-1.,4.76759388047124E-15,2.3809748379287E-15));
#1446=DIRECTION('',(0.,-0.894638917647672,-0.446789891369759));
#1447=DIRECTION('',(1.,-4.77266243459238E-15,-2.38350611473827E-15));
#1448=DIRECTION('',(5.51423586999029E-15,0.894638917647672,0.446789891369759));
#1449=DIRECTION('center_axis',(1.,0.,0.));
#1450=DIRECTION('ref_axis',(0.,-0.446789891369759,0.894638917647672));
#1451=DIRECTION('',(0.,0.5,-0.866025403784439));
#1452=DIRECTION('',(0.,-0.446789891369759,0.894638917647672));
#1453=DIRECTION('',(0.,-0.894638917647672,-0.446789891369759));
#1454=DIRECTION('',(0.,-0.866025403784439,-0.5));
#1455=DIRECTION('center_axis',(0.,0.446789891369759,-0.894638917647672));
#1456=DIRECTION('ref_axis',(1.,0.,0.));
#1457=DIRECTION('',(-1.,4.88088534482505E-14,2.43755350900289E-14));
#1458=DIRECTION('',(1.,-4.76759388047124E-15,-2.3809748379287E-15));
#1459=DIRECTION('',(0.,-0.894638917647672,-0.446789891369759));
#1460=DIRECTION('',(1.,0.,0.));
#1461=DIRECTION('',(-5.51423586999029E-15,-0.894638917647672,-0.446789891369759));
#1462=DIRECTION('center_axis',(-1.,0.,0.));
#1463=DIRECTION('ref_axis',(0.,0.446789891369759,-0.894638917647672));
#1464=DIRECTION('',(0.,0.446789891369759,-0.894638917647672));
#1465=DIRECTION('',(0.,0.446789891369759,-0.894638917647672));
#1466=DIRECTION('center_axis',(1.,0.,0.));
#1467=DIRECTION('ref_axis',(6.25888230132432E-15,1.,5.55111512310317E-17));
#1468=DIRECTION('center_axis',(1.,0.,0.));
#1469=DIRECTION('ref_axis',(6.25888230132432E-15,1.,5.55111512310317E-17));
#1470=DIRECTION('center_axis',(1.,0.,0.));
#1471=DIRECTION('ref_axis',(0.,-0.446789891369759,0.894638917647672));
#1472=DIRECTION('',(0.,0.866025403784439,0.5));
#1473=DIRECTION('',(0.,-0.446789891369759,0.894638917647672));
#1474=DIRECTION('center_axis',(0.,-0.894638917647672,-0.446789891369759));
#1475=DIRECTION('ref_axis',(0.,0.446789891369759,-0.894638917647672));
#1476=DIRECTION('',(1.,-1.47468267431336E-15,2.95286114817139E-15));
#1477=DIRECTION('',(-2.96701495836922E-15,-0.446789891369759,0.894638917647672));
#1478=DIRECTION('center_axis',(-5.32499996941382E-15,-0.866025403784439,
-0.5));
#1479=DIRECTION('ref_axis',(3.29459410532118E-15,0.5,-0.866025403784439));
#1480=DIRECTION('',(-1.,6.25888230132432E-15,-1.90702205659698E-16));
#1481=DIRECTION('',(3.29459410532118E-15,0.5,-0.866025403784439));
#1482=DIRECTION('',(1.,-6.25888230132432E-15,1.90702205659698E-16));
#1483=DIRECTION('',(3.29459410532118E-15,0.5,-0.866025403784439));
#1484=DIRECTION('center_axis',(-3.29459410532118E-15,-0.5,0.866025403784439));
#1485=DIRECTION('ref_axis',(-5.32499996941382E-15,-0.866025403784439,-0.5));
#1486=DIRECTION('',(-5.32499996941382E-15,-0.866025403784439,-0.5));
#1487=DIRECTION('',(1.,-6.25888230132432E-15,1.90702205659698E-16));
#1488=DIRECTION('',(-5.32499996941382E-15,-0.866025403784439,-0.5));
#1489=DIRECTION('center_axis',(1.,-6.25888230132432E-15,1.90702205659698E-16));
#1490=DIRECTION('ref_axis',(6.25888230132432E-15,1.,5.55111512310317E-17));
#1491=DIRECTION('',(5.32499996941382E-15,0.866025403784439,0.5));
#1492=DIRECTION('',(-3.29459410532118E-15,-0.5,0.866025403784439));
#1493=DIRECTION('center_axis',(-1.,6.25888230132432E-15,-1.90702205659698E-16));
#1494=DIRECTION('ref_axis',(6.25888230132432E-15,1.,5.55111512310317E-17));
#1495=DIRECTION('center_axis',(-1.,6.25888230132432E-15,-1.90702205659698E-16));
#1496=DIRECTION('ref_axis',(6.25888230132432E-15,1.,5.55111512310317E-17));
#1497=DIRECTION('center_axis',(1.,-6.25888230132432E-15,1.90702205659698E-16));
#1498=DIRECTION('ref_axis',(6.25888230132432E-15,1.,5.55111512310317E-17));
#1499=DIRECTION('',(5.32499996941382E-15,0.866025403784438,0.5));
#1500=DIRECTION('center_axis',(0.,0.,1.));
#1501=DIRECTION('ref_axis',(1.,0.,0.));
#1502=DIRECTION('center_axis',(0.,0.,-1.));
#1503=DIRECTION('ref_axis',(1.,0.,0.));
#1504=DIRECTION('',(1.,0.,0.));
#1505=DIRECTION('center_axis',(0.,0.,-1.));
#1506=DIRECTION('ref_axis',(-0.660705871333457,0.750644890467855,0.));
#1507=DIRECTION('',(-1.,0.,0.));
#1508=DIRECTION('',(-1.,0.,0.));
#1509=DIRECTION('',(0.,1.,0.));
#1510=DIRECTION('',(1.,0.,0.));
#1511=DIRECTION('',(0.,-1.,0.));
#1512=DIRECTION('',(-6.25888230132432E-15,-1.,0.));
#1513=DIRECTION('',(-1.,6.25888230132432E-15,0.));
#1514=DIRECTION('',(6.25888230132432E-15,1.,0.));
#1515=DIRECTION('',(1.,-6.25888230132432E-15,0.));
#1516=DIRECTION('center_axis',(1.,0.,0.));
#1517=DIRECTION('ref_axis',(0.,-1.,0.));
#1518=DIRECTION('',(0.,0.,-1.));
#1519=DIRECTION('',(0.,-1.,0.));
#1520=DIRECTION('',(0.,0.,-1.));
#1521=DIRECTION('center_axis',(0.,1.,0.));
#1522=DIRECTION('ref_axis',(1.,0.,0.));
#1523=DIRECTION('',(0.,0.,-1.));
#1524=DIRECTION('',(1.,0.,0.));
#1525=DIRECTION('',(0.,0.,-1.));
#1526=DIRECTION('',(-1.,0.,0.));
#1527=DIRECTION('',(0.,0.,-1.));
#1528=DIRECTION('',(1.,0.,0.));
#1529=DIRECTION('center_axis',(0.,1.,0.));
#1530=DIRECTION('ref_axis',(-1.,0.,0.));
#1531=DIRECTION('',(0.,0.,1.));
#1532=DIRECTION('',(1.,0.,0.));
#1533=DIRECTION('',(0.,0.,1.));
#1534=DIRECTION('center_axis',(0.,0.,1.));
#1535=DIRECTION('ref_axis',(1.,0.,0.));
#1536=DIRECTION('',(0.,0.,-1.));
#1537=DIRECTION('center_axis',(0.,0.,1.));
#1538=DIRECTION('ref_axis',(1.,0.,0.));
#1539=DIRECTION('center_axis',(0.,0.,1.));
#1540=DIRECTION('ref_axis',(1.,0.,0.));
#1541=DIRECTION('',(-1.,0.,0.));
#1542=DIRECTION('center_axis',(0.,0.,1.));
#1543=DIRECTION('ref_axis',(-0.660705871333457,0.750644890467855,0.));
#1544=DIRECTION('center_axis',(0.,0.,1.));
#1545=DIRECTION('ref_axis',(1.,0.,0.));
#1546=DIRECTION('',(0.,-1.,0.));
#1547=DIRECTION('',(1.,0.,0.));
#1548=DIRECTION('',(0.,1.,0.));
#1549=DIRECTION('center_axis',(0.,0.,1.));
#1550=DIRECTION('ref_axis',(1.,0.,0.));
#1551=DIRECTION('center_axis',(0.,0.,1.));
#1552=DIRECTION('ref_axis',(1.,0.,0.));
#1553=DIRECTION('center_axis',(0.,0.,1.));
#1554=DIRECTION('ref_axis',(1.,0.,0.));
#1555=DIRECTION('center_axis',(0.,0.,1.));
#1556=DIRECTION('ref_axis',(1.,0.,0.));
#1557=DIRECTION('center_axis',(0.,0.,1.));
#1558=DIRECTION('ref_axis',(-0.660705871333457,0.750644890467855,0.));
#1559=DIRECTION('',(0.,0.,1.));
#1560=DIRECTION('center_axis',(0.,-1.,0.));
#1561=DIRECTION('ref_axis',(1.,0.,0.));
#1562=DIRECTION('center_axis',(0.,-1.,0.));
#1563=DIRECTION('ref_axis',(-1.,0.,0.));
#1564=DIRECTION('',(-1.,0.,0.));
#1565=DIRECTION('',(0.,0.,-1.));
#1566=DIRECTION('',(0.,0.,-1.));
#1567=DIRECTION('',(-1.,0.,0.));
#1568=DIRECTION('',(0.,0.,-1.));
#1569=DIRECTION('center_axis',(-1.,0.,0.));
#1570=DIRECTION('ref_axis',(0.,1.,0.));
#1571=DIRECTION('',(0.,1.,0.));
#1572=DIRECTION('center_axis',(-1.,0.,0.));
#1573=DIRECTION('ref_axis',(0.,1.,0.));
#1574=DIRECTION('',(0.,-1.,0.));
#1575=DIRECTION('center_axis',(0.,0.,-1.));
#1576=DIRECTION('ref_axis',(1.,0.,0.));
#1577=DIRECTION('center_axis',(0.,0.,1.));
#1578=DIRECTION('ref_axis',(1.,0.,0.));
#1579=DIRECTION('',(0.,0.,-1.));
#1580=DIRECTION('center_axis',(0.,0.,-1.));
#1581=DIRECTION('ref_axis',(1.,0.,0.));
#1582=DIRECTION('center_axis',(0.,0.,1.));
#1583=DIRECTION('ref_axis',(1.,0.,0.));
#1584=DIRECTION('',(0.,0.,-1.));
#1585=DIRECTION('center_axis',(0.,0.,-1.));
#1586=DIRECTION('ref_axis',(1.,0.,0.));
#1587=DIRECTION('center_axis',(0.,0.,1.));
#1588=DIRECTION('ref_axis',(1.,0.,0.));
#1589=DIRECTION('',(0.,0.,-1.));
#1590=DIRECTION('center_axis',(0.,0.,-1.));
#1591=DIRECTION('ref_axis',(1.,0.,0.));
#1592=DIRECTION('center_axis',(0.,0.,1.));
#1593=DIRECTION('ref_axis',(1.,0.,0.));
#1594=DIRECTION('',(0.,0.,-1.));
#1595=DIRECTION('center_axis',(1.,0.,0.));
#1596=DIRECTION('ref_axis',(0.,-1.,0.));
#1597=DIRECTION('',(0.,1.,0.));
#1598=DIRECTION('center_axis',(0.,0.,-1.));
#1599=DIRECTION('ref_axis',(-1.,0.,0.));
#1600=DIRECTION('center_axis',(0.,0.,-1.));
#1601=DIRECTION('ref_axis',(-1.,0.,0.));
#1602=DIRECTION('center_axis',(1.,-6.25888230132432E-15,1.90702205659698E-16));
#1603=DIRECTION('ref_axis',(-2.1917877607195E-15,-0.321335224537072,0.946965508068647));
#1604=DIRECTION('',(1.,-6.25888230132432E-15,1.90702205659698E-16));
#1605=DIRECTION('center_axis',(1.,-6.25888230132432E-15,1.90702205659698E-16));
#1606=DIRECTION('ref_axis',(-2.1917877607195E-15,-0.321335224537072,0.946965508068647));
#1607=DIRECTION('',(-1.,6.25888230132432E-15,-1.90702205659698E-16));
#1608=DIRECTION('center_axis',(-1.,6.25888230132432E-15,-1.90702205659698E-16));
#1609=DIRECTION('ref_axis',(-2.1917877607195E-15,-0.321335224537072,0.946965508068647));
#1610=DIRECTION('center_axis',(-6.25888230132432E-15,-1.,-5.55111512310317E-17));
#1611=DIRECTION('ref_axis',(1.90702205659699E-16,5.55111512310305E-17,-1.));
#1612=DIRECTION('',(1.90702205659699E-16,5.55111512310305E-17,-1.));
#1613=DIRECTION('',(-1.90702205659699E-16,-5.55111512310305E-17,1.));
#1614=DIRECTION('center_axis',(1.,-6.25888230132432E-15,1.90702205659698E-16));
#1615=DIRECTION('ref_axis',(-1.90702205659699E-16,-5.55111512310305E-17,
1.));
#1616=DIRECTION('',(1.,-6.25888230132432E-15,1.90702205659698E-16));
#1617=DIRECTION('center_axis',(-1.,6.25888230132432E-15,-1.90702205659698E-16));
#1618=DIRECTION('ref_axis',(-1.90702205659699E-16,-5.55111512310305E-17,
1.));
#1619=DIRECTION('',(1.,-6.25888230132432E-15,1.90702205659698E-16));
#1620=DIRECTION('center_axis',(1.,-6.25888230132432E-15,1.90702205659698E-16));
#1621=DIRECTION('ref_axis',(-1.90702205659699E-16,-5.55111512310305E-17,
1.));
#1622=DIRECTION('center_axis',(4.09417415067746E-15,0.630488181136748,-0.776198849166162));
#1623=DIRECTION('ref_axis',(4.73790175256925E-15,0.776198849166162,0.630488181136748));
#1624=DIRECTION('',(1.,-6.25888230132432E-15,1.90702205659699E-16));
#1625=DIRECTION('',(4.73790175256925E-15,0.776198849166162,0.630488181136748));
#1626=DIRECTION('',(-4.73790175256925E-15,-0.776198849166162,-0.630488181136748));
#1627=DIRECTION('center_axis',(5.32499996941382E-15,0.866025403784439,0.5));
#1628=DIRECTION('ref_axis',(-3.29459410532118E-15,-0.5,0.866025403784439));
#1629=DIRECTION('',(1.,-6.25888230132432E-15,1.90702205659698E-16));
#1630=DIRECTION('',(-3.29459410532118E-15,-0.5,0.866025403784439));
#1631=DIRECTION('center_axis',(3.29459410532119E-15,0.5,-0.866025403784439));
#1632=DIRECTION('ref_axis',(5.32499996941382E-15,0.866025403784439,0.5));
#1633=DIRECTION('',(5.32499996941382E-15,0.866025403784439,0.5));
#1634=DIRECTION('center_axis',(-1.,6.25888230132432E-15,-1.90702205659698E-16));
#1635=DIRECTION('ref_axis',(6.25888230132432E-15,1.,5.55111512310317E-17));
#1636=DIRECTION('center_axis',(1.,-6.25888230132432E-15,1.90702205659698E-16));
#1637=DIRECTION('ref_axis',(6.25888230132432E-15,1.,5.55111512310317E-17));
#1638=DIRECTION('',(1.,-6.25888230132432E-15,1.90702205659698E-16));
#1639=DIRECTION('center_axis',(-1.,6.25888230132432E-15,-1.90702205659698E-16));
#1640=DIRECTION('ref_axis',(6.25888230132432E-15,1.,5.55111512310317E-17));
#1641=DIRECTION('center_axis',(1.,-6.25888230132432E-15,1.90702205659698E-16));
#1642=DIRECTION('ref_axis',(6.25888230132432E-15,1.,5.55111512310317E-17));
#1643=DIRECTION('',(1.,-6.25888230132432E-15,1.90702205659698E-16));
#1644=DIRECTION('center_axis',(-1.,6.25888230132432E-15,-1.90702205659698E-16));
#1645=DIRECTION('ref_axis',(6.25888230132432E-15,1.,5.55111512310317E-17));
#1646=DIRECTION('center_axis',(1.,-6.25888230132432E-15,1.90702205659698E-16));
#1647=DIRECTION('ref_axis',(6.25888230132432E-15,1.,5.55111512310317E-17));
#1648=DIRECTION('',(1.,-6.25888230132432E-15,1.90702205659698E-16));
#1649=DIRECTION('center_axis',(-1.,6.25888230132432E-15,-1.90702205659698E-16));
#1650=DIRECTION('ref_axis',(6.25888230132432E-15,1.,5.55111512310317E-17));
#1651=DIRECTION('center_axis',(1.,-6.25888230132432E-15,1.90702205659698E-16));
#1652=DIRECTION('ref_axis',(6.25888230132432E-15,1.,5.55111512310317E-17));
#1653=DIRECTION('',(1.,-6.25888230132432E-15,1.90702205659698E-16));
#1654=DIRECTION('center_axis',(1.,-6.25888230132432E-15,1.90702205659698E-16));
#1655=DIRECTION('ref_axis',(6.25888230132432E-15,1.,5.55111512310317E-17));
#1656=DIRECTION('',(2.96701495836922E-15,0.446789891369759,-0.894638917647672));
#1657=DIRECTION('',(0.,0.,-1.));
#1658=DIRECTION('',(5.32499996941383E-15,0.86602540378444,0.499999999999997));
#1659=DIRECTION('center_axis',(6.25888230132432E-15,1.,5.55111512310317E-17));
#1660=DIRECTION('ref_axis',(-1.90702205659699E-16,-5.55111512310305E-17,
1.));
#1661=DIRECTION('',(0.,0.,-1.));
#1662=DIRECTION('center_axis',(-3.29459410532116E-15,-0.499999999999997,
0.86602540378444));
#1663=DIRECTION('ref_axis',(-5.32499996941383E-15,-0.86602540378444,-0.499999999999997));
#1664=DIRECTION('',(-1.,6.09823121061056E-15,-2.83454156128894E-16));
#1665=DIRECTION('',(-5.32499996941383E-15,-0.86602540378444,-0.499999999999997));
#1666=DIRECTION('center_axis',(-5.32907051820075E-15,-0.894638917647672,
-0.446789891369759));
#1667=DIRECTION('ref_axis',(0.,0.446789891369759,-0.894638917647672));
#1668=DIRECTION('',(-2.96701495836922E-15,-0.446789891369759,0.894638917647672));
#1669=DIRECTION('center_axis',(1.,-6.25888230132432E-15,1.90702205659698E-16));
#1670=DIRECTION('ref_axis',(6.25888230132432E-15,1.,5.55111512310317E-17));
#1671=DIRECTION('center_axis',(0.,0.,1.));
#1672=DIRECTION('ref_axis',(1.,0.,0.));
#1673=DIRECTION('center_axis',(0.,0.,-1.));
#1674=DIRECTION('ref_axis',(1.,0.,0.));
#1675=DIRECTION('center_axis',(0.,0.,-1.));
#1676=DIRECTION('ref_axis',(1.,0.,0.));
#1677=DIRECTION('',(0.,0.,1.));
#1678=CARTESIAN_POINT('',(0.,0.,0.));
#1679=CARTESIAN_POINT('Origin',(0.,0.,0.));
#1680=CARTESIAN_POINT('',(-10.,-1.22464679914735E-15,0.));
#1681=CARTESIAN_POINT('Origin',(0.,0.,0.));
#1682=CARTESIAN_POINT('Origin',(0.,0.,0.));
#1683=CARTESIAN_POINT('',(-10.,-1.22464679914735E-15,10.));
#1684=CARTESIAN_POINT('',(-10.,-1.22464679914735E-15,0.));
#1685=CARTESIAN_POINT('Origin',(0.,0.,10.));
#1686=CARTESIAN_POINT('Origin',(0.,0.,10.));
#1687=CARTESIAN_POINT('Origin',(-27.2190760907992,-30.0000004470348,68.000001013279));
#1688=CARTESIAN_POINT('',(-27.2190760907992,-18.3380964835683,68.000001013279));
#1689=CARTESIAN_POINT('Origin',(-27.2190760907992,-30.0000004470348,68.000001013279));
#1690=CARTESIAN_POINT('',(22.7809239092008,-18.3380964835683,68.000001013279));
#1691=CARTESIAN_POINT('',(-27.2190760907992,-18.3380964835683,68.000001013279));
#1692=CARTESIAN_POINT('Origin',(22.7809239092008,-30.0000004470348,68.000001013279));
#1693=CARTESIAN_POINT('Origin',(-28.0000004172325,20.7950764304755,35.));
#1694=CARTESIAN_POINT('',(-28.0000004172325,20.7950764304755,35.));
#1695=CARTESIAN_POINT('',(-28.0000004172325,69.1748689391117,35.));
#1696=CARTESIAN_POINT('',(-28.0000004172325,10.3975382152377,35.));
#1697=CARTESIAN_POINT('',(-28.0000004172325,20.7950764304755,15.));
#1698=CARTESIAN_POINT('',(-28.0000004172325,20.7950764304755,35.));
#1699=CARTESIAN_POINT('',(-28.0000004172325,69.1748689391117,15.));
#1700=CARTESIAN_POINT('',(-28.0000004172325,20.7950764304755,15.));
#1701=CARTESIAN_POINT('',(-28.0000004172325,69.1748689391117,35.));
#1702=CARTESIAN_POINT('Origin',(25.000000372529,20.7950764304755,35.));
#1703=CARTESIAN_POINT('',(25.000000372529,20.7950764304755,35.));
#1704=CARTESIAN_POINT('',(12.5000001862645,20.7950764304755,35.));
#1705=CARTESIAN_POINT('',(25.000000372529,20.7950764304755,15.));
#1706=CARTESIAN_POINT('',(25.000000372529,20.7950764304755,35.));
#1707=CARTESIAN_POINT('',(25.000000372529,20.7950764304755,15.));
#1708=CARTESIAN_POINT('Origin',(25.000000372529,69.1748689391117,35.));
#1709=CARTESIAN_POINT('',(25.000000372529,69.1748689391117,35.));
#1710=CARTESIAN_POINT('',(25.000000372529,34.5874344695558,35.));
#1711=CARTESIAN_POINT('',(25.000000372529,69.1748689391117,15.));
#1712=CARTESIAN_POINT('',(25.000000372529,69.1748689391117,35.));
#1713=CARTESIAN_POINT('',(25.000000372529,69.1748689391117,15.));
#1714=CARTESIAN_POINT('Origin',(-28.0000004172325,69.1748689391117,35.));
#1715=CARTESIAN_POINT('',(-14.0000002086163,69.1748689391117,35.));
#1716=CARTESIAN_POINT('',(-28.0000004172325,69.1748689391117,15.));
#1717=CARTESIAN_POINT('Origin',(-1.50000002235174,44.9849726847936,15.));
#1718=CARTESIAN_POINT('Origin',(-30.,70.,35.));
#1719=CARTESIAN_POINT('',(-30.,70.,35.));
#1720=CARTESIAN_POINT('',(-30.,-70.,35.));
#1721=CARTESIAN_POINT('',(-30.,35.,35.));
#1722=CARTESIAN_POINT('',(-30.,70.,15.));
#1723=CARTESIAN_POINT('',(-30.,70.,35.));
#1724=CARTESIAN_POINT('',(-30.,-70.,15.));
#1725=CARTESIAN_POINT('',(-30.,70.,15.));
#1726=CARTESIAN_POINT('',(-30.,-70.,35.));
#1727=CARTESIAN_POINT('Origin',(4.47222222222221,0.,35.));
#1728=CARTESIAN_POINT('Origin',(4.47222222222221,0.,35.));
#1729=CARTESIAN_POINT('Origin',(4.47222222222221,0.,15.));
#1730=CARTESIAN_POINT('Origin',(-51.7777777777778,0.,15.));
#1731=CARTESIAN_POINT('Origin',(30.,-70.,35.));
#1732=CARTESIAN_POINT('',(30.,-70.,35.));
#1733=CARTESIAN_POINT('',(30.,70.,35.));
#1734=CARTESIAN_POINT('',(30.,-35.,35.));
#1735=CARTESIAN_POINT('',(30.,-70.,15.));
#1736=CARTESIAN_POINT('',(30.,-70.,35.));
#1737=CARTESIAN_POINT('',(30.,70.,15.));
#1738=CARTESIAN_POINT('',(30.,-70.,15.));
#1739=CARTESIAN_POINT('',(30.,70.,35.));
#1740=CARTESIAN_POINT('Origin',(-2.58203035603257,0.,35.));
#1741=CARTESIAN_POINT('Origin',(-2.58203035603257,0.,35.));
#1742=CARTESIAN_POINT('Origin',(-2.58203035603257,0.,15.));
#1743=CARTESIAN_POINT('Origin',(52.314647302122,0.,15.));
#1744=CARTESIAN_POINT('Origin',(-25.000000372529,-70.0000010430813,35.));
#1745=CARTESIAN_POINT('',(-25.000000372529,-70.0000010430813,35.));
#1746=CARTESIAN_POINT('',(-25.000000372529,-37.9800515505023,35.));
#1747=CARTESIAN_POINT('',(-25.000000372529,-35.0000005215406,35.));
#1748=CARTESIAN_POINT('',(-25.000000372529,-70.0000010430813,15.));
#1749=CARTESIAN_POINT('',(-25.000000372529,-70.0000010430813,35.));
#1750=CARTESIAN_POINT('',(-25.000000372529,-37.9800515505023,15.));
#1751=CARTESIAN_POINT('',(-25.000000372529,-70.0000010430813,15.));
#1752=CARTESIAN_POINT('',(-25.000000372529,-37.9800515505023,35.));
#1753=CARTESIAN_POINT('Origin',(25.000000372529,-70.0000010430813,35.));
#1754=CARTESIAN_POINT('',(25.000000372529,-70.0000010430813,35.));
#1755=CARTESIAN_POINT('',(12.5000001862645,-70.0000010430813,35.));
#1756=CARTESIAN_POINT('',(25.000000372529,-70.0000010430813,15.));
#1757=CARTESIAN_POINT('',(25.000000372529,-70.0000010430813,35.));
#1758=CARTESIAN_POINT('',(25.000000372529,-70.0000010430813,15.));
#1759=CARTESIAN_POINT('Origin',(25.000000372529,-37.9800515505023,35.));
#1760=CARTESIAN_POINT('',(25.000000372529,-37.9800515505023,35.));
#1761=CARTESIAN_POINT('',(25.000000372529,-18.9900257752512,35.));
#1762=CARTESIAN_POINT('',(25.000000372529,-37.9800515505023,15.));
#1763=CARTESIAN_POINT('',(25.000000372529,-37.9800515505023,35.));
#1764=CARTESIAN_POINT('',(25.000000372529,-37.9800515505023,15.));
#1765=CARTESIAN_POINT('Origin',(-25.000000372529,-37.9800515505023,35.));
#1766=CARTESIAN_POINT('',(-12.5000001862645,-37.9800515505023,35.));
#1767=CARTESIAN_POINT('',(-25.000000372529,-37.9800515505023,15.));
#1768=CARTESIAN_POINT('Origin',(0.,-53.9900262967918,15.));
#1769=CARTESIAN_POINT('Origin',(-5.00000007450581,42.9145252179458,122.031106905647));
#1770=CARTESIAN_POINT('',(-5.00000007450581,26.7967815925992,113.981775738131));
#1771=CARTESIAN_POINT('',(-12.2190760907991,26.7967815925996,113.981775738131));
#1772=CARTESIAN_POINT('',(-8.60953808265183,26.7967815925992,113.981775738131));
#1773=CARTESIAN_POINT('',(-5.00000007450581,16.9699966061633,109.074200055924));
#1774=CARTESIAN_POINT('',(-5.00000007450581,42.9145252179458,122.031106905647));
#1775=CARTESIAN_POINT('',(-23.0000003427267,16.9699966061633,109.074200055924));
#1776=CARTESIAN_POINT('',(-5.00000007450581,16.9699966061633,109.074200055924));
#1777=CARTESIAN_POINT('',(-23.0000003427267,42.9145252179458,122.031106905647));
#1778=CARTESIAN_POINT('',(-23.0000003427267,42.9145252179458,122.031106905647));
#1779=CARTESIAN_POINT('',(-5.00000007450581,42.9145252179458,122.031106905647));
#1780=CARTESIAN_POINT('',(-8.60953808265237,42.9145252179458,122.031106905647));
#1781=CARTESIAN_POINT('',(-5.00000007450581,35.7404685982962,118.448325165946));
#1782=CARTESIAN_POINT('',(-5.00000007450581,42.9145252179458,122.031106905647));
#1783=CARTESIAN_POINT('',(-12.219076090799,35.7404685982962,118.448325165946));
#1784=CARTESIAN_POINT('',(-8.60953808265244,35.7404685982962,118.448325165946));
#1785=CARTESIAN_POINT('',(-12.219076090799,38.0185560962285,119.586020436803));
#1786=CARTESIAN_POINT('Origin',(-5.00000007450581,51.8503231784947,104.13832828607));
#1787=CARTESIAN_POINT('',(-5.00000007450581,45.4386194827454,101.650635094611));
#1788=CARTESIAN_POINT('',(-5.00000007450581,40.7014810695577,109.855599508738));
#1789=CARTESIAN_POINT('',(-5.00000007450581,51.8503231784947,104.13832828607));
#1790=CARTESIAN_POINT('',(-5.00000007450581,52.2514042828445,103.335215297134));
#1791=CARTESIAN_POINT('',(-5.00000007450581,36.2733236966145,96.3590491052858));
#1792=CARTESIAN_POINT('',(-5.00000007450581,51.8503231784947,104.13832828607));
#1793=CARTESIAN_POINT('',(-5.00000007450581,48.3816097438077,103.349771314058));
#1794=CARTESIAN_POINT('Origin',(-23.0000003427267,51.8503231784947,104.13832828607));
#1795=CARTESIAN_POINT('',(-12.219076090799,36.2733236966147,96.3590491052859));
#1796=CARTESIAN_POINT('',(-17.6095382167636,36.2733236966152,96.3590491052862));
#1797=CARTESIAN_POINT('',(-23.0000003427267,51.8503231784947,104.13832828607));
#1798=CARTESIAN_POINT('',(-17.6095382167628,51.8503231784948,104.13832828607));
#1799=CARTESIAN_POINT('',(-23.0000003427267,25.9057945667122,91.1814214363472));
#1800=CARTESIAN_POINT('',(-23.0000003427267,51.8503231784947,104.13832828607));
#1801=CARTESIAN_POINT('',(-12.2190760907991,25.9057945667122,91.1814214363472));
#1802=CARTESIAN_POINT('',(-23.0000003427267,25.9057945667122,91.1814214363472));
#1803=CARTESIAN_POINT('',(-12.219076090799,46.9543540567774,101.693241817226));
#1804=CARTESIAN_POINT('Origin',(-23.0000003427267,42.9145252179458,122.031106905647));
#1805=CARTESIAN_POINT('',(-23.0000003427267,47.7835053025702,112.281604606922));
#1806=CARTESIAN_POINT('',(-23.0000003427267,16.9699966061633,109.074200055924));
#1807=CARTESIAN_POINT('',(-23.0000003427267,38.4075305694999,104.230762113533));
#1808=CARTESIAN_POINT('Origin',(-23.0000003427267,39.9075305694999,104.230762113533));
#1809=CARTESIAN_POINT('',(-23.0000003427268,33.4075305694999,112.891016151378));
#1810=CARTESIAN_POINT('Origin',(-23.0000003427268,34.9075305694999,112.891016151378));
#1811=CARTESIAN_POINT('Origin',(-5.00000007450581,51.8503231784947,104.13832828607));
#1812=CARTESIAN_POINT('',(-5.00000007450581,17.2668974456608,108.47969456055));
#1813=CARTESIAN_POINT('',(-5.00000007450581,14.5659111397357,106.920279389747));
#1814=CARTESIAN_POINT('',(-5.00000007450581,25.9057945667122,91.1814214363472));
#1815=CARTESIAN_POINT('Origin',(-14.0000002086163,21.4378955864377,100.127810746136));
#1816=CARTESIAN_POINT('',(-12.2190760907991,17.2668974456609,108.47969456055));
#1817=CARTESIAN_POINT('',(-13.1095381497078,17.2668974456609,108.47969456055));
#1818=CARTESIAN_POINT('',(-12.2190760907991,21.3464178937949,100.310982983278));
#1819=CARTESIAN_POINT('Origin',(-12.219076090799,35.4386194827454,118.9711431703));
#1820=CARTESIAN_POINT('',(22.780923909201,45.4386194827452,101.650635094611));
#1821=CARTESIAN_POINT('',(-12.219076090799,45.4386194827454,101.650635094611));
#1822=CARTESIAN_POINT('',(22.780923909201,35.4386194827452,118.9711431703));
#1823=CARTESIAN_POINT('',(22.780923909201,35.4386194827452,118.9711431703));
#1824=CARTESIAN_POINT('',(-12.219076090799,35.4386194827454,118.9711431703));
#1825=CARTESIAN_POINT('',(-12.219076090799,35.4386194827454,118.9711431703));
#1826=CARTESIAN_POINT('',(-12.219076090799,37.9386194827454,114.641016151378));
#1827=CARTESIAN_POINT('Origin',(-12.219076090799,45.4386194827454,101.650635094611));
#1828=CARTESIAN_POINT('',(-12.2190760907993,-2.19277772539868,74.150635094611));
#1829=CARTESIAN_POINT('',(-12.219076090799,33.5307701807094,94.775635094611));
#1830=CARTESIAN_POINT('',(22.7809239092007,-2.19277772539889,74.150635094611));
#1831=CARTESIAN_POINT('',(-12.2190760907993,-2.19277772539868,74.150635094611));
#1832=CARTESIAN_POINT('',(22.7809239092007,-2.1927777253989,74.150635094611));
#1833=CARTESIAN_POINT('Origin',(-12.219076090799,37.4075305694999,108.560889132455));
#1834=CARTESIAN_POINT('',(-12.2190760907993,-12.1927777253987,91.4711431702998));
#1835=CARTESIAN_POINT('',(-12.2190760907993,-0.284928423362661,98.3461431702998));
#1836=CARTESIAN_POINT('',(-12.2190760907993,-4.69277772539867,78.4807621135332));
#1837=CARTESIAN_POINT('',(-12.2190760907993,-8.16168881215314,88.8910161513776));
#1838=CARTESIAN_POINT('Origin',(-12.2190760907993,-6.66168881215314,88.8910161513776));
#1839=CARTESIAN_POINT('',(-12.2190760907993,-3.16168881215314,80.2307621135332));
#1840=CARTESIAN_POINT('Origin',(-12.2190760907993,-1.66168881215314,80.2307621135332));
#1841=CARTESIAN_POINT('Origin',(-12.219076090799,37.4075305694999,108.560889132455));
#1842=CARTESIAN_POINT('',(-12.2190760907993,-0.284928423362661,98.3461431702998));
#1843=CARTESIAN_POINT('Origin',(0.,0.,35.));
#1844=CARTESIAN_POINT('',(-81.1249036566114,15.0000002235174,35.));
#1845=CARTESIAN_POINT('',(-80.9336147244802,-16.0000002384186,35.));
#1846=CARTESIAN_POINT('Origin',(0.,0.,35.));
#1847=CARTESIAN_POINT('',(-141.000002101064,15.0000002235174,35.));
#1848=CARTESIAN_POINT('',(-37.000000551343,15.0000002235174,35.));
#1849=CARTESIAN_POINT('',(-141.000002101064,-16.0000002384186,35.));
#1850=CARTESIAN_POINT('Origin',(-127.357144754912,-0.500000007450579,35.));
#1851=CARTESIAN_POINT('',(-70.5000010505319,-16.0000002384186,35.));
#1852=CARTESIAN_POINT('',(-83.0000013411045,10.0000001490116,35.));
#1853=CARTESIAN_POINT('',(-138.000002160668,10.0000001490116,35.));
#1854=CARTESIAN_POINT('',(-69.0000010803342,10.0000001490116,35.));
#1855=CARTESIAN_POINT('',(-83.0000013411045,-10.0000001490116,35.));
#1856=CARTESIAN_POINT('',(-83.0000013411045,5.00000007450581,35.));
#1857=CARTESIAN_POINT('',(-138.000002160668,-10.0000001490116,35.));
#1858=CARTESIAN_POINT('',(-65.5000010281801,-10.0000001490116,35.));
#1859=CARTESIAN_POINT('',(-138.000002160668,-5.00000007450581,35.));
#1860=CARTESIAN_POINT('',(-27.2190760907992,13.7073623417587,35.));
#1861=CARTESIAN_POINT('',(-27.2190760907994,-32.2025295020762,35.));
#1862=CARTESIAN_POINT('',(-27.2190760907992,4.41198939687238,35.));
#1863=CARTESIAN_POINT('',(22.7809239092008,13.7073623417584,35.));
#1864=CARTESIAN_POINT('',(-6.10953804539954,13.7073623417586,35.));
#1865=CARTESIAN_POINT('',(22.7809239092006,-32.2025295020765,35.));
#1866=CARTESIAN_POINT('',(22.7809239092008,4.41198939687207,35.));
#1867=CARTESIAN_POINT('',(-6.10953804539982,-32.2025295020763,35.));
#1868=CARTESIAN_POINT('Origin',(-83.0000013411045,10.0000001490116,40.));
#1869=CARTESIAN_POINT('',(-83.0000013411045,10.0000001490116,9.));
#1870=CARTESIAN_POINT('',(-83.0000013411045,10.0000001490116,40.));
#1871=CARTESIAN_POINT('',(-83.0000013411045,-10.0000001490116,9.));
#1872=CARTESIAN_POINT('',(-83.0000013411045,10.0000001490116,9.));
#1873=CARTESIAN_POINT('',(-83.0000013411045,-10.0000001490116,40.));
#1874=CARTESIAN_POINT('Origin',(-138.000002160668,10.0000001490116,40.));
#1875=CARTESIAN_POINT('',(-138.000002160668,10.0000001490116,9.));
#1876=CARTESIAN_POINT('',(-138.000002160668,10.0000001490116,40.));
#1877=CARTESIAN_POINT('',(-131.00000205636,10.0000001490116,9.));
#1878=CARTESIAN_POINT('',(-138.000002160668,10.0000001490116,9.));
#1879=CARTESIAN_POINT('',(-131.00000205636,10.0000001490116,0.));
#1880=CARTESIAN_POINT('',(-131.00000205636,10.0000001490116,40.));
#1881=CARTESIAN_POINT('',(-90.0000014454126,10.0000001490116,0.));
#1882=CARTESIAN_POINT('',(-65.5000010281801,10.0000001490116,0.));
#1883=CARTESIAN_POINT('',(-90.0000014454126,10.0000001490116,9.));
#1884=CARTESIAN_POINT('',(-90.0000014454126,10.0000001490116,40.));
#1885=CARTESIAN_POINT('',(-90.0000014454126,10.0000001490116,9.));
#1886=CARTESIAN_POINT('Origin',(-74.0000011026859,15.0000002235174,0.));
#1887=CARTESIAN_POINT('',(-81.1249036566114,15.0000002235174,0.));
#1888=CARTESIAN_POINT('',(-81.1249036566114,15.0000002235174,0.));
#1889=CARTESIAN_POINT('',(-141.000002101064,15.0000002235174,0.));
#1890=CARTESIAN_POINT('',(-141.000002101064,15.0000002235174,0.));
#1891=CARTESIAN_POINT('',(-141.000002101064,15.0000002235174,0.));
#1892=CARTESIAN_POINT('Origin',(0.,0.,0.));
#1893=CARTESIAN_POINT('',(-80.9336147244802,-16.0000002384186,0.));
#1894=CARTESIAN_POINT('',(-80.9336147244802,-16.0000002384186,0.));
#1895=CARTESIAN_POINT('Origin',(0.,0.,0.));
#1896=CARTESIAN_POINT('Origin',(0.,0.,0.));
#1897=CARTESIAN_POINT('',(-141.000002101064,-16.0000002384186,0.));
#1898=CARTESIAN_POINT('',(-74.0000011026859,-16.0000002384186,0.));
#1899=CARTESIAN_POINT('Origin',(-127.357144754912,-0.500000007450579,0.));
#1900=CARTESIAN_POINT('',(-20.,-2.44929359829471E-15,0.));
#1901=CARTESIAN_POINT('Origin',(0.,0.,0.));
#1902=CARTESIAN_POINT('',(-131.00000205636,-10.0000001490116,0.));
#1903=CARTESIAN_POINT('',(-131.00000205636,-5.00000007450581,0.));
#1904=CARTESIAN_POINT('',(-90.0000014454126,-10.0000001490116,0.));
#1905=CARTESIAN_POINT('',(-45.0000007227063,-10.0000001490116,0.));
#1906=CARTESIAN_POINT('',(-90.0000014454126,5.00000007450581,0.));
#1907=CARTESIAN_POINT('',(-136.299996796995,5.00000007450581,0.));
#1908=CARTESIAN_POINT('Origin',(-134.299996796995,5.00000007450581,0.));
#1909=CARTESIAN_POINT('',(-88.5000014230609,5.00000007450581,0.));
#1910=CARTESIAN_POINT('Origin',(-86.5000014230609,5.00000007450581,0.));
#1911=CARTESIAN_POINT('',(-136.299996796995,-5.00000007450581,0.));
#1912=CARTESIAN_POINT('Origin',(-134.299996796995,-5.00000007450581,0.));
#1913=CARTESIAN_POINT('',(-88.5000014230609,-5.00000007450581,0.));
#1914=CARTESIAN_POINT('Origin',(-86.5000014230609,-5.00000007450581,0.));
#1915=CARTESIAN_POINT('Origin',(-127.357144754912,-0.500000007450579,0.));
#1916=CARTESIAN_POINT('',(-141.000002101064,-16.0000002384186,0.));
#1917=CARTESIAN_POINT('Origin',(-141.000002101064,-16.0000002384186,0.));
#1918=CARTESIAN_POINT('Origin',(-131.00000205636,-10.0000001490116,40.));
#1919=CARTESIAN_POINT('',(-90.0000014454126,-10.0000001490116,9.));
#1920=CARTESIAN_POINT('',(-83.0000013411045,-10.0000001490116,9.));
#1921=CARTESIAN_POINT('',(-90.0000014454126,-10.0000001490116,40.));
#1922=CARTESIAN_POINT('',(-131.00000205636,-10.0000001490116,9.));
#1923=CARTESIAN_POINT('',(-131.00000205636,-10.0000001490116,40.));
#1924=CARTESIAN_POINT('',(-138.000002160668,-10.0000001490116,9.));
#1925=CARTESIAN_POINT('',(-131.00000205636,-10.0000001490116,9.));
#1926=CARTESIAN_POINT('',(-138.000002160668,-10.0000001490116,40.));
#1927=CARTESIAN_POINT('Origin',(-138.000002160668,-10.0000001490116,40.));
#1928=CARTESIAN_POINT('',(-138.000002160668,-10.0000001490116,9.));
#1929=CARTESIAN_POINT('Origin',(-131.00000205636,-10.0000001490116,40.));
#1930=CARTESIAN_POINT('',(-131.00000205636,-5.00000007450581,9.));
#1931=CARTESIAN_POINT('Origin',(-134.299996796995,5.00000007450581,40.));
#1932=CARTESIAN_POINT('',(-136.299996796995,5.00000007450581,9.));
#1933=CARTESIAN_POINT('Origin',(-134.299996796995,5.00000007450581,9.));
#1934=CARTESIAN_POINT('',(-136.299996796995,5.00000007450581,40.));
#1935=CARTESIAN_POINT('Origin',(-86.5000014230609,5.00000007450581,40.));
#1936=CARTESIAN_POINT('',(-88.5000014230609,5.00000007450581,9.));
#1937=CARTESIAN_POINT('Origin',(-86.5000014230609,5.00000007450581,9.));
#1938=CARTESIAN_POINT('',(-88.5000014230609,5.00000007450581,40.));
#1939=CARTESIAN_POINT('Origin',(-134.299996796995,-5.00000007450581,40.));
#1940=CARTESIAN_POINT('',(-136.299996796995,-5.00000007450581,9.));
#1941=CARTESIAN_POINT('Origin',(-134.299996796995,-5.00000007450581,9.));
#1942=CARTESIAN_POINT('',(-136.299996796995,-5.00000007450581,40.));
#1943=CARTESIAN_POINT('Origin',(-86.5000014230609,-5.00000007450581,40.));
#1944=CARTESIAN_POINT('',(-88.5000014230609,-5.00000007450581,9.));
#1945=CARTESIAN_POINT('Origin',(-86.5000014230609,-5.00000007450581,9.));
#1946=CARTESIAN_POINT('',(-88.5000014230609,-5.00000007450581,40.));
#1947=CARTESIAN_POINT('Origin',(-90.0000014454126,10.0000001490116,40.));
#1948=CARTESIAN_POINT('',(-90.0000014454126,5.00000007450581,9.));
#1949=CARTESIAN_POINT('Origin',(-86.5000013932586,0.,9.));
#1950=CARTESIAN_POINT('Origin',(-134.500002108514,0.,9.));
#1951=CARTESIAN_POINT('Origin',(-12.2190760907994,-22.4364017292455,67.9693946210414));
#1952=CARTESIAN_POINT('',(-27.2190760907994,-32.2025295020762,48.7991803646641));
#1953=CARTESIAN_POINT('',(22.7809239092005,-32.2025295020765,48.7991803646641));
#1954=CARTESIAN_POINT('',(-12.2190760907994,-32.2025295020763,48.7991803646641));
#1955=CARTESIAN_POINT('',(22.7809239092006,-29.3497733169264,88.3428984827074));
#1956=CARTESIAN_POINT('Origin',(22.7809239092006,-22.4364017292458,67.9693946210414));
#1957=CARTESIAN_POINT('',(-27.2190760907994,-29.3497733169261,88.3428984827074));
#1958=CARTESIAN_POINT('',(-12.2190760907994,-29.3497733169262,88.3428984827074));
#1959=CARTESIAN_POINT('Origin',(-27.2190760907994,-22.4364017292454,67.9693946210414));
#1960=CARTESIAN_POINT('Origin',(-12.2190760907994,-32.2025295020763,48.7991803646641));
#1961=CARTESIAN_POINT('',(22.7809239092005,-32.2025295020765,48.7991803646641));
#1962=CARTESIAN_POINT('',(-27.2190760907994,-32.2025295020762,48.7991803646641));
#1963=CARTESIAN_POINT('Origin',(-12.219076090799,38.6299718812725,63.3277553420506));
#1964=CARTESIAN_POINT('',(-27.219076090799,38.6299718812726,88.3428984827074));
#1965=CARTESIAN_POINT('',(22.780923909201,38.6299718812722,88.3428984827074));
#1966=CARTESIAN_POINT('',(-12.219076090799,38.6299718812725,88.3428984827074));
#1967=CARTESIAN_POINT('',(22.7809239092008,13.7073623417584,61.17812279469));
#1968=CARTESIAN_POINT('Origin',(22.780923909201,38.6299718812722,63.3277553420506));
#1969=CARTESIAN_POINT('',(-27.2190760907992,13.7073623417587,61.17812279469));
#1970=CARTESIAN_POINT('',(-12.2190760907992,13.7073623417586,61.17812279469));
#1971=CARTESIAN_POINT('Origin',(-27.219076090799,38.6299718812726,63.3277553420506));
#1972=CARTESIAN_POINT('Origin',(-12.219076090799,38.6299718812725,88.3428984827074));
#1973=CARTESIAN_POINT('',(-27.2190760907989,53.6469417864654,100.540832107424));
#1974=CARTESIAN_POINT('',(22.7809239092011,53.6469417864651,100.540832107424));
#1975=CARTESIAN_POINT('',(5.28092390920108,53.6469417864652,100.540832107424));
#1976=CARTESIAN_POINT('',(22.780923909201,38.6299718812722,88.3428984827074));
#1977=CARTESIAN_POINT('',(-27.219076090799,38.6299718812726,88.3428984827074));
#1978=CARTESIAN_POINT('Origin',(-12.2190760907993,-2.19277772539868,74.150635094611));
#1979=CARTESIAN_POINT('',(22.7809239092007,-12.1927777253989,91.4711431702998));
#1980=CARTESIAN_POINT('',(-12.2190760907993,-12.1927777253987,91.4711431702998));
#1981=CARTESIAN_POINT('',(22.7809239092007,-2.1927777253989,74.150635094611));
#1982=CARTESIAN_POINT('Origin',(-12.2190760907993,-12.1927777253987,91.4711431702998));
#1983=CARTESIAN_POINT('',(22.7809239092007,-12.1927777253989,91.4711431702998));
#1984=CARTESIAN_POINT('Origin',(-12.219076090799,39.9075305694999,104.230762113533));
#1985=CARTESIAN_POINT('',(-27.219076090799,38.4075305695,104.230762113533));
#1986=CARTESIAN_POINT('Origin',(-27.219076090799,39.9075305695,104.230762113533));
#1987=CARTESIAN_POINT('',(-12.219076090799,38.4075305694999,104.230762113533));
#1988=CARTESIAN_POINT('Origin',(-12.219076090799,34.9075305694999,112.891016151378));
#1989=CARTESIAN_POINT('',(-27.219076090799,33.4075305695,112.891016151378));
#1990=CARTESIAN_POINT('Origin',(-27.219076090799,34.9075305695,112.891016151378));
#1991=CARTESIAN_POINT('',(-12.219076090799,33.4075305694999,112.891016151378));
#1992=CARTESIAN_POINT('Origin',(-12.2190760907993,-1.66168881215314,80.2307621135332));
#1993=CARTESIAN_POINT('',(-27.2190760907993,-3.16168881215305,80.2307621135332));
#1994=CARTESIAN_POINT('Origin',(-27.2190760907993,-1.66168881215305,80.2307621135332));
#1995=CARTESIAN_POINT('',(-12.2190760907993,-3.16168881215314,80.2307621135332));
#1996=CARTESIAN_POINT('Origin',(-12.2190760907993,-6.66168881215314,88.8910161513776));
#1997=CARTESIAN_POINT('',(-27.2190760907993,-8.16168881215305,88.8910161513776));
#1998=CARTESIAN_POINT('Origin',(-27.2190760907993,-6.66168881215305,88.8910161513776));
#1999=CARTESIAN_POINT('',(-12.2190760907993,-8.16168881215314,88.8910161513776));
#2000=CARTESIAN_POINT('Origin',(-27.2190760907992,8.82397879374459,85.5811593965783));
#2001=CARTESIAN_POINT('',(-27.219076090799,39.8003883124307,128.266762913923));
#2002=CARTESIAN_POINT('',(-27.2190760907989,51.6657140616327,104.507984143751));
#2003=CARTESIAN_POINT('',(-27.2190760907992,13.7073623417587,40.));
#2004=CARTESIAN_POINT('',(-27.219076090799,39.932258985829,128.342898482707));
#2005=CARTESIAN_POINT('Origin',(-12.2190760907992,13.7073623417586,37.8864140731245));
#2006=CARTESIAN_POINT('',(22.7809239092008,13.7073623417584,40.));
#2007=CARTESIAN_POINT('Origin',(-12.219076090799,48.4764764229296,133.275904720032));
#2008=CARTESIAN_POINT('',(22.780923909201,39.8003883124304,128.266762913923));
#2009=CARTESIAN_POINT('',(-12.219076090799,39.8003883124306,128.266762913923));
#2010=CARTESIAN_POINT('',(22.780923909201,39.9322589858287,128.342898482707));
#2011=CARTESIAN_POINT('Origin',(-12.2190760907989,52.6524853871944,102.532102308198));
#2012=CARTESIAN_POINT('',(22.7809239092011,51.6657140616324,104.507984143751));
#2013=CARTESIAN_POINT('Origin',(22.7809239092008,8.82397879374428,85.5811593965783));
#2014=CARTESIAN_POINT('Origin',(0.,0.,-10.));
#2015=CARTESIAN_POINT('',(-20.,-2.44929359829471E-15,-10.));
#2016=CARTESIAN_POINT('Origin',(0.,0.,-10.));
#2017=CARTESIAN_POINT('Origin',(0.,0.,0.));
#2018=CARTESIAN_POINT('',(-20.,2.44929359829471E-15,0.));
#2019=UNCERTAINTY_MEASURE_WITH_UNIT(LENGTH_MEASURE(0.01),#2023,
'DISTANCE_ACCURACY_VALUE',
'Maximum model space distance between geometric entities at asserted c
onnectivities');
#2020=UNCERTAINTY_MEASURE_WITH_UNIT(LENGTH_MEASURE(0.01),#2023,
'DISTANCE_ACCURACY_VALUE',
'Maximum model space distance between geometric entities at asserted c
onnectivities');
#2021=(
GEOMETRIC_REPRESENTATION_CONTEXT(3)
GLOBAL_UNCERTAINTY_ASSIGNED_CONTEXT((#2019))
GLOBAL_UNIT_ASSIGNED_CONTEXT((#2023,#2025,#2026))
REPRESENTATION_CONTEXT('','3D')
);
#2022=(
GEOMETRIC_REPRESENTATION_CONTEXT(3)
GLOBAL_UNCERTAINTY_ASSIGNED_CONTEXT((#2020))
GLOBAL_UNIT_ASSIGNED_CONTEXT((#2023,#2025,#2026))
REPRESENTATION_CONTEXT('','3D')
);
#2023=(
LENGTH_UNIT()
NAMED_UNIT(*)
SI_UNIT(.MILLI.,.METRE.)
);
#2024=(
LENGTH_UNIT()
NAMED_UNIT(*)
SI_UNIT($,.METRE.)
);
#2025=(
NAMED_UNIT(*)
PLANE_ANGLE_UNIT()
SI_UNIT($,.RADIAN.)
);
#2026=(
NAMED_UNIT(*)
SI_UNIT($,.STERADIAN.)
SOLID_ANGLE_UNIT()
);
#2027=SHAPE_DEFINITION_REPRESENTATION(#2028,#2029);
#2028=PRODUCT_DEFINITION_SHAPE('',$,#2031);
#2029=SHAPE_REPRESENTATION('',(#1247),#2021);
#2030=PRODUCT_DEFINITION_CONTEXT('part definition',#2035,'design');
#2031=PRODUCT_DEFINITION('2026-08-06-23-43-50-747','final base linkage',
#2032,#2030);
#2032=PRODUCT_DEFINITION_FORMATION('',$,#2037);
#2033=PRODUCT_RELATED_PRODUCT_CATEGORY('final base linkage',
'final base linkage',(#2037));
#2034=APPLICATION_PROTOCOL_DEFINITION('international standard',
'automotive_design',2009,#2035);
#2035=APPLICATION_CONTEXT(
'Core Data for Automotive Mechanical Design Process');
#2036=PRODUCT_CONTEXT('part definition',#2035,'mechanical');
#2037=PRODUCT('2026-08-06-23-43-50-747','final base linkage',$,(#2036));
#2038=PRESENTATION_STYLE_ASSIGNMENT((#2039));
#2039=SURFACE_STYLE_USAGE(.BOTH.,#2040);
#2040=SURFACE_SIDE_STYLE('',(#2041));
#2041=SURFACE_STYLE_FILL_AREA(#2042);
#2042=FILL_AREA_STYLE('Steel - Satin',(#2043));
#2043=FILL_AREA_STYLE_COLOUR('Steel - Satin',#2044);
#2044=COLOUR_RGB('Steel - Satin',0.627450980392157,0.627450980392157,0.627450980392157);
ENDSEC;
END-ISO-10303-21;
